<?xml version="1.0" encoding="UTF-8"?>
<svg width="33px" height="75px" viewBox="0 0 33 75" version="1.1" xmlns="http://www.w3.org/2000/svg" xmlns:xlink="http://www.w3.org/1999/xlink">
    <title>Group 2</title>
    <g id="Page-1" stroke="none" stroke-width="1" fill="none" fill-rule="evenodd">
        <g id="Group-2">
            <path d="M22.6417876,11.8334968 C22.6279001,11.8637919 22.1785416,11.8887446 22.1353251,11.896465 C21.7123196,11.9720399 21.2979442,12.0964779 20.9068468,12.2719615 C20.0415587,12.66026 19.4553094,13.341281 18.7750222,13.9633731 C18.2178043,14.4729173 17.6219991,14.9423937 17.0225898,15.4024233 C16.0058292,16.182734 14.9628477,16.9310557 13.9053836,17.6569004 C13.8460312,17.6976197 13.7866788,17.738404 13.727095,17.7787975 C13.727095,17.7787975 11.5487143,16.2686027 10.7253201,15.9884218 C9.90195889,15.708241 5.91992752,13.7182759 5.49404535,13.5502195 C5.49404535,13.5502195 5.46554298,13.7740124 4.58534241,13.5497635 C3.70514183,13.3255145 1.57569791,12.6250135 1.57569791,12.6250135 L0.922656532,12.4008948 C1.10054831,12.4619411 1.33266732,12.8035266 1.44422993,12.9410273 C1.98491512,13.607259 2.6405356,14.2278526 3.41800202,14.6165747 C4.17430659,14.9947098 5.03023718,15.1444262 5.76726463,15.5638994 C6.44470826,15.9494291 6.98208691,16.5171203 7.56526113,17.0203448 C8.24650728,17.6082002 11.9081681,20.7154032 13.6688338,20.6323686 C15.4294995,20.5493013 20.5432268,16.3274339 20.5432268,16.3274339 L22.6417876,11.8334968" id="Fill-32" fill="#ED9F94"></path>
            <path d="M26.4823322,8.74873825 C26.4823322,8.74873825 26.6231907,10.6232561 26.9349973,11.9382918 C27.2464733,13.25336 27.7001304,14.932165 27.6997999,15.4917124 C27.6994691,16.0512272 22.3914826,11.9080618 22.3914826,11.9080618 C22.3914826,11.9080618 22.9033348,10.1457987 21.9381231,9.6697095 C20.9728453,9.19362026 24.3039846,6.59345313 24.3039846,6.59345313 L26.4823322,8.74873825" id="Fill-33" fill="#EFAA9E"></path>
            <path d="M24.8498941,12.0356596 C24.8498941,12.0356596 28.1643684,12.2205901 28.2490158,16.0593385 C28.3336632,19.8980543 26.3275862,23.1155575 25.7674586,24.6322674 C25.2076616,26.1489772 25.1825319,28.4572689 25.6616493,29.3713342 C26.1407668,30.2857252 17.8738251,30.8831577 17.8738251,30.8831577 C17.8738251,30.8831577 17.3231211,27.8038067 17.3231211,27.0223233 C17.3231211,26.2411656 16.9462749,23.5110226 17.227992,22.0493 C17.227992,22.0493 14.4771833,20.3297758 16.2967054,18.1834489 C18.1162605,16.0371546 21.2538019,13.4172468 22.087744,12.7737527 C22.9215208,12.1302585 23.792463,11.8950643 24.8498941,12.0356596" id="Fill-80" fill="#ED9F94"></path>
            <path d="M25.5240973,25.4880227 C25.5895668,25.1867004 25.6699157,24.8971052 25.7674586,24.6322674 C26.3275862,23.1155575 28.3336632,19.8980543 28.2490158,16.0593385 C28.1643684,12.2205901 24.8502247,12.035627 24.8502247,12.035627 C23.792463,11.8950643 22.9215208,12.1302585 22.087744,12.7737527 C21.2537688,13.4172468 18.1162605,15.6325032 16.2967054,17.7788301 C14.4771833,19.9251244 17.0431895,22.334074 17.0431895,22.334074 C16.8672155,23.247162 17.1330282,24.3703613 17.2186014,25.4889999 C18.0608429,25.7404819 21.5885559,26.6424943 25.5240973,25.4880227" id="Fill-81" fill="#DC3965"></path>
            <path d="M25.5240973,25.4880227 C25.5895668,25.1867004 25.6699157,24.8971052 25.7674586,24.6322674 C25.8990588,24.2758927 26.1110079,23.8243978 26.3566837,23.2940706 C20.8903141,24.6381309 17.8794793,23.8257008 17.0046022,23.5061363 C17.0507945,24.137773 17.1669533,24.8137122 17.2186014,25.4889999 C18.0608429,25.7404819 21.5885559,26.6424943 25.5240973,25.4880227" id="Fill-82" fill="#CA295A"></path>
            <path d="M21.6191413,75 C18.3485779,75 15.697296,74.6517691 15.697296,74.2220998 C15.697296,73.9575877 16.7021531,73.7240222 18.237875,73.5836223 C18.9172033,73.6191295 19.6584632,73.6386747 20.4347723,73.6386747 C21.691786,73.6386747 22.8573739,73.5872056 23.8159395,73.4995778 C25.9989163,73.6142432 27.5410859,73.8947172 27.5410859,74.2220998 C27.5410859,74.6517691 24.8895726,75 21.6191413,75" id="Fill-83" fill="#BEBEBE"></path>
            <path d="M18.237875,73.5836223 C16.0551296,73.468957 14.512927,73.1884829 14.512927,72.8607745 C14.512927,72.431431 17.1642419,72.0832001 20.4347723,72.0832001 C23.7051704,72.0832001 26.3566837,72.431431 26.3566837,72.8607745 C26.3566837,73.1252867 25.3518266,73.3591779 23.8159395,73.4995778 C23.1367764,73.4640707 22.3954505,73.4441997 21.6191413,73.4441997 C20.3621276,73.4441997 19.1965397,73.4956688 18.237875,73.5836223" id="Fill-84" fill="#BEBEBE"></path>
            <path d="M20.4347723,73.6386747 C19.6584632,73.6386747 18.9172033,73.6191295 18.237875,73.5836223 C19.1965397,73.4956688 20.3621276,73.4441997 21.6191413,73.4441997 C22.3954505,73.4441997 23.1367764,73.4640707 23.8159395,73.4995778 C22.8573739,73.5872056 21.691786,73.6386747 20.4347723,73.6386747" id="Fill-85" fill="#96979B"></path>
            <path d="M25.9119543,65.7368639 C24.7328426,65.7704165 23.5206656,65.765856 22.3954505,65.4599731 C22.391152,66.6506034 22.3944585,67.5275327 22.4357903,67.746765 C22.5693744,68.4565827 23.1605835,69.2800884 23.1605835,69.2800884 C24.7698759,70.3332505 25.6738835,69.1471808 25.6738835,69.1471808 C25.6117206,68.4797112 25.6947147,67.2118772 25.9119543,65.7368639" id="Fill-86" fill="#EFAA9E"></path>
            <path d="M25.8530979,46.4473504 C26.1943327,45.2459702 26.3890878,41.0632909 26.3890878,41.0632909 C26.650635,40.7671807 26.891351,40.450548 27.1095826,40.1186048 C27.0325402,40.0915672 26.9554979,40.0635524 26.8781249,40.0368406 C25.2721391,39.481756 23.6281281,39.0208144 21.9555155,38.7067877 C21.9028093,38.6970151 21.469289,38.6227432 21.454608,38.6181826 C21.2923892,38.5934253 21.1298067,38.5702968 20.9670589,38.5491228 C20.5275868,38.4921159 20.0865276,38.4474876 19.6442781,38.417844 C19.0285345,38.376799 18.5051756,38.2634367 17.8896634,38.2901485 C17.7463911,41.3782949 18.6013297,44.7576652 19.3980071,46.5229253 C20.4584471,48.8729134 21.8060269,53.7533574 22.1869732,56.5893703 C22.47613,58.7426032 22.3924746,63.6478045 22.3941279,66.195851 C23.9081919,67.3636785 25.584607,66.6157477 25.8084596,66.5069459 C25.9896579,65.0159706 26.3279168,63.205105 26.8096795,61.5593967 C27.6597906,58.6562784 26.8424143,56.7672319 26.0009002,53.9188404 C25.1593861,51.0701231 25.5118631,47.6490563 25.8530979,46.4473504" id="Fill-87" fill="#395B52"></path>
            <path d="M21.4378108,67.4164507 C21.4378108,67.4164507 22.0443291,66.4913098 22.4443873,66.8385633 C22.8441478,67.1861427 22.7978562,68.8328283 23.5064475,69.1214462 C24.2153693,69.4097384 25.1984033,69.3612011 25.6702463,68.3650458 C25.6702463,68.3650458 26.3940476,69.6377661 26.3570144,70.9485995 C26.3570144,70.9485995 27.6260639,71.9587622 26.306755,72.7298215 C24.9877767,73.5008808 22.9039961,72.3340306 21.428321,72.5962624 C19.9528112,72.85882 16.3583062,73.197604 15.2277345,70.9130924 C15.2277345,70.9130924 15.0448168,70.1342149 15.7678906,69.9185659 C16.4909645,69.7029168 20.3574654,69.4051778 21.4378108,67.4164507" id="Fill-88" fill="#D2235C"></path>
            <path d="M24.3506068,71.583168 C22.3795791,71.5545017 21.683718,71.7118408 20.5244787,71.9577849 C19.3652724,72.2034033 17.0461323,72.7203746 15.2074654,70.7274127 C15.2101106,70.8375175 15.2277345,70.9130924 15.2277345,70.9130924 C16.3583062,73.197604 19.9528112,72.85882 21.428321,72.5962624 C22.9039961,72.3340306 24.9877767,73.5008808 26.306755,72.7298215 C27.6260639,71.9587622 26.3570144,70.9485995 26.3570144,70.9485995 C26.3570144,70.9485995 26.3213038,71.6118343 24.3506068,71.583168" id="Fill-89" fill="#1B404E"></path>
            <path d="M26.5068006,67.3620498 C25.3964649,67.4708515 24.2722418,67.4408822 23.1311553,67.2193696 C23.0465079,67.2027561 22.968143,67.1763701 22.8927539,67.1454235 C22.89077,68.1783889 22.897383,68.9224106 22.9357389,69.1250295 C23.0746135,69.864165 23.6899603,70.7208976 23.6899603,70.7208976 C25.3647221,71.8167335 26.3054324,70.5824522 26.3054324,70.5824522 C26.2452534,69.9381111 26.3156827,68.7552989 26.5068006,67.3620498" id="Fill-90" fill="#EFAA9E"></path>
            <path d="M25.3958036,28.6432744 C21.6436428,29.7573525 18.9416386,29.8449803 17.6950405,29.7140272 C17.8479349,30.5476313 18.0050947,31.248002 18.117021,31.7330495 C18.9153517,31.8385938 22.5419301,32.3646862 26.3461028,30.5997519 C25.875913,29.9945013 25.6411488,29.3599328 25.3958036,28.6432744" id="Fill-92" fill="#395B52"></path>
            <path d="M21.8972874,68.781685 C21.8972874,68.781685 22.5283733,67.8190824 22.9446665,68.1803434 C23.3606291,68.5416044 23.3123536,70.2553954 24.0500424,70.5557404 C24.7877312,70.8560854 25.8104436,70.8052678 26.3017952,69.7687191 C26.3017952,69.7687191 27.054694,71.0929085 27.0163382,72.4571655 C27.0163382,72.4571655 28.3369697,73.5083732 26.9640949,74.3107049 C25.59122,75.1133623 23.422792,73.898952 21.8874008,74.1719337 C20.3519766,74.4449155 16.6114878,74.7973811 15.4350214,72.4200296 C15.4350214,72.4200296 15.244697,71.6098798 15.997133,71.3854354 C16.7495689,71.160991 20.7730643,70.8511991 21.8972874,68.781685" id="Fill-93" fill="#DC3965"></path>
            <path d="M24.9282591,73.1174686 C22.8772132,73.0874992 22.1531804,73.2513534 20.9468559,73.5073959 C19.7405976,73.7631127 17.3272873,74.3006065 15.4139257,72.2271833 C15.4166701,72.3418487 15.4350214,72.4200296 15.4350214,72.4200296 C16.6115209,74.7973811 20.3519766,74.4449155 21.8874008,74.1719337 C23.422792,73.898952 25.59122,75.1133623 26.9640949,74.3107049 C28.3369697,73.5083732 27.0163382,72.4571655 27.0163382,72.4571655 C27.0163382,72.4571655 26.9793049,73.1474379 24.9282591,73.1174686" id="Fill-94" fill="#1B404E"></path>
            <path d="M3.29420521,11.7306237 C3.29420521,11.7306237 4.62865806,12.1509439 4.64261166,12.6125697 C4.65656525,13.0741954 2.76813492,13.0872256 2.76813492,13.0872256 L3.26213179,11.7306237" id="Fill-95" fill="#DA897F"></path>
            <path d="M25.23213,5.25180337 L25.5756793,7.85167733 C25.1722816,8.55155945 24.2004899,9.86959205 22.4357903,10.276654 C22.3515066,10.0206115 22.1987445,9.79825196 21.9381231,9.6697095 C20.9728453,9.19362026 25.23213,5.25180337 25.23213,5.25180337" id="Fill-96" fill="#ED9F94"></path>
            <path d="M28.4718765,3.22750387 C28.5006434,3.21587446 28.5885973,2.77955977 28.6077752,2.73310727 C28.7552468,2.37702575 28.9860432,2.08140415 29.3140519,1.8755603 C30.0510793,1.41302242 31.1200832,1.47361264 31.8349569,1.94100424 C32.9479378,2.66893377 33.4680563,4.69890138 32.4651831,5.70378682 C31.4801653,6.69114671 29.6136243,6.21909682 28.7813685,5.26874257 C27.3790655,3.66769504 28.4636101,3.23079399 28.4718765,3.22750387" id="Fill-97" fill="#131518"></path>
            <path d="M28.7625212,5.13274035 C28.7625212,5.13274035 28.7641745,5.14668261 28.7694649,5.17264519 C28.7750861,5.19841232 28.7826911,5.23678612 28.7979012,5.28398785 C28.8127806,5.33125473 28.8319585,5.38875029 28.8610561,5.45191396 C28.8891616,5.51550111 28.9245416,5.58618969 28.9711638,5.65876764 C28.992987,5.69590358 29.0197699,5.73219256 29.0462222,5.77069666 C29.0749891,5.80747427 29.1040867,5.8462064 29.138144,5.88282113 C29.2032828,5.95823315 29.2796639,6.03175579 29.3659645,6.09931713 C29.4509426,6.1684421 29.5471628,6.22919519 29.6483429,6.28476879 C29.7515069,6.33600987 29.8586388,6.3850684 29.9700691,6.42034754 C29.9981747,6.42911032 30.0259496,6.43878521 30.0540552,6.44637527 L30.1387026,6.46761442 C30.1949137,6.48325061 30.2521169,6.49194823 30.3086587,6.50273069 C30.3648698,6.51501161 30.4217423,6.51879035 30.4772921,6.52530543 C30.5331726,6.53279777 30.5883918,6.53348185 30.6426191,6.53667424 C30.6968463,6.54022495 30.7504122,6.54103934 30.8026555,6.53908481 C30.8545682,6.53758635 30.9058195,6.53827043 30.955087,6.53338412 C31.0043544,6.52960538 31.0522992,6.52595693 31.0989214,6.52237364 C31.1452129,6.51732446 31.1895206,6.51009272 31.2321749,6.50442461 C31.3178142,6.49442396 31.3948566,6.47764764 31.4629713,6.46344477 C31.4970286,6.45624561 31.5291021,6.4504472 31.5585303,6.44334576 C31.5876278,6.43556024 31.6144108,6.42842624 31.6385485,6.42197631 C31.7350994,6.39585085 31.7893267,6.37966089 31.7893267,6.37966089 C31.7893267,6.37966089 31.7324542,6.38405856 31.633258,6.39396148 C31.6087896,6.39653493 31.5813454,6.39936899 31.5515865,6.40246365 C31.5218277,6.40458105 31.4894236,6.40686133 31.4550356,6.40927191 C31.3862596,6.41415822 31.3088866,6.42060814 31.2245699,6.42262782 C31.1822462,6.42389826 31.1382692,6.42653686 31.0929696,6.42683004 C31.04767,6.42676489 31.0007172,6.42669974 30.9524417,6.42663459 C30.9044969,6.42790503 30.8548988,6.42350735 30.8046395,6.42125965 C30.7795098,6.42011951 30.7540494,6.41897937 30.7285891,6.41780666 C30.7027981,6.41640592 30.6773377,6.41321353 30.6512161,6.41099841 C30.5470601,6.40318031 30.4409202,6.38607824 30.3337884,6.36689134 C30.2805531,6.35581571 30.2263259,6.34692263 30.1737519,6.33131902 L30.094395,6.31017759 C30.0679427,6.3027504 30.0421517,6.29297779 30.01603,6.28470364 C29.9105514,6.2532684 29.8103633,6.20877042 29.7131511,6.16254595 C29.6192454,6.11117457 29.525009,6.06146454 29.4433375,5.99960388 C29.3610047,5.93917655 29.2836317,5.87682726 29.2168396,5.81024318 C29.1497169,5.7444409 29.0898685,5.67775909 29.0392785,5.61241287 C28.9371065,5.48230679 28.8683305,5.36083318 28.8246841,5.27362888 C28.7807072,5.1862617 28.7625212,5.13274035 28.7625212,5.13274035" id="Fill-98" fill="#131518"></path>
            <path d="M20.7159273,1.84024858 C20.7159273,1.84024858 19.7237342,2.24858102 19.4174165,3.15622893 C19.2628027,3.61449943 19.309458,4.11127404 19.3569399,4.58293302 C19.3815405,4.8272484 19.4202932,5.08921963 19.3476485,5.32933279 C19.2663407,5.5980797 19.0117703,5.80952652 18.8490556,6.03520878 C18.6082734,6.36910646 18.3828006,6.72590464 18.403764,6.86294928 C18.4414255,7.10899115 18.786562,7.46389996 19.2936527,7.53810668 C19.2936527,7.53810668 19.5534475,7.6988662 19.3927828,8.004293 C19.3927828,8.004293 19.3551213,8.25404847 19.6124031,8.36535856 C19.6124031,8.36535856 19.3765807,8.6743035 19.7614288,8.82893884 C19.9645494,8.91054018 19.7709516,9.42109417 19.7809704,9.55475097 C19.8343379,10.2667186 20.6689414,10.3377329 21.2176284,10.2449256 C22.6649334,10.0001542 24.6065328,9.08647983 24.4798924,7.08462477 C24.4838603,7.1472998 25.0648191,6.74786045 25.0972232,6.70697834 C25.3802629,6.35102712 25.5207908,5.71284278 25.2708165,5.30532473 C25.0380361,4.92595181 24.4630291,4.77955803 24.0665751,4.92933965 C23.3457497,5.20166986 23.0193943,4.89138933 22.4619119,4.46038442 C22.0060064,4.10795135 21.5415369,3.73981694 21.2348554,3.24682108 C20.9733413,2.8265009 20.8415096,2.31435072 20.7159273,1.84024858" id="Fill-99" fill="#EFAA9E"></path>
            <path d="M21.1564905,1.09958208 C21.1564905,1.09958208 20.6067123,1.67209445 20.6016864,2.0690255 C20.5966604,2.46592398 20.6041663,2.61430485 20.764831,2.80474054 C20.9254626,2.99517624 20.8815518,3.12130812 21.1601607,3.65300354 C21.4387697,4.18473153 21.478911,4.48025541 21.9408014,4.6558693 C22.4027249,4.8314832 22.7026279,4.79190411 22.9459892,5.12703965 C23.1896811,5.46214263 23.4254373,5.64886473 23.8109797,5.30760501 C24.1961914,4.96631271 24.9170168,4.77255433 25.2708165,5.30532473 C25.6246161,5.83812771 24.9920752,6.76180271 24.9755426,6.93614617 C24.9593405,7.11048962 25.1249981,7.39985676 25.1173931,7.7473058 C25.109788,8.09475484 25.341907,8.70313271 25.8276376,8.85278402 C26.3133681,9.00243534 27.0854448,8.84047053 27.3241769,8.58064927 C27.5040526,8.38454546 27.6363142,8.16078515 27.8254482,7.96973052 C28.1851996,7.60602636 28.3925195,7.22541558 28.5389992,6.73597043 C28.6894467,6.23268075 28.7572308,5.58475637 28.880234,5.0332877 C29.0035679,4.48178645 28.5327168,2.64554464 27.7999878,2.08658363 C26.8096795,1.33142109 25.7892817,0.583750878 24.4977477,0.48889136 C23.8913285,0.444328235 21.8430932,0.247670643 21.1564905,1.09958208" id="Fill-100" fill="#131518"></path>
            <path d="M20.530142,1.65105075 C20.530142,1.65105075 20.5163777,0.883183805 21.1502411,0.480096006 C21.7841046,0.0770082074 22.6087222,0.457879595 22.9526022,0.292201193 C23.2964823,0.126522791 23.8361094,-0.147957393 24.3770591,0.0981170561 C24.3770591,0.0981170561 23.6691292,0.0338132486 23.3517014,0.222978502 C23.0342737,0.412143756 22.5346558,0.486317905 22.0024684,0.413349045 C21.470314,0.340380185 20.7147038,0.823831456 20.530142,1.65105075" id="Fill-101" fill="#131518"></path>
            <path d="M19.2686553,4.31633608 C19.2686553,4.31633608 19.0816375,4.59827602 19.3075402,4.58713524 C19.533476,4.57602704 19.4933346,4.28050316 20.1008119,4.34975842 C20.7082892,4.41904626 21.0760093,4.7232352 21.0760093,4.7232352 C21.0760093,4.7232352 20.3706916,3.71668841 19.2686553,4.31633608" id="Fill-102" fill="#131518"></path>
            <path d="M19.669011,5.51146176 C19.669011,5.51146176 19.6800549,5.53266833 19.7061104,5.56586265 C19.7197994,5.58166171 19.7355055,5.60237965 19.7574609,5.62212034 C19.7682733,5.63215355 19.7793502,5.64348979 19.7920473,5.65430482 C19.8052735,5.66450091 19.8191609,5.67525079 19.8336436,5.68642414 C19.8477956,5.69837931 19.8650557,5.70691406 19.8816545,5.71795712 C19.8985179,5.72857669 19.9161748,5.73932657 19.9357825,5.74753556 C19.9551589,5.75642864 19.9750312,5.76558233 19.9953664,5.77489889 C20.0167597,5.78164199 20.0386159,5.7885154 20.0608358,5.7955191 C20.0829235,5.8034675 20.1062677,5.80747427 20.1299756,5.81148104 C20.1536504,5.81539009 20.1776228,5.82089533 20.202025,5.82275212 C20.2264934,5.82356651 20.2511602,5.82441347 20.2759592,5.82526043 L20.3132239,5.82636799 L20.3502241,5.82301273 C20.3995577,5.81776809 20.4491227,5.81376132 20.495811,5.80037284 C20.5431606,5.78978584 20.5895183,5.77838445 20.6317097,5.76040284 C20.6742318,5.74352879 20.7166547,5.73004258 20.7533242,5.71013902 C20.7903574,5.6909847 20.8248446,5.6720584 20.8565213,5.65456542 C20.8889915,5.63847318 20.9155099,5.61837417 20.9394823,5.60150012 C20.9632233,5.58443062 20.9839222,5.56954367 21.0009509,5.55726275 C21.0343469,5.53208198 21.0533926,5.51768366 21.0533926,5.51768366 C21.0533926,5.51768366 21.0314702,5.52752142 20.9930813,5.54468865 C20.9742341,5.5536143 20.9513859,5.56442933 20.925165,5.57684055 C20.8990764,5.58931692 20.8703426,5.6045622 20.8368474,5.61658252 C20.803782,5.62948237 20.7681706,5.64348979 20.7310712,5.65919112 C20.694038,5.67521821 20.6520449,5.68375296 20.6109116,5.69828158 C20.5698444,5.71388519 20.52514,5.72023739 20.4807001,5.73020546 C20.4364586,5.74222578 20.3903985,5.74466893 20.344636,5.74896888 L20.3103472,5.75284535 L20.2760915,5.75232415 C20.2532433,5.75196582 20.2305274,5.75167264 20.2079768,5.75134688 C20.1855585,5.74975069 20.1636031,5.74564619 20.1416146,5.74346364 C20.1196261,5.74105306 20.0978691,5.73860991 20.0773355,5.73232286 C20.0564712,5.72727368 20.0359376,5.72225707 20.0158338,5.71737076 C19.9962922,5.71046478 19.9772135,5.7036891 19.9586307,5.69707629 C19.939552,5.69131045 19.9225895,5.68231965 19.9056269,5.67446898 C19.888995,5.66619483 19.8715034,5.66023354 19.8569877,5.65072152 C19.826799,5.63348915 19.7990241,5.61736433 19.7759775,5.60052286 C19.7521043,5.58475637 19.733224,5.56846868 19.7169228,5.55569913 C19.6853122,5.52911762 19.669011,5.51146176 19.669011,5.51146176" id="Fill-103" fill="#131518"></path>
            <path d="M19.5371132,8.36907215 C19.5371132,8.36907215 19.2961327,8.08341861 19.4981952,8.09827298 C19.7002578,8.11312736 19.8847627,8.2775679 20.310248,8.23183206 C20.2812497,8.23495929 20.1464752,8.45484313 20.1187664,8.48298827 C20.0065425,8.59696953 19.8057694,8.75645861 19.6299608,8.73531719 C19.4615588,8.7150553 19.4835803,8.48917759 19.5371132,8.36907215" id="Fill-104" fill="#DF516B"></path>
            <path d="M20.0969102,7.49856017 C20.0969102,7.49856017 20.1310998,7.58794702 20.2177311,7.70274267 C20.2605508,7.76017308 20.3163982,7.82359735 20.3843806,7.88376408 C20.4186694,7.91347283 20.4551075,7.94337703 20.4947529,7.97044718 C20.5144268,7.98308643 20.534266,7.99585598 20.5542045,8.00862553 C20.5732832,8.02165568 20.5946765,8.03436008 20.6120028,8.04771599 C20.6458617,8.07296191 20.6808449,8.10100932 20.7091819,8.1334544 C20.7388416,8.16482449 20.7637067,8.1990938 20.7853315,8.23398203 C20.8044433,8.27001041 20.8231583,8.305485 20.8342683,8.3418717 C20.8468001,8.37780235 20.8542398,8.4133421 20.8602577,8.44656899 C20.8650191,8.47995876 20.8675982,8.51106825 20.8686232,8.53898535 C20.8684248,8.56677215 20.8688216,8.59143172 20.8669699,8.61162846 C20.8646223,8.65224996 20.8612496,8.67576939 20.8612496,8.67576939 C20.8612496,8.67576939 20.863465,8.67029672 20.8675982,8.66006805 C20.8714999,8.64970908 20.878642,8.63478955 20.8840317,8.61469054 C20.8906117,8.59488471 20.8965304,8.57019257 20.901887,8.54139593 C20.9038379,8.52683473 20.905921,8.51132885 20.9081364,8.49500858 C20.9090291,8.47852544 20.909988,8.46109761 20.9101203,8.44288797 C20.9094259,8.40646869 20.9071444,8.36640097 20.8970594,8.32512796 C20.8889915,8.28339889 20.8731532,8.24082286 20.8530494,8.19850744 C20.8306972,8.15752761 20.8061627,8.1147887 20.7722707,8.0786626 C20.7402965,8.04084258 20.7024035,8.00829977 20.6611379,7.97692968 C20.6407035,7.96210788 20.6210627,7.95116255 20.6010581,7.9381324 C20.5811858,7.9259492 20.5613466,7.91383116 20.5417057,7.90177827 C20.5230238,7.8893019 20.5045072,7.87689068 20.486189,7.86464233 C20.4683998,7.8515796 20.450809,7.83867975 20.4335158,7.82597535 C20.3999214,7.79923096 20.3671205,7.77339868 20.337527,7.74701262 C20.3080988,7.72052883 20.2801916,7.69518518 20.2554587,7.67072107 C20.1562956,7.57296234 20.0969102,7.49856017 20.0969102,7.49856017" id="Fill-105" fill="#D77065"></path>
            <path d="M19.5145626,6.93223712 C19.5145626,6.93223712 19.5199192,6.93301893 19.5299711,6.93448482 C19.5398907,6.93614617 19.5551008,6.93741661 19.5728899,6.94233549 C19.5908775,6.94572333 19.6119732,6.95318309 19.6360118,6.96119664 C19.6475516,6.96631097 19.6598519,6.97171849 19.6727805,6.97745175 C19.6851139,6.98409713 19.6980755,6.99113342 19.7115662,6.9984303 C19.7371257,7.01527177 19.7641732,7.03410035 19.7882779,7.05830386 C19.8134406,7.08146495 19.8342057,7.1106525 19.8517965,7.14150139 C19.8703461,7.172448 19.8781165,7.20841122 19.8823489,7.24398354 C19.8875071,7.27916496 19.8776867,7.3190698 19.8676348,7.3503096 C19.8516311,7.39425379 19.8355283,7.41588384 19.8092744,7.44331232 C19.7825906,7.46692947 19.7504841,7.48478078 19.7160631,7.49722458 C19.6459644,7.5202228 19.5719641,7.52608637 19.5085778,7.5290833 C19.4442325,7.53113555 19.3906335,7.53289462 19.3530712,7.53409991 C19.3152444,7.53582641 19.2936527,7.53810668 19.2936527,7.53810668 C19.2936527,7.53810668 19.3148807,7.54201573 19.3520793,7.54882399 C19.3892778,7.55524134 19.4422155,7.56540486 19.5073874,7.57172448 C19.5400229,7.57481914 19.5757336,7.57736002 19.6140894,7.57602443 C19.6524122,7.57507974 19.6936447,7.57113812 19.7359023,7.55963901 C19.7775977,7.54699976 19.8217731,7.5286924 19.8583434,7.49631247 C19.8929629,7.46588706 19.9247056,7.41516719 19.9371382,7.37900851 C19.9436521,7.36431701 19.9439166,7.35509818 19.9475208,7.34288241 C19.950166,7.33131815 19.953704,7.32001449 19.9540677,7.30799417 L19.9570105,7.27251958 L19.9547621,7.23707756 C19.949174,7.19049476 19.933468,7.14560588 19.909198,7.10899115 C19.8858538,7.07182264 19.8567893,7.040648 19.8254764,7.01693312 C19.7952216,6.9916872 19.7619247,6.97491087 19.7314054,6.96074058 C19.7155671,6.95477929 19.7005554,6.94885057 19.6860397,6.94419229 C19.6711933,6.94060899 19.6571075,6.93722115 19.6438813,6.93402877 C19.6170653,6.92966367 19.593655,6.92722051 19.5740803,6.92767657 C19.5546709,6.92640613 19.5401883,6.92976139 19.5300372,6.93047805 C19.5199523,6.93161819 19.5145626,6.93223712 19.5145626,6.93223712" id="Fill-106" fill="#D77065"></path>
            <path d="M23.9415879,5.64824579 C23.9415879,5.64824579 23.9667176,5.62212034 24.0143318,5.58133596 C24.0381389,5.56084604 24.0678977,5.53709858 24.1032777,5.51201554 C24.1389883,5.4870628 24.1809813,5.46197975 24.2269422,5.43666868 C24.2745564,5.41393106 24.3267997,5.39057451 24.3840028,5.37686027 C24.3985516,5.37340728 24.4131003,5.36992172 24.4276491,5.366371 C24.4425285,5.36487253 24.4577386,5.36337406 24.4729487,5.36184302 C24.5033688,5.35659838 24.5344503,5.36115894 24.5655318,5.36125666 C24.5814032,5.36102864 24.5966132,5.36672933 24.6124846,5.36910733 C24.6276947,5.3728535 24.6438967,5.37405879 24.6591068,5.37972691 C24.6743169,5.3855579 24.6891963,5.39142147 24.7044064,5.39731761 C24.7199471,5.40269255 24.7354879,5.40823037 24.7493753,5.41754693 C24.807901,5.44787461 24.8654348,5.48781203 24.9067666,5.53660995 C24.9507435,5.58488667 24.9798411,5.64410872 24.9947205,5.70609968 C25.0086079,5.76844896 25.0095999,5.83359973 25.0000109,5.89604674 C24.9805024,6.02139682 24.9275977,6.13391219 24.8720479,6.22261496 C24.8155061,6.3109594 24.7566497,6.37848817 24.7073823,6.41663395 C24.6832445,6.4362769 24.662744,6.44973054 24.6481952,6.45826529 C24.6329852,6.46588793 24.6247188,6.46995985 24.6247188,6.46995985 C24.6247188,6.46995985 24.6336465,6.46735382 24.6498485,6.46250009 C24.6660505,6.45634334 24.6898576,6.44754799 24.7173019,6.43025046 C24.7721904,6.39705614 24.8452649,6.33832272 24.9133796,6.25072752 C24.947437,6.20710908 24.9805024,6.15674753 25.0089386,6.09944743 C25.0373748,6.04234279 25.0621739,5.97872306 25.0757307,5.90897917 C25.0886262,5.83952845 25.093586,5.76369295 25.0770533,5.68831352 C25.0601899,5.61345528 25.0251406,5.53944401 24.9725667,5.48058029 C24.9193314,5.42008781 24.8555152,5.37822844 24.7874005,5.34373111 C24.7711985,5.33369789 24.7533432,5.32701993 24.7351572,5.32115637 C24.7169712,5.31512992 24.6991159,5.30910347 24.6812606,5.3031096 C24.6634053,5.29744149 24.6442274,5.29626877 24.6260414,5.29278321 C24.6075248,5.29066581 24.5896695,5.28532344 24.5711529,5.28607268 C24.534781,5.28721282 24.498409,5.2835318 24.4643517,5.29193625 C24.4471577,5.29490061 24.4302943,5.29786497 24.413431,5.30076418 C24.397229,5.30581336 24.3813576,5.31076482 24.3658168,5.3156837 C24.3026619,5.33483803 24.2494267,5.36549146 24.2018125,5.3944184 C24.1789974,5.41044549 24.1568436,5.42523472 24.1370044,5.44080575 C24.1178264,5.45732147 24.0993098,5.47207812 24.0831078,5.48742112 C24.0503731,5.51784653 24.0235901,5.54582879 24.0024282,5.56957624 C23.9604352,5.61749463 23.9415879,5.64824579 23.9415879,5.64824579" id="Fill-107" fill="#D77065"></path>
            <path d="M19.7845079,15.4846435 C19.7834172,17.5704454 21.4988495,19.2621502 23.6158939,19.2632257 C25.7330705,19.2642676 27.4504867,17.5742892 27.4514791,15.4884874 C27.4524706,13.4027182 25.7370384,11.7109808 23.6198617,11.7099378 C21.5027512,11.7088634 19.7855665,13.3988743 19.7845079,15.4846435" id="Fill-108" fill="#EFAA9E"></path>
            <path d="M20.6766456,13.0644554 C20.6766456,13.0644554 19.4306096,14.3032321 18.5812259,15.3286074 C17.7318754,16.3539828 16.3684242,17.080707 15.6107309,17.8823221 C14.8530706,18.6839371 14.1333033,19.3736557 14.1333033,19.3736557 C14.1333033,19.3736557 13.3008822,18.2728358 12.2411696,17.3770453 C11.1814901,16.4812548 9.55427636,14.7272659 8.9110554,13.8503365 C8.26783445,12.9734072 7.43524803,12.1710103 6.73485702,12.0400899 C6.03443295,11.909202 5.14461035,12.0020092 4.55789814,11.6659942 C3.97121899,11.3299791 3.56441555,10.8914818 2.85436945,11.0589845 C2.85436945,11.0589845 3.10966729,11.5906473 3.39350057,11.8845424 C3.67733384,12.1784375 4.45800761,12.6264794 4.45800761,12.6264794 C4.45800761,12.6264794 3.77656307,12.4722675 3.13757448,12.5418811 C2.49861896,12.6114947 0.838009144,11.3936965 0,11.9248056 C0,11.9248056 0.709715446,12.3168503 1.5045412,12.9047383 C2.29936694,13.4926588 3.53435911,14.0807748 4.81220402,14.1513656 C6.09004893,14.2219565 6.70056822,14.2362245 7.28245288,14.7820577 C7.86430448,15.3278908 9.02711491,18.210063 10.3607081,20.3089927 C11.6943012,22.4080201 12.6308452,23.5273103 13.2129944,23.5276365 C13.7951436,23.5279618 14.6897607,23.3185021 15.8259204,22.8015308 C16.9620801,22.2845594 19.6745991,21.1669306 22.274332,18.5384229 C24.8740318,15.9099477 21.6239028,13.2645334 21.6239028,13.2645334 L20.6766456,13.0644554" id="Fill-109" fill="#EFAA9E"></path>
            <path d="M3.26662868,11.5232814 L3.26295842,11.5198936 C3.12596853,11.3960745 2.83119061,11.4014495 2.77838519,11.6091501 C2.70997291,11.8780925 2.81072314,12.2835257 2.67865999,12.483734 C2.64162676,12.5398614 2.65475371,12.6148499 2.70993984,12.6539078 C2.77984007,12.7033573 2.90393446,12.7311115 3.11859495,12.6351118 C3.32522055,12.542728 3.4262353,12.3246359 3.44375996,12.1115928 C3.46016039,11.9115474 3.42213519,11.6671343 3.26662868,11.5232814" id="Fill-110" fill="#ED9F94"></path>
            <path d="M2.77058176,11.4838978 C2.75933953,11.4707047 2.7446585,11.4609321 2.72839033,11.4545474 C2.64361068,11.421353 2.37273904,11.3357449 2.3133536,11.5691801 C2.24937208,11.8207924 2.2979782,12.1372297 2.16336901,12.3105633 C2.13288273,12.349784 2.13493278,12.4051296 2.16545213,12.4443504 C2.23297165,12.5309683 2.37515281,12.6378807 2.62998774,12.523932 C3.00868561,12.3545726 3.00094831,11.7543712 2.77058176,11.4838978" id="Fill-111" fill="#ED9F94"></path>
            <path d="M2.23935327,11.4535701 C2.22966511,11.445524 2.21941484,11.4379991 2.20853633,11.4310279 C2.08364837,11.3510879 1.86207721,11.36819 1.82021644,11.5328586 C1.76033502,11.7682809 1.85103338,12.1252094 1.72842692,12.2942756 C1.70276818,12.329685 1.70362788,12.3773102 1.73411417,12.4088106 C1.7868204,12.4632441 1.89633295,12.5129216 2.11307656,12.4159772 C2.30852606,12.3285775 2.38999917,12.1136777 2.39188389,11.9140557 C2.39333877,11.7603325 2.36827521,11.5609386 2.23935327,11.4535701" id="Fill-112" fill="#ED9F94"></path>
            <path d="M1.86356516,11.5098278 L1.85576173,11.5016839 C1.82067935,11.4678381 1.58684094,11.2592579 1.42832548,11.5435107 C1.32578972,11.7274313 1.4406258,12.050742 1.35505258,12.2071039 C1.3298237,12.2531655 1.33957798,12.3121269 1.3831251,12.3420637 C1.43477323,12.3776034 1.52434736,12.3953896 1.67595216,12.324473 C1.97744235,12.1834867 2.05217012,11.7245321 1.86356516,11.5098278" id="Fill-113" fill="#ED9F94"></path>
            <path d="M24.9160249,16.9171135 C24.9160249,16.9171135 24.8951937,16.9176021 24.8558459,16.9206967 C24.816498,16.924052 24.7589643,16.9287429 24.6858898,16.9388087 C24.5400714,16.9583865 24.3320901,16.9958156 24.0887289,17.0694685 C23.9670483,17.1067022 23.8367707,17.1533827 23.7025252,17.2125722 C23.5682797,17.2724132 23.4300664,17.3447305 23.2951596,17.4352249 C23.2273756,17.4802441 23.1612448,17.5304102 23.097098,17.584974 C23.0808959,17.5984602 23.0656859,17.6131517 23.0498145,17.6272568 C23.0339431,17.6414923 23.017741,17.6560209 23.0035229,17.6697351 C22.9744254,17.69775 22.9453279,17.7258951 22.9158997,17.7541379 C22.7978562,17.8671419 22.6801435,17.9836967 22.5617694,18.099437 C22.3275342,18.3324813 22.0931667,18.565493 21.8734803,18.7839761 C21.763604,18.8930711 21.6573649,18.9985176 21.5566478,19.098524 C21.4555999,19.1984327 21.3601071,19.2928688 21.2719217,19.3800731 C21.1836702,19.4674403 21.1027592,19.5475431 21.0310404,19.6185249 C20.9589248,19.689246 20.8964973,19.7515302 20.8451799,19.8029993 C20.7933664,19.853882 20.7535557,19.8950573 20.7259791,19.9226161 C20.6987663,19.9506309 20.6842506,19.965583 20.6842506,19.965583 C20.6842506,19.965583 20.7016761,19.9540839 20.7343777,19.9324864 C20.7666826,19.910498 20.8147266,19.8789651 20.8747072,19.8373012 C20.9346217,19.7955721 21.0064728,19.7437772 21.0886072,19.6838385 C21.1698819,19.6229551 21.2618037,19.5543188 21.3597434,19.4767242 C21.5563502,19.3223169 21.7803351,19.1354645 22.0128178,18.927373 C22.0713105,18.875741 22.129704,18.8221545 22.1886926,18.7677536 C22.2181539,18.7405857 22.2478466,18.7132224 22.2776716,18.6857288 C22.3071328,18.6579094 22.3367594,18.6299597 22.3664852,18.6018797 C22.485719,18.4897878 22.6044237,18.373624 22.7227978,18.2574602 C22.8401799,18.1404494 22.957562,18.0235689 23.0716376,17.90734 C23.1000739,17.8783153 23.1285101,17.8494535 23.1569463,17.8206895 C23.1714951,17.8057374 23.1847212,17.7927072 23.1982781,17.7794816 C23.2118349,17.7663537 23.225061,17.7526721 23.2389485,17.7400002 C23.2673847,17.7148195 23.294829,17.6891501 23.3245878,17.6657284 C23.3530241,17.6413945 23.3827829,17.6186243 23.4125418,17.5958542 C23.5319078,17.5065325 23.6562337,17.4295568 23.7785756,17.3627447 C23.9009175,17.2962909 24.0212755,17.2393166 24.1343591,17.1904861 C24.2474428,17.1417859 24.353252,17.1009689 24.447819,17.0665693 C24.5427167,17.0321046 24.6267027,17.0044806 24.69614,16.9823945 C24.7655774,16.9606667 24.8204659,16.9437275 24.8581604,16.9332708 C24.895855,16.922749 24.9160249,16.9171135 24.9160249,16.9171135" id="Fill-114" fill="#E59389"></path>
            <path d="M12.4318246,17.5424631 C12.4318246,17.5424631 12.4443564,17.5551349 12.467899,17.578915 C12.4915738,17.6024018 12.5253997,17.6378764 12.5687815,17.6822766 C12.6552475,17.771468 12.7776886,17.8992287 12.9202996,18.0550368 C12.9916216,18.1329245 13.0677381,18.218044 13.1467975,18.3089945 C13.2259891,18.399782 13.3075614,18.4968567 13.3898942,18.5984919 C13.4309614,18.6494398 13.4721609,18.7014953 13.5133934,18.7544954 C13.5542622,18.8077562 13.5950319,18.8619942 13.63557,18.9169814 C13.7158528,19.0274771 13.7952097,19.1409698 13.8688133,19.2576222 C13.9432434,19.3737534 14.0118541,19.4929468 14.0747775,19.6122378 C14.1057929,19.6721114 14.1351219,19.7321152 14.1629299,19.7918585 C14.1900435,19.8518298 14.2156361,19.9116382 14.2387819,19.9710883 C14.2850403,20.090021 14.3227679,20.2074552 14.3503775,20.3208502 C14.3782517,20.4341473 14.3962062,20.54334 14.4053983,20.6451055 C14.4148881,20.7469036 14.4154172,20.8411768 14.4116477,20.9250258 C14.4104243,20.9460369 14.4092339,20.966364 14.4080766,20.9859743 C14.4060927,21.0055521 14.4041419,21.0244459 14.4022902,21.0425904 C14.3994796,21.0792051 14.3927012,21.1121062 14.3889318,21.1425316 C14.3783509,21.2026006 14.36982,21.250519 14.3613222,21.2824103 C14.3539486,21.3148228 14.3500138,21.3321204 14.3500138,21.3321204 C14.3500138,21.3321204 14.358214,21.3163539 14.3736225,21.2867429 C14.3891632,21.2570993 14.4099944,21.2126339 14.4330079,21.154161 C14.4435558,21.1247129 14.456782,21.0922352 14.4669661,21.0557182 C14.4724549,21.0375412 14.4783075,21.0185823 14.4837964,20.9987439 C14.4885909,20.9787426 14.4935507,20.9580247 14.4986427,20.9366226 C14.5176223,20.8505585 14.5323364,20.751399 14.5370316,20.6421737 C14.5417269,20.5329811 14.5362711,20.4139506 14.518482,20.2896755 C14.5005936,20.1654656 14.4707686,20.0360762 14.4291062,19.9059049 C14.4090686,19.8404935 14.3844018,19.7756034 14.3585778,19.7102897 C14.3455169,19.6777144 14.3314641,19.645367 14.3176428,19.6126613 C14.3025981,19.5806071 14.2881485,19.5479992 14.2723102,19.5159776 C14.2102795,19.3871419 14.138197,19.2611729 14.0612207,19.1387221 C13.982955,19.0171181 13.899531,18.8991627 13.81204,18.7874617 C13.7904152,18.7593166 13.7681622,18.7319207 13.7462068,18.7044596 C13.7236893,18.6775523 13.7012709,18.6507428 13.6789849,18.6241287 C13.6338837,18.571324 13.5889478,18.5195617 13.5429539,18.4703078 C13.3607636,18.2715979 13.1761595,18.1007726 13.0116262,17.9624575 C12.8468944,17.8242076 12.7020019,17.7185982 12.5982097,17.6482354 C12.5464954,17.6128259 12.5044362,17.5868959 12.4760661,17.5689469 C12.4474976,17.5512259 12.4318246,17.5424631 12.4318246,17.5424631" id="Fill-115" fill="#E59389"></path>
            <path d="M25.7664666,12.3584817 C25.7664666,12.3584817 25.7449741,12.3420637 25.702981,12.3134951 C25.6606574,12.2852196 25.5988251,12.2434254 25.5168229,12.1950184 C25.4351514,12.1464159 25.3346326,12.0887901 25.2159279,12.0287862 C25.0972232,11.9687498 24.9606631,11.9053255 24.8082317,11.8440838 C24.6554696,11.7831027 24.4865055,11.7240761 24.3033233,11.6738448 C24.2120628,11.6483383 24.1168345,11.6261219 24.0186303,11.6063812 C23.9207567,11.5864777 23.819246,11.5704506 23.7154207,11.5583977 C23.611926,11.5461168 23.5054555,11.5382987 23.3973317,11.536279 C23.2892079,11.534129 23.1791001,11.5366699 23.0686617,11.5468986 C22.9582234,11.5568992 22.8471237,11.5729263 22.7366853,11.5967389 C22.6265775,11.6208121 22.5171311,11.6520519 22.4103299,11.6906863 C22.1971574,11.7684112 21.9947972,11.8781902 21.816707,12.0098925 C21.7311338,12.0728607 21.6459904,12.134982 21.5626326,12.197429 C21.4795393,12.2615373 21.3972065,12.3249616 21.3169899,12.3880275 C21.2372692,12.4515821 21.160293,12.5153973 21.0845402,12.5775186 C21.0093164,12.6402587 20.9373992,12.7037156 20.8667054,12.7645013 C20.7967391,12.8261665 20.7302446,12.8880597 20.6652711,12.9469234 C20.6013557,13.0070576 20.5406146,13.0662796 20.4819566,13.1225699 C20.4248857,13.1806844 20.3696996,13.2357042 20.3184813,13.2892907 C20.2932194,13.316426 20.2685857,13.3428446 20.2446463,13.368514 C20.2206739,13.3941183 20.1974289,13.4190384 20.1758372,13.4440889 C20.132224,13.4937338 20.0908923,13.5395999 20.0549171,13.5840979 C20.0367642,13.606184 20.0190743,13.6270323 20.00274,13.6474896 C19.9865048,13.6680121 19.9710302,13.6876225 19.9563492,13.7061905 C19.8975259,13.7803972 19.8552683,13.841704 19.8268652,13.8835634 C19.812647,13.9045094 19.8023306,13.9209274 19.7955192,13.9321007 C19.7885754,13.9431438 19.785302,13.9490399 19.785302,13.9490399 C19.785302,13.9490399 19.8027605,13.9284523 19.8373469,13.8916095 C19.8543094,13.8729764 19.876331,13.8508577 19.901626,13.8245694 C19.9146207,13.8116695 19.9285743,13.797825 19.9434537,13.7830684 C19.9580356,13.7680837 19.9738077,13.7523823 19.9908695,13.7361598 C20.0077659,13.7198395 20.0255551,13.7026397 20.044237,13.684593 C20.0629851,13.6666765 20.0832211,13.6484017 20.1039531,13.6291497 C20.1452518,13.5904175 20.1907167,13.5493726 20.2394881,13.5057867 C20.2876313,13.4616796 20.341065,13.4168233 20.3960858,13.368514 C20.4517348,13.3207259 20.5110211,13.2713417 20.5724566,13.2195468 C20.6350493,13.1688921 20.6993946,13.1153381 20.7671786,13.061263 C20.8355248,13.0077416 20.9049621,12.9511908 20.9781688,12.8951937 C21.0516732,12.8394572 21.1258058,12.7807238 21.2036086,12.7230654 C21.2816099,12.6657327 21.3601071,12.6055334 21.4414149,12.5466045 C21.5226896,12.4878385 21.60532,12.4281278 21.6889754,12.3676354 C21.7746479,12.3083482 21.8605848,12.2472367 21.9474476,12.1860276 C22.0312353,12.1274896 22.1172714,12.0736751 22.2078705,12.0254635 C22.2982713,11.9773171 22.3924746,11.9357509 22.4893562,11.9001786 C22.5862378,11.8645086 22.6854339,11.8354513 22.7859527,11.8128114 C22.8868021,11.7899109 22.9886435,11.7728088 23.0904849,11.7618635 C23.1926569,11.7511136 23.294829,11.7448266 23.3960091,11.7440122 C23.4971891,11.743263 23.5973773,11.7468788 23.6962428,11.7540129 C23.8936431,11.7690627 24.0840997,11.7979896 24.2633141,11.8353862 C24.4425285,11.8727501 24.6105007,11.9175739 24.7645854,11.9643521 C24.9183394,12.0111955 25.0578754,12.0602215 25.1805479,12.1063808 C25.3032205,12.1529962 25.4096911,12.1959957 25.4963224,12.2337831 C25.582623,12.2719289 25.6507377,12.3021914 25.696368,12.3244078 C25.7423289,12.3462333 25.7664666,12.3584817 25.7664666,12.3584817" id="Fill-116" fill="#E59389"></path>
            <path d="M2.82937202,11.5149095 C2.82937202,11.5149095 2.82636307,11.517711 2.82196537,11.5239655 C2.81760074,11.5302525 2.81158284,11.5398297 2.80576333,11.5528924 C2.79425658,11.5790179 2.7815264,11.6181735 2.7737891,11.6664828 C2.76962286,11.690556 2.76658085,11.7168443 2.76436547,11.7447289 C2.76244768,11.7726785 2.76086054,11.8019312 2.76016616,11.8321612 C2.7592734,11.8623586 2.75838063,11.8935332 2.7574548,11.9252291 C2.75666123,11.9568923 2.75566927,11.9890442 2.75421439,12.021131 C2.75305711,12.0532178 2.7515361,12.0852719 2.74941991,12.1167398 C2.7471384,12.1482076 2.74518754,12.1791868 2.74188101,12.2089932 C2.73553245,12.2686388 2.72686932,12.3239518 2.71450287,12.3701111 C2.70828657,12.3931419 2.70154123,12.4140227 2.69387007,12.4318089 C2.68643035,12.4497579 2.67809788,12.4645797 2.67002992,12.4760137 C2.66206116,12.4874802 2.65472065,12.4958521 2.64923179,12.5010641 C2.64364374,12.506211 2.64066786,12.5089799 2.64066786,12.5089799 C2.64066786,12.5089799 2.6439744,12.5066345 2.65022376,12.5022043 C2.65353029,12.5001194 2.65693603,12.4968619 2.66110227,12.4931483 C2.66549996,12.4895976 2.66969927,12.4847439 2.67442762,12.4793038 C2.68385125,12.468391 2.69396926,12.4539601 2.7033929,12.4363043 C2.71318025,12.4187787 2.72227323,12.3979956 2.73010973,12.3747368 C2.7463779,12.3283494 2.75828144,12.2722546 2.76668005,12.211925 C2.77078015,12.1817602 2.77445041,12.1504878 2.77679805,12.1186617 C2.77924489,12.0868681 2.78112962,12.0545208 2.78255143,12.022206 C2.78370872,11.9898586 2.78437003,11.9575439 2.78483294,11.9257829 C2.78539505,11.8939893 2.78503133,11.8627169 2.78509747,11.8325195 C2.78513053,11.8023221 2.7849652,11.7731672 2.78546118,11.7457713 C2.78642008,11.7183428 2.78751124,11.6923802 2.78989195,11.668535 C2.79200813,11.6446573 2.79531467,11.6229621 2.79855508,11.6037426 C2.80229147,11.5846209 2.80652384,11.5681703 2.81088847,11.554847 C2.81548456,11.5416214 2.81968386,11.5314253 2.82325492,11.5247473 C2.82675985,11.5180693 2.82937202,11.5149095 2.82937202,11.5149095" id="Fill-117" fill="#DF8B82"></path>
            <path d="M2.37502055,11.458717 C2.37502055,11.458717 2.37164788,11.4609973 2.36632435,11.4664374 C2.36103389,11.4718449 2.35352805,11.4802819 2.3462206,11.4924651 C2.33884702,11.5045831 2.33067987,11.5198936 2.32363694,11.5383638 C2.31632949,11.5567363 2.30945189,11.5780406 2.30442595,11.6018207 C2.29887096,11.625503 2.29500231,11.6515307 2.29222482,11.6791546 C2.28961266,11.7068437 2.28822391,11.7361941 2.28650451,11.765512 C2.28243747,11.8248317 2.27605585,11.888028 2.26699593,11.9508007 C2.2583328,12.0136387 2.24689218,12.0760531 2.2335007,12.1338744 C2.21984469,12.1916306 2.2041717,12.2448587 2.18638252,12.2888029 C2.17738874,12.3107262 2.16846108,12.3305646 2.15907051,12.347406 C2.14984527,12.3643127 2.14052083,12.3783852 2.13179157,12.3892003 C2.12319457,12.400113 2.11565566,12.4081591 2.11013374,12.4132735 C2.10454569,12.4183227 2.10153674,12.4210264 2.10153674,12.4210264 C2.10153674,12.4210264 2.10487634,12.4187461 2.1111257,12.4144462 C2.11436611,12.4123939 2.11790411,12.4093318 2.12216954,12.4058137 C2.12656724,12.4024259 2.13106413,12.3979305 2.13602394,12.3928161 C2.15589623,12.3724891 2.18036462,12.339197 2.20142727,12.2953506 C2.22311816,12.2517321 2.24213076,12.1981782 2.25790295,12.1398683 C2.2739066,12.0815583 2.2858432,12.0182318 2.29503538,11.9546121 C2.30376464,11.8909272 2.30945189,11.8269166 2.31113822,11.7666521 C2.31222938,11.7362267 2.31146888,11.7076581 2.31285762,11.6806205 C2.31447783,11.6536155 2.3161311,11.6279787 2.31999975,11.6046547 C2.32353774,11.5812982 2.32790237,11.5600264 2.33329203,11.5415888 C2.3383841,11.5230208 2.34486492,11.5074823 2.35091588,11.4950386 C2.35703298,11.4825948 2.36285249,11.4732782 2.36744857,11.4673821 C2.37197853,11.4614208 2.37502055,11.458717 2.37502055,11.458717" id="Fill-118" fill="#DF8B82"></path>
            <path d="M1.90347508,11.420278 C1.90347508,11.420278 1.88899244,11.4272166 1.87004597,11.4476088 C1.8607546,11.45787 1.85076885,11.471454 1.84121296,11.4882954 C1.83182239,11.5052021 1.82358911,11.5255617 1.81720749,11.5485273 C1.81181783,11.5716233 1.80675882,11.5971624 1.80619671,11.6243628 C1.80494023,11.6516284 1.8064943,11.6802948 1.80784998,11.7087982 C1.81013149,11.7664566 1.81148717,11.8279915 1.80927179,11.8892658 C1.80751933,11.9505727 1.80196434,12.011619 1.79204473,12.0679093 C1.78209205,12.1241995 1.76661744,12.1754732 1.7470758,12.216681 C1.73738764,12.2373338 1.72660833,12.255348 1.71586208,12.2705607 C1.70528115,12.2859363 1.69400586,12.2978263 1.68448303,12.3074035 C1.67456341,12.3165246 1.66669385,12.3238215 1.66070901,12.3279911 C1.65485644,12.3324539 1.65174829,12.3348319 1.65174829,12.3348319 C1.65174829,12.3348319 1.65515403,12.33291 1.66156871,12.3292941 C1.66811566,12.3258086 1.67724171,12.319945 1.68818635,12.311508 C1.69886647,12.3027778 1.7117289,12.2917673 1.72429375,12.2770432 C1.73712312,12.2625797 1.75021701,12.2449239 1.76172377,12.2241082 C1.78546471,12.1828678 1.80457651,12.1302585 1.8167115,12.0726653 C1.82934248,12.0150394 1.83539345,11.9524947 1.83757576,11.8901454 C1.83936129,11.8277309 1.83714591,11.7654468 1.83245063,11.7073323 C1.83033444,11.6779819 1.82679645,11.6506512 1.82689564,11.6247863 C1.82630047,11.598726 1.82904489,11.574327 1.83268209,11.5519477 C1.83741044,11.5298291 1.84293236,11.5096975 1.85037207,11.4926931 C1.85787791,11.4757865 1.86617732,11.4617139 1.87417915,11.4509315 C1.88237936,11.4402793 1.88952148,11.4323635 1.89487808,11.4274121 C1.90026774,11.4225257 1.90347508,11.420278 1.90347508,11.420278" id="Fill-119" fill="#DF8B82"></path>
            <path d="M27.0494036,41.3584239 C29.086562,39.0514352 29.7191028,36.1574381 28.0955924,33.2517139 C26.7951307,30.9235512 25.7598535,30.1107954 25.300906,28.7716214 C21.5489435,29.8856995 18.9416386,29.8449803 17.6950405,29.7140272 C17.8761397,30.7010613 18.0634551,31.5027415 18.174191,31.9799709 C18.5543438,33.6178612 18.3442794,35.3974544 18.3442794,35.3974544 C16.9567566,39.2446073 18.6711638,44.5944625 19.7746549,47.0395708 C20.878146,49.4850049 22.2804491,54.563833 22.6768369,57.514837 C22.9777319,59.7553719 22.89077,64.8599345 22.8924232,67.5115708 C24.4679889,68.7269583 26.2125186,67.9484067 26.445299,67.8353701 C26.6337717,66.2838046 26.985918,64.3989929 27.4871893,62.6868307 C28.372019,59.6657896 27.5212466,57.6998652 26.6456752,54.735831 C25.7701038,51.7714711 26.1367989,48.2113074 26.4919212,46.9610642 C26.8467128,45.7108209 27.0494036,41.3584239 27.0494036,41.3584239" id="Fill-91" fill="#4D7066"></path>
        </g>
    </g>
</svg>