<?xml version="1.0" encoding="UTF-8"?>
<svg width="20px" height="75px" viewBox="0 0 20 75" version="1.1" xmlns="http://www.w3.org/2000/svg" xmlns:xlink="http://www.w3.org/1999/xlink">
    <title>Group 4</title>
    <g id="Page-1" stroke="none" stroke-width="1" fill="none" fill-rule="evenodd">
        <g id="Group-4">
            <path d="M17.9721167,54.1336624 C17.296546,51.4469112 17.6728507,49.6566165 18.2483369,44.6313542 C18.8238231,39.6064191 17.6741676,37.0456759 17.2237871,34.4832961 C16.7734066,31.9209164 15.8756086,30.8545946 15.2751013,29.6105525 C14.674594,28.3668377 14.7559127,26.5320311 14.7559127,26.5320311 L9.93868493,27.0455544 L5.28442383,26.5529779 C5.28442383,26.5529779 5.17479173,28.3668377 4.57428439,29.6105525 C3.97377706,30.8545946 3.07136992,31.9209164 2.62098942,34.4832961 C2.17060891,37.0456759 1.01864884,39.6064191 1.59413504,44.6313542 C2.16962123,49.6566165 2.5446091,51.4469112 1.86903834,54.1336624 C1.19346758,56.8204136 0.442504185,58.5115385 0.842842411,62.1932615 C1.24318064,65.8749846 1.08054323,68.8599001 1.08054323,68.8599001 L3.58298637,69.0588944 C3.58298637,69.0588944 3.62018885,65.7005372 3.94579289,64.3821995 C4.27106769,63.0635346 5.1718287,58.3370911 5.39701895,57.0433004 C5.62220921,55.7498371 7.14849869,53.2372059 7.54916614,50.6002033 C7.94950437,47.9635279 8.37486373,45.9483827 8.6751174,44.7544165 C8.97537107,43.560123 9.70328869,41.6199279 9.70328869,40.0027714 L9.68057213,40.0044079 L9.68057213,40.0276457 C9.68057213,40.0492471 9.83102819,40.0476106 9.9060916,40.0384464 C9.97885044,40.0466287 10.0677413,40.0485925 10.1128452,40.0322278 C10.1217343,41.6431658 10.8591995,43.5673234 11.157807,44.7544165 C11.4580607,45.9483827 11.8870415,47.9635279 12.2873798,50.6002033 C12.6880472,53.2372059 14.216312,55.7498371 14.4415023,57.0433004 C14.6666925,58.3370911 15.4183144,63.2127803 15.7435892,64.531118 C16.068864,65.849783 16.1442567,68.8599001 16.1442567,68.8599001 L18.7471136,68.5116599 C18.7471136,68.5116599 18.647029,66.1731488 19.0473672,62.4914258 C19.4477055,58.8097027 18.6480167,56.8204136 17.9721167,54.1336624" id="Fill-32" fill="#EFAA9E"></path>
            <path d="M0.426372135,73.0080162 C0.180440676,71.8948914 0.50604471,70.1006692 0.677241977,69.6503135 C0.84876847,69.1999579 0.827368812,68.0825783 2.44221996,67.8734379 C2.97358994,67.804379 3.51483669,67.9922453 3.80290901,68.4589657 C4.16802011,69.0500575 3.94645134,69.7851584 4.03698835,70.4341811 C4.14563277,71.2115029 4.35798323,72.0110806 4.78268414,72.6800682 C5.20870196,73.3516742 5.712417,74.4340333 4.66910134,74.7891466 C3.90661505,75.0486903 3.0427273,75.0257797 2.25061071,74.9459202 C1.64187274,74.8847163 0.831319518,74.8153301 0.318715392,74.4409065 C-0.45628147,73.8743617 0.426372135,73.0080162 0.426372135,73.0080162" id="Fill-33" fill="#DC3965"></path>
            <path d="M0.318715392,74.4409065 C-0.3960332,73.918219 0.298632635,73.1415518 0.411227761,73.0237262 C0.558391566,73.9385112 1.18161547,74.2118011 1.75315096,74.1846358 C2.34279386,74.1568159 2.60024821,73.4979743 3.07268682,73.5228486 C3.54545466,73.5473956 3.86249883,74.2455124 4.51897451,74.1829993 C5.03816314,74.1332507 5.14779524,73.6419834 5.17084103,73.4377523 C5.37232704,73.9866233 5.36837634,74.5512044 4.66910134,74.7891466 C3.90661505,75.0486903 3.0427273,75.0257797 2.25061071,74.9459202 C1.64187274,74.8847163 0.831319518,74.8153301 0.318715392,74.4409065" id="Fill-34" fill="#163139"></path>
            <path d="M19.5734696,72.6100274 C19.8197303,71.4969027 19.4941263,69.7026805 19.3225998,69.2523248 C19.1514025,68.8019691 19.1728022,67.6845896 17.5576218,67.4754491 C17.026581,67.4063902 16.4853343,67.5942566 16.197262,68.060977 C15.8321509,68.6520688 16.0537196,69.3868424 15.9628534,70.0361924 C15.854209,70.8135141 15.6421877,71.6130918 15.2174868,72.2820795 C14.791469,72.9536855 14.2874248,74.0360446 15.3310696,74.3911579 C16.0932267,74.6507016 16.9571144,74.627791 17.7495603,74.5479314 C18.3582982,74.4864003 19.1688515,74.4173414 19.6811264,74.0429178 C20.4564524,73.4760457 19.5734696,72.6100274 19.5734696,72.6100274" id="Fill-35" fill="#DC3965"></path>
            <path d="M19.6811264,74.0429178 C20.3962042,73.5202303 19.7012091,72.7435631 19.5889432,72.6257375 C19.4414502,73.5405225 18.8182263,73.8134851 18.24702,73.7866471 C17.6570479,73.7588271 17.3999228,73.0999856 16.9271549,73.1245326 C16.4547163,73.1494069 16.1376721,73.8475236 15.4811965,73.7846833 C14.9620078,73.735262 14.8523757,73.2439947 14.8290007,73.0397636 C14.6275147,73.5886346 14.6317946,74.1532156 15.3310696,74.3911579 C16.0932267,74.6507016 16.9571144,74.627791 17.7495603,74.5479314 C18.3582982,74.4864003 19.1688515,74.4173414 19.6811264,74.0429178" id="Fill-36" fill="#163139"></path>
            <path d="M6.53581001,13.6833773 C6.53581001,13.6833773 4.53378966,14.5789502 3.53294409,15.175966 C3.53294409,15.175966 0.980458676,15.6237688 0.830331841,18.9074704 C0.680205007,22.1912047 1.08054323,25.9226109 0.630162729,28.261122 C0.179782225,30.5996331 0.129739946,34.6295962 0.179782225,35.8235624 C0.209412521,36.5328072 0.21830161,37.1828118 0.181099127,37.7444472 C0.198218853,37.740847 0.215667806,37.7382286 0.232787532,37.7346284 C0.238055141,38.1483272 0.248590357,38.5165322 0.270648467,38.8412073 C0.360856258,40.1739458 0.249578034,41.2104839 0.603495462,42.0513006 C0.957742116,42.8917899 2.62691547,44.5986248 2.70066199,44.9746849 C2.70066199,44.9746849 3.09211113,44.4029034 2.73127996,43.8114843 C2.37077802,43.2200652 2.57753165,43.3087617 2.29703151,42.8440051 C2.0168606,42.3792485 1.75282173,41.2913254 1.90031476,40.4639278 C1.90031476,40.4639278 2.10048388,40.8016945 2.37077802,41.6402201 C2.6414014,42.4787457 3.21655837,42.8682248 3.21655837,42.8682248 C3.21655837,42.8682248 3.67385261,42.9631399 3.37491584,41.6251646 C3.07597908,40.2868621 3.15861468,40.3303921 3.01770616,39.3292017 C2.89029589,38.4209626 2.62066019,37.6478957 2.10608071,37.4371187 C2.05603843,37.1392818 1.97834121,36.3410132 2.33192941,35.3260765 C2.78230992,34.0326132 3.53294409,31.7935992 3.83319776,29.5545853 C4.13345143,27.3158987 4.33362054,25.0271362 4.28357826,23.8829186 C4.23353599,22.7383737 4.23353599,22.0917075 4.78400105,20.8975777 C5.33446611,19.7035133 6.38568318,15.7232332 6.53581001,13.6833773" id="Fill-37" fill="#EFAA9E"></path>
            <path d="M12.9922516,13.4841211 C12.9922516,13.4841211 14.9942719,14.3796612 15.9951175,14.9766771 C15.9951175,14.9766771 18.5476029,15.4244798 18.6977297,18.7082142 C18.8478566,21.9919158 18.4475184,25.7232892 18.8978989,28.0618003 C19.3482794,30.4003114 19.3983216,34.4302746 19.3482794,35.6242408 C19.3186491,36.3334855 19.30976,36.9834901 19.3469625,37.5454528 C19.3298427,37.5415253 19.3123938,37.5392343 19.2952741,37.535634 C19.2900064,37.9490055 19.279142,38.3172106 19.2574131,38.6418856 C19.1672053,39.9746242 19.2784836,41.0111623 18.9245661,41.8519789 C18.5703195,42.6927956 16.9011461,44.3996305 16.8273996,44.7756905 C16.8273996,44.7756905 16.4359505,44.203909 16.7964524,43.6121626 C17.1572836,43.0207435 16.9505299,43.10944 17.2310301,42.6446834 C17.511201,42.1799269 17.7752399,41.0920037 17.6277468,40.2646061 C17.6277468,40.2646061 17.4275777,40.6023729 17.1569543,41.4408985 C16.8866602,42.2794241 16.3115032,42.6689032 16.3115032,42.6689032 C16.3115032,42.6689032 15.8538798,42.7638182 16.1531457,41.425843 C16.4520825,40.0875404 16.3694469,40.1313977 16.5103554,39.12988 C16.6377657,38.2216409 16.9074014,37.448574 17.4219809,37.2377971 C17.4716939,36.9399601 17.5497204,36.1416916 17.1961322,35.1267549 C16.7457517,33.8332915 15.9951175,31.5942776 15.6948638,29.3552637 C15.3946102,27.1165771 15.194441,24.8278146 15.2444833,23.683597 C15.2945256,22.5393794 15.2945256,21.8924513 14.7440605,20.6983215 C14.1932663,19.5042571 13.1423784,15.523977 12.9922516,13.4841211" id="Fill-38" fill="#EFAA9E"></path>
            <path d="M6.35440675,16.4890342 C6.35440675,16.4890342 5.88328504,13.7562656 6.4182765,13.687403 C7.53007106,13.5442776 7.96135649,12.2448903 7.86456419,11.2967541 C7.72826482,9.96123354 11.9746155,11.0823115 12.0460574,11.1012945 C11.9950275,11.0877446 11.9950275,12.0309713 12.0032581,12.0894914 C12.0434236,12.3833681 12.135936,12.6713535 12.2949519,12.9236312 C12.5770982,13.3713686 13.1120897,13.5773343 13.6115248,13.6874358 C14.0121922,13.7757722 14.3852047,16.1962376 14.1498085,16.9770286 C13.914083,17.7578197 10.122722,19.6317378 10.122722,19.6317378 C6.82388234,19.9050278 6.53120085,16.9965681 6.53120085,16.8599231 L6.35440675,16.4890342" id="Fill-39" fill="#EFAA9E"></path>
            <path d="M7.86522264,11.3037255 C7.86522264,11.3014017 7.86489341,11.2990779 7.86456419,11.2967541 C7.82176487,10.8770986 8.21156788,10.7000001 8.76861745,10.6550627 C8.2118971,10.7000656 7.82176487,10.8771967 7.86456419,11.2967541 C7.86489341,11.2990452 7.86522264,11.3014017 7.86522264,11.3037255 M12.0154577,11.2643521 C12.0375876,11.1668514 12.0667588,11.1011636 12.1080008,11.1011636 C12.1090067,11.1011636 12.1100126,11.1011963 12.1110185,11.1012945 C12.1130303,11.1014582 12.1140362,11.1015563 12.1140362,11.1015563 C12.1140362,11.1015563 12.0657529,11.1616474 12.0154577,11.2643521" id="Fill-40" fill="#E3C0B8"></path>
            <path d="M9.823456,13.3250565 C9.81390846,13.3250565 9.80436092,13.3249584 9.7951426,13.324762 C8.98063868,13.308921 8.17732843,12.3833026 7.8737825,11.8480143 C7.88497617,11.6795892 7.88497617,11.4991523 7.86522264,11.3037255 C7.86522264,11.3014017 7.86489341,11.2990452 7.86456419,11.2967541 C7.82176487,10.8771967 8.2118971,10.7000656 8.76861745,10.6550627 C8.87133581,10.6467822 8.979651,10.6429856 9.09224613,10.6429856 C10.3097221,10.6429856 11.9989782,11.0888574 12.0460574,11.1012945 C12.0457282,11.1011963 12.045399,11.1011636 12.0450698,11.1011636 C12.0315715,11.1011636 12.022024,11.1668514 12.014781,11.2643521 C11.9917352,11.4107177 11.9670433,11.6436196 11.9851507,11.9123602 C11.7704957,12.6107715 10.6639687,13.3250893 9.823456,13.3250565" id="Fill-41" fill="#E98B7D"></path>
            <path d="M15.5707458,18.6877256 C15.1118054,17.5342783 14.9307314,17.3543324 14.7694109,16.1315644 C14.6222471,15.0132357 14.3443808,14.0675543 14.3443808,14.0675543 C14.0569669,13.5767451 13.6115248,13.6874358 13.6115248,13.6874358 C13.6115248,13.6874358 13.6800037,14.0172493 13.7363012,14.5900127 C13.9071693,16.3336353 13.1815562,17.887657 11.2796205,18.2928462 C9.86296306,18.5945779 8.10127733,18.4601912 7.19031033,17.1920931 C6.45778356,16.1724106 6.17860033,15.8240396 6.29975532,14.5900127 C6.35605288,14.0172493 6.4182765,13.6874358 6.4182765,13.6874358 C6.4182765,13.6874358 6.09925698,13.4029524 5.8118431,13.8937615 C5.8118431,13.8937615 5.40294501,15.0132357 5.25545198,16.1315644 C5.09446071,17.3543324 4.912399,17.5342783 4.45345863,18.6877256 C4.09262747,19.5946882 3.74562377,20.5974824 3.85393897,21.6055787 C3.92439323,22.263242 4.23880359,22.8496535 4.50514704,23.4443455 C4.74976159,23.9905981 4.89034089,24.5748168 5.04375998,25.1511804 C5.07997478,25.2873345 5.35389041,26.6295645 5.27981467,26.6135272 C8.50852929,27.3145896 11.5449762,27.32179 14.7684232,26.6135272 C14.6943475,26.6298918 14.9560818,25.2873345 14.9922966,25.1511804 C15.1453864,24.5748168 15.2737844,23.9905981 15.5187282,23.4443455 C15.7850716,22.8496535 16.099482,22.263242 16.1699362,21.6055787 C16.2782514,20.5974824 15.931577,19.5946882 15.5707458,18.6877256" id="Fill-42" fill="#DC3965"></path>
            <path d="M4.02612391,22.0421226 C4.02612391,22.0421226 4.04818202,22.091642 4.08933521,22.1845606 C4.12686692,22.279803 4.20061343,22.4094439 4.29279658,22.5685085 C4.39386881,22.7243001 4.52193754,22.9095482 4.7033408,23.0872685 C4.88342715,23.2649888 5.11026353,23.4384542 5.38187458,23.5778812 C5.65381486,23.715999 5.97217593,23.8128778 6.31555814,23.8560806 C6.66058648,23.8979741 7.02503912,23.8757182 7.40002699,23.800768 C7.76217505,23.7245086 8.14539355,23.5680624 8.55429164,23.4315811 C8.95726367,23.2937906 9.42509313,23.1576365 9.8879842,23.1484723 C10.3956499,23.1478177 10.8341783,23.2626977 11.2549285,23.3926332 C11.6727157,23.5192957 12.0559342,23.6754146 12.4302636,23.7637838 C12.8049223,23.8596808 13.1568643,23.8897918 13.5134156,23.8622991 C13.857127,23.8367703 14.1847064,23.7562561 14.4681696,23.6413761 C15.0380589,23.4076887 15.4357633,23.042102 15.662929,22.7508109 C15.7788163,22.6061472 15.8624396,22.4834122 15.9128111,22.3960249 C15.9644995,22.3088339 15.9918252,22.2622601 15.9918252,22.2622601 C15.9918252,22.2622601 15.9743763,22.3135469 15.9414537,22.4097712 C15.908202,22.5056681 15.8558551,22.6480408 15.7600505,22.8152877 C15.581281,23.1523998 15.2214375,23.6151927 14.6143457,23.9437952 C14.3127751,24.1080965 13.9591869,24.2383592 13.5624702,24.2956356 C13.1802393,24.3581486 12.7361141,24.3588032 12.3193146,24.2661792 C11.8985644,24.1820648 11.4899956,24.0521293 11.0913035,23.9323399 C10.6982082,23.8132051 10.2827256,23.727127 9.92057753,23.7313818 C9.51332556,23.7330183 9.13669158,23.8377521 8.73339032,23.9663784 C8.33403977,24.0959866 7.92711703,24.2308315 7.48990555,24.3057817 C7.06652154,24.3761497 6.63490689,24.3637126 6.24510388,24.2845076 C5.85299629,24.2082482 5.50072499,24.0554022 5.21265267,23.8658994 C4.92194654,23.6783603 4.69971931,23.4502368 4.53378966,23.2319321 C4.36358006,23.0152639 4.26514164,22.7963047 4.18876132,22.6202208 C4.11830706,22.438573 4.07814154,22.2934184 4.05937569,22.1942812 C4.0376468,22.0950459 4.02612391,22.0421226 4.02612391,22.0421226" id="Fill-43" fill="#CA295A"></path>
            <path d="M8.14078439,3.59452664 C7.89715751,3.52095109 7.59953765,3.28356521 7.45303229,3.06329678 C7.22948817,2.72765743 7.38455339,2.073398 7.51130521,1.72577972 C7.75624899,1.05584293 8.45387786,0.31393433 9.12121798,0.125806104 C9.70855629,-0.0397061505 10.3778718,-0.048903094 10.9740992,0.140076095 C11.2832419,0.238034999 11.5897509,0.389015428 11.8360116,0.601854302 C12.1234254,0.850368154 12.1994765,1.1958263 12.4164362,1.49618342 C12.7035208,1.89309208 12.9659135,2.19770402 12.9306864,2.72611915 C12.9221265,2.85873843 12.8934839,2.99397604 12.8180913,3.10375024 C12.5346281,3.51627079 11.0837313,3.22733621 10.6481659,3.20861503 C10.2553999,3.19175942 9.86230461,3.17434742 9.46953857,3.16459407 C9.29801208,3.16033926 9.01520736,3.10430664 8.85092383,3.17218728 C8.6879572,3.23944607 8.22638303,3.58981361 8.22638303,3.58981361" id="Fill-44" fill="#131313"></path>
            <path d="M11.5611083,0.247591965 C11.5611083,0.247591965 11.601603,0.260552782 11.6700819,0.29023829 C11.7043214,0.305391973 11.7458038,0.324113153 11.7915661,0.348627426 C11.8376577,0.37310897 11.8893461,0.401419846 11.9426806,0.437749409 C11.9970028,0.472540694 12.0529712,0.515579772 12.1089395,0.565295634 C12.1629325,0.617106173 12.2189008,0.674840723 12.2623586,0.747663496 C12.3068041,0.819275284 12.3321544,0.911179261 12.3479572,0.988224119 C12.3670523,1.06543262 12.3920735,1.14411395 12.4289467,1.2133365 C12.4638446,1.28393367 12.5135577,1.34382836 12.5738059,1.39328239 C12.6343834,1.44244185 12.7028623,1.48443359 12.771012,1.52272691 L12.7966916,1.53706236 L12.8029469,1.54069532 L12.8059099,1.54272454 L12.8121652,1.5468157 L12.8243466,1.55499804 C12.8404786,1.56570053 12.8562814,1.57551933 12.8727427,1.59224402 C12.9066529,1.62173316 12.930028,1.65341515 12.9527445,1.68467167 C12.9968607,1.74833023 13.0225403,1.81509807 13.04394,1.87630193 C13.0650104,1.9377349 13.0765333,1.99576401 13.0860808,2.04685451 C13.0949699,2.09820684 13.0999083,2.14314421 13.1028713,2.18022655 C13.1061636,2.21724343 13.1061636,2.24650346 13.1064928,2.26630471 C13.1064928,2.28617141 13.1064928,2.29674299 13.1064928,2.29674299 C13.1064928,2.29674299 13.1002375,2.25478398 13.0841055,2.18304128 C13.0762041,2.14707173 13.064352,2.10399993 13.0508537,2.0551023 C13.0353801,2.00663015 13.0176019,1.95210308 12.9925808,1.89561224 C12.9672304,1.83967781 12.9372709,1.77981585 12.8951301,1.72597609 C12.8734012,1.69995627 12.8500262,1.67311821 12.8246758,1.65410247 C12.8141406,1.64326906 12.7966916,1.6333848 12.7802303,1.62314052 L12.7677198,1.61548185 L12.7614645,1.61161979 L12.7581722,1.60972149 C12.7552092,1.60792138 12.7614645,1.61155433 12.7604768,1.61103066 L12.7598184,1.61060518 L12.7581722,1.60975422 L12.7311757,1.59610608 C12.660063,1.55889283 12.5846704,1.51991219 12.5158623,1.46420686 C12.4463957,1.40931976 12.3848305,1.33734795 12.3443358,1.2567356 C12.3031826,1.17592686 12.2778322,1.09223795 12.2584079,1.0082872 C12.2406297,0.922994552 12.226473,0.854590238 12.189929,0.789066107 C12.1537142,0.724392938 12.1066349,0.667345705 12.0592265,0.615600624 C12.0091842,0.56598295 11.9598004,0.519900044 11.9107458,0.481410344 C11.8620204,0.442135141 11.8149411,0.408685759 11.7728003,0.379458461 C11.7303302,0.350722104 11.6927985,0.326338748 11.661522,0.306832064 C11.6295872,0.287750861 11.6048953,0.272728095 11.5877755,0.262516542 C11.5703266,0.252795929 11.5611083,0.247591965 11.5611083,0.247591965" id="Fill-45" fill="#131313"></path>
            <path d="M12.9952146,7.47753511 C12.9952146,7.47753511 13.4353891,6.81132947 13.7033787,7.28718129 C13.9716975,7.76303312 13.3013943,9.00026749 13.2441091,9.247734 C13.1864946,9.49516779 12.8612198,9.79725956 12.6696106,9.7128506 C12.4780013,9.62840892 12.9952146,7.47753511 12.9952146,7.47753511" id="Fill-46" fill="#E29088"></path>
            <path d="M6.99047045,7.47753511 C6.99047045,7.47753511 6.54996671,6.81132947 6.28197714,7.28718129 C6.01398757,7.76303312 6.68396149,9.00026749 6.74157596,9.247734 C6.7988612,9.49516779 7.12446523,9.79725956 7.31574525,9.7128506 C7.5073545,9.62840892 6.99047045,7.47753511 6.99047045,7.47753511" id="Fill-47" fill="#E29088"></path>
            <path d="M13.1101143,7.37996896 C13.1101143,7.37996896 12.7525754,6.09822269 12.7015454,5.83174043 C12.6505155,5.56525817 12.3568463,5.13378733 11.7569974,4.4865647 C11.1824989,3.86667107 10.0693875,4.16643906 9.97621664,4.19285164 C9.88337504,4.16643906 8.77026358,3.86667107 8.19543583,4.4865647 C7.59558694,5.13378733 7.30191778,5.56525817 7.25088783,5.83174043 C7.19985787,6.09822269 6.84231896,7.37996896 6.84231896,7.37996896 L6.90618871,7.73527864 C6.90618871,7.73527864 6.86306017,8.37327159 7.08495817,9.1565828 C7.34043717,10.0576214 7.19985787,10.3875659 7.55739678,11.0347558 C7.91460647,11.6819457 8.54013494,12.4814579 9.86790144,12.5702853 L9.97621664,12.5462947 L10.0848611,12.5702853 C11.4122983,12.4814579 12.0378268,11.6819457 12.3953657,11.0347558 C12.7525754,10.3875659 12.6123253,10.0576214 12.8674751,9.1565828 C13.0897023,8.37327159 13.0462446,7.73527864 13.0462446,7.73527864 L13.1101143,7.37996896" id="Fill-48" fill="#EFA99D"></path>
            <path d="M10.2507907,2.74801508 C10.2507907,2.74801508 9.7783521,2.31654424 8.87199426,2.55766126 C7.96563642,2.79877828 7.57649186,3.0044167 7.23179275,3.3470274 C6.88709363,3.68967082 6.74684356,4.05126453 6.42782404,4.9269052 C6.10847529,5.80254586 6.38304937,6.52969353 6.60000899,7.12615296 C6.8169686,7.72257966 6.8169686,7.87486926 6.95721867,7.7606766 C7.09779796,7.64645122 7.07211837,7.4560974 7.14882792,6.93579914 C7.22553746,6.41550088 7.18701808,6.36473767 7.50636683,5.98403003 C7.82538635,5.60332239 8.06802555,5.03226093 8.31033553,4.82920813 C8.55297474,4.62615532 8.88483406,4.47389845 9.35727267,4.66425227 C9.82938206,4.85460609 10.2636305,4.67691852 10.3656904,4.29621088 C10.4677503,3.91550324 10.5444599,3.61095677 10.4677503,3.34444178 C10.3910408,3.07795952 10.3656904,2.76068133 10.2507907,2.74801508" id="Fill-49" fill="#1C1C1D"></path>
            <path d="M10.3656904,4.39773728 C10.3656904,4.39773728 10.3146605,4.67691852 10.7103895,4.75307969 C11.1061186,4.82920813 11.782677,4.47389845 12.1784061,5.05762617 C12.5741352,5.64138661 12.7910948,6.16168487 12.8803149,6.73274633 C12.9698642,7.3038078 12.9823748,7.64645122 13.2506936,7.59568802 C13.5186832,7.54492482 13.4676532,6.87233695 13.6335829,6.50432829 C13.7995125,6.13631964 13.8646992,4.53248396 13.3412306,3.93605726 C12.8180913,3.33959784 13.0847639,3.20485116 12.2037565,2.70991813 C11.3230782,2.21501784 10.4295602,2.35460846 10.2507907,2.74801508 C10.2507907,2.74801508 10.1740812,2.95103515 10.2761411,3.12872272 C10.3785302,3.30637756 10.3656904,3.67438622 10.3400108,3.81397684 C10.3146605,3.95356746 10.2761411,4.3342751 10.3656904,4.39773728" id="Fill-50" fill="#28292B"></path>
            <path d="M10.6718702,7.18961514 C10.6718702,7.18961514 10.5954898,7.37996896 10.8252892,7.37996896 C11.0550886,7.37996896 11.7059675,6.96116437 12.076017,7.03732554 C12.4463957,7.11345397 12.6123253,7.25304459 12.6123253,7.25304459 C12.6123253,7.25304459 12.4365189,6.82157375 11.9881138,6.79620852 C11.5400378,6.77081055 10.9655393,7.01192757 10.6718702,7.18961514" id="Fill-51" fill="#181919"></path>
            <path d="M9.42147165,7.18961514 C9.42147165,7.18961514 9.49818119,7.37996896 9.26838178,7.37996896 C9.03858237,7.37996896 8.38770353,6.96116437 8.01732483,7.03732554 C7.64727535,7.11345397 7.48134569,7.25304459 7.48134569,7.25304459 C7.48134569,7.25304459 7.65715211,6.82157375 8.10522804,6.79620852 C8.55363319,6.77081055 9.12780249,7.01192757 9.42147165,7.18961514" id="Fill-52" fill="#181919"></path>
            <path d="M9.54855269,9.58805364 C9.54855269,9.58805364 9.54855269,9.58314424 9.55052805,9.57407822 C9.55283263,9.56533948 9.55744178,9.55120041 9.57159848,9.53895964 C9.58509673,9.52652249 9.60781329,9.51804559 9.63316365,9.51791468 C9.65851402,9.51739101 9.68649818,9.52292226 9.71547003,9.53215194 C9.72370067,9.53558852 9.7292975,9.53719226 9.73719891,9.54105432 C9.7447711,9.54491638 9.75300174,9.54874571 9.75958625,9.55336055 C9.76320773,9.55561887 9.76682921,9.55790993 9.77045069,9.56023371 C9.77407217,9.56275387 9.77736443,9.56533948 9.78065668,9.5679251 C9.78789964,9.57296542 9.79415493,9.57882397 9.80073944,9.58445342 C9.82707748,9.60769125 9.85144017,9.63469295 9.87481518,9.66306928 C9.89819019,9.69138016 9.92189443,9.72034562 9.94658634,9.74747824 C9.97127825,9.77392355 9.9989332,9.79909241 10.0282343,9.80727474 C10.0427202,9.81172593 10.0575353,9.81205322 10.0723505,9.80851845 C10.0874949,9.80547463 10.1019808,9.79670316 10.1164667,9.78776806 C10.1444509,9.76780316 10.1704597,9.74240519 10.1931763,9.71550168 C10.2165513,9.68761629 10.2425601,9.66087642 10.2679104,9.63816226 C10.29359,9.61498989 10.3202573,9.59574504 10.3469246,9.58072227 C10.3732626,9.56553586 10.3996006,9.55519339 10.4242926,9.55031672 C10.4489845,9.54524367 10.471701,9.54760018 10.4888208,9.55221502 C10.4973806,9.55502974 10.5049528,9.55738626 10.5105496,9.56128105 C10.5164757,9.56458671 10.5214141,9.56730324 10.5250356,9.57057618 C10.5319493,9.57646746 10.5359,9.57960948 10.5359,9.57960948 C10.5359,9.57960948 10.5316201,9.57731842 10.5233894,9.57306361 C10.519768,9.57057618 10.5141711,9.56890698 10.5082451,9.56687776 C10.502319,9.56439033 10.4947468,9.56344118 10.4868454,9.56213201 C10.4703841,9.56052827 10.4506306,9.56187018 10.4292309,9.56913609 C10.4078313,9.57656565 10.385444,9.58903552 10.3627274,9.60526928 C10.3400108,9.62166667 10.316965,9.64208978 10.2945777,9.66545852 C10.2718611,9.68899092 10.2507907,9.71491255 10.2280742,9.74351799 C10.2221481,9.75088209 10.216222,9.75827892 10.2099668,9.76574121 C10.2040407,9.77313804 10.197127,9.78020758 10.1905424,9.78750622 C10.1839579,9.79493578 10.1760565,9.80148165 10.1688136,9.80858391 C10.1615706,9.81555526 10.1526815,9.82147927 10.1444509,9.82795968 C10.1266727,9.83957859 10.1079068,9.85136116 10.0845318,9.85689241 C10.0621445,9.86284915 10.0364649,9.86281642 10.0134191,9.85584508 C9.99070256,9.84880827 9.97094903,9.8367966 9.95448775,9.82331211 C9.93802648,9.8097949 9.92321133,9.79519761 9.91004231,9.78030577 C9.88337504,9.75058753 9.86164616,9.71933101 9.83958805,9.69069284 C9.81752994,9.66212013 9.79678873,9.63456203 9.77473062,9.61174968 C9.76353696,9.60049079 9.75234329,9.58988649 9.74049117,9.58124594 C9.73456511,9.57633654 9.72896828,9.57312907 9.72337144,9.56926701 C9.71810383,9.56566678 9.70954397,9.56196836 9.70493481,9.5592191 C9.678926,9.54818931 9.65456331,9.5398106 9.6325052,9.53722498 C9.61044709,9.5346721 9.59102279,9.53833778 9.57752454,9.54691287 C9.56402629,9.55535704 9.55678333,9.56694322 9.55316185,9.57499464 C9.54954037,9.58317697 9.54855269,9.58805364 9.54855269,9.58805364" id="Fill-53" fill="#DE7F76"></path>
            <path d="M9.56567242,9.1142965 C9.56567242,9.1142965 9.55546643,9.12427895 9.53867593,9.14201825 C9.5215562,9.15979028 9.49785196,9.18548281 9.47151392,9.21745937 C9.44583433,9.24966503 9.41686249,9.28822019 9.3951336,9.33273209 C9.38426916,9.35492258 9.37538007,9.37852043 9.37077092,9.40254377 C9.36912479,9.4145227 9.36747866,9.42663256 9.36813711,9.43854604 C9.36813711,9.45062316 9.37011247,9.46162022 9.37340472,9.47471195 C9.37603852,9.48495623 9.38064768,9.49726247 9.38624452,9.50829225 C9.39184135,9.51948568 9.39809663,9.53051547 9.4053396,9.54102159 C9.41949629,9.56209928 9.43628679,9.58183507 9.45373575,9.59999985 C9.48863365,9.63655852 9.52649458,9.66702953 9.55908791,9.69311481 C9.59201046,9.71884007 9.62032386,9.74004868 9.63941894,9.75566058 C9.6492957,9.76335197 9.65653866,9.76993057 9.66147705,9.77464359 C9.6660862,9.77938935 9.66773233,9.78266228 9.66773233,9.78266228 C9.66773233,9.78266228 9.66542775,9.78014212 9.65950169,9.77696737 C9.65390486,9.77362898 9.64501577,9.76960327 9.63415133,9.7641702 C9.61176399,9.75346771 9.57982912,9.73854313 9.54262663,9.71723634 C9.52419001,9.70666476 9.50410725,9.69465309 9.48402449,9.68048129 C9.46361251,9.66640768 9.44254208,9.65076305 9.4221301,9.63233644 C9.40204734,9.61397528 9.38196458,9.59325761 9.36451563,9.56920155 C9.35595577,9.55718988 9.34772513,9.54435998 9.34081139,9.53058093 C9.33389766,9.5166055 9.3279716,9.50276099 9.32369167,9.48593811 C9.32007019,9.47199542 9.31743638,9.45513981 9.31743638,9.43936427 C9.31677793,9.42332689 9.31941174,9.40781319 9.32237477,9.39272496 C9.3292885,9.36281035 9.34114062,9.33571046 9.35529732,9.31162167 C9.36912479,9.28740196 9.38558606,9.26642246 9.40171811,9.24747217 C9.41785016,9.2284237 9.43431144,9.2120263 9.45044349,9.1975272 C9.48204914,9.16852901 9.51135021,9.14790953 9.53209142,9.13429412 C9.55283263,9.12071145 9.56567242,9.1142965 9.56567242,9.1142965" id="Fill-54" fill="#DE7F76"></path>
            <path d="M10.5296447,9.1142965 C10.5296447,9.1142965 10.5424845,9.12071145 10.5632257,9.13429412 C10.5839669,9.14790953 10.613268,9.16852901 10.6452029,9.1975272 C10.6610057,9.2120263 10.6777962,9.2284237 10.6939283,9.24747217 C10.7100603,9.26642246 10.7261924,9.28740196 10.7403491,9.31162167 C10.7541765,9.33571046 10.7663579,9.36281035 10.7729424,9.39272496 C10.7759054,9.40781319 10.7785392,9.42332689 10.7778808,9.43936427 C10.7778808,9.45513981 10.775247,9.47199542 10.7716255,9.48593811 C10.7673455,9.50276099 10.7614195,9.5166055 10.7545058,9.53058093 C10.747592,9.54435998 10.7396906,9.55718988 10.7308015,9.56920155 C10.7133526,9.59325761 10.693599,9.61397528 10.6731871,9.63233644 C10.6527751,9.65076305 10.6317046,9.66640768 10.6112927,9.68048129 C10.5912099,9.69465309 10.5714564,9.70666476 10.5526905,9.71723634 C10.5158173,9.73854313 10.4835532,9.75346771 10.461495,9.7641702 C10.4503014,9.76960327 10.4414123,9.77362898 10.4358155,9.77696737 C10.4302186,9.78014212 10.4275848,9.78266228 10.4275848,9.78266228 C10.4275848,9.78266228 10.4292309,9.77938935 10.4341693,9.77464359 C10.4387785,9.76993057 10.4463507,9.76335197 10.4558982,9.75566058 C10.4753225,9.74004868 10.5033067,9.71884007 10.5362292,9.69311481 C10.5688226,9.66702953 10.6066835,9.63655852 10.6415814,9.59999985 C10.6590304,9.58183507 10.6758209,9.56209928 10.6903068,9.54102159 C10.6975497,9.53051547 10.703805,9.51948568 10.7090726,9.50829225 C10.7146695,9.49726247 10.7192786,9.48495623 10.7219124,9.47471195 C10.7255339,9.46162022 10.72718,9.45062316 10.7275093,9.43854604 C10.7278385,9.42663256 10.7265216,9.4145227 10.7245462,9.40254377 C10.7199371,9.37852043 10.711048,9.35492258 10.7005128,9.33273209 C10.6787839,9.28822019 10.6494828,9.24966503 10.6238032,9.21745937 C10.5974652,9.18548281 10.5737609,9.15979028 10.5569704,9.14201825 C10.5398507,9.12427895 10.5296447,9.1142965 10.5296447,9.1142965" id="Fill-55" fill="#DE7F76"></path>
            <path d="M8.94442387,10.6897886 C8.94442387,10.6897886 9.1060736,10.8063377 9.28484306,10.9839926 C9.46361251,11.1616474 9.65917247,11.2885718 10.0763012,11.2970159 C10.4934299,11.3054928 10.7824899,11.0178347 10.8677593,10.9247852 C10.9526995,10.831703 11.0675992,10.6897886 11.0675992,10.6897886 C11.0675992,10.6897886 11.0633193,10.68321 10.8167294,10.6897886 C10.5698102,10.6963344 8.94442387,10.6897886 8.94442387,10.6897886" id="Fill-56" fill="#DF5F5E"></path>
            <path d="M10.6613349,10.5028059 C10.4486553,10.3589932 10.2507907,10.2648636 10.0081515,10.391788 C9.7615616,10.2648636 9.56567242,10.3589932 9.35299274,10.5028059 C9.14031306,10.6466513 8.94442387,10.6897886 8.94442387,10.6897886 C8.9783341,10.68321 9.19990287,10.7809398 9.44649278,10.7555745 C9.69341192,10.7301766 10.0081515,10.7936388 10.0081515,10.7936388 C10.0081515,10.7936388 10.3209158,10.7301766 10.5678349,10.7555745 C10.8144248,10.7809398 11.033689,10.68321 11.0675992,10.6897886 C11.0675992,10.6897886 10.8740146,10.6466513 10.6613349,10.5028059" id="Fill-57" fill="#E46E6D"></path>
            <path d="M10.5902222,8.1540505 C10.6037205,8.14396986 10.6208402,8.13971505 10.6369722,8.13536205 C10.6537627,8.13149998 10.6705532,8.12937258 10.6873437,8.12753974 C10.721254,8.12413588 10.7551642,8.12452864 10.7887452,8.12564143 C10.8058649,8.12623056 10.8226554,8.12753974 10.8394459,8.12865253 C10.8562364,8.13009262 10.8730269,8.13215457 10.8898174,8.13388923 C10.9066079,8.13555842 10.9230692,8.13850406 10.9398597,8.14079512 L10.9648809,8.14442807 L10.9895728,8.14891199 L11.0392858,8.15804348 L11.0883404,8.16858232 L11.1857912,8.18936545 C11.2019232,8.19283476 11.2177261,8.19496217 11.2335289,8.198006 C11.2496609,8.20062434 11.2651345,8.20419184 11.2815958,8.20595923 L11.3296627,8.21247236 C11.3457948,8.21505798 11.3619268,8.21564711 11.3780589,8.21734903 C11.410323,8.2208838 11.4425871,8.2214402 11.4748512,8.22301121 C11.5067861,8.22235662 11.5390502,8.2233385 11.570985,8.22042559 C11.6032491,8.21908369 11.6348548,8.21427248 11.6664604,8.21037769 L11.7138689,8.20167168 C11.7293425,8.19882423 11.7448161,8.19440577 11.7606189,8.19083827 C11.7760925,8.18749988 11.7915661,8.18262321 11.8067105,8.177812 C11.8221841,8.1731317 11.8376577,8.16890962 11.8524728,8.16292015 C11.8676172,8.15722524 11.8830908,8.15218493 11.897906,8.14596635 L11.9423514,8.1270488 C11.9716525,8.11300791 12.0012828,8.09975253 12.0295962,8.08364969 C12.0588972,8.06885603 12.0865522,8.05137857 12.1148656,8.03504663 L12.1132195,8.0363558 C12.1171702,8.03331198 12.119804,8.03190461 12.1230962,8.03007177 C12.1260592,8.02823893 12.1290223,8.0268643 12.1319853,8.02532602 C12.1379114,8.02247857 12.1438374,8.0197293 12.1500927,8.01770008 C12.1560188,8.0153763 12.1622741,8.01367437 12.1685293,8.01213609 C12.1744554,8.01030325 12.1807107,8.00951775 12.186966,8.00827403 C12.1932213,8.00703032 12.1994765,8.00673575 12.2057318,8.00595025 C12.2116579,8.00509929 12.2179132,8.00536112 12.2241685,8.00506656 C12.2304237,8.00470654 12.2363498,8.00513202 12.2426051,8.00542658 C12.2488604,8.00575387 12.2547864,8.00591752 12.2607125,8.0068994 L12.2788199,8.00948502 L12.2965981,8.013478 C12.3025241,8.01472171 12.308121,8.01619453 12.3137178,8.01812556 L12.3308375,8.02346045 C12.3367636,8.02516237 12.3420312,8.02771526 12.347628,8.0298754 L12.3637601,8.03665037 L12.3953657,8.05255683 L12.3614555,8.04326169 L12.3443358,8.03979238 C12.3387389,8.03874505 12.3331421,8.03720677 12.3275453,8.03642126 L12.3104255,8.03403202 C12.3048287,8.03308287 12.2992319,8.03854867 12.293635,8.03831956 L12.2765153,8.04322896 L12.2597248,8.04322896 C12.254128,8.04322896 12.2485311,8.03782862 12.2429343,8.03828683 C12.2373375,8.03874505 12.2320699,8.03615943 12.226473,8.0372395 C12.2212054,8.03828683 12.2156086,8.0372395 12.210341,8.03874505 C12.2050734,8.04018514 12.1998058,8.04038151 12.1945382,8.04218163 C12.1895998,8.04398174 12.1843322,8.04493089 12.179723,8.04715648 C12.1747846,8.04912024 12.1698462,8.05108401 12.1652371,8.05344052 C12.1602987,8.05563338 12.1560188,8.05825173 12.1517388,8.06087008 L12.1951966,8.06499397 L12.2396421,8.06856147 L12.2396421,8.06875785 L12.1889413,8.07000156 C12.1619448,8.09003192 12.1102564,8.11055321 12.0816138,8.12878345 C12.0536296,8.14783192 12.011818,8.1646548 11.9818585,8.18128131 L11.9301701,8.20451913 C11.9146965,8.21201415 11.8956014,8.21826546 11.8797986,8.22517135 C11.864325,8.23230634 11.8465468,8.23790306 11.8304147,8.24366342 C11.8139535,8.24942378 11.797163,8.25521688 11.7803725,8.25953715 C11.763582,8.26398834 11.7467915,8.2695196 11.730001,8.27302164 L11.6793002,8.28356048 C11.6450608,8.28879718 11.6108213,8.29432843 11.5762526,8.2959649 C11.5420132,8.29936875 11.5074445,8.29864871 11.4732051,8.29881235 C11.4389656,8.29684859 11.4047261,8.29625946 11.3708159,8.29154644 C11.3365765,8.28830624 11.3029955,8.28270952 11.2694145,8.27681824 C11.252624,8.27429808 11.2361627,8.26991235 11.2193722,8.26647577 C11.2029109,8.26277735 11.1857912,8.25940623 11.1696591,8.2550205 L11.1215922,8.24199422 L11.0969003,8.23521925 L11.0731961,8.22837882 C11.0412612,8.21914915 11.0096555,8.21008312 10.9777207,8.20176987 C10.9619178,8.19735141 10.946115,8.19322751 10.929983,8.18939818 C10.9141801,8.18560158 10.8980481,8.18118312 10.881916,8.17784473 C10.8499812,8.17041517 10.8177171,8.16383657 10.785453,8.15797802 C10.7531889,8.15251222 10.7205955,8.14809376 10.687673,8.14570452 C10.6794423,8.14521358 10.6712117,8.14508266 10.6629811,8.14472264 C10.6550796,8.14465718 10.646849,8.14495174 10.6386184,8.14504993 C10.6221571,8.14619546 10.6053666,8.14734098 10.5902222,8.1540505" id="Fill-58" fill="#181919"></path>
            <path d="M9.43365299,8.14138424 C9.41850862,8.134642 9.40171811,8.13349647 9.38558606,8.13238368 C9.37735543,8.13225276 9.36912479,8.1319582 9.36089415,8.13205638 C9.35266351,8.13238368 9.34443288,8.13251459 9.33620224,8.13300553 C9.30360891,8.13539478 9.27101559,8.13984597 9.23875148,8.14527904 C9.20615816,8.15113759 9.17389406,8.15771618 9.14195918,8.16514574 C9.12582713,8.16848413 9.11002431,8.1729026 9.09389226,8.1766992 C9.07808943,8.18056126 9.06195738,8.18468516 9.04615456,8.18907089 C9.01421968,8.19738414 8.98261403,8.20645017 8.95100839,8.21567984 L8.92730415,8.22252027 L8.90261223,8.22929524 L8.85454531,8.24235425 C8.83841326,8.24670725 8.82129353,8.25007837 8.80483226,8.25380952 C8.78804176,8.25721337 8.77125125,8.26163183 8.75446075,8.26411926 C8.72087975,8.27001054 8.68729875,8.27563998 8.65338852,8.27884746 C8.61947829,8.28356048 8.58523884,8.28414961 8.55099938,8.28611337 C8.51643071,8.28594972 8.48219125,8.28666977 8.44762257,8.28326592 C8.41338312,8.28162945 8.37914367,8.27613092 8.34490421,8.27089423 L8.29420348,8.26032265 C8.27741298,8.25682061 8.26095171,8.25128936 8.24449043,8.24683817 C8.22769993,8.24255062 8.21156788,8.2367248 8.19543583,8.23096444 C8.17897455,8.22520407 8.1628425,8.21964009 8.14703968,8.21250509 C8.13156608,8.20556647 8.11543403,8.19931517 8.09996043,8.19182015 L8.05452731,8.16861505 C8.02456779,8.15195582 7.99493749,8.13516567 7.96695332,8.1161172 C7.9383107,8.09788696 7.91164344,8.07739839 7.88464694,8.05733531 L7.88300082,8.05615705 L7.88267159,8.05602613 L7.87839166,8.05226226 L7.87213637,8.04810564 C7.86785644,8.04548729 7.86357651,8.04273802 7.85896735,8.04057789 C7.85402897,8.03818865 7.84941981,8.03606124 7.84448143,8.03409748 C7.83954305,8.03187188 7.83427544,8.03056271 7.82933706,8.0287626 C7.82439867,8.02696248 7.81880184,8.02604606 7.81353423,8.02460597 C7.80826662,8.02310042 7.80299902,8.02267494 7.79740218,8.0216276 C7.79213457,8.02054753 7.78653774,8.03239555 7.78094091,8.03193734 C7.77534407,8.03151186 7.77007646,8.04322896 7.76447963,8.04322896 L7.7473599,8.04322896 L7.7305694,8.03197007 C7.72497257,8.03219918 7.71904651,8.026537 7.71344968,8.02748615 L7.69632995,8.02683157 C7.69073312,8.02758434 7.68513628,8.02761707 7.67953945,8.02863168 L7.66241972,8.03134822 L7.62883872,8.04025059 L7.66011514,8.02414776 L7.67657642,8.0172746 C7.68184403,8.01511446 7.68744086,8.01249612 7.69303769,8.01082692 L7.71015742,8.00545931 C7.71575425,8.00352828 7.72168031,8.00205546 7.72760637,8.00081174 L7.74505533,7.99681877 L7.76316273,7.99423315 C7.76908879,7.99321854 7.77534407,7.99308762 7.78127013,7.99276033 C7.78752542,7.99243303 7.7937807,7.99200755 7.79970676,7.99236758 C7.80596205,7.99269487 7.81221733,7.9924003 7.81847261,7.99325127 C7.8247279,7.99403677 7.83098318,7.99433134 7.83690924,7.99557505 C7.84316453,7.99681877 7.84941981,7.99760427 7.8556751,7.99943711 C7.86193038,8.00100812 7.86785644,8.00267732 7.87411173,8.00503383 C7.88003779,8.00706305 7.88596385,8.00981231 7.89221913,8.01262703 C7.89518216,8.01416531 7.89814519,8.01553995 7.90110822,8.01737279 C7.90407125,8.01920563 7.90670505,8.02064572 7.91065576,8.02368955 L7.90900963,8.02234765 C7.93765225,8.03867959 7.96530719,8.05615705 7.99427904,8.07095071 C8.02259243,8.08705355 8.05222273,8.10030893 8.0815238,8.11434981 L8.12629847,8.1333001 C8.14111362,8.13948594 8.15625799,8.14455899 8.17140237,8.15025389 C8.18621751,8.15621063 8.20202034,8.16043272 8.21716471,8.16514574 C8.23263831,8.16995696 8.24778269,8.1748009 8.26358551,8.17813929 C8.27905911,8.18170679 8.29453271,8.18615798 8.31033553,8.18900543 L8.35741478,8.1976787 C8.38934966,8.20157349 8.42095531,8.20641744 8.45289018,8.20775934 C8.48482506,8.21067225 8.51708916,8.20965764 8.54935326,8.21031223 C8.58161736,8.20874122 8.61355223,8.20818482 8.64581633,8.20465005 C8.66194838,8.20294813 8.67808043,8.202359 8.69421248,8.19977338 L8.74260863,8.19326024 C8.75874068,8.19149286 8.77454351,8.18792536 8.79034633,8.18530701 C8.80647838,8.18226319 8.82195198,8.18013578 8.83841326,8.17666647 L8.93553479,8.15591607 L8.98491861,8.14534449 L9.03430244,8.13624574 L9.05932358,8.13176182 L9.08434472,8.12809613 C9.10080599,8.12583781 9.1175965,8.12285944 9.134387,8.12119024 C9.1511775,8.11945559 9.16763877,8.11739364 9.18442927,8.11598628 C9.201549,8.11484075 9.2183395,8.11353158 9.23513,8.11294245 C9.26904023,8.11182965 9.30295046,8.11146963 9.33653146,8.11484075 C9.35365119,8.1166736 9.37044169,8.118801 9.38690297,8.12266306 C9.40303502,8.12701607 9.42015474,8.13127088 9.43365299,8.14138424" id="Fill-59" fill="#181919"></path>
            <path d="M13.1101143,7.83680504 C13.1101143,7.83680504 13.114065,7.83068465 13.1216372,7.81962214 C13.1295386,7.80862508 13.1407323,7.7923586 13.1565351,7.77268827 C13.1723379,7.75298521 13.1920915,7.72922371 13.2167834,7.70392393 C13.2418045,7.67865689 13.2711056,7.65086968 13.3089665,7.62622449 C13.3283908,7.61414736 13.3494613,7.60256118 13.3748116,7.59516435 C13.3873222,7.59130229 13.4014789,7.58943671 13.4159648,7.58933853 C13.4232078,7.58966582 13.43078,7.59045132 13.4383521,7.59185869 C13.4455951,7.59418247 13.4534965,7.59539345 13.4604103,7.59928824 C13.4897113,7.6125109 13.5104525,7.63751611 13.52428,7.66291407 L13.5295476,7.67260196 L13.5298768,7.67322382 C13.5302061,7.67417297 13.5292184,7.67191464 13.5308645,7.67551487 L13.5311937,7.67662767 L13.5321814,7.67891872 L13.5338275,7.68343537 L13.537449,7.69256685 C13.5387659,7.69561068 13.5400828,7.69849086 13.5410705,7.70251657 C13.5427166,7.71007705 13.544692,7.71767025 13.5466673,7.72529619 C13.5483135,7.73292213 13.5489719,7.73972983 13.5502888,7.74702847 C13.5529226,7.76152757 13.5529226,7.7757321 13.5539103,7.79026392 C13.5542395,7.80459937 13.5542395,7.81903301 13.5535811,7.83343392 C13.5522642,7.86210482 13.5496304,7.89090663 13.5453504,7.91947934 C13.5371198,7.97672295 13.5239508,8.03354108 13.5091356,8.08960643 C13.4939913,8.1455736 13.4765423,8.20082072 13.4574472,8.25430046 C13.4383521,8.30791111 13.4179402,8.35991802 13.397199,8.40973207 C13.3761285,8.45957885 13.3540704,8.50687274 13.3326708,8.55148283 C13.3112711,8.5961911 13.289213,8.63752826 13.2684718,8.6753961 C13.2480598,8.71339486 13.2276478,8.74736791 13.2092112,8.77724979 C13.1904453,8.80706622 13.1736548,8.83249691 13.1588397,8.85298548 C13.1443538,8.87367042 13.1318432,8.88911866 13.1232833,8.89962478 C13.1147235,8.90996725 13.1101143,8.91546578 13.1101143,8.91546578 C13.1101143,8.91546578 13.1137358,8.90924721 13.1203203,8.89756283 C13.127234,8.88594392 13.1364524,8.8686301 13.1479752,8.84643961 C13.1594981,8.82434731 13.1726672,8.79692012 13.1878115,8.76566361 C13.2022975,8.73414526 13.2184295,8.69850301 13.2355492,8.65939145 C13.252669,8.62018171 13.2704471,8.57756811 13.2888838,8.53233617 C13.3073204,8.48700604 13.325757,8.43892664 13.3445229,8.38907986 C13.3629595,8.33916762 13.3810669,8.28735708 13.3988451,8.23449921 C13.416294,8.18157587 13.4330845,8.12753974 13.4475705,8.07314358 C13.4623856,8.01884561 13.4748962,7.96408943 13.4841145,7.91015148 C13.4926744,7.85634445 13.4989296,7.80257015 13.4939913,7.75357434 C13.4933328,7.74765033 13.4933328,7.74107173 13.4920159,7.73570412 C13.4910282,7.73036924 13.4900406,7.72506708 13.4890529,7.71979766 C13.4890529,7.71731023 13.487736,7.71410276 13.4867483,7.71099347 L13.483456,7.70166561 L13.4811515,7.69430151 L13.47753,7.68674103 C13.4683117,7.66638338 13.4554719,7.65021509 13.4396691,7.64177092 C13.4241955,7.63273763 13.4047711,7.6323776 13.3850176,7.63620694 C13.3652641,7.64003627 13.3455106,7.64818587 13.3274032,7.65751373 C13.2915176,7.67692223 13.2602411,7.7000946 13.2332447,7.72172869 C13.2065774,7.74362462 13.1841901,7.76394954 13.1660826,7.78113244 C13.1295386,7.81562916 13.1101143,7.83680504 13.1101143,7.83680504" id="Fill-60" fill="#CF7370"></path>
            <path d="M6.84890347,7.83680504 C6.84890347,7.83680504 6.82914994,7.81562916 6.79293514,7.78113244 C6.77482773,7.76394954 6.7524404,7.74362462 6.72577313,7.72172869 C6.69877664,7.7000946 6.66750022,7.67692223 6.63128541,7.65751373 C6.61317801,7.64818587 6.5937537,7.64003627 6.57400017,7.63620694 C6.55424664,7.6323776 6.53449311,7.63273763 6.51934873,7.64177092 C6.50354591,7.65021509 6.49070611,7.66638338 6.4814878,7.68674103 L6.47786632,7.69430151 L6.47523252,7.70166561 L6.47226949,7.71099347 C6.47128181,7.71410276 6.46996491,7.71731023 6.46996491,7.71979766 C6.46897723,7.72506708 6.46798955,7.73036924 6.46667265,7.73570412 C6.46568498,7.74107173 6.46568498,7.74765033 6.4646973,7.75357434 C6.46008814,7.80257015 6.4660142,7.85634445 6.47490329,7.91015148 C6.4841216,7.96408943 6.49663217,8.01884561 6.51144732,8.07314358 C6.52593324,8.12753974 6.54272375,8.18157587 6.5601727,8.23449921 C6.57795088,8.28735708 6.59605828,8.33916762 6.61449491,8.38907986 C6.63326076,8.43892664 6.65169739,8.48700604 6.67013402,8.53233617 C6.68857065,8.57756811 6.70634883,8.62018171 6.72313933,8.65939145 C6.74058828,8.69850301 6.75672033,8.73414526 6.77120625,8.76566361 C6.78635063,8.79692012 6.79951965,8.82434731 6.81104254,8.84643961 C6.82256543,8.8686301 6.83178375,8.88594392 6.83869748,8.89756283 C6.84528199,8.90924721 6.84890347,8.91546578 6.84890347,8.91546578 C6.84890347,8.91546578 6.84429432,8.90996725 6.83540523,8.89962478 C6.82717459,8.88911866 6.81466402,8.87367042 6.8001781,8.85298548 C6.78536295,8.83249691 6.76824322,8.80706622 6.74980659,8.77724979 C6.73136997,8.74736791 6.71095798,8.71339486 6.69021678,8.6753961 C6.66947557,8.63752826 6.64774668,8.5961911 6.62634703,8.55148283 C6.60494737,8.50687274 6.58288926,8.45957885 6.56181883,8.40973207 C6.54107762,8.35991802 6.52033641,8.30791111 6.50157056,8.25430046 C6.48247548,8.20082072 6.46502652,8.1455736 6.44988215,8.08960643 C6.43473778,8.03354108 6.42189798,7.97672295 6.41366734,7.91947934 C6.40938741,7.89090663 6.40675361,7.86210482 6.40543671,7.83343392 C6.40477826,7.81903301 6.40477826,7.80459937 6.40510748,7.79026392 C6.40609516,7.7757321 6.40609516,7.76152757 6.40872896,7.74702847 C6.41004586,7.73972983 6.41037509,7.73292213 6.41235044,7.72529619 C6.41432579,7.71767025 6.41630115,7.71007705 6.41794728,7.70251657 C6.41893495,7.69849086 6.42025185,7.69561068 6.42156876,7.69256685 L6.42486101,7.68343537 L6.42683636,7.67891872 L6.42782404,7.67662767 L6.42815327,7.67551487 C6.42947017,7.67191464 6.42881172,7.67417297 6.42914094,7.67322382 L6.42947017,7.67260196 L6.43473778,7.66291407 C6.44856525,7.63751611 6.46930646,7.6125109 6.49860753,7.59928824 C6.50519204,7.59539345 6.51342267,7.59418247 6.52066564,7.59185869 C6.5279086,7.59045132 6.53581001,7.58966582 6.54305297,7.58933853 C6.55753889,7.58943671 6.57136637,7.59130229 6.58420616,7.59516435 C6.60955653,7.60256118 6.63062696,7.61414736 6.65005126,7.62622449 C6.6879122,7.65086968 6.71721327,7.67865689 6.74223441,7.70392393 C6.76692632,7.72922371 6.78667985,7.75298521 6.80248268,7.77268827 C6.8182855,7.7923586 6.82947917,7.80862508 6.83738058,7.81962214 C6.84495277,7.83068465 6.84890347,7.83680504 6.84890347,7.83680504" id="Fill-61" fill="#CF7370"></path>
            <path d="M7.00100566,7.20293598 C7.00100566,7.20293598 7.00429792,7.20944912 7.01022398,7.22198445 C7.01582081,7.23451979 7.02438067,7.25294641 7.03392821,7.27683882 C7.05335252,7.32459092 7.07804443,7.39407531 7.09977332,7.48002254 C7.12117297,7.56596978 7.14026805,7.66857625 7.14487721,7.78136154 C7.14520644,7.79550062 7.14553566,7.80977061 7.14586489,7.82410606 C7.14586489,7.83853969 7.14553566,7.85303879 7.14520644,7.8676688 C7.14454799,7.88229882 7.14356031,7.89705975 7.14290186,7.91191887 C7.14158496,7.92677799 7.1396096,7.94170256 7.13796348,7.9566926 C7.13072051,8.0167182 7.11656382,8.07788933 7.09351803,8.13729308 C7.08693352,8.15195582 7.08067824,8.16658583 7.0737645,8.18108493 C7.06586309,8.195224 7.05862013,8.20962491 7.05038949,8.22340396 C7.04117117,8.23688845 7.03326976,8.25096206 7.02273455,8.26356286 L7.00726095,8.28251314 L7.00067644,8.29085912 L6.99343348,8.29904146 C6.98454439,8.30987487 6.9743384,8.32113376 6.96742466,8.33075618 L6.95557254,8.34551712 L6.94437887,8.36125993 C6.9292345,8.38214124 6.91672393,8.40400444 6.90487181,8.42557307 C6.88248448,8.4693322 6.86701088,8.51417139 6.86042637,8.55855237 C6.85713411,8.5806774 6.85548798,8.60263878 6.85614644,8.62404377 C6.85614644,8.64551421 6.85812179,8.66642826 6.86141404,8.68649134 C6.8673401,8.72681389 6.87853377,8.76363439 6.89005666,8.79613462 C6.90190878,8.82860212 6.91409013,8.85665116 6.92462534,8.87985626 C6.93516056,8.90322501 6.9433912,8.92155344 6.94898803,8.93405604 C6.95458486,8.94665684 6.95721867,8.95356273 6.95721867,8.95356273 C6.95721867,8.95356273 6.95260951,8.94796601 6.9433912,8.93755808 C6.93483133,8.92698651 6.92100386,8.9120292 6.90487181,8.89186793 C6.88873976,8.87173939 6.86964468,8.8465378 6.85022038,8.81537947 C6.8311253,8.78405749 6.81104254,8.74674605 6.79655662,8.70229961 C6.78207069,8.65808228 6.77252315,8.60650084 6.77449851,8.55128645 C6.77581541,8.49607206 6.78931366,8.43810841 6.81235944,8.38295948 C6.82421156,8.35556502 6.83803903,8.32846513 6.85450031,8.30283806 C6.86964468,8.27730918 6.89038589,8.24978381 6.90717639,8.22890249 L6.91409013,8.22049105 L6.92034541,8.21188324 L6.9318683,8.1968932 C6.93581901,8.19211472 6.93878204,8.18648527 6.94240352,8.18115039 L6.95260951,8.16514574 C6.95919402,8.15418141 6.96479086,8.14246431 6.97104614,8.13120542 L6.98651974,8.09533407 C7.00627327,8.04656736 7.01911307,7.99390585 7.02800215,7.94088433 C7.03656202,7.88776462 7.0415004,7.8340885 7.04347575,7.78159065 C7.04709723,7.67652948 7.0415004,7.576705 7.03458666,7.49092141 C7.02701448,7.40513782 7.01812539,7.33313328 7.0118701,7.28263191 C7.00824862,7.25729941 7.00561482,7.23739997 7.00396869,7.2238173 C7.00199334,7.21020189 7.00100566,7.20293598 7.00100566,7.20293598" id="Fill-62" fill="#1C1C1D"></path>
            <path d="M6.74025905,7.49416162 C6.74025905,7.49416162 6.90618871,7.7606766 6.86799855,7.98274515 C6.82980839,8.2048137 6.77943689,8.40151701 6.78865521,8.52209189 C6.78865521,8.52209189 6.85515876,8.38250127 6.98915354,8.23021166 C7.12314833,8.07792206 7.13137897,7.68517002 7.07310605,7.52306162 C7.01483313,7.36092049 6.74025905,7.49416162 6.74025905,7.49416162" id="Fill-63" fill="#1C1C1D"></path>
            <path d="M7.15343708,6.90470627 C7.15343708,6.90470627 7.14257263,7.28479205 7.16166771,7.44974791 C7.18076279,7.61473649 7.21895295,8.02398411 6.99573805,8.2634974 C6.77219393,8.50304341 6.81598092,8.28732436 6.81598092,8.28732436 C6.81598092,8.28732436 6.90289646,8.07910032 6.70667805,7.43132129 C6.51045965,6.78350953 6.9318683,7.01192757 6.9318683,7.01192757 L7.15343708,6.90470627" id="Fill-64" fill="#1C1C1D"></path>
            <path d="M13.0327463,7.48257543 L13.0334048,7.48748483 C13.0334048,7.50627147 13.0334048,7.63116662 13.0399893,7.81775657 C13.0432815,7.91571547 13.0370262,8.06404482 13.0297833,8.19126375 C13.0284664,8.21142502 13.0577675,8.21567984 13.0623766,8.19604224 C13.0827886,8.1125497 13.1078097,8.02454051 13.1357939,7.96219113 C13.2059189,7.80509031 13.4024666,7.5674426 13.4350599,7.36265514 C13.467324,7.15878411 12.9678889,7.29700009 13.0327463,7.48257543" id="Fill-65" fill="#28292B"></path>
            <path d="M12.9685473,7.28119182 C12.9685473,7.28119182 13.0334048,7.51955958 13.0370262,7.71940491 C13.0406477,7.91925024 13.1611443,7.64010173 13.1611443,7.64010173 L13.1739841,7.47832062 L13.1357939,7.37044472 L12.9685473,7.28119182" id="Fill-66" fill="#28292B"></path>
            <path d="M18.2483369,44.6313542 C18.8238231,39.6064191 17.6741676,37.0456759 17.2237871,34.4832961 C16.8494577,32.3529436 16.1656563,31.2565108 15.6007053,30.2327372 C14.9435712,30.4048935 12.5405542,30.9907486 10.0390987,31.0473704 C7.41451291,31.1066105 4.84490777,30.2651392 4.32901139,30.0861098 C3.74891603,31.154068 3.01342623,32.2511554 2.62098942,34.4832961 C2.17060891,37.0456759 1.01864884,39.6064191 1.59413504,44.6313542 C2.16962123,49.6566165 2.5446091,51.4469112 1.86903834,54.1336624 C1.19346758,56.8204136 0.442504185,58.5115385 0.842842411,62.1932615 C1.02194109,63.8388926 1.08811542,65.3441147 1.10688127,66.5069881 C2.12945572,66.9681444 3.35944224,66.6104128 3.6840586,66.5007695 C3.73805159,65.6975916 3.82068719,64.889177 3.94579289,64.3821995 C4.27106769,63.0635346 5.1718287,58.3370911 5.39701895,57.0433004 C5.62220921,55.7498371 7.14849869,53.2372059 7.54916614,50.6002033 C7.94950437,47.9635279 8.37486373,45.9483827 8.6751174,44.7544165 C8.97537107,43.560123 9.70328869,41.6199279 9.70328869,40.0027714 L9.68057213,40.0044079 L9.68057213,40.0276457 C9.68057213,40.0492471 9.83102819,40.0476106 9.9060916,40.0384464 C9.97885044,40.0466287 10.0677413,40.0485925 10.1128452,40.0322278 C10.1217343,41.6431658 10.8591995,43.5673234 11.157807,44.7544165 C11.4580607,45.9483827 11.8870415,47.9635279 12.2873798,50.6002033 C12.6880472,53.2372059 14.216312,55.7498371 14.4415023,57.0433004 C14.6666925,58.3370911 15.4183144,63.2127803 15.7435892,64.531118 C15.8578305,64.99522 15.941783,65.6684625 16.0020312,66.346287 C17.4058488,66.7842055 18.4745148,66.3790164 18.7668671,66.2454807 C18.804728,65.2600003 18.8847298,63.9865019 19.0473672,62.4914258 C19.4477055,58.8097027 18.6476875,56.8204136 17.9721167,54.1336624 C17.296546,51.4469112 17.6728507,49.6566165 18.2483369,44.6313542" id="Fill-67" fill="#4D7066"></path>
            <path d="M3.39993698,31.8587306 C4.0195394,32.1460942 6.34584689,33.0936085 9.97226593,33.037314 C13.2569489,32.9862563 15.632311,32.3863275 16.5544716,32.1117284 C16.246975,31.3625539 15.9065558,30.7868449 15.6007053,30.2327372 C14.9435712,30.4048935 12.5405542,30.9907486 10.0390987,31.0473704 C7.41451291,31.1066105 4.84490777,30.2651392 4.32901139,30.0861098 C4.03731758,30.6228709 3.70677516,31.1668325 3.39993698,31.8587306" id="Fill-68" fill="#395B52"></path>
            <path d="M6.1292165,36.5046599 C6.1292165,36.5046599 6.27670953,36.5949929 6.52428712,36.7687857 C6.7692309,36.9458514 7.1228191,37.19754 7.51360979,37.5421799 C7.70916974,37.7159727 7.91855717,37.9002388 8.12399389,38.125744 C8.32975984,38.3548493 8.51478458,38.6127565 8.7047477,38.8680453 C8.89536927,39.1230068 9.10014754,39.3779684 9.33455611,39.5864543 C9.39052445,39.6440579 9.457028,39.6794056 9.5176055,39.727845 C9.58114602,39.7684294 9.6479788,39.8008314 9.7138239,39.8325789 L9.81621304,39.8636717 L9.86724299,39.8797091 L9.91991907,39.8836366 L10.0246128,39.8934554 C10.0595107,39.8934554 10.095067,39.8836366 10.129965,39.8803637 C10.1651921,39.8734905 10.2010777,39.8767635 10.2356463,39.8636717 L10.3403401,39.8266876 C10.411782,39.8090137 10.4779563,39.765811 10.5447891,39.727845 L10.640923,39.6741689 L10.7442998,39.5985641 C10.8002681,39.552743 10.8568949,39.5023399 10.9135217,39.4460454 C11.1324566,39.2215221 11.3122138,38.9521597 11.4801188,38.6801789 C11.5653882,38.5446795 11.6467069,38.4072163 11.7352686,38.2759716 C11.7793848,38.2095311 11.8238302,38.1466907 11.8712387,38.0812321 C11.9173303,38.0203555 11.9627634,37.9601335 12.0078673,37.9008934 C12.1932213,37.6613147 12.3841721,37.4498832 12.5774274,37.2692172 C12.9599875,36.9039578 13.3507782,36.6840167 13.6316075,36.5675003 C13.7721868,36.506951 13.8887327,36.4758581 13.9674176,36.4555659 C14.0461024,36.4365829 14.0882433,36.4264368 14.0882433,36.4264368 C14.0882433,36.4264368 14.048407,36.4428015 13.9736728,36.4735671 C13.8989386,36.5043326 13.7925988,36.5566996 13.6622255,36.6290314 C13.5328399,36.7029997 13.3794208,36.7995513 13.2204049,36.9314505 C13.0610597,37.0623678 12.8934839,37.2233962 12.7232743,37.410608 C12.5543816,37.5981471 12.3874643,37.8177609 12.2228515,38.0540667 C12.0513251,38.2965911 11.9123919,38.5538437 11.7487668,38.8385889 C11.5861294,39.1180974 11.4139445,39.4208438 11.1591239,39.6833331 C11.0962418,39.7474826 11.0267753,39.8116321 10.9507242,39.8738178 L10.8480058,39.9507318 L10.7215832,40.0263365 C10.6399353,40.0741214 10.5609212,40.1255064 10.4647873,40.1536537 L10.3255249,40.2034022 C10.2794333,40.2197669 10.226428,40.2210761 10.1770442,40.2295857 C10.1266727,40.2344951 10.0763012,40.2446412 10.0256005,40.2440168 L9.87283983,40.2295857 L9.79678873,40.2210761 L9.72435912,40.1991474 L9.58114602,40.1526718 C9.49324281,40.1107782 9.4053396,40.0652844 9.32632547,40.0135721 C9.25323741,39.9556412 9.16994335,39.9058926 9.1073905,39.8410885 C8.83610868,39.5966003 8.63923182,39.3138189 8.45157328,39.048384 C8.26391474,38.7813126 8.10226501,38.5201325 7.92514168,38.2979003 C7.74373842,38.07665 7.54883692,37.8724189 7.37335972,37.6878254 C7.01615004,37.3199477 6.70634883,37.0221107 6.4814878,36.8221345 C6.25728522,36.6201945 6.1292165,36.5046599 6.1292165,36.5046599" id="Fill-69" fill="#395B52"></path>
        </g>
    </g>
</svg>