<?xml version="1.0" encoding="UTF-8"?>
<svg width="21px" height="75px" viewBox="0 0 21 75" version="1.1" xmlns="http://www.w3.org/2000/svg" xmlns:xlink="http://www.w3.org/1999/xlink">
    <title>Group</title>
    <g id="Page-1" stroke="none" stroke-width="1" fill="none" fill-rule="evenodd">
        <g id="Group">
            <path d="M10.5944198,21.7159745 C10.5944198,21.7159745 11.7417656,24.600971 12.5663154,26.2036288 C13.3911706,27.8065901 14.8252765,30.6848823 15.2555694,31.8813393 C15.6858622,33.0777964 16.2236519,33.8971753 16.1161551,34.6094677 C16.0086582,35.32176 16.134173,36.4672524 16.4566636,36.9693154 C16.7794596,37.4716817 17.2277704,37.458669 17.2277704,37.458669 L17.7295242,35.3572533 L13.8214635,23.7105448 L11.3475086,19.1515399 L10.5944198,21.7159745" id="Fill-45" fill="#EA968A"></path>
            <path d="M12.7303092,33.4651888 C11.3337661,33.496435 9.92867218,33.4130106 8.53854227,33.3984493 C6.81584393,33.3802476 5.1010857,33.2585997 3.40617775,32.9773838 C3.23332768,33.7764375 1.81937744,40.6193588 3.10078893,44.9741105 C4.46312846,49.6043143 5.55367194,52.3112074 6.08413232,53.4509359 C6.6145927,54.5906644 6.65032319,57.8675733 6.93708329,59.8976673 C7.22414878,61.9277612 7.61840575,65.7388895 7.43914251,66.629255 C7.25987928,67.5196205 6.9013528,68.5525658 6.9013528,68.5525658 C6.9013528,68.5525658 7.33164565,70.4758765 8.98105067,70.4045866 C8.98105067,70.4045866 10.2716238,70.1197303 10.4508871,69.0154951 C10.4508871,69.0154951 10.3076597,66.7005449 10.8094135,64.2785081 C11.3114728,61.8564713 12.5666208,58.0098498 10.9889822,53.1660796 C9.41134352,48.322006 10.3433902,44.1547316 10.3076597,43.086293 C10.2716238,42.0178545 10.3794261,39.2751648 10.8094135,38.7409455 C11.2152753,38.2373657 13.2772606,36.4981952 12.7303092,33.4651888" id="Fill-46" fill="#EA968A"></path>
            <path d="M10.9889822,53.1660796 C9.41134352,48.322006 10.3433902,44.1547316 10.3076597,43.086293 C10.2716238,42.0178545 10.3794261,39.2751648 10.8094135,38.7409455 C11.1697723,38.2937909 12.8341414,36.871633 12.8204835,34.4356416 L11.5524245,33.467919 C10.545863,33.4545711 9.53838527,33.4090669 8.53854227,33.3984493 C6.81584393,33.3802476 5.1010857,33.2585997 3.40617775,32.9773838 C3.23332768,33.7764375 1.81937744,40.6193588 3.10078893,44.9741105 C4.46312846,49.6043143 5.55367194,52.3112074 6.08413232,53.4509359 C6.6145927,54.5906644 6.65032319,57.8675733 6.93708329,59.8976673 C7.22414878,61.9277612 7.61840575,65.7388895 7.43914251,66.629255 C7.41929224,66.7275441 7.39699886,66.8276533 7.37378931,66.9277625 C7.68223202,67.2277869 8.29850665,67.5247776 9.51884038,67.3682432 C9.84743875,67.3260759 10.1601569,67.2763247 10.4548571,67.222023 C10.4930307,66.3862626 10.5889228,65.3426996 10.8094135,64.2785081 C11.3114728,61.8564713 12.5666208,58.0098498 10.9889822,53.1660796" id="Fill-47" fill="#395E54"></path>
            <path d="M6.07680299,68.3744927 C6.07680299,68.3744927 6.82958643,66.9320096 7.36737614,67.9203608 C7.90516585,68.9087119 8.20108762,69.4963228 8.90012263,69.469627 C9.59946303,69.4429312 10.1793964,68.8817128 10.3333124,68.4542767 C10.3333124,68.4542767 10.8634674,68.7218414 11.2937602,70.8320227 C11.2937602,70.8320227 13.3911706,72.3545932 11.1590837,72.9692032 C8.92730224,73.5835099 7.50205261,72.6485503 5.67338435,72.9692032 C3.8447161,73.2895528 0.590798216,73.262857 0.241128016,71.3128504 C0.241128016,71.3128504 0.187379584,70.8053269 1.18233636,70.6184563 C2.17729314,70.4312824 4.59749954,69.9504547 6.07680299,68.3744927" id="Fill-48" fill="#CB2C5D"></path>
            <path d="M11.3145266,70.8477975 C11.0112755,71.7845773 8.57091348,72.1925982 6.93372402,72.0909722 C5.21285801,71.984189 3.67675225,72.4683537 2.14370037,72.3615705 C0.774031508,72.2660117 0.322056054,71.4508798 0.241433405,71.2785706 C0.239906461,71.3004126 0.241128016,71.3128504 0.241128016,71.3128504 C0.590798216,73.262857 3.8447161,73.2895528 5.67338435,72.9692032 C7.50205261,72.6485503 8.92730224,73.5835099 11.1590837,72.9692032 C13.2586319,72.3912999 11.5273827,71.0097924 11.3145266,70.8477975" id="Fill-49" fill="#163139"></path>
            <path d="M4.34311065,9.67738388 C4.34311065,9.67738388 5.14445092,11.7431531 4.82165493,12.5623804 C4.49916434,13.3815469 2.56299922,16.3377727 1.4871144,17.2994584 C0.411534978,18.2611138 -1.16610367,20.576246 1.34388705,21.9653072 C1.34388705,21.9653072 1.09285744,23.3899829 1.34388705,24.6722002 C1.59461127,25.9542658 2.44298141,27.9133732 2.44908919,28.8395354 C2.45519696,29.7653941 2.67049608,32.8351073 3.60254276,35.6633449 C3.60254276,35.6633449 2.49123285,41.8397814 3.85357237,46.4699852 C5.21621729,51.100189 6.30645538,53.8070821 6.83691576,54.9468106 C7.36737614,56.086539 7.40341202,59.363448 7.69017212,61.393542 C7.97693223,63.4236359 8.37149458,67.2347642 8.19223135,68.1251297 C8.01296811,69.0154951 7.65444163,70.0484404 7.65444163,70.0484404 C7.65444163,70.0484404 8.08442909,71.9717512 9.73383411,71.9007646 C9.73383411,71.9007646 11.0247127,71.615605 11.2039759,70.5116732 C11.2039759,70.5116732 11.0604431,68.1964196 11.5625024,65.7743828 C12.0645616,63.352346 13.3194043,59.5057245 11.7417656,54.6619543 C10.164127,49.8178807 11.096479,45.6506063 11.0604431,44.5821677 C11.0247127,43.5137291 11.1322095,40.7710394 11.5625024,40.2368201 C11.9927952,39.7026009 14.2874868,37.7792901 13.3551347,34.3955979 C12.4230881,31.0122091 10.3076597,29.3737546 10.0566301,26.4887885 C9.80560048,23.603701 11.1682454,21.436063 11.6342687,19.9198025 C12.1002921,18.4035722 13.2119074,16.5158761 12.7098482,14.1651292 C12.2077889,11.8144127 10.3433902,11.1020596 9.73383411,10.6390393 C9.12427803,10.1760189 8.37149458,8.75131278 8.37149458,8.21706315 C8.37149458,7.68281353 7.86943536,6.11564895 7.86943536,6.11564895 L6.11253348,6.75674243 L4.34311065,9.67738388" id="Fill-50" fill="#EFAA9E"></path>
            <path d="M7.04488555,12.2240112 C4.92518174,14.4700377 3.74180007,16.1804495 2.301281,16.4120052 C2.00566462,16.7756141 1.72531768,17.0865291 1.4871144,17.2994584 C0.411534978,18.2611138 -1.16610367,20.5762157 1.34388705,21.9653072 C1.34388705,21.9653072 1.09285744,23.3899829 1.34388705,24.6722002 C1.37900676,24.8522755 1.42695281,25.0466088 1.48161741,25.2486474 C2.75356184,25.4151928 7.7509445,26.0128146 10.0328098,25.450686 C10.1293126,23.0773084 11.2256585,21.248434 11.6342687,19.9198025 C12.1002921,18.4035722 13.2119074,16.5158761 12.7098482,14.1651292 C12.4948544,13.1576663 12.0291365,12.4517748 11.5197479,11.936819 L11.5087539,11.930145 C11.5087539,11.930145 9.46509195,9.65957657 7.04488555,12.2240112" id="Fill-51" fill="#DC3965"></path>
            <path d="M6.93708329,70.1910202 C6.93708329,70.1910202 7.69017212,68.7485372 8.22796184,69.7368883 C8.76575155,70.7252395 9.06167332,71.3128504 9.76070833,71.2861546 C10.4600487,71.2594588 11.0399821,70.697937 11.1935927,70.2708043 C11.1935927,70.2708043 11.7237477,70.538369 12.1540405,72.6485503 C12.1540405,72.6485503 14.2517563,74.1711208 12.0196694,74.7857308 C9.78758254,75.4000375 8.36233292,74.4650779 6.53397005,74.7857308 C4.70530179,75.1060804 1.45138391,75.0793846 1.10171371,73.129378 C1.10171371,73.129378 1.04796528,72.6218545 2.04292206,72.4349839 C3.03787883,72.24781 5.45808524,71.7669823 6.93708329,70.1910202" id="Fill-52" fill="#DC3965"></path>
            <path d="M12.1751123,72.6643251 C11.8718612,73.6011048 9.43149918,74.0091258 7.79430971,73.9074998 C6.07344371,73.8007166 4.53703255,74.2848813 3.00428606,74.1777947 C1.63431182,74.0825393 1.18264175,73.2674074 1.1020191,73.0950982 C1.10049216,73.1169402 1.10171371,73.129378 1.10171371,73.129378 C1.45138391,75.0793846 4.70530179,75.1060804 6.53397005,74.7857308 C8.36233292,74.4650779 9.78758254,75.4000375 12.0196694,74.7857308 C14.1192176,74.2075241 12.3879683,72.8260167 12.1751123,72.6643251" id="Fill-53" fill="#163139"></path>
            <path d="M19.1547738,37.5390279 C19.1547738,37.5390279 18.9290915,37.9980136 18.482613,37.8041657 C18.0361346,37.6103178 17.9121467,37.4440758 17.9121467,37.4440758 C17.9121467,37.4440758 17.9078713,38.6320388 16.9403995,38.4733808 C16.9403995,38.4733808 17.5331592,37.904275 17.0378185,37.3909876 C16.5424779,36.8780036 16.6231005,35.6891306 16.5253761,35.050555 C16.4291786,34.4235072 16.2044124,32.7550199 15.4412458,31.0871394 C15.080887,30.3417806 13.9869842,28.0113589 13.7289307,27.2502254 C13.4330089,26.378365 12.2728368,24.0156657 11.6510651,21.9906682 C11.0292935,19.965701 9.95890567,18.155544 9.95890567,18.155544 C9.95890567,18.155544 7.63428597,17.9304803 6.99235867,15.7503438 C6.63474836,14.5354121 6.88638875,13.176596 7.82942943,12.3245451 C7.93631551,12.2278942 8.05236327,12.1377352 8.17726729,12.0550692 C8.96211656,11.5354416 10.0441092,11.3799689 10.933096,11.7040498 C11.9521785,12.0757585 12.5122616,12.9908782 12.9810334,13.9071508 C14.1409002,16.1728655 15.3044316,22.4829326 15.5133175,23.6752032 C15.7225089,24.8674739 16.6252382,26.2803793 16.8432859,27.2107884 C17.0613335,28.1411976 17.8599252,31.1751142 17.8599252,31.1751142 C18.0373561,31.7894208 18.1784458,32.2951241 18.2499068,32.5675426 C18.4884154,33.4791434 18.5983554,33.7673366 19.1532469,34.0973938 C19.7084438,34.4271475 19.9857368,34.5921761 19.9857368,34.5921761 C19.9857368,34.5921761 20.7947118,34.219345 20.7828016,34.5697273 C20.7708915,34.9201097 20.5421552,35.0745206 20.5421552,35.0745206 C20.5421552,35.0745206 21.1865257,35.129429 20.7769992,35.6054029 C20.7769992,35.6054029 21.3648727,36.1481163 20.6316342,36.4441969 C20.6316342,36.4441969 20.9901606,37.0654809 20.3454848,37.0102691 C20.3454848,37.0102691 20.1497306,37.3776397 19.7970065,37.3658086 C19.7970065,37.3658086 20.0929283,37.8654447 19.6956174,37.9910363 C19.6956174,37.9910363 19.4983363,38.2061195 19.1547738,37.5390279" id="Fill-54" fill="#EFA99D"></path>
            <path d="M20.7873825,35.2420185 C20.7873825,35.2420185 20.8060248,35.2188477 20.8328019,35.1725063 C20.8541557,35.2011648 20.872798,35.2347014 20.8880508,35.2725063 C20.8300902,35.2487258 20.7873825,35.2420185 20.7873825,35.2420185" id="Fill-55" fill="#EFAA94"></path>
            <path d="M18.2856372,37.7101237 C18.2318888,37.6819111 18.1848589,37.654912 18.1442422,37.6294296 C18.1457692,37.6021271 18.1460746,37.5866557 18.1460746,37.5866557 C18.1460746,37.5866557 18.1827212,37.6351935 18.2856372,37.7101237" id="Fill-56" fill="#EFAA94"></path>
            <path d="M19.7970065,37.3658086 C19.6543899,37.3060464 19.5105518,37.2499246 19.3673245,37.1922859 L19.1517199,37.1073448 L18.93581,37.0233137 C18.7916665,36.9677986 18.647523,36.9125868 18.5030741,36.8582851 C18.4670382,36.8443305 18.4300862,36.8318927 18.3971042,36.8167246 C18.3635114,36.8015566 18.3305294,36.7839616 18.2999905,36.7639398 C18.2694516,36.7442213 18.2410505,36.7217725 18.2196733,36.6962902 C18.198296,36.6708078 18.1863859,36.6425952 18.1903559,36.6165062 L18.1909667,36.6134725 L18.1906613,36.6083154 C18.1882182,36.5679683 18.1952422,36.5215541 18.2102062,36.4827238 C18.2254757,36.4426801 18.2505175,36.4087036 18.2828888,36.3826146 C18.3009067,36.3719969 18.3173977,36.3589524 18.3381641,36.3525818 C18.3485473,36.3492448 18.3574036,36.343481 18.368703,36.3419642 L18.4007688,36.3349868 C18.4444394,36.3274028 18.4902478,36.3270995 18.5360561,36.3316499 C18.5589602,36.3319532 18.5818644,36.3371104 18.6047686,36.3410541 C18.6282835,36.3456045 18.6499661,36.3480314 18.6734811,36.354402 C18.7205109,36.3656263 18.7678462,36.3765473 18.8133491,36.3892885 C18.9055766,36.4132541 18.997804,36.44177 19.0894206,36.4699826 C19.1813427,36.4978919 19.2729593,36.5279246 19.3642706,36.5582608 C19.4555818,36.5889003 19.5468931,36.6195398 19.6378989,36.6513927 L19.9109166,36.7466482 L20.183018,36.8443305 C20.0953714,36.8039834 20.0068086,36.7657599 19.9179405,36.7281431 C19.8290723,36.6905263 19.7402042,36.6532129 19.6504199,36.6177196 C19.560941,36.581923 19.4708513,36.546733 19.3804562,36.5130599 C19.2897557,36.4799936 19.1987498,36.4472305 19.1071332,36.4159843 C19.0155165,36.3853448 18.9235945,36.3556154 18.8295347,36.329223 C18.7828102,36.314965 18.7360858,36.3034373 18.6893613,36.2913028 C18.6667625,36.2849322 18.6401937,36.2812919 18.6163733,36.2764381 C18.5916368,36.2721911 18.5675111,36.2667306 18.5421639,36.2658205 C18.4920801,36.2606633 18.4404694,36.2606633 18.3891641,36.2691574 C18.363206,36.2743146 18.3375533,36.278865 18.3128169,36.2903927 C18.2871642,36.2982801 18.2645654,36.3143583 18.2413559,36.3286163 C18.1979907,36.3622894 18.1653141,36.4087036 18.1466853,36.4587583 C18.128362,36.5094196 18.1204219,36.5597776 18.1237812,36.6149893 L18.1240866,36.6067986 C18.1237812,36.6192364 18.1225596,36.6319776 18.1237812,36.6444154 C18.1268351,36.6562465 18.128362,36.6689877 18.1329428,36.6799087 C18.1417991,36.702054 18.1543201,36.7214692 18.1686733,36.738154 C18.1967691,36.7718271 18.2300565,36.7967028 18.26426,36.8188482 C18.298769,36.8406902 18.3344995,36.8585885 18.3711461,36.8746666 C18.4090143,36.8910481 18.445661,36.9022725 18.4816969,36.9156204 C18.627062,36.9677986 18.7727324,37.0190666 18.9187083,37.069728 L19.1376721,37.1455683 L19.3569412,37.2201952 C19.5035279,37.268733 19.6498091,37.3187876 19.7970065,37.3658086" id="Fill-57" fill="#E38D81"></path>
            <path d="M18.2431882,37.6009136 L18.0966016,37.4910968 C18.0480447,37.4540868 18.0010149,37.4158632 17.9533742,37.3779431 C17.9060389,37.3400229 17.8599252,37.3008893 17.8144223,37.261149 C17.7915181,37.2414305 17.7695301,37.2204985 17.7475421,37.2001733 C17.7267757,37.1786347 17.7044823,37.1586128 17.6846321,37.1364675 C17.6638656,37.1152322 17.6455423,37.0924801 17.627219,37.069728 C17.610728,37.0460658 17.5957639,37.0239204 17.5814106,36.9960112 C17.566752,36.9693154 17.5536202,36.9444397 17.5407939,36.9168339 C17.5276622,36.8901381 17.515752,36.8628355 17.5041473,36.8352297 C17.4806323,36.7800179 17.4592551,36.7238961 17.4387941,36.6674709 C17.4186384,36.6110456 17.3997043,36.553407 17.3832133,36.4963751 L17.3832133,36.5127566 C17.3865726,36.5027457 17.3948181,36.4854541 17.4045905,36.473623 C17.4146683,36.4608818 17.4259677,36.4487473 17.4400156,36.4393431 C17.4531473,36.4293322 17.4684168,36.4214448 17.4846024,36.4147709 C17.500788,36.4087036 17.5175844,36.4032431 17.5352969,36.4005129 C17.5527041,36.3962658 17.5713328,36.3956591 17.5893507,36.3935356 C17.6079795,36.3938389 17.6266082,36.3923221 17.6452369,36.3941423 C17.6644764,36.3959625 17.6821889,36.3965692 17.7020392,36.3996028 C17.7212787,36.4020297 17.7408236,36.40476 17.7597577,36.4077936 C17.7976259,36.4132541 17.8357995,36.4208381 17.873057,36.4296356 C17.8916857,36.4344894 17.910009,36.4396465 17.9280269,36.4457137 C17.9463503,36.4514776 17.9643682,36.4578482 17.9817754,36.4657356 C17.9991825,36.4733196 18.0159789,36.4821171 18.0321645,36.4924314 C18.0483501,36.5024423 18.0636196,36.51397 18.0782782,36.5264078 C18.1072902,36.5515868 18.1335536,36.5807095 18.1573739,36.6116524 C18.1378291,36.5779793 18.1161465,36.5446095 18.0886615,36.5157902 C18.074919,36.5015322 18.0602603,36.4875776 18.0440747,36.4754431 C18.0281945,36.4630053 18.0113981,36.451781 17.9939909,36.4420734 C17.9765838,36.4317591 17.9582604,36.423265 17.9399371,36.4150742 C17.9216138,36.4068835 17.9026797,36.4002095 17.8834402,36.3938389 C17.845572,36.3817045 17.807093,36.3710868 17.7680032,36.3625927 C17.7484583,36.3580423 17.7289134,36.3547053 17.7096739,36.351065 C17.6910452,36.3471213 17.669668,36.3446944 17.6498177,36.3419642 C17.6296621,36.3389305 17.6085902,36.3392339 17.5881292,36.3380205 C17.5673627,36.3392339 17.5462909,36.3386272 17.5252191,36.3431776 C17.5044526,36.3459079 17.4833808,36.3516717 17.4629198,36.358649 C17.4424587,36.3662331 17.4223031,36.3759406 17.4039797,36.3886818 C17.3850456,36.4008163 17.3685546,36.4168944 17.353896,36.434186 C17.3392373,36.452691 17.3279379,36.4699826 17.319387,36.4969818 L17.3172493,36.5045658 L17.3196924,36.5133633 C17.3361834,36.5734288 17.3548121,36.6313709 17.3749678,36.6896162 C17.3948181,36.7478616 17.4174168,36.8051969 17.4421533,36.8616221 C17.4543689,36.8898347 17.4671952,36.9180473 17.4809377,36.9456532 C17.4943748,36.9729557 17.5093389,37.001775 17.5246083,37.0281675 C17.5389616,37.0539532 17.5588119,37.0821658 17.5780514,37.1076481 C17.5988178,37.1316137 17.6192788,37.1558826 17.6418776,37.1774212 C17.6635602,37.2001733 17.6870752,37.2198918 17.7102847,37.2408237 C17.734105,37.2605422 17.7573146,37.2805641 17.7817457,37.2996758 C17.8299971,37.3378994 17.8797755,37.373696 17.9301647,37.4085826 C17.9805538,37.4437725 18.0324699,37.4762321 18.084386,37.5083884 C18.1366075,37.5408481 18.1891344,37.5720943 18.2431882,37.6009136" id="Fill-58" fill="#E38D81"></path>
            <path d="M20.577275,36.376244 C20.577275,36.376244 20.5158918,36.3716936 20.4080896,36.3635028 C20.3002873,36.3559188 20.1466767,36.3398406 19.9616111,36.3270995 C19.915192,36.3243692 19.8669406,36.3213356 19.8168568,36.318302 C19.7918149,36.3170885 19.7661623,36.3161784 19.7402042,36.314965 C19.7145515,36.3146616 19.6879827,36.3146616 19.6601923,36.3158751 C19.5520847,36.3210322 19.4412285,36.3377171 19.3279293,36.3428742 C19.2152408,36.3474247 19.0979715,36.3380205 19.0011633,36.2782583 C18.9724567,36.2636969 18.953828,36.2464053 18.93184,36.2300238 L18.9028281,36.2005978 C18.8936664,36.1902835 18.8872532,36.1787558 18.8790077,36.1678348 C18.850912,36.1226339 18.8411395,36.0686356 18.8573251,36.018581 C18.8719838,35.968223 18.9074089,35.9233255 18.9513849,35.8893491 C18.9956663,35.8550692 19.0484985,35.8311037 19.1037739,35.8177558 C19.2195163,35.7907566 19.3373963,35.769218 19.451001,35.7525331 C19.6782103,35.7191634 19.893204,35.7064222 20.0776588,35.7061188 C20.1695809,35.7055121 20.254479,35.7094558 20.3302154,35.7088491 C20.4062572,35.707939 20.4719158,35.7021751 20.5256642,35.6961079 C20.5797181,35.6900407 20.6215563,35.6818499 20.6499575,35.6763894 C20.6783587,35.6709289 20.6933227,35.6669852 20.6933227,35.6669852 C20.6933227,35.6669852 20.6322449,35.6772995 20.5247481,35.68276 C20.4709996,35.6854903 20.4053411,35.6870071 20.3308262,35.6833667 C20.2563113,35.679423 20.1714132,35.6700188 20.0782696,35.6669852 C19.8925932,35.6584911 19.6742402,35.664255 19.4427555,35.6930743 C19.3267077,35.7082424 19.2085223,35.7258373 19.0875883,35.7540499 C19.0249836,35.7686113 18.9636004,35.7956104 18.9104628,35.8362608 C18.8573251,35.8763045 18.8115168,35.9318197 18.7913611,35.9997726 C18.7699839,36.0674222 18.7843372,36.1450827 18.8215946,36.2027213 C18.8316725,36.2166759 18.8408341,36.2315406 18.8521335,36.2439785 L18.8875586,36.2797751 C18.9141274,36.3001003 18.9422232,36.3222457 18.9681813,36.3349868 C19.0228459,36.36866 19.0872829,36.3883784 19.1486661,36.3971759 C19.2109654,36.4062768 19.2720431,36.4059734 19.3309832,36.4026364 C19.4491687,36.3956591 19.559414,36.3747272 19.6632462,36.3665364 C19.6885935,36.3644129 19.7145515,36.3635028 19.7405096,36.3631995 C19.7658569,36.3631995 19.7908987,36.3635028 19.8156352,36.3635028 C19.8654136,36.3644129 19.9136651,36.365323 19.9597788,36.3659297 C20.1448444,36.3704801 20.2993711,36.3741205 20.4074788,36.3765473 C20.4615326,36.3777608 20.5039816,36.3768507 20.5329936,36.3768507 C20.5620055,36.3765473 20.577275,36.376244 20.577275,36.376244" id="Fill-59" fill="#E38D81"></path>
            <path d="M20.5421552,35.0745206 C20.5421552,35.0745206 20.5351313,35.0787676 20.5213888,35.0863517 C20.5079517,35.094239 20.4881014,35.1060701 20.4636703,35.1218449 C20.4145027,35.1533945 20.3467064,35.2022357 20.2669999,35.2613911 C20.2266886,35.2905138 20.183018,35.3214567 20.1362935,35.3523995 C20.089569,35.383039 20.0376529,35.4133752 19.9845153,35.4388575 C19.931683,35.4634298 19.871216,35.4758676 19.8101382,35.4789012 C19.7499766,35.4819348 19.6852342,35.4734407 19.6406474,35.4428012 C19.6186595,35.4279365 19.60339,35.4079147 19.5969768,35.3836457 C19.5899529,35.3596802 19.5920906,35.3311642 19.5988092,35.3029516 C19.6003361,35.2959743 19.6024738,35.288997 19.604917,35.2820197 L19.6082762,35.2714021 L19.608887,35.2701886 L19.6076655,35.2726155 L19.6082762,35.2710987 L19.6098032,35.2683684 L19.6122463,35.2629079 C19.6189648,35.2483466 19.6250726,35.2328752 19.6320966,35.2195273 C19.6397313,35.2073928 19.6470606,35.1952584 19.6543899,35.1831239 C19.6623301,35.1709895 19.6724079,35.1591584 19.6809588,35.1473273 C19.7179108,35.1006096 19.7585275,35.0578357 19.7994496,35.0196122 C19.8403717,34.9810853 19.8812938,34.9471088 19.9194674,34.9155592 C19.9964254,34.8536735 20.063611,34.8051357 20.1109462,34.771766 C20.1585869,34.7383962 20.1863773,34.7198912 20.1863773,34.7198912 C20.1863773,34.7198912 20.1558384,34.7332391 20.1039223,34.7602382 C20.0779642,34.7738895 20.0468146,34.7905744 20.0116949,34.8112029 C19.9768805,34.8321349 19.9374854,34.8557971 19.8959525,34.884313 C19.8544196,34.912829 19.8098329,34.9440752 19.7655515,34.981692 C19.7209647,35.0183987 19.6751564,35.0602626 19.6339289,35.1097105 C19.6238511,35.122755 19.6131625,35.1342827 19.60339,35.1485407 C19.5936176,35.1631021 19.5841505,35.1776634 19.5743781,35.1922248 C19.5661326,35.2067861 19.5600248,35.2210441 19.5526955,35.2356054 L19.549947,35.2410659 L19.5487254,35.2437962 L19.5471985,35.2474365 L19.5465877,35.2492567 L19.5423122,35.2616945 C19.5392584,35.2698853 19.5368152,35.2783794 19.5346775,35.2874802 C19.5261266,35.3220634 19.5212404,35.361197 19.531929,35.4009373 C19.5413961,35.4406777 19.5688811,35.4767777 19.6018631,35.498923 C19.6351504,35.5210684 19.6714917,35.5328995 19.7075276,35.5389667 C19.7432581,35.5456407 19.7789886,35.5465508 19.8138029,35.5447306 C19.8834316,35.5407869 19.9509225,35.5225852 20.0101679,35.4928558 C20.0688026,35.4628231 20.1188863,35.4285432 20.1656108,35.39396 C20.2120299,35.3596802 20.2535628,35.3244903 20.291431,35.2917273 C20.3659459,35.2258979 20.4282452,35.1709895 20.4719158,35.1327659 C20.5158918,35.0951491 20.5421552,35.0745206 20.5421552,35.0745206" id="Fill-60" fill="#E38D81"></path>
            <path d="M8.77552399,16.0839199 C8.77552399,16.0839199 8.8243862,16.1323971 8.89859569,16.2254986 C8.97372134,16.3177508 9.07205654,16.4559319 9.17588874,16.6286052 C9.22658328,16.7159732 9.27972094,16.8111377 9.33041548,16.9145232 C9.38233158,17.0176357 9.42844529,17.1286053 9.47761289,17.2454904 C9.5264751,17.3631946 9.57625348,17.487148 9.63152886,17.6095847 C9.68741501,17.7320213 9.74421733,17.8563691 9.80101965,17.9807169 C9.86026508,18.1035176 9.91951051,18.2263486 9.97783978,18.347238 C10.0355583,18.4684612 10.096636,18.5854374 10.153133,18.7000473 C10.2673484,18.9285693 10.3766776,19.1405886 10.4728751,19.3214526 C10.6634377,19.6838177 10.8036111,19.9198025 10.8036111,19.9198025 C10.8036111,19.9198025 10.72024,19.6585477 10.5696833,19.2775562 C10.4951684,19.0866509 10.4035518,18.8659252 10.3009412,18.6315786 C10.2487197,18.5147845 10.197109,18.3929243 10.1396959,18.2716101 C10.0831989,18.1499015 10.0257858,18.0263121 9.96867811,17.9026924 C9.85232497,17.6569394 9.73597183,17.4112167 9.62664264,17.1808441 C9.57258881,17.0639287 9.51334338,16.9512299 9.45165484,16.8493005 C9.39179863,16.745824 9.32583465,16.6536931 9.26414611,16.5701171 C9.13802052,16.4040268 9.01617038,16.2798307 8.92516451,16.2004107 C8.83415865,16.1204143 8.77552399,16.0839199 8.77552399,16.0839199" id="Fill-61" fill="#E38D81"></path>
            <path d="M4.56130832,10.2733069 C4.52588148,10.1746538 4.49185769,10.0845554 4.46099074,10.0059545 C4.49185769,10.0845251 4.52588148,10.1747144 4.56165908,10.2733069 C4.56130832,10.2733069 4.56130832,10.2733069 4.56130832,10.2733069" id="Fill-62" fill="#E3C0B8"></path>
            <path d="M4.54863733,10.2733069 C4.51748767,10.1747144 4.48786495,10.0845251 4.46099074,10.0059545 C4.39227825,9.80358219 4.34341604,9.67738388 4.34341604,9.67738388 L6.11253348,6.75674243 L7.86943536,6.11564895 L7.86943536,6.11564895 C7.86943536,6.11564895 7.86943536,6.11570963 7.86943536,6.11573996 C7.86943536,6.1157703 7.86943536,6.11583097 7.86943536,6.11592198 L7.86943536,6.11595232 C7.86943536,6.11604332 7.86974075,6.11613433 7.86974075,6.11628601 C7.86974075,6.11628601 7.86974075,6.11628601 7.86974075,6.11631635 C7.86974075,6.11637702 7.86974075,6.11649837 7.86974075,6.11658938 C7.86974075,6.1168624 7.87004614,6.11722643 7.87004614,6.1176208 C7.88317786,6.15833189 8.09297998,6.81877982 8.2371235,7.41770608 C7.58328604,9.83543512 5.12124137,10.216912 4.54833194,10.2733069" id="Fill-63" fill="#E98B7D"></path>
            <path d="M11.5799095,4.04253837 C11.6104484,4.03540938 11.7698614,3.60955075 11.7967356,3.56583639 C12.0025677,3.23044011 12.281693,2.96936736 12.6435788,2.81444073 C13.4565238,2.46627295 14.5156123,2.69886007 15.1535695,3.2848328 C16.1473047,4.19737398 16.3348135,6.32769852 15.167312,7.18011349 C14.020577,8.01763342 12.2313039,7.24221155 11.5545623,6.15041416 C10.4148512,4.31107381 11.5710533,4.04454055 11.5799095,4.04253837" id="Fill-64" fill="#121213"></path>
            <path d="M11.5579215,6.01026123 C11.5579215,6.01026123 11.5573108,6.02464056 11.5582269,6.05163972 C11.5597539,6.07851753 11.5612808,6.11837921 11.5686101,6.16843382 C11.5759395,6.21848844 11.5857119,6.27952474 11.6043406,6.34790238 C11.6125861,6.38245524 11.6241909,6.41828221 11.6357957,6.45653607 C11.6489274,6.49418321 11.6629753,6.53386287 11.6803825,6.57411892 C11.6965681,6.61510303 11.7170291,6.6559658 11.7371848,6.69907345 C11.7600889,6.74072495 11.7826877,6.78446966 11.8107835,6.8268189 C11.8636157,6.91330721 11.9277474,6.99973485 12.002873,7.08167274 C12.0221125,7.10196761 12.0410466,7.12247484 12.0602861,7.14310341 C12.0810526,7.16254887 12.1015136,7.18211568 12.1222801,7.20180383 L12.1537351,7.23135122 L12.1870225,7.25907844 C12.2096213,7.27737113 12.2322201,7.29575483 12.2548188,7.31422953 C12.349184,7.38312289 12.4487407,7.44925565 12.5547106,7.50234388 C12.5812795,7.51569178 12.6072375,7.53004077 12.6341117,7.54229657 L12.7153452,7.57763816 C12.7687882,7.60278682 12.8249798,7.62019976 12.8796444,7.64000925 C12.9340036,7.6611232 12.9901951,7.67395538 13.0448597,7.68954816 C13.0992189,7.70602068 13.1544943,7.71560689 13.2082427,7.72752899 C13.2351169,7.7329895 13.2616858,7.73942076 13.2882546,7.74394084 C13.3148234,7.7481879 13.3413922,7.75207092 13.3676557,7.75558991 C13.4198772,7.76247622 13.4708771,7.77133437 13.5209609,7.77433764 C13.5710446,7.77843302 13.6196015,7.78243739 13.6666313,7.78629008 C13.7136612,7.78859563 13.7594695,7.78844395 13.8028348,7.78956638 C13.8465054,7.78965739 13.8883436,7.792691 13.9280442,7.79026411 C13.9677447,7.78853495 14.0053075,7.78686647 14.0404273,7.78528899 C14.0758524,7.78349916 14.1088344,7.78277109 14.1393732,7.7803442 C14.1696067,7.7771589 14.1977025,7.77427697 14.2227444,7.77163773 C14.3235227,7.76095941 14.3806304,7.75316302 14.3806304,7.75316302 C14.3806304,7.75316302 14.3229119,7.74821823 14.222439,7.74257571 C14.1970917,7.74121059 14.1693013,7.73969378 14.1390678,7.73802529 C14.1091397,7.73535571 14.0764631,7.73247378 14.0416488,7.72940983 C13.9720202,7.72331227 13.8935352,7.71739672 13.8086371,7.70586899 C13.7661881,7.70034782 13.7219067,7.69597942 13.6764038,7.68900211 C13.6312062,7.68166076 13.5841764,7.67407673 13.5359249,7.66628034 C13.4876735,7.65981875 13.4391167,7.64750228 13.3890329,7.63715766 C13.3642964,7.63163648 13.3389491,7.62638833 13.3136019,7.62144354 C13.2882546,7.61592236 13.2629073,7.60858102 13.2372547,7.60214976 C13.134644,7.57745615 13.0308118,7.54360102 12.927285,7.5064696 C12.8759797,7.4866601 12.8234528,7.46848876 12.773369,7.44470523 L12.6970218,7.41091078 C12.6716746,7.39923137 12.6475488,7.38542843 12.6228124,7.37289961 C12.5229502,7.32390676 12.430112,7.26247609 12.3403277,7.20095441 C12.254208,7.13451828 12.1686992,7.0689619 12.0969328,6.99357662 C12.0242503,6.91943511 11.9570647,6.84411049 11.901484,6.76629831 C11.844987,6.68918387 11.7961248,6.61234244 11.7564243,6.53835262 C11.6754962,6.39076734 11.626634,6.25719735 11.5970113,6.16227559 C11.567694,6.06711114 11.5579215,6.01026123 11.5579215,6.01026123" id="Fill-65" fill="#121213"></path>
            <path d="M4.05115894,1.39944219 C4.05115894,1.39944219 2.99176512,1.65199049 2.53673578,2.51805672 C2.30708339,2.95532173 2.27226906,3.46372497 2.24234096,3.94694921 C2.22707152,4.1972223 2.22279607,4.46760825 2.11071838,4.69807184 C1.98550896,4.95598964 1.69630575,5.12835954 1.49658146,5.32982179 C1.20096508,5.62787429 0.916953476,5.95146981 0.915406974,6.0930182 C0.912678033,6.34717431 1.19974352,6.76038277 1.6947788,6.91658351 C1.6947788,6.91658351 1.92809586,7.12035131 1.71737757,7.40253801 C1.71737757,7.40253801 1.63889265,7.64835169 1.87770671,7.80185252 C1.87770671,7.80185252 1.59125199,8.07551476 1.95100002,8.29317651 C2.14064648,8.40805944 1.86335343,8.8917994 1.85144327,9.02816032 C1.78822778,9.75465001 2.61094526,9.96014696 3.17499841,9.95459545 C4.66224197,9.93997344 6.75385,9.33015651 6.95540662,7.29135609 C6.94899346,7.35518331 7.59550159,7.04560308 7.63459136,7.00959409 C7.97632145,6.6961005 8.22124328,6.07511988 8.03800999,5.62411261 C7.86760303,5.20426054 7.31637621,4.96433207 6.89524503,5.05179114 C6.12994064,5.21078281 5.85417454,4.84550544 5.36738476,4.32150944 C4.96946312,3.89298124 4.56543371,3.44728278 4.33944599,2.90095938 C4.14674564,2.43520875 4.09910499,1.89762215 4.05115894,1.39944219" id="Fill-66" fill="#EFAA9E"></path>
            <path d="M4.61307437,0.723280147 C4.61307437,0.723280147 3.96931474,1.21235927 3.8993807,1.61176478 C3.82914127,2.01120063 3.81234488,2.16203188 3.94182974,2.37981497 C4.0713146,2.59759806 4.00657217,2.71772915 4.19805096,3.29857507 C4.38952975,3.87942098 4.38128426,4.18384407 4.8143256,4.43499691 C5.24767234,4.68618008 5.55397733,4.69440117 5.74240223,5.07138828 C5.93113252,5.44834506 6.13635381,5.67447059 6.57764065,5.39219288 C7.0189275,5.10988483 7.77171094,5.03016148 8.03800999,5.62411261 C8.30430904,6.21809407 7.52037594,7.0479693 7.47548378,7.22112794 C7.43059163,7.39431692 7.5487771,7.71266429 7.48434006,8.06180283 C7.41990302,8.41097171 7.55213638,9.06165141 8.01357889,9.29047685 C8.474716,9.51927196 9.27300238,9.47980465 9.55426548,9.25610601 C9.76651071,9.0872551 9.93569612,8.88285024 10.1558815,8.7205216 C10.5751803,8.41151776 10.8448386,8.06098376 11.0717425,7.59095573 C11.3047542,7.10767081 11.4788258,6.4652122 11.6922926,5.92886939 C11.9057594,5.39252658 11.7362686,3.46548446 11.0946467,2.78431696 C10.2282586,1.86397938 9.33041548,0.946372062 8.05450099,0.64349612 C7.45563351,0.501341006 5.43945652,-0.0255976073 4.61307437,0.723280147" id="Fill-67" fill="#131518"></path>
            <path d="M3.89632681,1.17886818 C3.89632681,1.17886818 4.00840451,0.402384543 4.70835568,0.0976277609 C5.40830686,-0.207129021 6.17055735,0.309222282 6.54160477,0.197342627 C6.91265219,0.0854326358 7.49747178,-0.104744576 7.99800406,0.230196658 C7.99800406,0.230196658 7.30080138,0.0517595293 6.95204735,0.191548426 C6.6035987,0.331367658 6.09176704,0.326028499 5.57168988,0.167067167 C5.05130733,0.00810583534 4.21637429,0.374353957 3.89632681,1.17886818" id="Fill-68" fill="#131518"></path>
            <path d="M2.19775419,3.66397378 C2.19775419,3.66397378 1.96474252,3.9182209 2.19225719,3.94324821 C2.42007725,3.96830585 2.42832275,3.66385243 3.02444173,3.8311562 C3.6205607,3.99845997 3.93847047,4.36419237 3.93847047,4.36419237 C3.93847047,4.36419237 3.39823764,3.23608263 2.19775419,3.66397378" id="Fill-69" fill="#131518"></path>
            <path d="M2.4023647,4.93326787 C2.4023647,4.93326787 2.40969403,4.95653569 2.43046047,4.99412215 C2.45122691,5.03146593 2.48543046,5.0834924 2.53795733,5.13636828 C2.56422077,5.16282138 2.59445427,5.19021491 2.63018476,5.21472651 C2.66499908,5.23987516 2.70408885,5.26396205 2.74714868,5.2833165 C2.78990311,5.30364171 2.83632221,5.32032658 2.88426826,5.33288574 C2.90839397,5.3382249 2.93282508,5.3447775 2.95756157,5.34814482 L2.99481901,5.35415137 L3.03238184,5.35788271 C3.0824656,5.36212977 3.13285476,5.36149271 3.18202236,5.35885347 C3.23118996,5.35612322 3.27883061,5.34878187 3.32463894,5.34016641 C3.3475431,5.33643507 3.36983648,5.33121725 3.3912137,5.32551406 C3.41289631,5.31999288 3.43427352,5.31489641 3.4541238,5.30813146 C3.47427946,5.30176087 3.49412973,5.29560263 3.51306384,5.28962642 C3.53169256,5.28246709 3.54940511,5.27558079 3.56650688,5.26896751 C3.60132121,5.25649936 3.6315547,5.24172566 3.65842892,5.22916651 C3.68591391,5.21718373 3.70851268,5.20483693 3.72744679,5.19446197 C3.76470423,5.17395475 3.78577606,5.16163828 3.78577606,5.16163828 C3.78577606,5.16163828 3.76195573,5.16816054 3.72133901,5.18053769 C3.70118335,5.18705995 3.67675225,5.19427995 3.64835109,5.20201567 C3.61994993,5.20981205 3.58818949,5.21927693 3.55306977,5.22749802 C3.51825545,5.2367202 3.48038723,5.24488062 3.4403813,5.25322306 C3.42022564,5.25795549 3.3994592,5.26095877 3.37838737,5.26432608 C3.35731554,5.26751138 3.33593832,5.2721528 3.31364494,5.27421566 C3.26997434,5.28058625 3.22416601,5.28313448 3.1780523,5.28568272 C3.13193859,5.28735121 3.0852141,5.28695684 3.038795,5.28231541 L3.00398067,5.27955482 L2.96977713,5.27461003 C2.94656758,5.27197079 2.92427419,5.2662676 2.90198081,5.26183852 C2.85769943,5.25055348 2.81402883,5.23926844 2.77402289,5.22224987 C2.73371157,5.20611105 2.69553797,5.1879397 2.66102903,5.16749315 C2.62652009,5.14738029 2.59506504,5.12568996 2.56727466,5.10409063 C2.5116939,5.06067963 2.47016102,5.01745064 2.44298141,4.98562804 C2.41549642,4.95374476 2.4023647,4.93326787 2.4023647,4.93326787" id="Fill-70" fill="#131518"></path>
            <path d="M1.80197028,7.79351008 C1.80197028,7.79351008 1.60774299,7.46682027 1.80746728,7.51420531 C2.00719157,7.56159035 2.1647722,7.75701571 2.59750815,7.77916109 C2.56819083,7.77767462 2.39717309,7.97777175 2.36480187,8.00170695 C2.23409546,8.0986309 2.00719157,8.22722576 1.83464688,8.17768686 C1.66973692,8.13024114 1.72867696,7.90602679 1.80197028,7.79351008" id="Fill-71" fill="#DF516B"></path>
            <path d="M2.50436456,7.00558972 C2.50436456,7.00558972 2.50925079,7.02925191 2.52268789,7.06941695 C2.52940645,7.08943879 2.53795733,7.11382904 2.54956211,7.14088887 C2.5608615,7.16813072 2.57460399,7.19870954 2.59170577,7.23080517 C2.62529854,7.29560315 2.67080147,7.36853121 2.72882535,7.44009414 C2.75814267,7.47552674 2.78990311,7.51153573 2.82502283,7.54520884 C2.84242999,7.56110497 2.86044793,7.57715279 2.87816048,7.59323094 C2.89495687,7.60943043 2.91450175,7.6256906 2.9294658,7.64192043 C2.95939391,7.67280261 2.9896274,7.70671841 3.01283695,7.74397118 C3.03726806,7.7803442 3.05650755,7.81890142 3.07238777,7.85754965 C3.08551949,7.89695629 3.09834582,7.93572587 3.10353743,7.97419208 C3.11025598,8.01241561 3.11178293,8.04945603 3.11239371,8.08391787 C3.11208832,8.10111846 3.11056137,8.11762131 3.11025598,8.13351745 C3.10872904,8.14932257 3.1072021,8.16433896 3.10567515,8.17844526 C3.10078893,8.20644551 3.09712427,8.23138181 3.09193266,8.25143399 C3.08765721,8.27178954 3.08338177,8.28759466 3.08032788,8.29848533 C3.07727399,8.309376 3.07574705,8.31520054 3.07574705,8.31520054 C3.07574705,8.31520054 3.07880094,8.3100434 3.08490871,8.30036617 C3.09040571,8.2905676 3.09987276,8.27664332 3.10872904,8.25725853 C3.11850148,8.23832878 3.12827392,8.21439358 3.13865714,8.18621131 C3.14293259,8.17183198 3.14751342,8.15654257 3.15239964,8.14043409 C3.15606431,8.1239919 3.15972897,8.10657896 3.16278286,8.08819527 C3.16827986,8.05139754 3.1725553,8.01062578 3.16919603,7.96739679 C3.16797447,7.92401612 3.1591182,7.87854226 3.14598648,7.83264369 C3.13041165,7.78774621 3.1126991,7.74072521 3.08490871,7.69883101 C3.05895066,7.65557169 3.02657945,7.61668077 2.99023818,7.5784269 C2.97222024,7.56019489 2.95450769,7.54602791 2.93648975,7.52967674 C2.91877719,7.51420531 2.90075925,7.49879456 2.8830467,7.48350515 C2.86686109,7.46763935 2.85006471,7.45238028 2.8338791,7.4371212 C2.81830427,7.42110372 2.80211866,7.40566263 2.78746,7.38970583 C2.75814267,7.35733717 2.72974151,7.32603029 2.70439424,7.29469306 C2.67935236,7.26326483 2.65553203,7.23323206 2.63476559,7.20459475 C2.55169983,7.09010619 2.50436456,7.00558972 2.50436456,7.00558972" id="Fill-72" fill="#D77065"></path>
            <path d="M2.01482629,6.34107675 C2.01482629,6.34107675 2.02032328,6.34274524 2.03009573,6.34580919 C2.03956278,6.34908549 2.05452683,6.35281683 2.07162861,6.36061322 C2.08903577,6.36692314 2.10888604,6.37784414 2.1317902,6.38979658 C2.14247881,6.39677389 2.1537782,6.40420624 2.16568836,6.4120633 C2.17698775,6.42073943 2.18889791,6.42990095 2.20111347,6.43945683 C2.22401763,6.4605101 2.24783796,6.48386893 2.26799362,6.51211186 C2.28937084,6.53950539 2.30525105,6.57226841 2.317772,6.60621455 C2.3312091,6.64037303 2.33334683,6.67789883 2.33151449,6.71445386 C2.33090371,6.75073588 2.31471811,6.78938411 2.29944867,6.81929554 L2.28265228,6.84696209 L2.27837684,6.85390906 L2.27410139,6.8586415 L2.26555051,6.86813671 C2.25577806,6.88163629 2.23959246,6.89234494 2.22584996,6.90372099 C2.19531108,6.92322712 2.16019136,6.93608964 2.12385009,6.94309729 C2.08689805,6.94877015 2.04964061,6.95095435 2.01360473,6.94977124 C1.97787424,6.94846679 1.94305991,6.94540284 1.91099409,6.94194452 C1.84655705,6.93369309 1.79250322,6.92683712 1.7549404,6.92204402 C1.7167668,6.91773629 1.6947788,6.91655318 1.6947788,6.91655318 C1.6947788,6.91655318 1.71523985,6.92392486 1.75127573,6.93675704 C1.787617,6.94916452 1.83892232,6.96791225 1.90305398,6.9847488 C1.91923958,6.98866216 1.93603597,6.99275754 1.95344313,6.99697426 C1.97115568,7.00015956 1.98947901,7.00395157 2.0090239,7.00622678 C2.04750289,7.01138392 2.08934116,7.0140535 2.13331715,7.00923006 C2.17729314,7.00316283 2.22432302,6.99178678 2.26616128,6.96499998 C2.28601156,6.95016561 2.30647261,6.93681771 2.32326899,6.91585544 C2.34281388,6.89553024 2.35258632,6.87763192 2.3641911,6.8593999 L2.36632882,6.85591125 L2.36755037,6.85418209 L2.36785576,6.85333268 L2.36968809,6.85023839 L2.36999348,6.84969234 L2.37365815,6.8413499 L2.38068209,6.82460436 C2.38526292,6.81337999 2.39045453,6.80254999 2.39289765,6.79047621 L2.40175392,6.75516495 L2.4051132,6.71909529 C2.40725092,6.67122488 2.39900542,6.62344547 2.38068209,6.58261303 C2.36327493,6.54141657 2.3394546,6.50528623 2.31196961,6.4763759 C2.28601156,6.44603977 2.25547268,6.42380338 2.22707152,6.40463095 C2.21241285,6.39607616 2.19836497,6.38767305 2.18431708,6.3806654 C2.1702692,6.37465885 2.15683209,6.36898599 2.14400576,6.36364683 C2.11774232,6.35494036 2.09483816,6.34872146 2.07529327,6.34602154 C2.05605378,6.34165314 2.04108972,6.34268457 2.0307065,6.34177448 C2.02032328,6.34131944 2.01482629,6.34107675 2.01482629,6.34107675" id="Fill-73" fill="#D77065"></path>
            <path d="M6.65246091,5.75662083 C6.65246091,5.75662083 6.68177824,5.73414176 6.73644284,5.70089336 C6.79080205,5.66794832 6.87111931,5.62347555 6.97281379,5.58904404 C7.02381372,5.57232883 7.08000526,5.55913261 7.13955608,5.55306539 C7.1991069,5.54672514 7.262017,5.55179127 7.32370554,5.56695934 C7.38569947,5.58182404 7.44433412,5.61328261 7.49838795,5.65268924 C7.55213638,5.69239924 7.60222014,5.74363697 7.6361183,5.79872738 C7.67215418,5.85445486 7.69139368,5.91885847 7.6962799,5.98374745 C7.69994457,6.04887913 7.69017212,6.11470853 7.67062724,6.17616954 C7.63031592,6.29945558 7.55885493,6.40444893 7.48922628,6.4850217 C7.41807069,6.5652911 7.34722048,6.62256572 7.29225049,6.65408496 C7.26507089,6.67034513 7.24216673,6.68041672 7.22628651,6.68672664 C7.20979551,6.69200513 7.20124462,6.69479605 7.20124462,6.69479605 C7.20124462,6.69479605 7.21040629,6.69358261 7.22750806,6.69133773 C7.24430445,6.68772773 7.26995711,6.68254025 7.3001906,6.66973841 C7.36126837,6.64604589 7.44311257,6.59717438 7.52556755,6.51996892 C7.56679504,6.48144203 7.60832792,6.43596817 7.64589075,6.38272826 C7.68375896,6.32964003 7.71918406,6.26954415 7.74392056,6.20131819 C7.76835166,6.13336526 7.78575883,6.05767661 7.78148338,5.97898468 C7.77690255,5.90077813 7.75399839,5.82050873 7.71093856,5.75279848 C7.66696257,5.68381412 7.61138181,5.62999782 7.5487771,5.58443295 C7.48617239,5.53917144 7.41440602,5.50695447 7.34172348,5.49202909 C7.26904094,5.47643632 7.1963584,5.47698237 7.13100519,5.48841909 C7.0653466,5.49909741 7.00610117,5.51948329 6.95449046,5.54238707 C6.85065826,5.58883169 6.775838,5.64549958 6.72605962,5.68684773 C6.67658663,5.72877226 6.65246091,5.75662083 6.65246091,5.75662083" id="Fill-74" fill="#D77065"></path>
            <path d="M13.3554401,34.3955979 C12.7834469,32.3199998 11.7665021,30.9008755 11.0079163,29.4480782 C9.08182898,30.7361503 3.82059038,30.9409192 2.60636443,30.9715587 C2.76394506,32.3078653 3.06292072,34.0258005 3.60254276,35.6633449 C3.60254276,35.6633449 2.49123285,41.8397814 3.85357237,46.4699852 C5.21621729,51.100189 6.30645538,53.8070821 6.83691576,54.9468106 C7.36737614,56.086539 7.40341202,59.363448 7.69017212,61.393542 C7.97693223,63.4236359 8.37149458,67.2347642 8.19223135,68.1251297 C8.18703974,68.1503086 8.18154274,68.175791 8.17604574,68.20097 C9.46661889,69.169906 10.7034436,68.8404556 11.211916,68.6326531 C11.2528381,67.8117574 11.349341,66.803081 11.5625024,65.7743828 C12.0645616,63.352346 13.3194043,59.5057245 11.7417656,54.6619543 C10.164127,49.8178807 11.096479,45.6506063 11.0604431,44.5821677 C11.0247127,43.5137291 11.1322095,40.7710394 11.5625024,40.2368201 C11.9927952,39.7026009 14.2874868,37.7792901 13.3554401,34.3955979" id="Fill-75" fill="#4D7066"></path>
            <path d="M11.0079163,29.4480782 C9.08182898,30.7361503 3.82059038,30.9409192 2.60636443,30.9715587 C2.6753823,31.5570461 2.77157978,32.2159468 2.90320236,32.9091275 C4.20904496,32.9388569 9.48891228,32.9421938 11.9656156,31.1632831 C11.6348795,30.5699083 11.3020057,30.0114201 11.0079163,29.4480782" id="Fill-76" fill="#395E54"></path>
            <path d="M1.23333629,23.5338065 C1.23913868,23.8985682 1.26937217,24.2915424 1.34388705,24.6722002 C1.37900676,24.8522755 1.42695281,25.0466088 1.48161741,25.2486474 C2.75356184,25.4151928 7.7509445,26.0128146 10.0328098,25.450686 C10.0544924,24.9203195 10.1277857,24.4187115 10.2303963,23.9422522 C6.5791676,24.4417063 1.98001196,23.6673765 1.23333629,23.5338065" id="Fill-77" fill="#CA295A"></path>
        </g>
    </g>
</svg>