<?xml version="1.0" encoding="UTF-8"?>
<svg width="20px" height="75px" viewBox="0 0 20 75" version="1.1" xmlns="http://www.w3.org/2000/svg" xmlns:xlink="http://www.w3.org/1999/xlink">
    <title>Group 3</title>
    <g id="Page-1" stroke="none" stroke-width="1" fill="none" fill-rule="evenodd">
        <g id="Group-3">
            <path d="M5.79259223,3.22387414 C5.76493735,3.21221577 5.68058998,2.77603745 5.66212047,2.72963981 C5.52045508,2.37362127 5.29855762,2.07798368 4.98306157,1.87207517 C4.27407614,1.40934542 3.24547935,1.46938943 2.55746553,1.93622995 C1.48613538,2.66329488 0.984726129,4.6921558 1.94892656,5.69713489 C2.89627069,6.68459272 4.69255368,6.21367514 5.49388664,5.26412388 C6.84393845,3.66443277 5.80049362,3.22717623 5.79259223,3.22387414" id="Fill-83" fill="#131518"></path>
            <path d="M5.51212569,5.12819933 C5.51212569,5.12819933 5.5103808,5.14211526 5.50537659,5.1680602 C5.49991146,5.19380298 5.49273436,5.23218128 5.47798509,5.27932021 C5.46366381,5.32659392 5.44509554,5.38404344 5.41714436,5.44718736 C5.39004917,5.51070193 5.35604025,5.58135979 5.31116692,5.65390455 C5.28986609,5.69096875 5.2642524,5.72725798 5.23870456,5.76573736 C5.21104969,5.80246462 5.18296682,5.84117987 5.15040649,5.87777235 C5.08762334,5.95311377 5.01404162,6.02656829 4.93107699,6.09405884 C4.8491988,6.16309934 4.7564562,6.22378356 4.65917029,6.27927878 C4.55984319,6.33046108 4.45689462,6.37945322 4.34940275,6.41463052 C4.32253802,6.42339115 4.29587081,6.43306154 4.2687427,6.44060916 L4.18709497,6.46183684 C4.13303627,6.4774375 4.07792405,6.48606335 4.02366782,6.49684567 C3.96960912,6.50907685 3.91492489,6.51281697 3.86129419,6.51932005 C3.80772932,6.52676659 3.75442784,6.52744048 3.70224572,6.53057409 C3.64999776,6.53411204 3.59870455,6.53492071 3.54846486,6.53293272 C3.49829101,6.53141646 3.44920361,6.53205666 3.40169648,6.52713723 C3.35422227,6.52336342 3.30803205,6.519657 3.26335625,6.51608536 C3.21884507,6.51099745 3.17614462,6.50375309 3.13512322,6.49805868 C3.05281704,6.48801765 2.97860979,6.47120398 2.91292946,6.4569848 C2.88013868,6.44977413 2.84929032,6.44394494 2.82110869,6.43683535 C2.79309166,6.42905187 2.76734629,6.42190858 2.74410303,6.41543919 C2.65129458,6.38925839 2.598882,6.37305122 2.598882,6.37305122 C2.598882,6.37305122 2.65389545,6.37749892 2.7490414,6.38747257 C2.77281142,6.39003336 2.79908355,6.39286372 2.8277261,6.39599733 C2.85640158,6.39808641 2.88744747,6.40037765 2.9206004,6.40283736 C2.98680749,6.40775679 3.06121227,6.41425988 3.1425637,6.41631526 C3.18319003,6.41759566 3.22539664,6.42025754 3.26908476,6.42059449 C3.31273996,6.4205271 3.35784375,6.4204934 3.40423151,6.42045971 C3.45055343,6.42174011 3.49796179,6.41735979 3.54639074,6.41513594 C3.57058876,6.41402401 3.59501723,6.41287839 3.61970909,6.41173277 C3.64436802,6.41035129 3.6690928,6.40718398 3.69411387,6.40496013 C3.79426403,6.39721034 3.89652123,6.38016081 3.99943688,6.3610222 C4.05066424,6.35000402 4.10281344,6.34114231 4.15341528,6.32557534 L4.23002587,6.30448244 C4.25547494,6.2970359 4.2801668,6.28729813 4.30535249,6.27904292 C4.4067537,6.24767312 4.50324947,6.20322977 4.59671636,6.15706799 C4.68735193,6.1057846 4.77782288,6.05611857 4.85647467,5.99432243 C4.93585075,5.93400886 5.01042014,5.8717073 5.07448727,5.8051602 C5.1392787,5.73945547 5.19672841,5.67280729 5.24538783,5.6075069 C5.34376017,5.47751262 5.4101648,5.3561105 5.45227264,5.26897592 C5.49447925,5.18167287 5.51212569,5.12819933 5.51212569,5.12819933" id="Fill-84" fill="#131518"></path>
            <path d="M12.832569,1.10053319 C12.832569,1.10053319 13.361271,1.67304039 13.365946,2.06979586 C13.370588,2.46658503 13.3632463,2.61487555 13.2085766,2.8051497 C13.0539068,2.99542386 13.0961463,3.12150955 12.8277952,3.65287548 C12.5594442,4.1842414 12.5206615,4.47960943 12.0761423,4.65492312 C11.6316231,4.83023681 11.3430247,4.79054442 11.1085838,5.12536897 C10.8741428,5.46022723 10.6470107,5.64676126 10.2764024,5.30543362 C9.90579418,4.96410599 9.21228231,4.77005802 8.87166641,5.30246849 C8.53105052,5.83484526 9.13929319,6.75845157 9.15493136,6.93272072 C9.17053661,7.10702358 9.01099431,7.39615807 9.01807264,7.74348337 C9.02515098,8.09080868 8.8014757,8.69883012 8.33400952,8.84816518 C7.86657627,8.99746653 7.12394407,8.8351927 6.89447444,8.57540632 C6.72126932,8.37926928 6.59412273,8.15553626 6.41239069,7.96445343 C6.06644135,7.60075249 5.86712871,7.22017049 5.72638514,6.73085558 C5.5817238,6.22772584 5.51680068,5.580012 5.39867485,5.02869879 C5.28058195,4.47738558 5.73431946,2.64213459 6.43984803,2.08377918 C7.39308528,1.32942151 8.3752943,0.582577767 9.61801885,0.488367295 C10.2013392,0.444159806 12.1723747,0.24859558 12.832569,1.10053319" id="Fill-86" fill="#131518"></path>
            <path d="M17.9721949,53.5181816 C17.2965599,50.7521811 17.6726991,48.9090792 18.2482498,43.73559 C18.8237675,38.5624377 17.6742465,35.9261619 17.2238341,33.2882013 C16.7734218,30.6502407 15.8756918,29.5524663 15.275153,28.2717295 C14.6745813,26.9913297 14.7558998,25.102403 14.7558998,25.102403 L9.93851911,25.6310733 L5.28453265,25.1239676 C5.28453265,25.1239676 5.17493374,26.9913297 4.574362,28.2717295 C3.97379027,29.5524663 3.0713524,30.6502407 2.62094006,33.2882013 C2.17052772,35.9261619 1.0186692,38.5624377 1.59418693,43.73559 C2.16973758,48.9090792 2.54465869,50.7521811 1.86905665,53.5181816 C1.19342168,56.2841822 0.442493017,58.025189 0.84289612,61.8155095 C1.2432663,65.6058299 1.08059637,68.6787895 1.08059637,68.6787895 L3.58293469,68.8836535 C3.58293469,68.8836535 3.62030169,65.426237 3.94560864,64.0690132 C4.27091558,62.7114524 5.17177318,57.8455961 5.39699581,56.5136433 C5.62218552,55.1820275 7.148603,52.5952829 7.54897318,49.8804983 C7.94934336,47.1660507 8.37473462,45.091466 8.67502049,43.8622822 C8.97530635,42.6327614 9.70328805,40.6353377 9.70328805,38.9704809 L9.68060447,38.9721657 L9.68060447,38.9960889 C9.68060447,39.0183275 9.83112601,39.0166427 9.90605756,39.0072082 C9.97868453,39.0156319 10.067641,39.0176536 10.1128436,39.0008062 C10.1215681,40.6592609 10.8592948,42.6401742 11.1577699,43.8622822 C11.4580558,45.091466 11.8871015,47.1660507 12.2874716,49.8804983 C12.6878418,52.5952829 14.216103,55.1820275 14.4413256,56.5136433 C14.6665153,57.8455961 15.4181024,62.8651004 15.7434094,64.2223242 C16.0687163,65.579885 16.1442404,68.6787895 16.1442404,68.6787895 L18.7469265,68.3202776 C18.7469265,68.3202776 18.6469409,65.9127889 19.0473111,62.1224685 C19.4476813,58.3321481 18.6478298,56.2841822 17.9721949,53.5181816" id="Fill-71" fill="#EFAA9E"></path>
            <path d="M0.426459774,72.9492599 C0.180430141,71.8033021 0.505967543,69.9561568 0.677296087,69.4925173 C0.848591708,69.0288778 0.827323791,67.8785396 2.4422698,67.6632303 C2.97357265,67.5921344 3.51475225,67.7855422 3.80288972,68.2660291 C4.16793409,68.8745559 3.94630001,69.6313396 4.03706726,70.2995062 C4.14577727,71.099756 4.35799552,71.9229184 4.78256372,72.6116387 C5.20871219,73.3030546 5.71245893,74.4173394 4.66904703,74.7829272 C3.9067272,75.0501265 3.04284154,75.0265402 2.25059517,74.944325 C1.64172698,74.8813159 0.83117572,74.809883 0.318869135,74.4244153 C-0.456455077,73.8411595 0.426459774,72.9492599 0.426459774,72.9492599" id="Fill-72" fill="#DC3965"></path>
            <path d="M0.318869135,74.4244153 C-0.396174031,73.8863104 0.298720583,73.0867344 0.411150824,72.9654334 C0.558544731,73.9072011 1.18166836,74.1885522 1.7531037,74.1605855 C2.34284394,74.131945 2.60010013,73.45367 3.07280098,73.479278 C3.54546891,73.5045491 3.86234771,74.2232577 4.51885472,74.1589008 C5.0380421,74.1076848 5.14764101,73.6019269 5.17091719,73.3916717 C5.37240272,73.9567324 5.36832034,74.5379665 4.66904703,74.7829272 C3.9067272,75.0501265 3.04284154,75.0265402 2.25059517,74.944325 C1.64172698,74.8813159 0.83117572,74.809883 0.318869135,74.4244153" id="Fill-73" fill="#163139"></path>
            <path d="M19.573511,72.539532 C19.8195406,71.3935741 19.4940032,69.5464289 19.3226746,69.0827894 C19.151379,68.6191498 19.1726469,67.4688117 17.5577009,67.2535023 C17.0263981,67.1824065 16.4852185,67.3758142 16.197081,67.8563011 C15.8320366,68.464828 16.0536707,69.2212747 15.9629035,69.8897782 C15.8541935,70.6900281 15.6419752,71.5131904 15.217407,72.2019107 C14.7912585,72.8933266 14.2875118,74.0076114 15.3309237,74.3731993 C16.0932435,74.6403985 16.9571292,74.6168122 17.7493756,74.5345971 C18.3582438,74.471251 19.168795,74.4001551 19.6811016,74.0146873 C20.4564587,73.4310946 19.573511,72.539532 19.573511,72.539532" id="Fill-74" fill="#DC3965"></path>
            <path d="M19.6811016,74.0146873 C20.3962106,73.4765825 19.7012502,72.6770065 19.5888199,72.5557054 C19.441426,73.4974732 18.8183024,73.7784873 18.246867,73.7508576 C17.6571268,73.7222171 17.3998377,73.0439421 16.9271698,73.0692132 C16.4545018,73.0948211 16.137623,73.8135298 15.4810831,73.7488359 C14.9619286,73.6979569 14.8523297,73.1921989 14.8290535,72.9819438 C14.627568,73.5470045 14.6316504,74.1282386 15.3309237,74.3731993 C16.0932435,74.6403985 16.9571292,74.6168122 17.7493756,74.5345971 C18.3582438,74.471251 19.168795,74.4001551 19.6811016,74.0146873" id="Fill-75" fill="#163139"></path>
            <path d="M6.53568534,11.8747608 C6.53568534,11.8747608 4.53383444,12.7967498 3.53289253,13.4113754 C3.53289253,13.4113754 0.98047913,13.8723867 0.830352658,17.2529455 C0.680193264,20.633538 1.08059637,24.4750071 0.630151107,26.8824957 C0.179738769,29.2899843 0.129696612,33.4388167 0.179738769,34.6680006 C0.209467761,35.3981654 0.218159294,36.0673428 0.180956901,36.6455444 C0.198175354,36.641838 0.215624264,36.6391424 0.232875639,36.635436 C0.238011545,37.0613374 0.248711348,37.4404031 0.270637714,37.7746549 C0.360680675,39.1467044 0.249501487,40.2138166 0.60354975,41.0794342 C0.957598012,41.944715 2.62683318,43.7018953 2.70048075,44.0890477 C2.70048075,44.0890477 3.09206063,43.5004008 2.73139495,42.8915369 C2.37072927,42.2826731 2.5774824,42.3739859 2.2970817,41.8955207 C2.01668101,41.4170555 1.75284032,40.2970426 1.90030007,39.4452397 C1.90030007,39.4452397 2.10043578,39.7929694 2.37089388,40.6562284 C2.64131907,41.5194874 3.21647465,41.9204548 3.21647465,41.9204548 C3.21647465,41.9204548 3.67396532,42.0181695 3.37496343,40.6407288 C3.07596154,39.2629512 3.15843233,39.3077652 3.01775461,38.2770433 C2.89021296,37.3420145 2.62074252,36.5461449 2.10613137,36.3291509 C2.05615505,36.0225288 1.97832633,35.2007143 2.33174907,34.1558406 C2.78219433,32.8242248 3.53289253,30.5191682 3.8331784,28.2141115 C4.13343134,25.9093918 4.33363289,23.5531192 4.28359073,22.3751513 C4.23354858,21.1968466 4.23354858,20.531106 4.78404523,19.3017537 C5.3345748,18.0724688 6.38555887,13.974785 6.53568534,11.8747608" id="Fill-76" fill="#EFAA9E"></path>
            <path d="M12.992243,11.6696273 C12.992243,11.6696273 14.9941268,12.5915826 15.9950358,13.2062082 C15.9950358,13.2062082 18.5474492,13.6672195 18.6975757,17.047812 C18.8477351,20.4283708 18.4473649,24.2698062 18.8977772,26.6772948 C19.3481896,29.0847834 19.3982317,33.2336158 19.3481896,34.4627996 C19.3184606,35.1929645 19.309769,35.8621419 19.3469714,36.4406804 C19.329753,36.4366371 19.3123041,36.4342784 19.2950856,36.430572 C19.2899168,36.8561365 19.279217,37.2352022 19.2572906,37.569454 C19.1672477,38.9415035 19.2784268,40.0086156 18.9243786,40.8742333 C18.5703632,41.739851 16.9010952,43.4970313 16.8274476,43.8841838 C16.8274476,43.8841838 16.4358677,43.2955368 16.7965663,42.686336 C17.1571991,42.0774722 16.9504789,42.1687849 17.2308466,41.6903197 C17.5112473,41.2118545 17.775088,40.0918416 17.6276283,39.2400388 C17.6276283,39.2400388 17.4274926,39.5877684 17.1570345,40.4510275 C16.8866093,41.3142865 16.3114537,41.7152538 16.3114537,41.7152538 C16.3114537,41.7152538 15.8539959,41.8129686 16.1529649,40.4355279 C16.4519668,39.0577503 16.369496,39.1029012 16.5101737,38.0718424 C16.6377154,37.1368136 16.9071858,36.340944 17.421797,36.1239499 C17.4717733,35.8173279 17.549602,34.9955134 17.1961793,33.9506397 C16.7457669,32.6190239 15.9950358,30.3139672 15.6947829,28.0089106 C15.394497,25.7041909 15.1942954,23.3479183 15.2443376,22.1699504 C15.2943798,20.9919826 15.2943798,20.3259725 14.7438831,19.0966202 C14.1933535,17.8673353 13.1423695,13.7696515 12.992243,11.6696273" id="Fill-77" fill="#EFAA9E"></path>
            <path d="M6.35448006,14.7631744 C6.35448006,14.7631744 5.88326072,11.949799 6.41825089,11.8789053 C7.53007568,11.7315582 7.96136007,10.3938436 7.86460092,9.41774093 C7.80122516,8.77851816 7.50630566,5.66151956 9.59922012,6.28359171 C10.6766739,6.60386014 12.0076965,9.20607062 12.0459524,9.21651599 C11.9948567,9.20256637 11.9949884,10.1736149 12.0030544,10.233861 C12.0434832,10.536406 12.1359953,10.832886 12.2949121,11.092605 C12.576926,11.5535489 13.1120149,11.7655899 13.611383,11.878939 C14.0121812,11.969881 14.3852586,14.4617413 14.1496325,15.2655628 C13.9140064,16.0693844 10.1226216,17.9985763 10.1226216,17.9985763 C6.82392158,18.2799273 6.53120789,15.2856786 6.53120789,15.1450031 L6.35448006,14.7631744" id="Fill-78" fill="#EFAA9E"></path>
            <path d="M12.1030544,10.4756544 C12.102684,10.4756544 12.102684,10.4756544 12.1023137,10.4756544 C12.0603877,10.3958653 12.0274988,10.315099 12.0030544,10.233861 C12.0274988,10.3151327 12.0611285,10.3958653 12.1030544,10.4756544 M12.0078569,10.233861 C11.9902211,10.1742551 11.9897109,9.22379405 12.099097,9.21641491 C11.9897109,9.22389514 11.990294,10.1742551 12.0078569,10.233861 M12.041442,9.2119672 C11.948041,9.09032922 10.6524758,6.59664946 9.59922012,6.28359171 C10.6524758,6.59664946 11.948041,9.09032922 12.041442,9.2119672" id="Fill-79" fill="#E3C0B8"></path>
            <path d="M12.0471705,10.4756544 C9.09553922,10.4517649 8.76904707,7.74968321 8.76904707,7.74968321 L8.49282753,7.20446874 L8.61121674,6.42797363 L9.22643897,6.20868832 C9.33784861,6.21920107 9.45762057,6.24228196 9.58667666,6.27988528 L9.58670958,6.27991898 C9.58855324,6.2804244 9.5903969,6.28096352 9.59224055,6.28153633 C9.5926027,6.28163741 9.59312946,6.28180588 9.59352453,6.28190697 C9.59543403,6.28244608 9.59731061,6.28301889 9.59922012,6.28359171 C10.6524758,6.59664946 11.948041,9.09032922 12.041442,9.2119672 C12.043582,9.21476386 12.0450964,9.21628013 12.0459524,9.21651599 C12.0455902,9.21641491 12.0452281,9.21638121 12.0448659,9.21638121 C12.0446684,9.21638121 12.0444709,9.21638121 12.0442733,9.21641491 C11.9948567,9.22379405 11.9950872,10.1742551 12.0030544,10.233861 C12.0139188,10.315099 12.0285364,10.3958653 12.0471705,10.4756544" id="Fill-80" fill="#E98B7D"></path>
            <path d="M15.5706981,17.0267191 C15.1118905,15.8392493 14.9306194,15.6539957 14.7694968,14.3951605 C14.6221358,13.2438452 14.3444018,12.2702696 14.3444018,12.2702696 C14.0567911,11.7649834 13.6114159,11.878939 13.6114159,11.878939 C13.6114159,11.878939 13.6798947,12.2184808 13.7360933,12.8081386 C13.9071914,14.6031918 13.1815143,16.2030514 11.2794185,16.6201921 C9.86306081,16.9308239 8.10114888,16.7924733 7.19031577,15.4869709 C6.45788954,14.4372115 6.17857529,14.0785648 6.29969707,12.8081386 C6.35589572,12.2184808 6.41818504,11.878939 6.41818504,11.878939 C6.41818504,11.878939 6.09936382,11.5860643 5.81172019,12.0913506 C5.81172019,12.0913506 5.40282309,13.2438452 5.25542918,14.3951605 C5.09433953,15.6539957 4.91227826,15.8392493 4.45350361,17.0267191 C4.09273916,17.9604338 3.74553878,18.9928067 3.85382078,20.0306382 C3.92447241,20.7077001 4.2387174,21.3114086 4.50509312,21.9236419 C4.7498717,22.486007 4.89038481,23.087458 5.04370476,23.6808222 C5.07991948,23.8209923 5.35386737,25.2028133 5.2799235,25.1863029 C8.50859739,25.908044 11.5448724,25.9154569 14.7682457,25.1863029 C14.6942689,25.2031502 14.9559367,23.8209923 14.9921515,23.6808222 C15.1454714,23.087458 15.2737374,22.486007 15.5185159,21.9236419 C15.7848917,21.3114086 16.0993342,20.7077001 16.1699529,20.0306382 C16.2782349,18.9928067 15.9314296,17.9604338 15.5706981,17.0267191" id="Fill-81" fill="#DC3965"></path>
            <path d="M4.02607116,20.4800585 C4.02607116,20.4800585 4.04812921,20.5310386 4.08947984,20.626698 C4.12681392,20.7247497 4.20042857,20.8582145 4.29267734,21.0219709 C4.39391394,21.1823578 4.52181774,21.37307 4.70315471,21.5560324 C4.88343817,21.7389948 5.11024108,21.9175769 5.38171978,22.0611164 C5.65392278,22.2033082 5.97221724,22.3030446 6.31540108,22.3475217 C6.66042859,22.3906509 7.02501204,22.3677385 7.40003192,22.2905776 C7.76217911,22.2120688 8.14539668,22.051008 8.55426086,21.910501 C8.95726484,21.7686462 9.42502732,21.6284761 9.88798312,21.6190416 C10.3957135,21.6183677 10.8340762,21.7366362 11.2550229,21.8704043 C11.6725457,22.0008029 12.055862,22.1615267 12.4300918,22.2525025 C12.80498,22.3512281 13.1569541,22.3822272 13.513274,22.3539237 C13.8571493,22.3276418 14.184662,22.2447527 14.4679928,22.1264842 C15.0378808,21.8859038 15.4358147,21.5095337 15.6627493,21.2096506 C15.7787352,21.0607198 15.8623912,20.9343646 15.9126638,20.8443997 C15.9643191,20.7546369 15.9918752,20.7066893 15.9918752,20.7066893 C15.9918752,20.7066893 15.9743276,20.7594889 15.9415039,20.8585514 C15.9081205,20.957277 15.8557079,21.1038491 15.760101,21.2760292 C15.5812991,21.6230849 15.2212589,22.0995284 14.6141356,22.4378236 C14.3128292,22.6069711 13.9591101,22.7410761 13.5625919,22.8000419 C13.1801974,22.8643989 12.7360732,22.8650728 12.3193077,22.7697167 C11.8985585,22.6831212 11.4900564,22.5493531 11.0912665,22.4260304 C10.6980405,22.3033816 10.282526,22.2147644 9.92060929,22.2191447 C9.5131937,22.2208295 9.13675816,22.3286526 8.73326034,22.4610729 C8.33384491,22.5945041 7.92702193,22.7333264 7.48997611,22.8104873 C7.06659312,22.882931 6.63484783,22.870127 6.24514453,22.7885857 C5.85303789,22.710077 5.50073452,22.5527226 5.21262997,22.3576301 C4.92185869,22.1645593 4.69959909,21.929707 4.53373567,21.7049631 C4.36349357,21.481904 4.26525292,21.2564862 4.18883986,21.0752086 C4.11822116,20.8882028 4.07818743,20.7387667 4.05935578,20.6367053 C4.03765987,20.5345429 4.02607116,20.4800585 4.02607116,20.4800585" id="Fill-82" fill="#CA295A"></path>
            <path d="M13.2561495,1.84110972 C13.2561495,1.84110972 14.2106049,2.24975943 14.5048989,3.15719227 C14.6534451,3.61533954 14.6082754,4.11186512 14.5623486,4.58332182 C14.5385786,4.82750754 14.5011786,5.08934931 14.5709414,5.32939058 C14.6490335,5.59807238 14.8938779,5.80957421 15.0503584,6.03522783 C15.2818692,6.36910894 15.4986308,6.72586876 15.4783835,6.86283785 C15.442037,7.1088094 15.1097505,7.46337906 14.6218395,7.53730531 C14.6218395,7.53730531 14.3717604,7.69786071 14.5261997,8.00323607 C14.5261997,8.00323607 14.5623157,8.25291403 14.3147058,8.36403926 C14.3147058,8.36403926 14.5414758,8.67298626 14.1710979,8.82734183 C13.9756043,8.90881569 14.1616163,9.41925719 14.1519371,9.55282311 C14.1001829,10.2644896 13.2971051,10.33508 12.7691932,10.2420152 C11.3769019,9.99665013 9.50907839,9.08237726 9.63187921,7.08141558 C9.62802728,7.14405409 9.06930001,6.74450195 9.03802366,6.70359654 C8.76575482,6.34764539 8.63103607,5.70966933 8.87166641,5.30246849 C9.09570383,4.92333536 9.64932812,4.77730239 10.0306691,4.92721025 C10.7239176,5.19980064 11.0383272,4.8898091 11.5748977,4.45925781 C12.0136884,4.10718155 12.4607755,3.73947094 12.756123,3.24682026 C13.007947,2.82678172 13.1350278,2.31492504 13.2561495,1.84110972" id="Fill-85" fill="#EFAA9E"></path>
            <path d="M13.4349764,1.65208227 C13.4349764,1.65208227 13.4485814,0.884516264 12.8388901,0.481291401 C12.2291989,0.0780328444 11.4355698,0.458345289 11.1047648,0.292567205 C10.7739268,0.126789122 10.2547395,-0.147856641 9.73413641,0.097845347 C9.73413641,0.097845347 10.4153024,0.0339264397 10.720757,0.223156057 C11.0262117,0.412419368 11.506814,0.486817338 12.018923,0.4141378 C12.5309992,0.341458262 13.2577956,0.825078756 13.4349764,1.65208227" id="Fill-87" fill="#131518"></path>
            <path d="M14.6474532,4.31686387 C14.6474532,4.31686387 14.8272757,4.5987877 14.6098886,4.58753366 C14.3925016,4.57631331 14.4312842,4.28094529 13.8467457,4.34985101 C13.2622073,4.41879044 12.9081919,4.72268323 12.9081919,4.72268323 C12.9081919,4.72268323 13.5873825,3.71689547 14.6474532,4.31686387" id="Fill-88" fill="#131518"></path>
            <path d="M14.2616677,5.51130844 C14.2616677,5.51130844 14.2510337,5.53246873 14.2259139,5.56565804 C14.2127449,5.58146087 14.1976005,5.60214944 14.1764972,5.62189455 C14.1660608,5.63186819 14.1553939,5.64322332 14.1431797,5.65400563 C14.1304716,5.66421513 14.1170722,5.67493006 14.103146,5.68611671 C14.0895161,5.69804465 14.0729231,5.70656941 14.0569557,5.71758759 C14.040725,5.72820143 14.023704,5.73895005 14.0048395,5.74713787 C13.9862053,5.75603328 13.9670445,5.76516455 13.9474885,5.7744643 C13.926912,5.78120325 13.9058745,5.78804328 13.8845078,5.79505178 C13.8632399,5.80297004 13.8407539,5.80697972 13.8179386,5.81095569 C13.7951562,5.81483059 13.7721105,5.82032283 13.7486368,5.82217604 C13.7250643,5.82301841 13.7013272,5.82382708 13.6774913,5.82466945 L13.6416387,5.82574768 L13.6060166,5.82237821 C13.5585754,5.81708814 13.5108707,5.81307846 13.4659644,5.79966796 C13.4203997,5.78905412 13.3757898,5.7776316 13.3351964,5.75963862 C13.2943067,5.74275756 13.2535157,5.72927966 13.2182228,5.70936608 C13.1826007,5.69019377 13.1494149,5.67125733 13.1189616,5.65373607 C13.0877182,5.63766369 13.0622362,5.61751424 13.0391575,5.60066687 C13.0163093,5.58358364 12.9964241,5.56869057 12.9800288,5.55642569 C12.9479293,5.53122203 12.9295915,5.51683438 12.9295915,5.51683438 C12.9295915,5.51683438 12.9506948,5.52667324 12.9876009,5.54385755 C13.0057083,5.55275296 13.0277334,5.56360266 13.052952,5.57600233 C13.078039,5.58850307 13.1056609,5.60373309 13.1379249,5.61576211 C13.1696951,5.62870089 13.2039674,5.64275159 13.2396554,5.65845334 C13.2752775,5.67445833 13.3156734,5.6830168 13.3552462,5.69757292 C13.3947861,5.71317358 13.4377828,5.71957558 13.4805162,5.72954922 C13.5230849,5.74157824 13.5673986,5.74403796 13.6114488,5.74838458 L13.6444372,5.75225947 L13.6773926,5.75175405 C13.6993518,5.7514171 13.7212453,5.75111385 13.7429412,5.7508106 C13.7645054,5.74922694 13.7856416,5.74514988 13.8067779,5.74295972 C13.827947,5.7405674 13.8488857,5.73814138 13.8686392,5.73187416 C13.8887219,5.72681995 13.9085083,5.72183313 13.9278338,5.71694739 C13.9466325,5.71003997 13.9650033,5.70326733 13.9828802,5.69669686 C14.0012509,5.69093506 14.0175805,5.68197226 14.0338771,5.67412139 C14.0499103,5.66583248 14.0667337,5.65990221 14.0807258,5.65040029 C14.1097634,5.63321598 14.1364964,5.6171099 14.1586862,5.60029623 C14.1816331,5.58452709 14.1998393,5.56825254 14.2155433,5.55551593 C14.2459636,5.52893078 14.2616677,5.51130844 14.2616677,5.51130844" id="Fill-89" fill="#131518"></path>
            <path d="M14.3871352,8.36777938 C14.3871352,8.36777938 14.6191399,8.08238499 14.4246997,8.09710959 C14.2302596,8.11186788 14.0526758,8.2761634 13.6432849,8.23023748 C13.6712031,8.23337109 13.8007531,8.45322922 13.8274203,8.48136432 C13.9353401,8.5953536 14.1284304,8.75489816 14.297619,8.73383895 C14.4596634,8.7136558 14.438593,8.4878674 14.3871352,8.36777938" id="Fill-90" fill="#DF516B"></path>
            <path d="M13.8489186,7.49737705 C13.8489186,7.49737705 13.8159632,7.58666809 13.7325706,7.70139865 C13.6913188,7.75878078 13.6375893,7.82216057 13.5721065,7.88227198 C13.5391182,7.91192334 13.5040557,7.94181057 13.4658986,7.96886744 C13.4469353,7.98146927 13.4278402,7.99420588 13.4086793,8.00697618 C13.3903086,8.01998235 13.3696991,8.03268526 13.3530404,8.04602838 C13.3204471,8.07123204 13.2867674,8.09926605 13.2594747,8.13168039 C13.2309309,8.16301649 13.2069963,8.19725034 13.1861893,8.23212438 C13.1677527,8.26814405 13.1497441,8.30359091 13.1390114,8.33994753 C13.1269617,8.37583242 13.1197846,8.41138036 13.1139574,8.44456967 C13.1093811,8.47796115 13.106879,8.50906139 13.1058584,8.53696063 C13.106056,8.56472509 13.1056609,8.58938963 13.1074387,8.60960647 C13.1096774,8.65017493 13.1129039,8.67369385 13.1129039,8.67369385 C13.1129039,8.67369385 13.1107968,8.6682353 13.1068132,8.65799211 C13.10306,8.64764782 13.0961792,8.63272106 13.0910104,8.612639 C13.0846893,8.59282649 13.0790266,8.56816195 13.0738578,8.53935295 C13.0719812,8.52479683 13.0700059,8.50929725 13.0678659,8.492989 C13.0670428,8.47651228 13.066121,8.4590921 13.0659893,8.44086325 C13.0666807,8.40450663 13.0688865,8.3644436 13.0786316,8.32320125 C13.0864013,8.28145347 13.1016444,8.23893072 13.1210357,8.19664383 C13.1425341,8.15567104 13.1661724,8.11297981 13.1987986,8.07685906 C13.2295811,8.03908726 13.2660592,8.00657185 13.3057966,7.97523574 C13.3254843,7.96044376 13.3443488,7.94949297 13.3636085,7.9364868 C13.3827694,7.924323 13.4018315,7.91222659 13.4207619,7.90019758 C13.4387376,7.88769683 13.4565486,7.87533086 13.4741621,7.86306598 C13.4913147,7.85002612 13.5082369,7.83715473 13.5248957,7.82445182 C13.5572255,7.79773189 13.5887982,7.77195542 13.6172761,7.74560614 C13.6456224,7.71912208 13.6724542,7.69381734 13.6962901,7.66935496 C13.7917652,7.57170763 13.8489186,7.49737705 13.8489186,7.49737705" id="Fill-91" fill="#D77065"></path>
            <path d="M14.4095554,6.93154141 C14.4095554,6.93154141 14.4043866,6.93231639 14.3947403,6.93379896 C14.3851928,6.93545 14.3705423,6.9367304 14.3534226,6.94161613 C14.3361054,6.9450193 14.3157922,6.95246584 14.2926806,6.96045149 C14.2815858,6.96553939 14.2697337,6.97096425 14.257289,6.97665866 C14.245404,6.98333021 14.2329593,6.99033872 14.2199549,6.99765047 C14.1953618,7.01443045 14.1693201,7.03326581 14.1461098,7.05742493 C14.1218788,7.08057321 14.1018949,7.10971915 14.0849398,7.14058353 C14.0670959,7.1714816 14.0596225,7.20743388 14.0555071,7.24298182 C14.0505358,7.27815912 14.0599846,7.31805368 14.0696309,7.34925501 C14.0850057,7.39322663 14.1004463,7.41485865 14.1257308,7.44228616 C14.1513774,7.46587247 14.1822587,7.48376438 14.2153787,7.49619773 C14.2828368,7.51924493 14.3540152,7.52510781 14.4149876,7.52814034 C14.4769148,7.53026311 14.5285043,7.53201523 14.5646202,7.53322824 C14.6010654,7.53501407 14.6218395,7.53730531 14.6218395,7.53730531 C14.6218395,7.53730531 14.6013617,7.5411802 14.565575,7.54798654 C14.5297883,7.55435484 14.4788572,7.56449696 14.4161399,7.57076418 C14.3847319,7.57386409 14.3503937,7.5763912 14.3134547,7.57504341 C14.2766145,7.57406626 14.2369429,7.57012398 14.1962836,7.55860038 C14.1561511,7.54593116 14.1136482,7.52760122 14.0784541,7.49522059 C14.0451695,7.46479424 14.0146833,7.41408367 14.0027324,7.37796292 C13.9964772,7.36323832 13.9962138,7.35403966 13.9927569,7.34180847 C13.9902219,7.33025118 13.9867979,7.31896344 13.9864687,7.30693442 L13.9836374,7.27145387 L13.9858432,7.2360744 C13.9912425,7.18950828 14.0063868,7.1446269 14.0297288,7.10803442 C14.0522478,7.07090282 14.080199,7.03973519 14.110356,7.01608149 C14.1394594,6.99084414 14.1715259,6.97409786 14.2008599,6.95994607 C14.216103,6.9539821 14.2305559,6.94808552 14.244548,6.94343565 C14.2588363,6.93986401 14.2724004,6.93646084 14.2851085,6.93325984 C14.3109197,6.92894691 14.3334387,6.9264872 14.3523032,6.92695893 C14.3709373,6.92571222 14.3848965,6.929048 14.3946744,6.92978928 C14.4043866,6.9309349 14.4095554,6.93154141 14.4095554,6.93154141" id="Fill-92" fill="#D77065"></path>
            <path d="M10.1506386,5.6458852 C10.1506386,5.6458852 10.1264406,5.61977178 10.0805137,5.57896746 C10.0576655,5.55848106 10.029023,5.53472628 9.99488239,5.5096237 C9.96064301,5.4846896 9.92034591,5.45958703 9.87586765,5.43424859 C9.83017126,5.41150464 9.78009618,5.3881205 9.72478643,5.37440674 C9.71102483,5.37093618 9.6970657,5.36743193 9.68294196,5.36389399 C9.66858777,5.36237772 9.65406896,5.36086146 9.63938553,5.3593452 C9.6101833,5.35408882 9.5802897,5.35860391 9.55013271,5.358705 C9.53495545,5.35846913 9.52027203,5.36416354 9.50519354,5.36655587 C9.4903455,5.37026229 9.4748061,5.3714753 9.46022144,5.37710232 C9.44573555,5.38293151 9.43118382,5.38879439 9.4165004,5.39469097 C9.40171821,5.40004843 9.38687017,5.40557437 9.37340488,5.41487412 C9.31710746,5.44516568 9.2615014,5.48506024 9.22182982,5.53381652 C9.17942568,5.58203368 9.15160619,5.64123533 9.13708738,5.70319994 C9.12365501,5.7655015 9.12279903,5.83063342 9.13181979,5.89303606 C9.15075021,6.01838047 9.2015825,6.13085348 9.25478522,6.21953802 C9.30917314,6.30788561 9.36596441,6.37540985 9.41324107,6.41355229 C9.43645142,6.43319632 9.45627075,6.44667421 9.47036156,6.45523267 C9.4849133,6.46284768 9.492683,6.46692474 9.492683,6.46692474 C9.492683,6.46692474 9.48425485,6.46433025 9.46845206,6.45944451 C9.45317603,6.45327838 9.42996569,6.44448405 9.40379233,6.42716496 C9.35088591,6.39397565 9.28059644,6.33521204 9.21524533,6.24760573 C9.18248747,6.20400475 9.1504539,6.15363112 9.12332579,6.09635008 C9.09606598,6.0392712 9.07193381,5.97565555 9.05909404,5.90594114 C9.0467152,5.83653 9.04190851,5.76071685 9.05804053,5.68537543 C9.07420546,5.61053943 9.10791807,5.53657949 9.15842114,5.47778218 C9.20994481,5.41733383 9.27127938,5.37555236 9.33686094,5.34108265 C9.35240035,5.33104162 9.3696188,5.32437006 9.38713355,5.31854088 C9.4044837,5.31250952 9.42173507,5.30647816 9.43888768,5.30051419 C9.45610613,5.29485348 9.47450979,5.29370786 9.49202455,5.2902373 C9.50980268,5.28811453 9.5271199,5.28279076 9.54479927,5.28356574 C9.57996047,5.28471136 9.61489121,5.28103864 9.64778076,5.28946232 C9.66427492,5.29242746 9.68060447,5.29539259 9.69673648,5.29832404 C9.71221004,5.30334455 9.72751899,5.30833137 9.74259748,5.3132508 C9.80307606,5.33242311 9.85450097,5.36308531 9.9002632,5.39202909 C9.92218957,5.40806778 9.94352333,5.42285977 9.96258544,5.43842673 C9.98095618,5.45493715 9.99896477,5.46972914 10.01457,5.48506024 C10.046011,5.51548659 10.0717564,5.54345321 10.0920037,5.5672417 C10.1322679,5.61512191 10.1506386,5.6458852 10.1506386,5.6458852" id="Fill-93" fill="#D77065"></path>
            <path d="M18.2482498,43.73559 C18.8237675,38.5624377 17.6742465,35.9261619 17.2238341,33.2882013 C16.849341,31.0950111 16.1657388,29.9662376 15.6007234,28.9122664 C14.9435908,29.0895007 12.540415,29.6926364 10.0389656,29.7509283 C7.4143532,29.8119157 4.84482011,28.9456242 4.32882621,28.761314 C3.74876518,29.8607731 3.013343,30.9902205 2.62094006,33.2882013 C2.17052772,35.9261619 1.0186692,38.5624377 1.59418693,43.73559 C2.16973758,48.9090792 2.54465869,50.7521811 1.86905665,53.5181816 C1.19342168,56.2841822 0.442493017,58.025189 0.84289612,61.8155095 C1.02182975,63.5096806 1.08816854,65.0593014 1.10693434,66.2564752 C2.12937463,66.731234 3.3593911,66.3629506 3.68394083,66.2500732 C3.73813122,65.4232045 3.82053617,64.5909446 3.94560864,64.0690132 C4.27091558,62.7114524 5.17177318,57.8455961 5.39699581,56.5136433 C5.62218552,55.1820275 7.148603,52.5952829 7.54897318,49.8804983 C7.94934336,47.1660507 8.37473462,45.091466 8.67502049,43.8622822 C8.97530635,42.6327614 9.70328805,40.6353377 9.70328805,38.9704809 L9.68060447,38.9721657 L9.68060447,38.9960889 C9.68060447,39.0183275 9.83112601,39.0166427 9.90605756,39.0072082 C9.97868453,39.0156319 10.067641,39.0176536 10.1128436,39.0008062 C10.1215681,40.6592609 10.8592948,42.6401742 11.1577699,43.8622822 C11.4580558,45.091466 11.8871015,47.1660507 12.2874716,49.8804983 C12.6878418,52.5952829 14.216103,55.1820275 14.4413256,56.5136433 C14.6665153,57.8455961 15.4181024,62.8651004 15.7434094,64.2223242 C15.8578808,64.7001155 15.9417014,65.3932162 16.0018178,66.0910341 C17.4058625,66.5418696 18.4745918,66.1247288 18.7668116,65.9872543 C18.8045737,64.9727059 18.8847399,63.6616439 19.0473111,62.1224685 C19.4476813,58.3321481 18.647764,56.2841822 17.972129,53.5181816 C17.296494,50.7521811 17.6726991,48.9090792 18.2482498,43.73559" id="Fill-94" fill="#4D7066"></path>
            <path d="M3.39991867,30.5862207 C4.01965128,30.8820604 6.34595314,31.8575229 9.97226465,31.799568 C13.2570714,31.7470042 15.6321972,31.1293798 16.5545203,30.846681 C16.2470244,30.0754085 15.9065402,29.4827182 15.6007234,28.9122664 C14.9435908,29.0895007 12.540415,29.6926364 10.0389656,29.7509283 C7.4143532,29.8119157 4.84482011,28.9456242 4.32882621,28.761314 C4.03736357,29.3139076 3.70662441,29.873914 3.39991867,30.5862207" id="Fill-95" fill="#395B52"></path>
            <path d="M6.12902697,35.3691879 C6.12902697,35.3691879 6.27661841,35.4621854 6.52439294,35.6411044 C6.76917151,35.8233929 7.12285763,36.0825054 7.51351568,36.437311 C7.70910809,36.61623 7.91836332,36.8059313 8.12403,37.038088 C8.32959791,37.2739512 8.51462221,37.5394657 8.70465071,37.8022846 C8.89527182,38.0647665 9.10008252,38.3272485 9.33449052,38.5418839 C9.39039288,38.6011867 9.45712673,38.637577 9.51750654,38.6874452 C9.58107984,38.7292267 9.64778076,38.7625844 9.71369155,38.7952683 L9.8163109,38.8272783 L9.86737365,38.8437887 L9.91991792,38.8478321 L10.0245785,38.8579405 C10.0596409,38.8579405 10.0949009,38.8478321 10.1300291,38.8444626 C10.1649928,38.8373867 10.2009441,38.8407562 10.2357432,38.8272783 L10.3403708,38.7892033 C10.4117796,38.7710081 10.4778221,38.7265311 10.5448852,38.6874452 L10.6408213,38.6321858 L10.7442308,38.554351 C10.800166,38.5071784 10.8568915,38.4552885 10.9133535,38.3973335 C11.1324855,38.1661877 11.3122422,37.88888 11.4802126,37.6088768 C11.5653172,37.4693806 11.6466028,37.3278627 11.7353618,37.1927469 C11.7794779,37.1243466 11.8239562,37.0596527 11.8711341,36.9922632 C11.9172584,36.929591 11.9628231,36.8675927 12.0077952,36.8066052 C12.1933134,36.5599598 12.3841649,36.3422918 12.5773869,36.1562969 C12.9600448,35.7802637 13.3505712,35.5538351 13.6317291,35.4338818 C13.7722093,35.3715466 13.8887219,35.3395366 13.9672749,35.3186458 C14.0461901,35.2991029 14.0883308,35.2886575 14.0883308,35.2886575 C14.0883308,35.2886575 14.048363,35.3055049 13.9734973,35.3371779 C13.898862,35.368851 13.7925224,35.4227626 13.6621494,35.4972279 C13.5326654,35.573378 13.3794113,35.6727775 13.2204286,35.8085673 C13.0609193,35.9433462 12.8934427,36.1091243 12.7233652,36.3018581 C12.554407,36.494929 12.3873255,36.7210206 12.2229107,36.9642966 C12.0513846,37.2139745 11.9124188,37.4788151 11.7486954,37.7719593 C11.5861242,38.0597123 11.413808,38.3713886 11.1589551,38.6416203 C11.096172,38.707662 11.0268373,38.7737037 10.9505888,38.8377237 L10.8479695,38.9169063 L10.7215801,38.9947411 C10.6399982,39.0439355 10.5610172,39.0968362 10.4646202,39.1258137 L10.3256215,39.1770296 C10.2793984,39.193877 10.2265578,39.1952248 10.1769766,39.2039854 C10.1264735,39.2090396 10.0763655,39.219485 10.0256649,39.2188422 L9.87274001,39.2039854 L9.79659034,39.1952248 L9.72442428,39.1726493 L9.58107984,39.1248028 C9.49304515,39.0816736 9.40517507,39.0348379 9.32612821,38.9816002 C9.25320494,38.9219605 9.16984524,38.8707445 9.10749008,38.804029 C8.83614307,38.5523293 8.63906915,38.2612068 8.45154275,37.9879425 C8.26375297,37.7129935 8.10226824,37.4441096 7.92514535,37.2153223 C7.74364376,36.9875459 7.54890734,36.7772908 7.37326595,36.5872525 C7.01622174,36.2085237 6.70628959,35.9019017 6.48133034,35.6960268 C6.25716123,35.4881303 6.12902697,35.3691879 6.12902697,35.3691879" id="Fill-96" fill="#395B52"></path>
        </g>
    </g>
</svg>