<?xml version="1.0" encoding="UTF-8"?>
<svg width="37px" height="60px" viewBox="0 0 37 60" version="1.1" xmlns="http://www.w3.org/2000/svg" xmlns:xlink="http://www.w3.org/1999/xlink">
    <title>Group 2</title>
    <g id="Page-1" stroke="none" stroke-width="1" fill="none" fill-rule="evenodd">
        <g id="Group-2">
            <path d="M20.0876528,1.82607912 C20.0876528,1.82607912 20.9433125,2.55080082 19.4995311,4.85947174 C19.4995311,4.85947174 18.7508745,5.9869792 18.4300477,7.59769543 C18.1091905,9.20838118 17.3699467,12.4835611 17.124605,13.7722194 C16.8792633,15.0605729 16.2910201,18.3357224 16.2910201,18.3357224 L14.219674,19.6780367 L18.2696039,4.21517305 L20.0876528,1.82607912" id="Fill-78" fill="#EC988C"></path>
            <path d="M32.1594979,22.797096 C29.8615447,23.0010497 28.3843325,23.0379382 26.5451805,24.3272063 C24.9279899,27.8422834 24.099658,35.6653877 24.099658,35.6653877 C23.4295229,39.2780211 24.1442932,40.1755394 23.9274937,44.9597636 C23.7106942,49.7439877 22.338238,53.0502333 22.338238,53.0502333 C22.338238,53.0502333 21.9422905,54.5087006 23.7705114,54.9519723 C25.5987323,55.3952439 25.9366845,53.7230672 25.9366845,53.7230672 C25.9366845,53.7230672 26.2096575,51.5152451 27.5329239,48.4251479 C28.8564939,45.3350507 29.2873601,40.5459487 29.09303,38.9929736 C28.8986999,37.4396937 28.7602397,35.9928111 29.3286552,35.0672453 C29.896767,34.1419844 32.770423,28.5474328 34.5342721,26.0384056 C35.2317349,25.0466843 35.7870938,23.8470461 36.0634069,22.6129584 C34.7610918,22.6044222 33.4536147,22.6821624 32.1594979,22.797096" id="Fill-79" fill="#EC988C"></path>
            <path d="M26.5451805,24.3272063 C24.9279899,27.8422834 24.099658,35.6653877 24.099658,35.6653877 C23.4295229,39.2780211 24.1442932,40.1755394 23.9274937,44.9597636 C23.7881226,48.0321787 23.1726428,50.4933424 22.7499749,51.8621799 C22.8996698,52.2466129 23.3918714,52.6962866 24.9006623,52.617327 C25.2902333,52.5969011 25.7296015,52.523429 26.1944755,52.4142878 C26.4203842,51.4692107 26.8272628,50.0726307 27.5329239,48.4251479 C28.8564939,45.3350507 29.2873601,40.5459487 29.09303,38.9929736 C28.8986999,37.4396937 28.7602397,35.9928111 29.3286552,35.0672453 C29.896767,34.1419844 32.770423,28.5474328 34.5342721,26.0384056 C35.2317349,25.0466843 35.7870938,23.8470461 36.0634069,22.6129584 C34.7610918,22.6044222 33.4536147,22.6821624 32.1594979,22.797096 C29.8615447,23.0010497 28.3843325,23.0379382 26.5451805,24.3272063" id="Fill-80" fill="#395B52"></path>
            <path d="M21.7051471,53.4398489 C21.7051471,53.4398489 22.4220429,51.9740648 22.9783127,52.9554207 C23.5342789,53.9367766 23.8412597,54.5208952 24.5356861,54.478824 C25.2301125,54.4367528 25.7945806,53.8599509 25.937899,53.4273495 C25.937899,53.4273495 26.4707885,53.6843495 26.9444681,55.7952249 C26.9444681,55.7952249 29.0629696,57.2796057 26.8576268,57.9454278 C24.6522841,58.6112498 23.2151525,57.7030612 21.4045427,58.0649343 C19.5937508,58.4268073 16.3587016,58.4710126 15.9685536,56.5192759 C15.9685536,56.5192759 15.9039996,56.0104586 16.8889798,55.8010173 C17.8739296,55.5915761 20.26923,55.0556259 21.7051471,53.4398489" id="Fill-81" fill="#CB2C5D"></path>
            <path d="M26.965723,55.810773 C26.6845516,56.7585938 24.2678749,57.2216816 22.6382351,57.1552214 C20.925094,57.0854076 19.4087121,57.6052 17.8827049,57.531423 C16.5189328,57.4652676 16.0520244,56.6561597 15.9680981,56.4848263 C15.9669747,56.5067765 15.9685536,56.5192759 15.9685536,56.5192759 C16.3587016,58.4710126 19.5937508,58.4268073 21.4045427,58.0649343 C23.2151525,57.7030612 24.6522841,58.6112498 26.8576268,57.9454278 C28.9321004,57.3189331 27.1807006,55.9686923 26.965723,55.810773" id="Fill-82" fill="#163139"></path>
            <path d="M25.1678661,25.6914708 C25.6549059,25.8137211 26.1243345,25.7445171 26.4386026,25.6622039 C26.8448739,25.0613178 27.156713,24.3887887 27.3291809,23.6065088 C27.8295809,21.3340557 27.5046853,18.9585587 27.4837341,16.6534851 C24.212916,16.4955658 19.874497,16.8202455 16.0771355,18.0674424 C10.355299,19.9463167 10.1413841,23.7586357 9.60667276,25.476542 C9.07190068,27.1947531 8.60890928,27.0761612 8.60890928,27.0761612 L6.07730458,28.8053474 L7.85381548,30.7177566 L11.3178402,31.2750473 C11.3178402,31.2750473 11.9060834,29.9327329 12.7082111,29.2702644 C13.5103389,28.6074909 14.7402661,28.7516914 17.9487467,29.0202762 C21.1573792,29.2885562 21.4780238,26.2819916 21.4780238,26.2819916 C21.4780238,26.2819916 24.3122065,25.476542 25.1678661,25.6914708" id="Fill-83" fill="#EFA99D"></path>
            <path d="M23.1693027,52.927983 C22.7439021,54.1059758 22.3871242,54.791614 22.3871242,54.791614 C22.3871242,54.791614 21.9592944,56.2412403 23.7774951,56.7244491 C25.5956959,57.2076579 25.970085,55.5431027 25.970085,55.5431027 C25.970085,55.5431027 26.0660354,54.8870363 26.3784818,53.7944053 C25.0697902,53.976104 23.8078592,53.8663531 23.1693027,52.927983" id="Fill-84" fill="#EFA99D"></path>
            <path d="M21.6863214,16.8668896 C19.8095179,17.0903546 17.8820976,17.4744828 16.0771355,18.0674424 C10.355299,19.9463167 10.1414145,23.7586357 9.60664239,25.476542 C9.52529704,25.7381149 9.44562171,25.9563973 9.36898279,26.1396203 C9.57151116,26.7551398 10.3573941,28.2791529 13.1538343,28.1075147 C15.9251937,27.9370959 17.6186589,28.3389061 18.2721241,29.0355194 C21.1783304,29.0824684 21.4780238,26.2819916 21.4780238,26.2819916 C21.4780238,26.2819916 22.8134358,25.9024364 23.9277973,25.7338468 C23.9393357,24.4805527 23.8230413,19.947841 21.6863214,16.8668896" id="Fill-85" fill="#DC3965"></path>
            <path d="M21.7455313,55.167206 C21.7455313,55.167206 22.4940057,53.7175796 23.0290207,54.71113 C23.5637321,55.7043756 23.8576563,56.2948963 24.5529936,56.2680683 C25.2480273,56.2412403 25.8249447,55.6769379 25.977676,55.2476899 C25.977676,55.2476899 26.5047963,55.5162748 26.9326261,57.6372107 C26.9326261,57.6372107 29.0180307,59.167321 26.7990242,59.7846697 C24.579714,60.4020185 23.1626226,59.4624289 21.3444219,59.7846697 C19.5262818,60.1069105 16.2910201,60.0800825 15.9434425,58.1204194 C15.9434425,58.1204194 15.8899714,57.6103827 16.8792633,57.4222819 C17.8685552,57.2344859 20.2749992,56.7512771 21.7455313,55.167206" id="Fill-86" fill="#DC3965"></path>
            <path d="M26.9535773,57.6527587 C26.6517584,58.5944823 24.2256689,59.004219 22.5978509,58.9020897 C20.8865316,58.7947777 19.359158,59.28134 17.8351243,59.174028 C16.4731134,59.0779959 16.0239073,58.2591324 15.9437462,58.0859699 C15.9421369,58.1076152 15.9434425,58.1204194 15.9434425,58.1204194 C16.2910201,60.0800825 19.5262818,60.1069105 21.3444219,59.7846697 C23.1626226,59.4624289 24.579714,60.4020185 26.7990242,59.7846697 C28.8865543,59.2039046 27.1649113,57.8155559 26.9535773,57.6527587" id="Fill-87" fill="#163139"></path>
            <path d="M18.5675969,0.708449243 C18.5675969,0.708449243 19.0229062,0.474984714 19.2612338,0.898409739 C19.4995614,1.32183476 19.4982862,1.52999562 19.4982862,1.52999562 C19.4982862,1.52999562 20.2157892,0.57805909 20.889568,1.28546454 C20.889568,1.28546454 20.0764181,1.38731946 20.1617412,2.09670652 C20.2467606,2.80612407 19.4680132,3.71266641 19.1619129,4.28462097 C18.861339,4.84621017 18.0370758,6.32156698 17.6411283,8.11937799 C17.4794396,8.93403445 16.9480986,11.462573 16.6958643,12.229 C16.4068894,13.1067023 15.9087364,15.7007864 15.1857678,17.7006915 C14.4628295,19.7005966 14.2255039,21.7968386 14.2255039,21.7968386 C14.2255039,21.7968386 15.9381288,23.371459 15.1378533,25.5079429 C14.6918961,26.6987401 13.6748514,27.6395491 12.413042,27.7587507 C12.2699057,27.7724696 12.1236116,27.7755182 11.9746455,27.766982 C11.0382478,27.7139358 10.0844818,27.1898753 9.57281682,26.3966203 C8.98590962,25.4869073 9.09099968,24.4159216 9.26896352,23.3985918 C9.70909078,20.8825527 12.5774938,15.1148387 13.1280248,14.0313535 C13.6786166,12.9481732 13.8102145,11.2714235 14.1962633,10.3931115 C14.5823122,9.514952 15.7711568,6.59835262 15.7711568,6.59835262 L15.7711871,6.59835262 C15.9994946,5.99844207 16.1910919,5.50745927 16.2982771,5.24573389 C16.6566643,4.37031812 16.7425642,4.07267981 16.499682,3.47481185 C16.2568301,2.87694388 16.1354042,2.57802514 16.1354042,2.57802514 C16.1354042,2.57802514 15.2680241,2.39260711 15.4882547,2.11829087 C15.7084549,1.84397462 15.9829462,1.85696181 15.9829462,1.85696181 C15.9829462,1.85696181 15.5037404,1.42640297 16.1153335,1.28954971 C16.1153335,1.28954971 15.974505,0.50105055 16.7353072,0.702687322 C16.7353072,0.702687322 16.8237881,-0.0112726945 17.3030243,0.419286138 C17.3030243,0.419286138 17.6795388,0.241611644 17.9527244,0.462698712 C17.9527244,0.462698712 18.0179464,-0.11635917 18.4093394,0.0211038176 C18.4093394,0.0211038176 18.6954297,-0.033375304 18.5675969,0.708449243" id="Fill-88" fill="#EFA99D"></path>
            <path d="M15.9047667,1.63275778 C15.9047667,1.63275778 15.8727065,1.63166115 15.8200121,1.63731977 C15.8096468,1.6041138 15.8040544,1.57042531 15.8047293,1.53682456 C15.8593039,1.59560395 15.9047667,1.63275778 15.9047667,1.63275778" id="Fill-89" fill="#EFAA94"></path>
            <path d="M19.3611924,1.09205908 C19.4015996,1.14705647 19.434742,1.1970541 19.4612845,1.24162516 C19.4336974,1.26259977 19.418883,1.27516015 19.418883,1.27516015 C19.418883,1.27516015 19.418883,1.21409598 19.3611924,1.09205908" id="Fill-90" fill="#EFAA94"></path>
            <path d="M17.9527244,0.462698712 C18.0303046,0.596046042 18.1108301,0.727472731 18.1900196,0.859783524 L18.3102917,1.05724366 L18.4315659,1.25406359 C18.5127594,1.38506347 18.5941048,1.51597189 18.6764521,1.64620961 C18.6966442,1.67910439 18.7186885,1.71114556 18.735571,1.74303429 C18.7532125,1.77565469 18.7688196,1.80949455 18.7811778,1.8437917 C18.7935056,1.87793642 18.8026756,1.91311768 18.8042241,1.94637829 C18.8058334,1.97969988 18.7985157,2.00933262 18.7796292,2.02786833 L18.7772912,2.0301548 L18.7744977,2.03436192 C18.7522408,2.06820178 18.7186582,2.10134045 18.6832233,2.12365646 C18.6471812,2.14652123 18.6067666,2.15892918 18.5654714,2.1604535 C18.5447631,2.15819751 18.5238423,2.15874626 18.5034376,2.1512771 C18.493296,2.14789312 18.4825775,2.14713096 18.4728306,2.14179585 L18.4431042,2.12795504 C18.4039953,2.1079255 18.3672851,2.08082313 18.3335203,2.04969656 C18.3155447,2.03561186 18.3003627,2.01774686 18.2845126,2.00082693 C18.2685108,1.98311435 18.2529644,1.96817604 18.2379038,1.94878672 C18.2072361,1.9117153 18.1763558,1.87473535 18.1477225,1.83702373 C18.0889073,1.7624541 18.0325819,1.68437853 17.9766209,1.60669929 C17.9204778,1.52898957 17.8656402,1.45015185 17.8113493,1.37094829 C17.7572101,1.29162278 17.7029799,1.21229728 17.6498124,1.13220962 L17.4901277,0.891946632 L17.3324167,0.650128841 C17.3778718,0.735063834 17.4251486,0.818962291 17.473306,0.902372966 C17.5213724,0.985814128 17.5696512,1.06919432 17.619418,1.15165991 C17.6693972,1.23403405 17.7197409,1.31619479 17.7714509,1.3975019 C17.8234949,1.4786261 17.8760855,1.55944544 17.9301639,1.63941115 C17.9846978,1.71919395 18.0398389,1.79794022 18.0985934,1.87564994 C18.1274393,1.9150688 18.1575301,1.95247556 18.1874691,1.99006524 C18.2016187,2.00896679 18.2204445,2.02780735 18.2365678,2.04582479 C18.2534502,2.06405563 18.2694521,2.08301815 18.2892191,2.09893203 C18.3258989,2.13304626 18.3667689,2.16395943 18.4128616,2.18795219 C18.4363937,2.19929312 18.459683,2.21109134 18.4862212,2.21673131 C18.5114537,2.22566382 18.5390243,2.22627354 18.5659876,2.22859051 C18.6208859,2.22764543 18.674691,2.20990237 18.7194476,2.18097082 C18.7645383,2.15130759 18.8011574,2.11566904 18.8315822,2.0690554 L18.8265114,2.07551851 C18.8343149,2.06573238 18.8427865,2.05603772 18.8492541,2.04545896 C18.8541427,2.03423998 18.8605799,2.02296002 18.8633126,2.01143618 C18.8696284,1.98820558 18.8713591,1.96518838 18.8701749,1.94326868 C18.8677154,1.89936833 18.8563593,1.8592178 18.8424222,1.82107936 C18.8281814,1.78294093 18.8105095,1.747028 18.7909247,1.71218209 C18.7709451,1.67636062 18.7485364,1.64529502 18.7278889,1.61291851 C18.6437196,1.48383927 18.5585181,1.35543073 18.4731646,1.22714414 L18.3446032,1.03501911 L18.2151004,0.843534295 C18.1277429,0.716528128 18.0417215,0.588668343 17.9527244,0.462698712" id="Fill-91" fill="#E38D81"></path>
            <path d="M19.3294012,1.20546834 L19.3797752,1.38149657 C19.3962021,1.44021329 19.4107162,1.49938731 19.4258071,1.55822598 C19.4405944,1.61715611 19.4537724,1.67642159 19.4661002,1.73556513 C19.4723249,1.7651369 19.4771831,1.79489158 19.4824361,1.82452432 C19.4862316,1.85424852 19.4917579,1.88388126 19.494187,1.91342254 C19.4980432,1.94305528 19.498772,1.97232218 19.4997133,2.00149763 C19.4986202,2.03052064 19.4972538,2.0569828 19.4920008,2.08817034 C19.4874158,2.11822989 19.4828005,2.14630783 19.4766062,2.17603203 C19.470837,2.20539039 19.4640051,2.23465729 19.4566874,2.26380225 C19.4420823,2.32209217 19.4252302,2.38001625 19.407619,2.43769644 C19.3897346,2.49519371 19.3702712,2.55290438 19.3491075,2.60854199 L19.3589151,2.59518896 C19.3501702,2.60146915 19.3333485,2.61034068 19.318379,2.6140905 C19.3027112,2.61802324 19.286436,2.62128528 19.269675,2.62037069 C19.2530052,2.62043167 19.2361531,2.61756595 19.2194529,2.61323689 C19.2028741,2.60848101 19.1861738,2.60278007 19.1703238,2.59433534 C19.1539879,2.587293 19.1389881,2.57653131 19.1232291,2.56744638 C19.1086847,2.55607496 19.0930472,2.54619738 19.0792619,2.53345409 C19.0651426,2.52061933 19.0514484,2.50946132 19.0375721,2.49510225 C19.0235439,2.48141387 19.0097282,2.46763404 18.9966109,2.45391518 C18.9695565,2.42678232 18.9438382,2.39797271 18.919638,2.36837046 C18.9076138,2.35349312 18.896288,2.33812799 18.8852962,2.32254946 C18.8744562,2.30690996 18.8638896,2.29099608 18.8549625,2.27422859 C18.8456104,2.25767449 18.8374728,2.24041921 18.8308534,2.2225847 C18.823809,2.20484164 18.8186471,2.1863669 18.8145479,2.16758731 C18.8066836,2.12999763 18.8032829,2.0909446 18.8030399,2.05170866 C18.7980602,2.09051779 18.7952667,2.13024152 18.8000035,2.16996524 C18.8022505,2.18975089 18.8056816,2.20962799 18.8111472,2.22898683 C18.8161876,2.24843713 18.8228981,2.26755207 18.8309445,2.28596583 C18.8385659,2.30462348 18.847918,2.32248849 18.8576042,2.34004863 C18.8672903,2.35766975 18.8784339,2.3743153 18.8896687,2.39086939 C18.9125935,2.42355077 18.9367633,2.45504317 18.962755,2.48528564 C18.9756293,2.50071174 18.9888984,2.51507081 19.0020461,2.52946037 C19.0145561,2.54394139 19.030224,2.55860533 19.0443432,2.572751 C19.0585536,2.58726251 19.0753753,2.59948754 19.0909825,2.61287105 C19.1083203,2.62436441 19.1246259,2.6373516 19.1439374,2.64646702 C19.1622773,2.65686286 19.1824391,2.66472834 19.2030259,2.6713134 C19.2238557,2.67744116 19.245566,2.68183119 19.2679139,2.68259335 C19.2901708,2.68430059 19.3128528,2.68106903 19.3349578,2.67603878 C19.3576701,2.67000248 19.3772246,2.66283819 19.4000887,2.64622313 L19.4064348,2.6415892 L19.409866,2.63283961 C19.4326998,2.57470213 19.4528311,2.51696097 19.4718087,2.45818327 C19.490938,2.39952752 19.5075472,2.34004863 19.5218183,2.27980759 C19.5290146,2.24971755 19.5357251,2.2194446 19.5414031,2.18886678 C19.5472938,2.15880723 19.5526075,2.12664413 19.5563119,2.09627971 C19.5603807,2.06707378 19.5617167,2.03253274 19.5616028,2.00055255 C19.5596519,1.96878577 19.5577086,1.93704947 19.5527289,1.90625825 C19.5493282,1.87500973 19.5423748,1.84479775 19.5365753,1.8142809 C19.5295915,1.78416038 19.5229721,1.7539484 19.5150471,1.72419372 C19.4998347,1.66450143 19.4817985,1.60572373 19.462578,1.54752527 C19.4437826,1.4891439 19.4221027,1.43179906 19.3999976,1.37475908 C19.3780141,1.31768862 19.3549981,1.26098399 19.3294012,1.20546834" id="Fill-92" fill="#E38D81"></path>
            <path d="M16.7375845,0.789908792 C16.7375845,0.789908792 16.7837379,0.830577593 16.8645063,0.901763239 C16.9456695,0.972430616 17.0580166,1.07736466 17.1975395,1.19860891 C17.2326708,1.22866845 17.2692898,1.25994746 17.3071842,1.29235446 C17.3265868,1.30835979 17.3463538,1.32460902 17.3663941,1.34110214 C17.3864344,1.3568331 17.4074464,1.37259455 17.4303712,1.38814259 C17.5194594,1.44881045 17.6175354,1.50188719 17.7107531,1.56569514 C17.8030599,1.62956406 17.8905388,1.70767011 17.9316821,1.81382361 C17.9456192,1.84254176 17.9502346,1.86772349 17.9578863,1.8940637 L17.9631393,1.93509834 C17.9642931,1.94872574 17.9624105,1.96204828 17.9624409,1.97558422 C17.9576738,2.02878292 17.9328056,2.07807936 17.8898708,2.10865718 C17.8479684,2.14027153 17.7928879,2.15527082 17.7374735,2.15600249 C17.6818161,2.15700854 17.6251871,2.14466156 17.5731735,2.12210166 C17.4649863,2.07445148 17.3581958,2.02113084 17.2581766,1.96643832 C17.0573486,1.85677889 16.8788382,1.73833939 16.7320886,1.62794828 C16.6584861,1.57313381 16.5935374,1.5192949 16.5327788,1.47444947 C16.4718078,1.42963453 16.4162415,1.39478862 16.369663,1.36744236 C16.323206,1.33994366 16.2850991,1.3213165 16.2591682,1.30866466 C16.2331765,1.29613476 16.2189965,1.29018993 16.2189965,1.29018993 C16.2189965,1.29018993 16.2736822,1.31869467 16.3626186,1.37875279 C16.4070412,1.4086904 16.4600569,1.44676786 16.5170806,1.49444852 C16.5739525,1.54240356 16.6358345,1.60066299 16.7079795,1.65892242 C16.8505389,1.77727047 17.0275007,1.90363642 17.2289056,2.01905777 C17.3301698,2.07634164 17.4348044,2.13332064 17.5479106,2.18313535 C17.606574,2.20886583 17.6715834,2.2239261 17.7382326,2.2232554 C17.8044263,2.22273713 17.8740511,2.20572574 17.9309837,2.16319727 C17.9888577,2.12161388 18.0239585,2.05076358 18.0290597,1.98198636 C18.0293026,1.96485303 18.0310941,1.94741483 18.0296366,1.93061685 L18.0228958,1.88068019 C18.0140598,1.84830368 18.0051024,1.81370166 17.992137,1.78784923 C17.9688174,1.72815694 17.9295263,1.6734949 17.8858324,1.62959455 C17.8418955,1.58508447 17.7931612,1.54847035 17.7442143,1.51584995 C17.646108,1.45085303 17.5457851,1.40137367 17.4584276,1.34573607 C17.4371424,1.33232207 17.4159483,1.31753619 17.3950882,1.30223204 C17.3749264,1.28683643 17.3550683,1.27165422 17.3355139,1.25674639 C17.2964049,1.22626003 17.258632,1.19674924 17.222347,1.1684579 C17.0777532,1.05385968 16.9572686,0.958376405 16.8729172,0.891550309 C16.8305593,0.858289692 16.7963086,0.833382338 16.7732016,0.816096573 C16.7499731,0.799024213 16.7375845,0.789908792 16.7375845,0.789908792" id="Fill-93" fill="#E38D81"></path>
            <path d="M15.9829765,1.85696181 C15.9829765,1.85696181 15.9912052,1.85790688 16.0066302,1.85970558 C16.0220247,1.86156525 16.0447978,1.86400415 16.0738562,1.86586382 C16.131882,1.86997948 16.2151706,1.87141234 16.3141271,1.87193061 C16.3635902,1.87254033 16.4169703,1.87379027 16.4728705,1.87696086 C16.5284368,1.88037533 16.5877985,1.88720427 16.6453385,1.89863666 C16.7022104,1.91058731 16.7575337,1.93671412 16.8080899,1.97073689 C16.8575833,2.00457675 16.9041011,2.05030629 16.9210746,2.10149288 C16.9296069,2.1267051 16.9297587,2.15179537 16.9203459,2.17523938 C16.9113278,2.19883582 16.8924109,2.22035919 16.8702755,2.23880344 C16.8648707,2.2435898 16.8590408,2.24801032 16.8528465,2.25212598 L16.8438284,2.25852811 L16.8427049,2.25932076 L16.8448912,2.25807082 L16.8435248,2.25883298 L16.8408831,2.26026583 L16.8355694,2.26316204 C16.8215412,2.27075314 16.8073004,2.27968564 16.7936973,2.28602681 C16.7803675,2.29133143 16.7671591,2.29657509 16.7540115,2.30181874 C16.7405602,2.30687948 16.7254389,2.31038541 16.7114107,2.31471447 C16.6539619,2.33023203 16.5959665,2.34026204 16.5404002,2.34623736 C16.4848947,2.35282242 16.4316665,2.35559668 16.3825374,2.35791364 C16.2841274,2.36160249 16.2015372,2.36026109 16.143724,2.35870628 C16.0858804,2.35718197 16.0527228,2.35526133 16.0527228,2.35526133 C16.0527228,2.35526133 16.0850606,2.36288291 16.1424487,2.37227271 C16.1711731,2.37684567 16.2061221,2.38199786 16.2464153,2.38647936 C16.2867387,2.39080842 16.3323456,2.39519845 16.3823856,2.39721055 C16.4323952,2.39919217 16.4868076,2.40096038 16.5445601,2.39714958 C16.6022518,2.3944363 16.6635265,2.38821708 16.7262891,2.37312633 C16.7420177,2.36888873 16.7576552,2.36590106 16.7738696,2.36050498 C16.7901751,2.35452965 16.8066021,2.34855433 16.8231201,2.34251803 C16.8385754,2.33581103 16.851966,2.32800652 16.8666015,2.32078125 L16.8719455,2.31794602 L16.874648,2.31651316 L16.8780791,2.31450106 L16.8903765,2.30605634 C16.897755,2.30120901 16.9049513,2.29593487 16.9119047,2.29002052 C16.9396878,2.2672777 16.966894,2.23871198 16.9824404,2.20051257 C16.9986245,2.16264852 16.9986548,2.11728482 16.985659,2.07975611 C16.9726025,2.04198351 16.9505581,2.01067402 16.9259329,1.98415089 C16.9013683,1.95735338 16.8736156,1.93522029 16.844709,1.91592242 C16.7870476,1.87738766 16.7224025,1.85156572 16.6574537,1.83973701 C16.5929604,1.82870095 16.5324448,1.8263535 16.4744495,1.82610961 C16.4167273,1.82577426 16.3625882,1.82918873 16.3129126,1.8328471 C16.2139864,1.84089549 16.1315783,1.84763298 16.0738562,1.85232788 C16.0162859,1.85613867 15.9829765,1.85696181 15.9829765,1.85696181" id="Fill-94" fill="#E38D81"></path>
            <path d="M13.9209523,24.1711161 C13.9209523,24.1711161 13.9112054,24.1028267 13.9081993,23.9833202 C13.9040091,23.8644234 13.908837,23.6943095 13.92994,23.4930995 C13.9422678,23.3924946 13.957207,23.284268 13.9790691,23.1708587 C13.999747,23.0568398 14.0298682,22.940077 14.0610521,22.8166073 C14.0930255,22.6928326 14.1280049,22.5635705 14.157458,22.4318694 C14.1866683,22.2998635 14.216334,22.1660284 14.2459997,22.0321933 C14.2726897,21.8977484 14.2993494,21.7636084 14.3256143,21.6312977 C14.3527901,21.4995966 14.3744093,21.3688101 14.3984881,21.2429015 C14.4449755,20.9907793 14.4854811,20.7548149 14.5178189,20.5517757 C14.5841947,20.146612 14.6145284,19.8728445 14.6145284,19.8728445 C14.6145284,19.8728445 14.5237702,20.1325883 14.4145203,20.5292158 C14.3588933,20.7270723 14.2989546,20.9593783 14.239775,21.2093665 C14.2110506,21.3343605 14.1787432,21.4633178 14.1514763,21.5953238 C14.1232377,21.72672 14.0945133,21.8605551 14.0658193,21.9943902 C14.0106174,22.2614507 13.9553851,22.528816 13.9036447,22.779109 C13.8762563,22.9056274 13.8558213,23.0318409 13.8435542,23.1507377 C13.828858,23.2696345 13.8258823,23.3830438 13.8247892,23.4873071 C13.8250321,23.6964435 13.8472283,23.8693012 13.8720054,23.9875883 C13.8961448,24.1064851 13.9209523,24.1711161 13.9209523,24.1711161" id="Fill-95" fill="#E38D81"></path>
            <path d="M35.1676667,28.0538587 C37.1182548,25.4039844 38.0634885,21.2035741 35.1552174,18.841491 C34.0854911,17.9726298 32.7178932,17.5979525 31.4243836,17.2083368 C30.4263165,16.9077414 28.8322026,16.689459 26.9286788,16.631535 C27.2526635,19.5262146 25.7347634,25.3225859 25.6199872,25.7548824 C26.2858713,25.7823201 26.8257446,25.530198 26.8257446,25.530198 C25.6491367,28.4294506 24.7400363,35.892511 24.7400363,35.892511 C23.5102913,39.3286284 24.8469178,41.7446723 24.5262732,46.523104 C24.3377123,49.3305927 23.6326585,51.692066 23.0827651,53.1633377 C24.3559308,55.1867172 26.2725111,54.1776188 26.2725111,54.1776188 L26.2731184,54.1767042 C26.5227111,53.2383341 26.9563101,51.8771182 27.6811005,50.2814622 C29.0714715,47.2212416 29.6061829,42.4428099 29.4458605,40.8855667 C29.2855382,39.3286284 29.1786567,37.8790021 29.7668088,36.9662406 C30.3549609,36.053479 33.3494659,30.5235585 35.1676667,28.0538587" id="Fill-96" fill="#4D7066"></path>
            <path d="M30.0413,21.074007 C30.0413,21.074007 30.0176161,21.0999204 29.9729809,21.1483937 C29.9283457,21.1968671 29.8645811,21.2694246 29.783509,21.3614934 C29.702437,21.4535622 29.6070938,21.567886 29.4977831,21.6986725 C29.4434314,21.7642182 29.3860433,21.8343368 29.3268334,21.9093332 C29.2667125,21.9834151 29.2053771,22.0629845 29.140398,22.1449928 C29.0772407,22.2285254 29.0092252,22.3135823 28.9427278,22.4044317 C28.9087201,22.4495515 28.8744087,22.495281 28.83949,22.5419252 C28.8054822,22.5888742 28.7708672,22.6367377 28.7356448,22.685211 C28.6645929,22.7815479 28.5947555,22.8827626 28.5221854,22.9851968 C28.4517407,23.0891553 28.377956,23.1937235 28.3059932,23.3025598 C28.1623711,23.5202324 28.0163199,23.7461363 27.8754306,23.9805764 C27.8025568,24.0961197 27.7369704,24.2174554 27.6656149,24.3357425 C27.5966884,24.4555539 27.5301911,24.5774993 27.4630865,24.698835 C27.3987147,24.8219999 27.3313064,24.9433356 27.2696673,25.0668053 C27.238696,25.1286926 27.2077246,25.1905799 27.1770569,25.2518575 L27.1305999,25.3439263 C27.1160251,25.3750224 27.1014504,25.4058136 27.0868756,25.4369097 C26.9696703,25.6835443 26.8582341,25.9283498 26.7583363,26.1688872 C26.7088429,26.2893083 26.6581349,26.4069856 26.6144106,26.524663 C26.5916376,26.5831968 26.5694718,26.640816 26.547306,26.6981303 C26.5363749,26.7267875 26.5254439,26.7551398 26.5145128,26.7834921 C26.504189,26.8121493 26.4941689,26.8401968 26.4841487,26.8685491 C26.4440682,26.9813486 26.4052021,27.0907946 26.3675507,27.197192 C26.332632,27.3041991 26.2989279,27.4078528 26.2664383,27.5072383 C26.25824,27.5322371 26.2500417,27.5566262 26.2421471,27.5810153 C26.2348597,27.6057092 26.2275723,27.6297934 26.2205886,27.6538777 C26.2063175,27.7020461 26.1926536,27.7489951 26.1789898,27.7947246 C26.1650223,27.8404542 26.1516621,27.8849643 26.1386056,27.9282549 C26.1249417,27.9715455 26.1127961,28.0139215 26.1024723,28.055383 C26.0806102,28.1376962 26.0611772,28.2151315 26.0411369,28.2864696 C26.0217039,28.3578077 26.0019672,28.4230485 25.9892143,28.4831066 C25.961583,28.6026131 25.9369881,28.6965111 25.9215024,28.7605325 C25.9051058,28.8248587 25.8963003,28.8590034 25.8963003,28.8590034 C25.8963003,28.8590034 25.8987294,28.8239441 25.903284,28.7577887 C25.9087495,28.6919381 25.9148223,28.5949915 25.9263607,28.4718266 C25.9372918,28.3486618 25.9588502,28.2001932 25.9825342,28.0294696 C25.9876961,27.9864838 25.9952871,27.9425835 26.0034854,27.8977685 C26.0116837,27.8526487 26.019882,27.8060046 26.028384,27.7584459 C26.0368859,27.7108872 26.0459951,27.662109 26.0551044,27.6121114 C26.0599626,27.5871125 26.0648209,27.5618089 26.0696791,27.5362003 C26.0751447,27.5108966 26.0809138,27.4849832 26.086683,27.4590698 C26.1106706,27.3557211 26.1355692,27.2474945 26.1613786,27.1359144 C26.1899209,27.0249441 26.2224104,26.9109251 26.2542927,26.7932478 C26.2627946,26.763676 26.270082,26.7337994 26.2791912,26.7045325 C26.2886041,26.6749607 26.298017,26.6453889 26.3074298,26.6155123 C26.3265592,26.555759 26.3456886,26.4953961 26.3651216,26.4344233 C26.4015585,26.3115633 26.4495337,26.1896179 26.4938652,26.0640141 C26.5369822,25.9378006 26.5898157,25.8134162 26.6405237,25.6859833 C26.6900172,25.5579406 26.7483162,25.4323368 26.805097,25.3042941 C26.8193681,25.2722834 26.8336392,25.2402727 26.8479103,25.208262 C26.8630924,25.1768611 26.8782744,25.1451553 26.8934565,25.1134495 C26.9241242,25.0500378 26.9550955,24.9863213 26.9857632,24.9229097 C27.0161273,24.8588884 27.0501351,24.7966962 27.0826246,24.7335894 L27.1813079,24.5448789 C27.2508416,24.4211043 27.3197681,24.2970248 27.3911236,24.1750794 C27.4275605,24.1144115 27.4639974,24.0540485 27.5004343,23.9936855 C27.5362639,23.9333225 27.5739154,23.874179 27.6118705,23.8156452 C27.6495219,23.7568065 27.6868697,23.6982727 27.7242175,23.6400438 C27.7630835,23.5827294 27.8019496,23.5257199 27.8402083,23.4693202 C27.9164221,23.3556061 27.995976,23.24616 28.0740117,23.1388481 C28.112574,23.0845823 28.1532619,23.0327555 28.1924316,22.9806239 C28.2316012,22.928797 28.2704672,22.8769702 28.3102442,22.8269726 C28.390709,22.7275871 28.4666191,22.6285064 28.546173,22.5364376 C28.7010298,22.3489465 28.8558866,22.1788326 29.0001159,22.0236571 C29.1461671,21.8700058 29.2834127,21.7325124 29.4088164,21.6145302 C29.5327018,21.4953285 29.6453525,21.3965527 29.7388739,21.3160687 C29.8317879,21.234975 29.9089127,21.1758315 29.9605316,21.1346749 C30.0124542,21.094128 30.0413,21.074007 30.0413,21.074007" id="Fill-97" fill="#395B52"></path>
            <path d="M25.6199872,25.7548824 C26.2202849,25.7798812 26.7164339,25.5777567 26.8087407,25.5378196 L27.8608559,23.7107721 C27.8608559,23.7107721 29.2011261,20.0676524 28.9396914,16.7617117 C28.323908,16.6983001 27.648611,16.6534851 26.9286788,16.631535 C27.2526635,19.5262146 25.7347634,25.3225859 25.6199872,25.7548824" id="Fill-98" fill="#395B52"></path>
            <path d="M11.3178705,31.2750473 L7.85381548,30.7177566 L6.07730458,28.8053474 L7.85381548,30.7177566 L11.3178705,31.2750473 C11.3178705,31.2750473 11.3178705,31.2750473 11.3178705,31.2750473 C11.3178705,31.2750473 11.3178705,31.2750473 11.3178705,31.2750473 M11.3182956,31.2741327 C11.3279514,31.2521825 11.4931623,30.8802489 11.7623095,30.437587 C11.4932231,30.8802489 11.3279514,31.2521825 11.3182956,31.2741327 M6.07730458,28.8053474 L7.10846854,28.1011125 L6.07730458,28.8053474" id="Fill-99" fill="#E3C0B8"></path>
            <path d="M11.3178402,31.2750473 L7.85381548,30.7177566 L6.07730458,28.8053474 L7.10846854,28.1011125 L7.85381548,28.4294506 C7.85381548,28.4294506 7.91342015,28.4245728 8.01963369,28.4245728 C8.59436489,28.4245728 10.5324127,28.5702976 11.7623095,30.437587 C11.4931623,30.8802489 11.3279514,31.2521825 11.3182956,31.2741327 L11.3182653,31.2741327 C11.3182349,31.2741327 11.3182349,31.2744375 11.3182045,31.2744375 C11.3181742,31.2744375 11.3181742,31.2744375 11.3181438,31.2744375 C11.3181438,31.2744375 11.3181438,31.2744375 11.3181134,31.2744375 C11.3180831,31.2747424 11.3180224,31.2747424 11.317992,31.2747424 C11.317992,31.2747424 11.317992,31.2747424 11.3179616,31.2747424 C11.3179313,31.2750473 11.3179009,31.2750473 11.3179009,31.2750473 L11.3178705,31.2750473 C11.3178402,31.2750473 11.3178402,31.2750473 11.3178402,31.2750473" id="Fill-100" fill="#E98A7C"></path>
            <path d="M2.54001138,27.5090675 C2.51802779,27.4868124 2.07161517,27.5736985 2.02033025,27.5736985 C1.62717621,27.5736985 1.25955837,27.4724838 0.939885392,27.2450556 C0.22159285,26.7344091 -0.127836917,25.7100675 0.0425966317,24.8594981 C0.308039369,23.5351707 2.03162568,22.2608409 3.36433527,22.8099003 C4.67378597,23.3492039 4.93725505,25.279905 4.354447,26.4280212 C3.37253357,28.3617709 2.54623602,27.5154696 2.54001138,27.5090675" id="Fill-101" fill="#121213"></path>
            <path d="M4.23286925,26.4981398 C4.23286925,26.4981398 4.24556143,26.4914328 4.26812194,26.4764945 C4.29034844,26.4612513 4.3236882,26.4389963 4.36255421,26.4063759 C4.40163278,26.3743652 4.44872746,26.3338184 4.49749216,26.2822964 C4.52275507,26.2572976 4.54728924,26.2283356 4.57403999,26.1984589 C4.59939399,26.1676677 4.62605365,26.1350473 4.65140765,26.0990734 C4.67812804,26.0640141 4.70235857,26.0249916 4.72874495,25.9850544 C4.75261111,25.9438978 4.77817766,25.9015218 4.79997907,25.8557923 C4.84652719,25.7655527 4.88703287,25.6655574 4.91818641,25.5585503 C4.9257167,25.5317223 4.93330772,25.5045894 4.94095946,25.4774566 C4.94694119,25.449714 4.95298364,25.4219714 4.95905645,25.3939239 L4.96804422,25.3515479 L4.9744814,25.308867 C4.97848946,25.279905 4.98249752,25.2512478 4.98653594,25.2222858 C4.99655608,25.105523 5.00165725,24.9863213 4.99209257,24.8680343 C4.9897849,24.8384625 4.9886007,24.8088907 4.98513919,24.7796238 L4.97326684,24.6918231 C4.96710293,24.6329845 4.95295327,24.5762798 4.94159711,24.5192703 C4.9315466,24.461956 4.91338888,24.4073854 4.89844976,24.35251 C4.88433047,24.2976345 4.86392581,24.2455028 4.84628428,24.1933712 C4.83699287,24.1674578 4.82873385,24.1415444 4.81883516,24.1165456 C4.80869356,24.0915467 4.79830904,24.0668528 4.78774235,24.0427686 C4.76648749,23.9946001 4.7477225,23.9464317 4.72431179,23.9022265 C4.70196384,23.8574115 4.68022316,23.813816 4.65918085,23.7717448 C4.63680253,23.7305883 4.61305783,23.6918706 4.5914386,23.6540675 C4.56893883,23.6168741 4.54996128,23.5796808 4.52734004,23.5470604 C4.50532609,23.5141351 4.48443561,23.483039 4.46479005,23.4537721 C4.44499267,23.4245052 4.42732078,23.3967626 4.40946671,23.3720687 C4.39100535,23.3479845 4.3740622,23.3257294 4.35878907,23.3056084 C4.29751437,23.2251244 4.26125966,23.1806144 4.26125966,23.1806144 C4.26125966,23.1806144 4.2870084,23.2324412 4.33422453,23.3211565 C4.34603616,23.3431067 4.35912307,23.3678006 4.37336382,23.3943237 C4.38669365,23.4214566 4.40111659,23.4507235 4.41654154,23.4821244 C4.44736107,23.5446215 4.48288704,23.6144352 4.51695553,23.6927852 C4.53423269,23.7321126 4.55342278,23.7720497 4.57100358,23.8144257 C4.58818965,23.8568018 4.605983,23.9007021 4.6242318,23.9461268 C4.6437559,23.9906369 4.65836102,24.0385005 4.67536491,24.0863641 C4.68356321,24.1104483 4.69215624,24.1348374 4.70111364,24.1592265 C4.70955485,24.1836155 4.71629568,24.2089192 4.72406888,24.2342229 C4.75616371,24.334523 4.7808497,24.4406155 4.8027422,24.5485372 C4.81239797,24.6024981 4.82405778,24.6567638 4.8297055,24.7119441 L4.84030256,24.7945622 C4.84339969,24.8223047 4.84409807,24.8500473 4.84622355,24.8777899 C4.85612224,24.9887603 4.85153727,25.0997306 4.84552518,25.2085669 C4.83334918,25.3167935 4.82162865,25.4241054 4.79427062,25.5247104 C4.76846116,25.6253154 4.73891691,25.7219572 4.7012351,25.8100627 C4.6645553,25.8984732 4.62414071,25.9801766 4.58153992,26.053039 C4.49721888,26.1990687 4.40849506,26.3106487 4.34260502,26.3853403 C4.27641133,26.4603367 4.23286925,26.4981398 4.23286925,26.4981398" id="Fill-102" fill="#121213"></path>
            <path d="M4.17830501,35.3090021 C4.17830501,35.3090021 4.94238658,36.0796973 5.91807538,36.0144565 C6.41070212,35.9815312 6.86315719,35.7452619 7.29153355,35.5178337 C7.5134342,35.3998515 7.74666066,35.2620531 8.00159743,35.2370543 C8.28692863,35.2090069 8.58391964,35.365097 8.85947362,35.430033 C9.26717204,35.526065 9.69065979,35.5986225 9.81241973,35.526065 C10.0310107,35.3952785 10.2356038,34.9346297 10.1128722,34.430995 C10.1128722,34.430995 10.1661916,34.1255217 10.5164108,34.1572275 C10.5164108,34.1572275 10.7671877,34.0956451 10.7746269,33.8118171 C10.7746269,33.8118171 11.1567891,33.9127269 11.156698,33.4923201 C11.1566677,33.2706842 11.7136055,33.2539167 11.8362764,33.1926392 C12.4898934,32.8664351 12.2395416,32.0576321 11.942915,31.5799108 C11.1605239,30.3199097 9.55681495,28.8562596 7.71013268,29.7510342 C7.76794587,29.7229868 7.16880196,29.3339808 7.11772959,29.3193474 C6.67304772,29.1925241 6.01557442,29.3083723 5.7249295,29.7004269 C5.45432487,30.0653486 5.53466821,30.6607471 5.82731716,30.973842 C6.35929574,31.5430223 6.1898642,31.9692216 5.99404629,32.6582133 C5.8338758,33.2216012 5.66219732,33.7993177 5.31225136,34.2776486 C5.01389397,34.6855561 4.57926261,35.0074921 4.17830501,35.3090021" id="Fill-103" fill="#EFAA9E"></path>
            <path d="M3.30958884,35.1837032 C3.30958884,35.1837032 4.06067459,35.4763722 4.43831258,35.327294 C4.81592021,35.1779108 4.95353019,35.1135846 5.07264845,34.889205 C5.19176672,34.6648254 5.3278585,34.6572038 5.72514205,34.1901528 C6.1224256,33.7231018 6.38689668,33.57067 6.377332,33.070084 C6.36779768,32.5698029 6.21622022,32.3042667 6.44076255,31.9463569 C6.66530488,31.588447 6.75226759,31.2948634 6.28259609,31.0665206 C5.81292459,30.8381777 5.35521653,30.2382062 5.7249295,29.7004269 C6.09464247,29.1626475 7.209672,29.3967827 7.38089502,29.3443462 C7.5521484,29.2922145 7.76299653,29.0248492 8.09475441,28.8971113 C8.42651228,28.7693735 8.91403786,28.3160414 8.87086015,27.8032608 C8.82765207,27.2904803 8.38063217,26.6304506 8.04389458,26.5078955 C7.78971692,26.4152169 7.52761423,26.3783284 7.27483331,26.2755894 C6.79371455,26.0795621 6.35449822,26.0332229 5.83545473,26.0859643 C5.30177576,26.1399251 4.66267272,26.3277211 4.09383215,26.4264969 C3.52502195,26.5252727 1.96597856,27.6779619 1.71583931,28.5809678 C1.3778568,29.8010319 1.05842674,31.0463996 1.46008271,32.292377 C1.64861325,32.8771054 2.2418969,34.871218 3.30958884,35.1837032" id="Fill-104" fill="#131518"></path>
            <path d="M4.06990526,35.5562465 C4.06990526,35.5562465 3.34830304,35.8669025 2.72556624,35.4297281 C2.10282944,34.9925537 2.14955975,34.0727803 1.86186014,33.8151706 C1.57416054,33.5575609 1.10898292,33.1584944 1.13606768,32.5566937 C1.13606768,32.5566937 1.34454741,33.244466 1.64445337,33.4682358 C1.94435933,33.6923106 2.20464018,34.1313141 2.33809029,34.6578135 C2.47151003,35.1843129 3.21667478,35.7044102 4.06990526,35.5562465" id="Fill-105" fill="#131518"></path>
            <path d="M7.07279076,35.7038005 C7.07279076,35.7038005 7.410834,35.769651 7.31433697,35.5623438 C7.21783994,35.3550365 6.95336885,35.5074683 6.78776319,34.9117649 C6.62215753,34.3160615 6.77018239,33.8538883 6.77018239,33.8538883 C6.77018239,33.8538883 6.08580652,34.9044482 7.07279076,35.7038005" id="Fill-106" fill="#131518"></path>
            <path d="M8.05169815,34.8654256 C8.05169815,34.8654256 8.06773038,34.8468289 8.08913705,34.8096356 C8.11030081,34.7724422 8.13711229,34.7160425 8.15496637,34.6434849 C8.16401486,34.6072062 8.1717577,34.567269 8.17433865,34.5239784 C8.17773942,34.4812975 8.17810379,34.4352631 8.17230425,34.3883141 C8.16756746,34.3413651 8.15788132,34.2931967 8.14373166,34.245638 C8.13577627,34.2221635 8.12879253,34.1980793 8.11877239,34.1752145 L8.10465309,34.1401552 L8.08840832,34.1063153 C8.06609072,34.0611955 8.03952216,34.0188195 8.01186048,33.9782726 C7.98410772,33.9380306 7.95307564,33.9008373 7.92207392,33.8666925 C7.90698297,33.8490105 7.89104183,33.8328527 7.87497924,33.8173046 C7.85906846,33.8017566 7.8437346,33.7865134 7.82758092,33.7727946 C7.81170051,33.7587708 7.79624519,33.7453568 7.78130607,33.7322477 C7.76560784,33.720358 7.75045617,33.7087732 7.73591178,33.6974933 C7.70733918,33.6746285 7.6790095,33.6563367 7.65429314,33.639874 C7.62997152,33.6231065 7.6075932,33.6099974 7.58907111,33.5993272 C7.5521484,33.5782916 7.53080245,33.5670116 7.53080245,33.5670116 C7.53080245,33.5670116 7.5485958,33.5837791 7.58017444,33.6118266 C7.59617631,33.6255455 7.61515385,33.6426178 7.63643907,33.6630437 C7.65781538,33.6831647 7.68228882,33.7051148 7.70746064,33.7307234 C7.73336119,33.7554173 7.75999049,33.7834648 7.78783434,33.8133414 C7.80219655,33.8279749 7.81552638,33.8441326 7.8293724,33.8602904 C7.84306659,33.876753 7.85809681,33.8926059 7.87127482,33.910288 C7.89945268,33.9444328 7.92526214,33.981931 7.95128416,34.0197341 C7.97654707,34.0581469 8.00050432,34.0983889 8.02048388,34.1401552 L8.03615174,34.1712513 L8.04972448,34.2032619 C8.05941062,34.2242975 8.06609072,34.2462477 8.07386392,34.2675881 C8.0870723,34.3111836 8.10000739,34.3544743 8.10620166,34.39746 C8.11327649,34.4401409 8.1174971,34.4822121 8.11789183,34.5221492 C8.11862057,34.5623912 8.1163129,34.6004992 8.11230484,34.6355585 C8.10401545,34.7056771 8.08852977,34.7636012 8.07544286,34.8035383 C8.06235594,34.8434754 8.05169815,34.8654256 8.05169815,34.8654256" id="Fill-107" fill="#131518"></path>
            <path d="M10.8067824,33.8807163 C10.8067824,33.8807163 10.6280899,34.2172857 10.5652666,34.022173 C10.502413,33.8273651 10.5878878,33.590791 10.3826874,33.2100164 C10.3966549,33.2359298 10.6560855,33.2770864 10.6932815,33.2920247 C10.843857,33.3529974 11.0712535,33.4789061 11.1181357,33.6517637 C11.1630138,33.8173046 10.9408398,33.8843746 10.8067824,33.8807163" id="Fill-108" fill="#DF516B"></path>
            <path d="M9.76978857,33.6941398 C9.76978857,33.6941398 9.78749082,33.6776771 9.81493994,33.6453616 C9.82848232,33.628899 9.84500038,33.6090828 9.86203462,33.5849986 C9.8794636,33.5609144 9.89856261,33.5334767 9.91705433,33.5017708 C9.95513088,33.4395787 9.99393616,33.362753 10.0249986,33.2755621 C10.0400592,33.2319666 10.0545125,33.186237 10.0650488,33.1386783 C10.0695427,33.1155087 10.0740366,33.0917293 10.0785608,33.0682548 C10.0836316,33.0453901 10.0875182,33.0203912 10.0935911,32.9990508 C10.1045828,32.9575893 10.1178216,32.913689 10.1377404,32.8746665 C10.156141,32.8347293 10.1791267,32.7981457 10.2039341,32.7646107 C10.2307759,32.7326 10.2572231,32.7011991 10.2874353,32.67681 C10.3166455,32.6512015 10.3474651,32.6304707 10.3766146,32.6118741 C10.3914323,32.603033 10.406341,32.5957163 10.4200959,32.5877898 C10.4344885,32.580778 10.448122,32.5743758 10.4609356,32.5682786 C10.487322,32.5576083 10.5105202,32.5475478 10.5303479,32.5414506 C10.5499631,32.5344387 10.5657828,32.5301706 10.5765924,32.5268171 C10.5874324,32.5237685 10.5932319,32.5219393 10.5932319,32.5219393 C10.5932319,32.5219393 10.5872198,32.5222442 10.5759244,32.5222442 C10.5646593,32.522549 10.5478072,32.5216344 10.5267346,32.5243782 C10.5054797,32.5259025 10.4798828,32.5298657 10.4505511,32.5362679 C10.4360067,32.5399262 10.4205514,32.5438895 10.4042763,32.5481576 C10.3883351,32.55395 10.3714831,32.5597424 10.3541755,32.5664494 C10.3199856,32.5813877 10.2829111,32.5990698 10.2476887,32.6243735 C10.2112518,32.6481528 10.1770012,32.6795538 10.1445723,32.7149179 C10.1142994,32.7515016 10.0831762,32.7911338 10.0618606,32.8368634 C10.0382373,32.8816783 10.0218407,32.9295419 10.0078733,32.9804541 C10.0016183,33.0054529 9.99873369,33.0280128 9.99399689,33.0517922 C9.99004956,33.0749618 9.98610223,33.0984363 9.98218527,33.1213011 C9.9770841,33.1435561 9.97268131,33.1658112 9.9681267,33.1877614 C9.96250935,33.2094067 9.95752964,33.231052 9.95160864,33.2520876 C9.93903792,33.2938539 9.92710484,33.3347056 9.91338027,33.3725087 C9.89950389,33.4103118 9.8861437,33.4462857 9.87238877,33.4789061 C9.81761198,33.6096925 9.76978857,33.6941398 9.76978857,33.6941398" id="Fill-109" fill="#D77065"></path>
            <path d="M9.45530785,34.4590425 C9.45530785,34.4590425 9.45400219,34.4538598 9.45157307,34.4437993 C9.44935649,34.4337388 9.44480188,34.4191053 9.44267639,34.4005087 C9.43906307,34.3825217 9.43809142,34.3596569 9.43654285,34.3340484 C9.43693758,34.3212441 9.43742341,34.3078301 9.43787887,34.2935016 C9.43951853,34.279173 9.44121892,34.2645395 9.4430104,34.2489915 C9.44920467,34.2185051 9.45676532,34.1858847 9.47048989,34.153874 C9.4828177,34.1212536 9.50255435,34.0907673 9.52508449,34.0621101 C9.54731099,34.0328432 9.57840381,34.0115027 9.6104379,33.9938207 C9.64177363,33.975224 9.68328132,33.9691267 9.7166818,33.9663829 L9.75721784,33.9663829 L9.7635032,33.9676024 L9.77604357,33.9697364 C9.79259199,33.9709559 9.81011206,33.9791872 9.82693375,33.9849796 C9.85942331,34.0008325 9.88857282,34.0240021 9.91341064,34.0514399 C9.93730716,34.0797922 9.95853165,34.1102785 9.97614282,34.1416795 C9.99363252,34.1730804 10.0089057,34.2041765 10.0225391,34.2331386 C10.0489862,34.292587 10.0710305,34.3422797 10.0864555,34.3767293 C10.1025181,34.4117886 10.1128722,34.430995 10.1128722,34.430995 C10.1128722,34.430995 10.1084998,34.4096546 10.1007873,34.3721564 C10.0926801,34.3346581 10.0821742,34.281307 10.0633484,34.2178954 C10.058308,34.2020425 10.0530854,34.1855798 10.0476502,34.1682026 C10.0411219,34.1514351 10.0348973,34.1340579 10.0268508,34.1163758 C10.0113348,34.0807068 9.99193213,34.0435134 9.96496884,34.0084541 C9.93712498,33.9743094 9.90299576,33.9401647 9.8584213,33.9185194 C9.83552679,33.9093734 9.8135432,33.8990081 9.78694427,33.8956546 C9.75940405,33.8895573 9.73909049,33.8904719 9.7174409,33.890167 L9.71033571,33.890167 L9.70678311,33.8904719 L9.70623656,33.8904719 L9.69721843,33.8916914 L9.6792429,33.8944351 C9.66730982,33.8965692 9.65525528,33.8974838 9.64371693,33.9017519 L9.60901079,33.9127269 L9.57636941,33.9285798 C9.53440626,33.9520543 9.49787828,33.984065 9.47243319,34.0209535 C9.44616826,34.0572323 9.42767654,34.0965597 9.41717057,34.1352774 C9.40478203,34.1733853 9.4015938,34.2108835 9.39980232,34.2450282 C9.40016669,34.2621006 9.40025778,34.2785632 9.40141162,34.2938064 C9.40365856,34.3090496 9.40578404,34.323683 9.40778807,34.3374019 C9.41389125,34.3642299 9.42044989,34.3870947 9.42834455,34.4050816 C9.43453882,34.4236783 9.44319258,34.4361777 9.44774719,34.4453236 C9.45269654,34.4541647 9.45530785,34.4590425 9.45530785,34.4590425" id="Fill-110" fill="#D77065"></path>
            <path d="M6.55538693,30.8122643 C6.55538693,30.8122643 6.52098443,30.7988503 6.46429471,30.7698883 C6.40790862,30.7406214 6.32838511,30.6955016 6.24634138,30.6269073 C6.20571425,30.5921528 6.16529967,30.5509963 6.12925751,30.5034375 C6.09297244,30.4558788 6.06476422,30.3997839 6.04578667,30.3391161 C6.02641439,30.2784482 6.02292252,30.211988 6.02863097,30.1455277 C6.03482524,30.0790674 6.05261859,30.0095585 6.08225393,29.9519393 C6.11113016,29.8918812 6.15625117,29.8418836 6.20914539,29.8037756 C6.26285944,29.7662774 6.32422523,29.740364 6.38689668,29.724816 C6.51312014,29.6946345 6.63976869,29.7004269 6.74479803,29.718109 C6.850131,29.7364008 6.93578805,29.7668871 6.9911114,29.7970686 C7.01904635,29.8120069 7.0395421,29.8260307 7.05323629,29.836396 C7.06620175,29.847676 7.07312476,29.8537732 7.07312476,29.8537732 C7.07312476,29.8537732 7.06735559,29.8464565 7.05648525,29.8330425 C7.04464326,29.8205431 7.0270321,29.8013367 7.00046353,29.7824352 C6.94857133,29.7428029 6.86440212,29.6985977 6.75575946,29.6687211 C6.70149886,29.6537827 6.64113508,29.6418931 6.57612559,29.6379298 C6.5112983,29.6333569 6.44152165,29.6345763 6.37037863,29.6492098 C6.29975179,29.6638432 6.22599745,29.6885372 6.1610487,29.733657 C6.0965554,29.7784719 6.03980495,29.8397495 6.00412716,29.9120022 C5.96805464,29.9857792 5.95083821,30.0610805 5.94427957,30.138211 C5.93799421,30.2153415 5.94764998,30.2933865 5.97251816,30.3632003 C5.99680942,30.4333189 6.03482524,30.4949014 6.07842805,30.5445941 C6.1215754,30.5948966 6.169581,30.6348337 6.21597731,30.6668444 C6.30934684,30.7308658 6.39658282,30.7653154 6.45761461,30.7857412 C6.51904113,30.8061671 6.55538693,30.8122643 6.55538693,30.8122643" id="Fill-111" fill="#D77065"></path>
            <path d="M19.6954401,17.1656559 C20.0812764,17.4845433 21.6210386,19.1683048 22.2732589,26.0740746 C22.7478494,25.9576167 23.3657583,25.8189038 23.9277973,25.7338468 C23.9393357,24.4805527 23.8230413,19.947841 21.6863214,16.8668896 C21.02651,16.9455444 20.3603222,17.0452348 19.6954401,17.1656559" id="Fill-112" fill="#CA295A"></path>
        </g>
    </g>
</svg>