<?xml version="1.0" encoding="UTF-8"?>
<svg width="21px" height="75px" viewBox="0 0 21 75" version="1.1" xmlns="http://www.w3.org/2000/svg" xmlns:xlink="http://www.w3.org/1999/xlink">
    <title>Group 7</title>
    <g id="Page-1" stroke="none" stroke-width="1" fill="none" fill-rule="evenodd">
        <g id="Group-7" transform="translate(10.500000, 37.500000) scale(-1, 1) translate(-10.500000, -37.500000) ">
            <path d="M18.8365973,24.6342917 C18.8365973,24.6342917 19.1861122,20.6799003 18.0611481,17.6936052 C17.1023517,15.1483958 16.4492327,13.2119655 15.0621324,10.7598069 C13.7225721,8.39164349 13.5077685,8.23190729 12.8895418,7.08771508 C12.2713151,5.94349318 9.15900328,0.887901706 7.76473499,0.49829976 C6.37046669,0.108668124 4.57301221,0.863674058 3.45906672,0 C3.45906672,0 3.12868627,0.527693597 3.96790711,0.996391685 C4.80712796,1.46511946 4.80970489,1.51609847 4.25800449,1.69721201 C3.70627447,1.87835524 1.44603855,2.55447287 1.25318333,3.79070639 C1.25318333,3.79070639 2.04637484,3.34187141 2.75574201,3.25499629 C3.4651388,3.16809148 6.01511666,2.17074969 6.80096243,2.59105187 C7.58677858,3.01135404 8.9172456,5.14169463 9.65253018,6.58662439 C10.3878148,8.03152445 12.9124084,13.3725924 13.4276467,14.5992358 C14.0386461,16.0538448 13.7560426,19.0705135 13.8858963,19.7286385 C14.0157499,20.3867635 17.4882991,24.9855926 18.8365973,24.6342917" id="Fill-78" fill="#EFAA9E"></path>
            <path d="M1.25318333,3.79070639 C1.39784696,2.86358321 2.70524007,2.25147882 3.58272983,1.92695899 C5.41104826,1.61140576 5.7900646,2.23503015 5.7900646,2.23503015 C5.91254291,2.26587884 5.84906745,2.38093047 5.68257395,2.5376976 C4.62274403,2.69755257 3.24737324,3.19478346 2.75574201,3.25499629 C2.04637484,3.34187141 1.25318333,3.79070639 1.25318333,3.79070639" id="Fill-79" fill="#EC9A90"></path>
            <path d="M18.0801048,20.7127085 C18.0801048,20.7127085 18.071515,20.7254162 18.0567051,20.7508611 C18.0424875,20.7764249 18.0211612,20.8140133 17.9995387,20.8644282 C17.9779161,20.9147243 17.9518506,20.9767483 17.9311167,21.0508267 C17.9257851,21.0693537 17.9201573,21.0884449 17.9142333,21.1081299 C17.9094941,21.128082 17.904755,21.148628 17.8997196,21.1697085 C17.8887602,21.2118396 17.88254,21.2570586 17.8751351,21.304356 C17.8659529,21.3515643 17.8650643,21.4015041 17.8600289,21.4531957 C17.8570669,21.4790563 17.8582517,21.505392 17.8579555,21.5322324 C17.8582517,21.5591026 17.8582517,21.5863884 17.8582517,21.6140304 C17.8612137,21.6692255 17.8668415,21.7259646 17.8727655,21.7840396 C17.8778008,21.8127803 17.8831324,21.8418475 17.8881678,21.8711523 C17.894388,21.9002789 17.89735,21.9306525 17.9065322,21.9596307 C17.9361521,22.0774733 17.9770275,22.1971567 18.0324168,22.3122677 C18.0469305,22.3407411 18.0614443,22.3693036 18.075958,22.3979552 C18.0898794,22.4247362 18.1038007,22.4515767 18.1177221,22.4784765 L18.1609672,22.5599479 C18.1751847,22.5871149 18.1908833,22.6146085 18.2012502,22.6409442 C18.2243538,22.6944469 18.2504193,22.7454259 18.2720418,22.8005617 C18.2924796,22.8563803 18.3158793,22.9106549 18.3354284,22.966236 C18.3543852,23.0222031 18.3730457,23.0777248 18.39141,23.1325933 C18.4079972,23.1883228 18.4242881,23.2433991 18.4402829,23.2975253 C18.4545004,23.3523048 18.4678294,23.4064013 18.4823432,23.4591024 C18.4947835,23.5124269 18.5072239,23.5645639 18.5190718,23.6153351 C18.5412868,23.7173821 18.5611321,23.8144412 18.5777193,23.9046417 C18.5940102,23.9947828 18.6091164,24.0778575 18.6206681,24.1518468 C18.6262959,24.1889009 18.6316275,24.2235796 18.6363667,24.2556753 C18.6416983,24.287771 18.6461412,24.3173727 18.6496956,24.3441241 C18.6648018,24.4511295 18.672503,24.513005 18.672503,24.513005 C18.672503,24.513005 18.6751688,24.4976846 18.6790193,24.4687064 C18.6822775,24.4397876 18.6882015,24.3971814 18.6917559,24.3428771 C18.6959027,24.288543 18.7009381,24.2223623 18.7018267,24.1464431 C18.7036039,24.0704645 18.7036039,23.9845988 18.6997533,23.8909542 C18.6973837,23.8441616 18.6956065,23.7952907 18.6914597,23.7448758 C18.6870167,23.6944906 18.6825737,23.6422943 18.6766498,23.5887322 C18.6692448,23.5352888 18.6618398,23.4803906 18.6541386,23.4242751 C18.6440679,23.3684268 18.6337009,23.3113315 18.6230377,23.2533158 C18.6105974,23.1955673 18.5960836,23.1371359 18.5821622,23.0778435 C18.5664637,23.0188777 18.5483956,22.959704 18.5303274,22.8999366 C18.5113707,22.8405551 18.4888595,22.7813814 18.4669408,22.7219406 C18.4444297,22.6625294 18.4156984,22.6028807 18.3896328,22.5433804 C18.3766001,22.5126505 18.3614939,22.4866414 18.346684,22.4594744 L18.3028465,22.3784483 C18.273819,22.3256285 18.2450877,22.2730462 18.2166526,22.2208796 C18.20984,22.2082016 18.2021388,22.1959097 18.1962149,22.1829645 L18.1790353,22.143743 C18.1674835,22.1177339 18.1559318,22.0918733 18.14438,22.0661611 C18.1319397,22.0407755 18.1236461,22.0140242 18.1147601,21.9877478 C18.1055779,21.9614715 18.0963958,21.9353734 18.0872136,21.9095127 C18.070034,21.8574352 18.0596671,21.8043778 18.0445609,21.7533691 C18.0344902,21.7014697 18.025308,21.6502532 18.0167182,21.6001946 C18.011979,21.5498094 18.0039817,21.5006118 18.0016121,21.4526613 C18.0001311,21.4047701 17.9950957,21.3580665 17.9971691,21.3132929 C17.9971691,21.2684302 17.9974653,21.2252005 18.0007235,21.1841975 C18.0019083,21.1635625 18.0030931,21.1434915 18.0039817,21.123955 C18.006055,21.1045076 18.0081284,21.0855946 18.0102018,21.0673051 C18.01346,21.0303995 18.0196802,20.9964333 18.0241232,20.9645454 C18.02827,20.9325091 18.0347864,20.9037091 18.0395255,20.877314 C18.0504849,20.8248802 18.0599633,20.7834616 18.0679607,20.7555523 C18.0756618,20.7277024 18.0801048,20.7127085 18.0801048,20.7127085" id="Fill-80" fill="#E59386"></path>
            <path d="M9.30337071,19.5755233 C9.30337071,19.5755233 9.91437017,20.7239019 8.57780145,20.3794002 C8.57780145,20.3794002 8.05021166,20.1497126 7.81754728,21.4512064 C7.58491253,22.7526705 7.31759286,26.3509809 7.31759286,26.3509809 L7.05729311,26.8708658 C7.05729311,26.8708658 7.66130227,28.6475599 8.38687153,29.6430906 C9.11244079,30.6383243 9.35165116,31.6335581 8.98380153,32.9732044 C8.61598151,34.3131477 7.30257557,36.6854382 6.91366618,40.3219605 C6.52478641,43.9584829 6.40109367,46.7410994 6.70656378,49.905539 C7.01209313,53.0696816 7.01209313,55.8258734 6.50292692,56.8977092 C5.9937607,57.9695451 4.77173217,59.8578764 5.02631528,64.247356 C5.28089838,68.6365388 5.0772319,70.2187585 5.0772319,70.2187585 L7.06300975,70.3719628 C7.06300975,70.3719628 7.67400921,66.1356874 8.48867515,63.9920156 C9.30337071,61.8486408 9.71067406,58.6331332 10.2707865,57.357025 C10.830899,56.0812138 11.6455353,53.1326259 12.0019813,51.1872884 C12.3583976,49.2419508 13.6822298,46.0264432 13.6313132,44.3420873 C13.6313132,44.3420873 13.6949663,44.5335926 13.9240763,44.3420873 C13.9240763,44.3420873 13.7713265,45.2607189 14.0768558,47.2514833 C14.3823259,49.2419508 15.1459568,53.4143911 15.2223761,54.3330227 C15.2987955,55.2516544 15.6044729,56.5532966 15.9098542,57.4719282 C16.2152354,58.3905598 16.0626929,59.4240946 16.0626929,61.1467516 C16.0626929,62.8694086 16.7116651,64.9744824 16.9409232,66.9269457 C17.1701812,68.8791121 17.2080947,68.9174132 17.2463044,69.5682343 C17.2845141,70.2187585 17.3227238,70.7546765 17.3227238,70.7546765 L19.2705289,70.5634681 C19.2705289,70.5634681 19.7287489,67.2713583 20.1105495,63.3287244 C20.4923501,59.3857936 19.4994908,57.1275156 19.4612811,55.0221449 C19.4230714,52.9167742 21.1090366,46.8684727 20.9944075,43.653262 C20.8797785,40.4377544 20.1869689,38.9449038 19.2705289,34.6575604 C18.3537928,30.3702169 18.8120127,29.4132842 18.9266418,27.7672294 C19.0412708,26.1211745 18.8398554,24.3638387 18.6541386,23.4242751 C18.4684218,22.4847412 13.8696645,19.615398 13.8696645,19.615398 C13.8696645,19.615398 13.1504339,19.7464826 12.3343463,18.206394 C11.5182586,16.6663054 9.30337071,19.5755233 9.30337071,19.5755233" id="Fill-81" fill="#EFAA9E"></path>
            <path d="M19.940235,73.2445423 C20.141058,72.327989 19.8753674,70.8499837 19.7352653,70.4791463 C19.5954593,70.108012 19.612935,69.1878959 18.2936643,69.0156896 C17.8597327,68.9589802 17.4175075,69.113669 17.1823254,69.4978673 C16.8840529,69.9847955 17.0650306,70.5898928 16.9909808,71.1246231 C16.9021211,71.7647556 16.7288446,72.4232963 16.3819955,72.9746534 C16.0339616,73.527792 15.6225411,74.4191081 16.4747058,74.7115619 C17.0973163,74.9253353 17.8031587,74.9066301 18.4500575,74.8407167 C18.9476719,74.7902424 19.6096768,74.7329393 20.0282061,74.4247493 C20.6614798,73.9580108 19.940235,73.2445423 19.940235,73.2445423" id="Fill-82" fill="#DB2E5E"></path>
            <path d="M20.0282061,74.4247493 C20.6123107,73.9942336 20.0444971,73.354398 19.9526754,73.2576062 C19.8324186,74.0108604 19.3232523,74.2359162 18.8564426,74.2136482 C18.3748229,74.1907863 18.1648177,73.6480395 17.7785742,73.6685261 C17.3926268,73.6887158 17.1337488,74.2638255 16.5973322,74.2121636 C16.1734714,74.1714873 16.083723,73.7665055 16.0647663,73.5984559 C15.9000796,74.050646 15.903634,74.515603 16.4747058,74.7115619 C17.0973163,74.9253353 17.8031587,74.9066301 18.4500575,74.8407167 C18.9476719,74.7902424 19.6096768,74.7329393 20.0282061,74.4247493" id="Fill-83" fill="#163139"></path>
            <path d="M4.6334072,73.3594454 C4.43243613,72.4425953 4.69836366,70.96459 4.8382881,70.5937526 C4.97821255,70.2229152 4.96082566,69.3027991 6.27997787,69.1302958 C6.71396876,69.0735865 7.15601626,69.2282753 7.39140567,69.6127704 C7.68955966,70.0996986 7.50852278,70.704796 7.58266141,71.2395263 C7.6714619,71.8796588 7.8447976,72.5381995 8.1916171,73.0892597 C8.53971025,73.6423982 8.95119001,74.5340113 8.09887716,74.8264651 C7.47617784,75.0399416 6.77054278,75.0212364 6.12340704,74.9556199 C5.62605917,74.9048487 4.96399499,74.8478425 4.54549531,74.5393556 C3.91219207,74.072914 4.6334072,73.3594454 4.6334072,73.3594454" id="Fill-84" fill="#DB2E5E"></path>
            <path d="M4.54549531,74.5393556 C3.96144997,74.1091367 4.52905626,73.4693012 4.6209076,73.3725094 C4.7412829,74.1257636 5.2502714,74.3508194 5.71705152,74.3285513 C6.19876008,74.3053926 6.40891333,73.7629427 6.79500883,73.7834293 C7.18110432,73.803619 7.4399527,74.3787287 7.97622113,74.3270668 C8.40028935,74.2860936 8.48983033,73.8814087 8.50884631,73.7133591 C8.67341451,74.1652522 8.67009709,74.6302093 8.09887716,74.8264651 C7.47617784,75.0399416 6.77054278,75.0212364 6.12340704,74.9556199 C5.62608879,74.9048487 4.96399499,74.8478425 4.54549531,74.5393556" id="Fill-85" fill="#163139"></path>
            <path d="M9.0904332,20.4399693 C9.09019624,20.4397912 9.08992966,20.4395834 9.0896927,20.4394052 C9.724862,20.3770844 9.30890964,19.5860339 9.30340033,19.5756124 C9.30890964,19.5860339 9.72548402,20.3775891 9.0904332,20.4399693 M12.9924414,19.1559634 C12.7904336,18.9468515 12.5662997,18.6441544 12.3343463,18.206394 C12.3170186,18.1736748 12.2990097,18.1429449 12.2804676,18.1141746 C12.2990393,18.1429449 12.3170186,18.1736748 12.3343759,18.206394 C12.5663294,18.6442138 12.7904336,18.9466437 12.992471,19.1557556 C12.992471,19.1558447 12.992471,19.1558744 12.9924414,19.1559634" id="Fill-86" fill="#E3C0B8"></path>
            <path d="M10.7278217,21.0428399 C10.0127971,21.0428399 9.45034469,20.7244364 9.0904332,20.4399693 C9.72548402,20.3775891 9.30890964,19.5860339 9.30340033,19.5756124 L9.30340033,19.5755827 C9.30340033,19.575553 9.30337071,19.575553 9.30337071,19.5755233 L9.30337071,19.5754936 C9.30337071,19.5754936 9.30337071,19.5754936 9.30337071,19.5754639 C9.30340033,19.5754639 9.30340033,19.5754343 9.30342995,19.5754046 C9.30345957,19.5753749 9.30351881,19.5752858 9.30357805,19.5751967 C9.30360767,19.575167 9.30363729,19.5751374 9.30363729,19.5751374 C9.30369653,19.5750483 9.30375577,19.5749889 9.30381501,19.5748998 C9.30387425,19.5748404 9.30390387,19.5747811 9.30393349,19.5747514 C9.30399273,19.574692 9.30402235,19.5746326 9.30405197,19.5745732 C9.30408159,19.5745732 9.30408159,19.5745435 9.30411121,19.5745435 C9.30417045,19.5744545 9.30422969,19.5743654 9.30428893,19.574306 C9.30434817,19.5742169 9.30440741,19.5741279 9.30449627,19.5740388 C9.30476285,19.5736825 9.30508867,19.5732371 9.30544411,19.5727621 C9.30550335,19.5727027 9.30559221,19.5726136 9.30565145,19.5725246 C9.30609574,19.5719308 9.3066289,19.5712479 9.3072213,19.5704462 C9.30733978,19.5702978 9.30745826,19.5701493 9.30757674,19.5700009 C9.35819716,19.5042952 9.85717413,18.8637174 10.4538079,18.3623001 L11.8485501,17.7788176 C12.010808,17.8206816 12.1573969,17.924807 12.2786608,18.1113837 C12.2792532,18.1123041 12.2798456,18.1132245 12.280438,18.1141449 L12.2804676,18.1141746 C12.2990097,18.1429449 12.3170186,18.1736748 12.3343463,18.206394 C12.5662997,18.6441544 12.7904336,18.9468515 12.9924414,19.1559634 C12.9093279,19.5576792 12.5966009,20.5695991 11.5182586,20.9152885 C11.2380838,21.005103 10.9739039,21.0428399 10.7278217,21.0428399" id="Fill-87" fill="#E98B7D"></path>
            <path d="M9.84387479,11.6678984 C10.0265408,11.5230075 10.199758,11.2195681 10.2504376,10.981389 C10.3275975,10.6185087 9.97559452,10.1091343 9.7506017,9.85346728 C9.31687739,9.36077907 8.47339128,8.95832104 7.8422799,9.02076067 C7.28687701,9.07568855 6.71441306,9.29225284 6.2706476,9.65436115 C6.04058978,9.84209573 5.83049577,10.0744555 5.69267434,10.3396235 C5.53180862,10.6492089 5.58328802,10.9711457 5.49967102,11.3016036 C5.38921839,11.7383545 5.26822106,12.0877849 5.47600471,12.5293159 C5.52816537,12.6401218 5.59803873,12.7465631 5.69913148,12.8154456 C6.07912528,13.0743192 7.21626315,12.3398593 7.58067688,12.1776884 C7.9092209,12.0314912 8.23767605,11.8847892 8.568797,11.7445895 C8.71319405,11.6834563 8.93486944,11.5405844 9.09754197,11.543702 C9.25882237,11.5467601 9.76943996,11.6925714 9.76943996,11.6925714" id="Fill-88" fill="#131313"></path>
            <path d="M5.80724414,9.94351931 C5.80724414,9.94351931 5.77709108,9.96828139 5.72881063,10.016707 C5.70493698,10.0411128 5.67599833,10.0710411 5.64513439,10.1075013 C5.61430006,10.1439318 5.57970401,10.1855879 5.54655934,10.2346371 C5.51202252,10.2827361 5.47908519,10.3383468 5.44819162,10.399777 C5.41966765,10.4623354 5.39135102,10.5306835 5.37894028,10.6077013 C5.36531512,10.6840362 5.37455653,10.7714457 5.38708575,10.8428223 C5.3968307,10.9154458 5.40186609,10.9913947 5.39398719,11.0630979 C5.38803359,11.1353949 5.36593714,11.2034163 5.33113375,11.2661232 C5.29612302,11.3286222 5.25204859,11.387588 5.20687823,11.4433473 L5.18996527,11.4641605 L5.18587772,11.469386 L5.18398204,11.472177 L5.18013146,11.4777291 L5.17254876,11.4888335 C5.16238913,11.5034413 5.15211102,11.5172178 5.14393593,11.5370216 C5.12483109,11.5737193 5.1156193,11.6087544 5.10679256,11.6431957 C5.09082743,11.7125235 5.09127173,11.7785261 5.09381905,11.8381451 C5.09645522,11.8979719 5.10625941,11.9515934 5.11520462,11.9986532 C5.12509767,12.045624 5.13584969,12.0859143 5.14603894,12.1186335 C5.15557655,12.1515309 5.1654696,12.1766196 5.1717194,12.1937808 C5.17844312,12.2107936 5.18202713,12.219879 5.18202713,12.219879 C5.18202713,12.219879 5.1732004,12.1817858 5.16292229,12.1147441 C5.15741299,12.0813123 5.15294038,12.0404281 5.1482012,11.9938433 C5.14500225,11.9470804 5.14162558,11.8943793 5.14384707,11.8375513 C5.14677944,11.7809904 5.15214064,11.7195899 5.16982373,11.6592583 C5.17939096,11.6297161 5.19043918,11.5987783 5.20545648,11.5740459 C5.21078806,11.5611898 5.22228059,11.5468789 5.23303261,11.5324789 L5.24108923,11.5217308 L5.24511753,11.5163271 L5.24713169,11.5136252 L5.24562107,11.5155255 L5.24618385,11.5149019 L5.24730941,11.5135956 L5.26549603,11.4929308 C5.31348028,11.4371419 5.36448576,11.3784136 5.40447264,11.3074527 C5.44499267,11.2371153 5.47307234,11.1547532 5.4805958,11.0719457 C5.48838584,10.9888413 5.48166212,10.9085873 5.47011035,10.8299662 C5.4563371,10.7508997 5.44558507,10.6873912 5.45461914,10.6189244 C5.46341625,10.5513482 5.48435753,10.4866224 5.50731296,10.4262908 C5.53323038,10.366939 5.55959209,10.3108829 5.58864922,10.261329 C5.61675852,10.2113298 5.64554907,10.1668531 5.67149611,10.1276613 C5.69788744,10.0887961 5.72167223,10.0552753 5.74184339,10.0279895 C5.76242922,10.0009709 5.77863131,9.97974202 5.78964992,9.96525293 C5.80114244,9.95109045 5.80724414,9.94351931 5.80724414,9.94351931" id="Fill-89" fill="#131313"></path>
            <path d="M7.02047556,16.6272621 C7.02047556,16.6272621 6.42156103,16.2033971 6.35364258,16.7015781 C6.28572413,17.1997294 7.27233364,18.0364442 7.40446805,18.2294638 C7.53663208,18.422513 7.91526336,18.5725106 8.04976736,18.4358738 C8.18427136,18.2992073 7.02047556,16.6272621 7.02047556,16.6272621" id="Fill-90" fill="#E29088"></path>
            <path d="M12.1297023,14.6133686 C12.1297023,14.6133686 12.2801714,13.8941104 12.6683996,14.2124842 C13.0566573,14.5308284 12.9028411,15.8170611 12.9372595,16.0486192 C12.9716778,16.2801773 12.7963872,16.6485207 12.6050426,16.6402964 C12.4137276,16.6321017 12.1297023,14.6133686 12.1297023,14.6133686" id="Fill-91" fill="#E29088"></path>
            <path d="M6.88973329,16.5821619 C6.88973329,16.5821619 6.76248617,15.3626443 6.71624949,15.116894 C6.6699832,14.871114 6.77460071,14.4024753 7.06727502,13.6460145 C7.3475682,12.9214416 8.3956094,12.8052914 8.48358053,12.7967701 C8.55377971,12.7429408 9.40005009,12.1124282 10.0976285,12.4515262 C10.8259228,12.8055586 11.2209635,13.0772883 11.354105,13.2887755 C11.4872465,13.5002923 12.2227384,14.4800572 12.2227384,14.4800572 L12.2880207,14.8062991 C12.2880207,14.8062991 12.5395234,15.3391589 12.6143136,16.0856436 C12.7003298,16.9442702 12.9308616,17.1802522 12.8445492,17.8553901 C12.7582664,18.5305279 12.4951231,19.4262383 11.3954248,19.9476968 L11.2950429,19.963522 L11.2107743,20.0204688 C10.0512734,20.3895248 9.24999564,19.9133743 8.72806324,19.4779892 C8.20610123,19.0426042 8.2145429,18.7124431 7.69406189,18.0250727 C7.24155856,17.4274574 7.06363177,16.8655897 7.06363177,16.8655897 L6.88973329,16.5821619" id="Fill-92" fill="#EFA99D"></path>
            <path d="M7.76378715,11.6492229 C7.76378715,11.6492229 8.02044365,11.1206386 8.87275649,11.0235498 C9.72506934,10.9264314 10.1254713,10.9723333 10.5340483,11.1506856 C10.9426253,11.3290676 11.1837609,11.592187 11.7500047,12.236387 C12.3162485,12.8806168 12.3275929,13.5964606 12.3436765,14.1809526 C12.3597898,14.7654446 12.4110322,14.8961136 12.2530988,14.8452237 C12.0951951,14.7943337 12.0528683,14.622454 11.812562,14.2017362 C11.5722853,13.781048 11.5877765,13.7246653 11.1881151,13.5050725 C10.7884536,13.2854798 10.3898882,12.8768758 10.1151931,12.7840328 C9.8404685,12.6911602 9.50682986,12.6718315 9.16901481,12.9935604 C8.83119976,13.3152596 8.40212578,13.308401 8.18708525,13.0160363 C7.97207434,12.7236715 7.80439604,12.4880458 7.77987076,12.2337149 C7.75534547,11.9794136 7.67030672,11.698658 7.76378715,11.6492229" id="Fill-93" fill="#1C1C1D"></path>
            <path d="M8.22126662,13.1031192 C8.22126662,13.1031192 8.35867338,13.3255326 8.0476051,13.5235699 C7.73650721,13.7216071 7.04126874,13.6436689 6.90101848,14.27721 C6.76079783,14.9107511 6.75126022,15.4299235 6.8674295,15.9498381 C6.98359878,16.4697527 7.08803857,16.7679962 6.8428746,16.8143435 C6.59771062,16.8606908 6.41477807,16.2665493 6.14970952,16.0064584 C5.88467058,15.7463674 5.28934006,14.3922914 5.53391163,13.7050694 C5.77848321,13.0178177 5.50627626,12.9916305 6.08916642,12.2716003 C6.67202697,11.5515997 7.47931755,11.3716738 7.76378715,11.6492229 C7.76378715,11.6492229 7.89728407,11.797736 7.87018186,11.9844314 C7.84310926,12.1710971 7.9778206,12.482553 8.04650917,12.5937448 C8.11522735,12.7049367 8.27594497,13.0187381 8.22126662,13.1031192" id="Fill-94" fill="#28292B"></path>
            <path d="M8.90021415,15.6011203 C8.90021415,15.6011203 9.02944581,15.7387369 8.83395441,15.8158141 C8.6384334,15.8928616 7.94355037,15.7519196 7.65419349,15.9414059 C7.36483661,16.1308923 7.2706453,16.3063052 7.2706453,16.3063052 C7.2706453,16.3063052 7.27508829,15.8771552 7.64788445,15.7050676 C8.02071023,15.5329801 8.59062687,15.5471722 8.90021415,15.6011203" id="Fill-95" fill="#181919"></path>
            <path d="M9.96422034,15.1817385 C9.96422034,15.1817385 9.96312454,15.3707201 10.1586159,15.2936727 C10.3541369,15.2165955 10.7671273,14.6389917 11.1077266,14.5801447 C11.448326,14.5212976 11.6365012,14.5854296 11.6365012,14.5854296 C11.6365012,14.5854296 11.3416054,14.274241 10.9517482,14.4027722 C10.5618614,14.5313331 10.1542322,14.9308518 9.96422034,15.1817385" id="Fill-96" fill="#181919"></path>
            <path d="M10.6632503,17.2820915 C10.6632503,17.2820915 10.6617693,17.277816 10.656882,17.2707793 C10.6519947,17.2640395 10.643405,17.2534102 10.627351,17.2476205 C10.6115932,17.2415339 10.5894375,17.2418308 10.5677853,17.250263 C10.5459555,17.2583092 10.5240664,17.272442 10.5025623,17.2900486 C10.4966087,17.2958086 10.492373,17.2990449 10.4869822,17.3050127 C10.4818876,17.3108321 10.4762302,17.316889 10.4719946,17.3231241 C10.4697138,17.3262713 10.4674331,17.3294185 10.4651227,17.3326251 C10.463079,17.3359505 10.4610648,17.3393055 10.4589914,17.3426606 C10.4546669,17.3493707 10.4512902,17.3564965 10.4474396,17.3636223 C10.4328667,17.3923629 10.4213741,17.423657 10.4109775,17.4558417 C10.4006106,17.4879671 10.390214,17.5207754 10.3783956,17.5523366 C10.3663107,17.5832744 10.3512342,17.6141528 10.32896,17.6310171 C10.3181488,17.6396868 10.3057972,17.6448827 10.2919055,17.646872 C10.2781026,17.6493066 10.2625818,17.6466938 10.247446,17.6438435 C10.2168783,17.6361239 10.1862217,17.6230303 10.1578458,17.6075614 C10.1284629,17.5914987 10.0974508,17.5772472 10.0680383,17.5663507 C10.0385664,17.5550088 10.009302,17.5474674 9.98172584,17.5434888 C9.95417933,17.5393024 9.92808419,17.5393321 9.9054842,17.5434294 C9.88270649,17.5473486 9.86428291,17.5569684 9.85130939,17.5666476 C9.84500035,17.5719325 9.83940218,17.5764455 9.83578855,17.5817305 C9.83181949,17.5865701 9.82847244,17.590608 9.826636,17.5945569 C9.8226077,17.6019796 9.82044544,17.6059284 9.82044544,17.6059284 C9.82044544,17.6059284 9.82334819,17.6025437 9.82879826,17.5961602 C9.83119747,17.5927457 9.83519616,17.5895095 9.83975762,17.5857387 C9.84399327,17.581582 9.84997649,17.5782863 9.85637439,17.5744562 C9.86967373,17.5676571 9.88697175,17.5621643 9.90761683,17.5611845 C9.92826191,17.5604125 9.95160239,17.5635597 9.97648312,17.5698542 C10.0013638,17.5762971 10.0277256,17.5861247 10.0547389,17.5986245 C10.0819596,17.6112134 10.1086768,17.6263557 10.1374969,17.6433685 C10.1450204,17.6476736 10.1526031,17.6520085 10.160245,17.656373 C10.1679758,17.6606782 10.1762102,17.6644192 10.1842668,17.6684868 C10.1922345,17.6727029 10.2012094,17.675672 10.2097103,17.679324 C10.2183,17.6828572 10.2278673,17.6849355 10.2369902,17.6877858 C10.2560358,17.6917644 10.2760589,17.6955351 10.2976518,17.6925066 C10.3189485,17.6900126 10.3407487,17.6814023 10.3578394,17.6677743 C10.3748709,17.6540868 10.3876667,17.6371334 10.397145,17.6200315 C10.4067419,17.6028703 10.4142357,17.5854418 10.4205448,17.5682212 C10.4332221,17.5337799 10.4411602,17.4996949 10.4502239,17.467718 C10.4593469,17.4358302 10.46767,17.4052487 10.4789552,17.3782301 C10.4846719,17.3648099 10.4906847,17.3519241 10.4977343,17.3405823 C10.5010221,17.3344363 10.5047542,17.3298045 10.5081901,17.3246086 C10.5115371,17.3197393 10.5174907,17.3137121 10.5206601,17.3097336 C10.5389355,17.2915925 10.5569444,17.2762127 10.5748941,17.2665929 C10.5928142,17.2569731 10.6105269,17.2536478 10.6247444,17.2565278 C10.6390508,17.2592296 10.6491216,17.2667711 10.6549863,17.2724123 C10.6609399,17.2781723 10.6632503,17.2820915 10.6632503,17.2820915" id="Fill-97" fill="#DE7F76"></path>
            <path d="M10.4893222,16.8813555 C10.4893222,16.8813555 10.5012886,16.8865217 10.5217264,16.8960227 C10.5421345,16.9055832 10.5709843,16.9196863 10.6040993,16.9383024 C10.6369182,16.9572747 10.6745947,16.980582 10.7080652,17.0115197 C10.724682,17.0269589 10.7400251,17.0442686 10.75211,17.0633004 C10.7577082,17.0729796 10.763099,17.0828369 10.7665942,17.0932287 C10.7705632,17.1036501 10.7727551,17.1136856 10.7742065,17.1260963 C10.7753616,17.1358052 10.775569,17.147919 10.7746508,17.1591718 C10.7736733,17.1706324 10.7720738,17.1821821 10.7694969,17.1936428 C10.764343,17.2165343 10.75679,17.2390696 10.7479929,17.260536 C10.7305467,17.3036173 10.7086576,17.3424231 10.6897305,17.3757361 C10.6703887,17.4088413 10.6535646,17.4364834 10.6423979,17.4563465 C10.6367109,17.4662038 10.6326529,17.4743094 10.6301945,17.4799803 C10.6276768,17.4856809 10.6273806,17.4890063 10.6273806,17.4890063 C10.6273806,17.4890063 10.6286839,17.4860075 10.6325048,17.4813461 C10.6361481,17.4765956 10.6423386,17.470212 10.6498917,17.4618096 C10.6651756,17.4451827 10.6874794,17.4216083 10.7118566,17.3909081 C10.7240896,17.3756173 10.7370039,17.3586342 10.7494146,17.3396915 C10.7619734,17.3208082 10.7746211,17.3003216 10.785699,17.2776973 C10.7967768,17.2551323 10.806818,17.2306671 10.8135417,17.204183 C10.8169184,17.1909409 10.8195545,17.1772238 10.820769,17.1630613 C10.8219538,17.1487504 10.8222203,17.1349442 10.8203543,17.1190299 C10.8187252,17.1058472 10.8153189,17.0905268 10.8099281,17.0769878 C10.8050704,17.0630332 10.797547,17.0506224 10.7900531,17.0386274 C10.7741769,17.0152311 10.7548054,16.9960509 10.7348416,16.9800475 C10.7148778,16.9639255 10.6938773,16.9514257 10.6737357,16.9405589 C10.6536534,16.9296327 10.6338673,16.9211708 10.6154734,16.9141044 C10.5786855,16.8998528 10.5469329,16.8919551 10.5246291,16.8872343 C10.5022957,16.8825728 10.4893222,16.8813555 10.4893222,16.8813555" id="Fill-98" fill="#DE7F76"></path>
            <path d="M9.66905809,17.2046877 C9.66905809,17.2046877 9.66037946,17.214456 9.6471986,17.2331018 C9.63407698,17.2517475 9.61618656,17.2792115 9.59894777,17.314781 C9.59029876,17.3325064 9.58156089,17.352221 9.57427439,17.3739546 C9.56689903,17.3956289 9.56002721,17.419144 9.55635434,17.4445592 C9.55262224,17.4699151 9.55146706,17.4972009 9.55573233,17.5251696 C9.55842774,17.5390352 9.56136011,17.5532571 9.56725447,17.5668257 C9.57252681,17.5803944 9.58043533,17.5939631 9.58819575,17.6047111 C9.5976445,17.6176266 9.60721173,17.627573 9.61781565,17.6372522 C9.6283011,17.6467829 9.63958629,17.6550072 9.65104919,17.6624002 C9.67394538,17.6771862 9.6979375,17.6882609 9.72139647,17.6971978 C9.74485544,17.7062238 9.76804783,17.7125776 9.79005542,17.7178328 C9.81203339,17.7232366 9.8330339,17.7268588 9.8523757,17.7296795 C9.89108892,17.7355285 9.92343386,17.7375772 9.94591537,17.7392993 C9.95714132,17.740279 9.96602729,17.7407541 9.97192165,17.7417339 C9.97787525,17.7425355 9.98089648,17.7438419 9.98089648,17.7438419 C9.98089648,17.7438419 9.97840841,17.7415854 9.97269177,17.7391508 C9.96703437,17.7366865 9.95856307,17.7335096 9.94769257,17.7301545 C9.92601079,17.7232663 9.89490989,17.7145075 9.85827006,17.7034625 C9.82177834,17.6920019 9.77939225,17.678552 9.73733198,17.6588967 C9.71630185,17.6491878 9.69547905,17.637846 9.67613725,17.6246039 C9.66645154,17.6180126 9.65741747,17.6106196 9.64894618,17.6029 C9.64059336,17.5952695 9.63253675,17.5862435 9.62679049,17.5783754 C9.61941513,17.5683103 9.61420202,17.5594624 9.61002562,17.54913 C9.60552339,17.5391243 9.60273912,17.5282278 9.60028067,17.5173016 C9.59619312,17.4951226 9.59565996,17.4719638 9.5973483,17.4493394 C9.60084345,17.4038532 9.61260255,17.3610392 9.62371001,17.3247274 C9.63532102,17.2885047 9.64687278,17.2584873 9.65531446,17.2375554 C9.66381537,17.2166234 9.66905809,17.2046877 9.66905809,17.2046877" id="Fill-99" fill="#DE7F76"></path>
            <path d="M11.5481747,18.024657 C11.5481747,18.024657 11.4498069,18.1788707 11.3575409,18.3912486 C11.2652749,18.6035968 11.1414341,18.778119 10.7894903,18.9252367 C10.437517,19.0723543 10.0945184,18.9226239 9.99078953,18.8713183 C9.88706061,18.8200127 9.74153801,18.7367895 9.74153801,18.7367895 C9.74153801,18.7367895 9.74295976,18.7297231 9.95515678,18.6525865 C10.1673538,18.57545 11.5481747,18.024657 11.5481747,18.024657" id="Fill-100" fill="#DF5F5E"></path>
            <path d="M10.0243785,18.4400899 C10.1569868,18.2453483 10.2936827,18.0982307 10.5427565,18.1257837 C10.7100201,17.9341299 10.9082366,17.9492128 11.1376724,18.0012607 C11.3671082,18.0533086 11.5481747,18.024657 11.5481747,18.024657 C11.5169849,18.0304467 11.3616285,18.1885202 11.1430928,18.249505 C10.9245571,18.3104898 10.678001,18.4705526 10.678001,18.4705526 C10.678001,18.4705526 10.3905398,18.5209972 10.1890948,18.6255383 C9.98764982,18.7300794 9.76828478,18.7197173 9.74153801,18.7367895 C9.74153801,18.7367895 9.89177018,18.6348315 10.0243785,18.4400899" id="Fill-101" fill="#E46E6D"></path>
            <path d="M9.29439588,16.4011374 C9.27943783,16.3970401 9.26353194,16.3990888 9.24821844,16.4008405 C9.23284571,16.4030673 9.2177988,16.4068974 9.20281113,16.410965 C9.17292464,16.4193972 9.14422295,16.4310954 9.11584708,16.4433577 C9.10165914,16.4495333 9.08779702,16.4563028 9.07381643,16.4629239 C9.05998393,16.4697824 9.04647725,16.4771754 9.03276324,16.4843012 C9.0190196,16.4913676 9.00595722,16.4994435 8.99250978,16.5069849 L8.9724571,16.5185049 L8.95287834,16.5306781 L8.91372083,16.5551433 L8.87536305,16.580707 L8.79962494,16.6311219 C8.78694762,16.6395541 8.77429992,16.6466799 8.76174108,16.654637 C8.74903414,16.6622378 8.7369196,16.6705512 8.7236795,16.6774989 L8.68478856,16.6992919 C8.67202238,16.7068927 8.65845646,16.7128308 8.64530522,16.7196597 C8.6190916,16.7335253 8.59187091,16.7448078 8.56500565,16.7569513 C8.53745914,16.7671649 8.51035692,16.7788334 8.48221801,16.787028 C8.45446416,16.7966478 8.42591057,16.8031204 8.39756431,16.810454 L8.35446735,16.8187971 C8.34010169,16.8216474 8.3255287,16.8230132 8.31104456,16.8252103 C8.29656043,16.8275856 8.28192819,16.8285357 8.26726634,16.8295452 C8.25263411,16.8306437 8.23800187,16.832247 8.22328078,16.8321283 C8.20855968,16.8323064 8.19383859,16.8330784 8.17908787,16.8327518 L8.13471725,16.8315048 C8.10521582,16.8292186 8.07544782,16.8278231 8.04588715,16.8235179 C8.01614876,16.8205786 7.98670657,16.8148779 7.95696819,16.8104243 L7.95886386,16.8109884 C7.95442087,16.8097117 7.95181432,16.8093555 7.94852651,16.808821 C7.94535718,16.8082569 7.94236557,16.8080491 7.93931472,16.8077522 C7.93327226,16.8073365 7.92725942,16.8069802 7.92136506,16.8072771 C7.91544108,16.8073068 7.90960595,16.8079303 7.90383007,16.8086726 C7.89802457,16.8091476 7.89239679,16.8106025 7.88673939,16.8115823 C7.88105236,16.8125917 7.8756023,16.8144326 7.870093,16.815828 C7.86455407,16.8171938 7.85934097,16.8195097 7.85397977,16.8213208 C7.84858894,16.8230726 7.84352394,16.8255072 7.83842932,16.8278231 C7.83330507,16.8301687 7.82818083,16.8323361 7.8233824,16.8352161 L7.80892789,16.8434701 L7.79527311,16.852793 C7.79068202,16.8558215 7.78623904,16.8590578 7.78206263,16.8626207 L7.76935569,16.8728936 C7.76509042,16.8762487 7.7613287,16.880257 7.75738925,16.8839683 L7.74574862,16.8952508 L7.72436305,16.9194487 L7.74995465,16.9001794 L7.76328361,16.8914504 C7.76778584,16.8886594 7.77199186,16.8854825 7.77658295,16.8828994 L7.79026735,16.8751205 C7.79473995,16.8724186 7.7994199,16.8701027 7.8041887,16.867965 L7.81825816,16.8614033 L7.83268305,16.8559402 C7.83739262,16.8538916 7.84233914,16.8525852 7.84719681,16.8511303 C7.85205447,16.8496458 7.8568529,16.8481019 7.86182904,16.8472112 C7.86677557,16.8462907 7.87160361,16.8448062 7.87655014,16.8443608 C7.88152628,16.8438264 7.88638395,16.8428169 7.89133047,16.8426388 C7.89624738,16.8424903 7.90113466,16.8418668 7.90599233,16.8421637 C7.91084999,16.8421934 7.91564842,16.8424013 7.9203876,16.842906 C7.92515641,16.8431732 7.92977711,16.8440342 7.93430896,16.8448656 L7.94085496,16.8595031 L7.94600882,16.8742891 L7.94615692,16.8742891 L7.94790449,16.8617002 C7.9776725,16.8698355 8.00744051,16.8718842 8.03788977,16.8779114 C8.0681317,16.8848887 8.09899564,16.886106 8.12991883,16.8903815 L8.1765998,16.8933506 C8.19220949,16.8946273 8.20793766,16.8937959 8.2236066,16.8944788 C8.23930515,16.8953695 8.25503332,16.894271 8.27076149,16.8937959 C8.28648966,16.8933209 8.30224745,16.892638 8.31791638,16.8907378 C8.33355569,16.8889563 8.34940234,16.888125 8.3649528,16.8854528 L8.41163377,16.8774363 C8.44237923,16.8705184 8.47330242,16.8637489 8.50315929,16.8536244 C8.53354931,16.845014 8.56257682,16.8328408 8.59187091,16.8214693 C8.62033564,16.8083163 8.64939277,16.7962618 8.67658384,16.7808523 C8.7044858,16.7666602 8.73117333,16.7505975 8.75771277,16.7342973 C8.77116021,16.7265183 8.78386715,16.717136 8.79695915,16.7085851 C8.80981419,16.6998263 8.82323201,16.691216 8.83540579,16.6820712 L8.87198638,16.6547261 L8.89070616,16.6406526 L8.90859658,16.6268168 C8.93244061,16.6082897 8.95634387,16.5898815 8.9806322,16.572067 C8.9926875,16.562952 9.00486128,16.5540744 9.01718316,16.5454344 C9.02947543,16.5367944 9.04156035,16.5276497 9.05411919,16.5194253 C9.07891105,16.5022938 9.10408797,16.4858451 9.12964995,16.4699606 C9.15536003,16.4544323 9.18157365,16.4397057 9.20864625,16.4266715 C9.21542921,16.4234945 9.22236026,16.4206442 9.22923208,16.4175861 C9.23619276,16.4147655 9.2432423,16.4122714 9.25029184,16.409629 C9.26450939,16.405116 9.27914163,16.4005139 9.29439588,16.4011374" id="Fill-102" fill="#181919"></path>
            <path d="M10.2741039,16.0023907 C10.284856,15.9915239 10.2987181,15.9849029 10.3121655,15.9784897 C10.3191262,15.9756394 10.325998,15.9726406 10.3329883,15.9699684 C10.3400971,15.9674744 10.347117,15.9648616 10.3542258,15.9625457 C10.3829275,15.9536088 10.4121327,15.946483 10.4415157,15.9402777 C10.4710171,15.9344583 10.500637,15.9293218 10.530405,15.9249276 C10.5451853,15.9224039 10.5602619,15.9208599 10.5751311,15.9187519 C10.5900299,15.9166735 10.6049583,15.9148921 10.6199756,15.9133185 C10.6498621,15.9097853 10.6790377,15.8985919 10.7090723,15.89589 L10.7306948,15.8854389 L10.7539761,15.8830042 L10.8002127,15.886389 C10.8153189,15.884756 10.8314321,15.8860624 10.8468049,15.8837168 C10.8621776,15.8810446 10.8780835,15.8812822 10.8932193,15.8778084 C10.9236981,15.8716327 10.9542955,15.8661993 10.9843597,15.8575296 C11.0147201,15.8502257 11.0442512,15.8397448 11.0740192,15.8299469 C11.1031948,15.8182784 11.1327555,15.8076194 11.1608351,15.7931897 C11.1895961,15.7802149 11.2168168,15.7641522 11.2440374,15.7482379 L11.2836393,15.7222585 C11.2968201,15.7135888 11.3089347,15.7033455 11.3215824,15.6939633 C11.3343485,15.6846701 11.3461965,15.6742783 11.3580445,15.6638865 C11.3699221,15.6534948 11.3818885,15.6432515 11.392759,15.6319096 C11.4038072,15.6206865 11.4152998,15.6099682 11.4258741,15.5983888 L11.4569453,15.5631458 C11.4766426,15.5388885 11.4961917,15.5145421 11.5136082,15.4888002 C11.5317949,15.4635631 11.5726111,15.4375243 11.5888724,15.411248 L11.6146714,15.4102682 L11.6146714,15.4101198 L11.592486,15.4048051 L11.583837,15.3989263 C11.5865917,15.3952447 11.5831854,15.3912958 11.5864732,15.3878517 C11.5896129,15.3842591 11.5898795,15.3807259 11.5934339,15.3774006 C11.5967809,15.3738674 11.5992394,15.3709577 11.6029419,15.3677214 C11.6066444,15.3644554 11.6101395,15.3618426 11.6141382,15.3588735 C11.6180776,15.3558154 11.6222244,15.3535886 11.6264897,15.3508867 C11.6307253,15.3481552 11.6351091,15.3459877 11.6396706,15.3437609 C11.6442024,15.3415044 11.6486454,15.3390995 11.6534438,15.3373774 L11.667691,15.3315284 L11.6824417,15.3267185 C11.6873586,15.3250261 11.6923348,15.3235415 11.697459,15.3224727 L11.7127725,15.3188207 C11.7178671,15.317544 11.7229321,15.3152578 11.7281156,15.3142186 L11.7436068,15.3097353 L11.7754778,15.30641 L11.7435476,15.3050739 L11.7274343,15.305638 C11.7220435,15.3056083 11.7166231,15.3056677 11.7112026,15.3061131 L11.6949413,15.3074789 C11.6894616,15.3077164 11.6840412,15.308518 11.6786207,15.3094087 L11.6622705,15.3119622 L11.6460685,15.3158219 C11.6406184,15.3169799 11.6353757,15.3189098 11.6300441,15.3206912 C11.6247421,15.3224727 11.6193513,15.324165 11.6142271,15.32657 C11.6091028,15.3288859 11.6036824,15.3307564 11.5987062,15.3335473 C11.5937301,15.3363086 11.5884874,15.3386541 11.5836297,15.3418014 C11.5788313,15.3449486 11.5737366,15.3477395 11.5691456,15.3513618 C11.5644064,15.3547465 11.5596968,15.3582797 11.5553427,15.3623177 C11.5508405,15.3661181 11.5466937,15.3704529 11.5425469,15.3749065 L11.5365044,15.3819729 C11.5344606,15.3846154 11.5328315,15.3866344 11.5304323,15.3906129 L11.5314394,15.3889206 C11.5126604,15.412495 11.4950069,15.4367524 11.4752208,15.4591986 C11.4565307,15.4825355 11.4356783,15.5038831 11.415596,15.5257058 L11.3839915,15.5569108 C11.3734172,15.5672135 11.3621024,15.5767145 11.3512023,15.5866312 C11.3404799,15.5967558 11.3286911,15.6056036 11.3172282,15.6147781 C11.3058246,15.6240416 11.2944505,15.6333348 11.2822471,15.64147 C11.2701326,15.6497537 11.2585512,15.6587204 11.2460812,15.6664696 L11.208849,15.6897472 C11.1831093,15.7037315 11.1578139,15.7184878 11.1309783,15.7304235 C11.1047943,15.7436062 11.0770404,15.7535823 11.0499382,15.7648945 C11.021977,15.7743361 10.9944009,15.7846685 10.965788,15.7924475 C10.9515112,15.7963963 10.9375603,15.8012953 10.9230169,15.8044722 L10.8797422,15.8150718 C10.8653469,15.8190207 10.8508332,15.8212178 10.836349,15.8243056 C10.8217464,15.8270669 10.8076473,15.8304813 10.7926301,15.8329753 L10.7029114,15.847791 L10.6574744,15.8552137 L10.6121856,15.8640615 L10.5895856,15.8685152 L10.5670745,15.8737704 C10.5520868,15.8774521 10.5370399,15.8804211 10.5221707,15.8846372 C10.5073015,15.8887939 10.492373,15.892624 10.4775927,15.897048 C10.462842,15.9017391 10.4481209,15.9062224 10.4335479,15.9113886 C10.4044019,15.9217803 10.3754633,15.9328253 10.3478575,15.9470769 C10.3341139,15.9542917 10.3204887,15.9617738 10.3077225,15.9706513 C10.2953118,15.9798258 10.282279,15.9891783 10.2741039,16.0023907" id="Fill-103" fill="#181919"></path>
            <path d="M7.04349023,16.9741094 C7.04349023,16.9741094 7.03821789,16.9701308 7.02793978,16.9632129 C7.01760243,16.9564137 7.00246666,16.9462595 6.98238436,16.9346801 C6.96233168,16.923071 6.93771754,16.9092351 6.90800877,16.895904 C6.87835925,16.8825431 6.84400015,16.8685291 6.80336164,16.8601563 C6.78301276,16.8562074 6.76097555,16.8534165 6.73692419,16.8555839 C6.72492812,16.8564747 6.71242852,16.8595328 6.69998816,16.8643724 C6.69388646,16.867104 6.68766628,16.8703106 6.68180154,16.8740516 C6.67635148,16.8784755 6.67001282,16.8821869 6.66548097,16.8878281 C6.64516171,16.9089382 6.58017564,16.9373819 6.57700631,16.963777 L6.52004722,16.9738719 L6.52004722,16.9744954 C6.52004722,16.9754455 6.52004722,16.9732484 6.52004722,16.9768113 L6.52004722,16.9937053 C6.52004722,16.9967041 6.57558455,16.9996137 6.57617695,17.0033845 C6.57709516,17.0105102 6.60582648,17.0176657 6.60674469,17.0248509 C6.60781101,17.0319767 6.62353918,17.0379742 6.62496094,17.0446546 C6.62765635,17.0579561 6.63923773,17.0702183 6.64326604,17.083015 C6.64791636,17.0953961 6.65626918,17.1077474 6.66154152,17.1199503 C6.67238241,17.1440889 6.68603719,17.1679306 6.69936614,17.1909706 C6.725639,17.2373178 6.75665105,17.2817352 6.78822587,17.3248165 C6.82009689,17.3676899 6.85377472,17.4092866 6.88813382,17.4487753 C6.92225595,17.4884125 6.95741478,17.5261494 6.99201083,17.5618674 C7.02651802,17.5976447 7.06141028,17.6307796 7.09467343,17.6618361 C7.12775887,17.6930708 7.16048887,17.7211582 7.19087889,17.7467219 C7.22112082,17.7724341 7.25000023,17.7947022 7.27573993,17.8141496 C7.30156849,17.833508 7.32470164,17.8496004 7.34410268,17.8622486 C7.363326,17.8751641 7.37917265,17.8842198 7.38989505,17.8903955 C7.40073594,17.8963633 7.40654144,17.8995402 7.40654144,17.8995402 C7.40654144,17.8995402 7.4014172,17.8953835 7.39179073,17.8876342 C7.38216426,17.8799146 7.368391,17.8681571 7.35115221,17.8529851 C7.33382457,17.8379319 7.31353493,17.8187517 7.29016482,17.7970181 C7.26709092,17.7748688 7.2413216,17.7497207 7.21356774,17.7219302 C7.18596199,17.6939615 7.15634208,17.6634394 7.1254189,17.6308093 C7.09461419,17.5980604 7.06268393,17.5629956 7.03007241,17.526476 C6.99752014,17.4898673 6.9645828,17.4515069 6.93176394,17.4121073 C6.89906356,17.3725592 6.86665938,17.3318235 6.83597316,17.2900189 C6.80507959,17.2483925 6.77587437,17.2056675 6.74995695,17.1624675 C6.72445421,17.1192378 6.70126182,17.0751173 6.68876222,17.0315016 C6.68737008,17.0261573 6.68535593,17.020427 6.68443771,17.0154983 C6.68351949,17.0105696 6.68257166,17.0057003 6.68165344,17.0008311 C6.6810018,16.9986339 6.68094256,16.995457 6.68079446,16.9924286 L6.68029092,16.9834026 L6.67984662,16.9762768 L6.68035016,16.9685869 C6.68147572,16.9480112 6.68692578,16.9298108 6.69738161,16.9173407 C6.707482,16.9043955 6.72403953,16.8975073 6.74213729,16.8941819 C6.76029429,16.8908269 6.77963609,16.8912722 6.79817816,16.8931724 C6.83541038,16.8977448 6.86991757,16.9071271 6.9000114,16.9166578 C6.93004599,16.9265151 6.95608188,16.9363725 6.97728974,16.9450718 C7.01973507,16.9624706 7.04349023,16.9741094 7.04349023,16.9741094" id="Fill-104" fill="#CF7370"></path>
            <path d="M12.3710749,14.8741424 C12.3710749,14.8741424 12.3805533,14.84941 12.3998062,14.8076649 C12.4094623,14.786822 12.4218138,14.761852 12.4370977,14.7341209 C12.4526482,14.7065679 12.471516,14.6761646 12.4956859,14.6473942 C12.5079485,14.6333208 12.5218403,14.6198115 12.5373907,14.6098651 C12.5529116,14.5999781 12.569706,14.5936837 12.5858785,14.5962668 C12.602051,14.598256 12.6184012,14.6078462 12.6331815,14.6221571 L12.6387797,14.627442 L12.6433115,14.6329645 L12.6490874,14.6399122 L12.6541524,14.646652 C12.6567886,14.6508384 12.6594247,14.6550544 12.6620609,14.6593002 C12.6647563,14.663546 12.6671852,14.6691278 12.6697917,14.6739674 C12.6902887,14.7144062 12.7032622,14.7625646 12.713955,14.8116434 C12.7243516,14.8609597 12.7320231,14.9121763 12.7376805,14.9637491 C12.7436045,15.0153219 12.747544,15.067251 12.750506,15.118527 C12.7532606,15.1698029 12.7551859,15.2203662 12.7562522,15.2693856 C12.7571704,15.318405 12.7576147,15.3658509 12.7573185,15.4108917 C12.7568446,15.4559029 12.7558968,15.4984497 12.754712,15.53779 C12.7532606,15.5770708 12.7514834,15.6130857 12.749647,15.6450626 C12.747307,15.6769208 12.7454706,15.7048301 12.7430121,15.7276623 C12.7407018,15.7505538 12.7385988,15.7685464 12.7367919,15.780779 C12.7350444,15.7930413 12.7340965,15.7995732 12.7340965,15.7995732 C12.7340965,15.7995732 12.7361699,15.7933085 12.7400797,15.7815213 C12.743723,15.7696747 12.7491731,15.7522165 12.754475,15.7296515 C12.7600732,15.707146 12.7660564,15.6795929 12.7718323,15.6477645 C12.7774601,15.6159657 12.7834433,15.5799508 12.7881232,15.5404621 C12.7930105,15.5010031 12.7978386,15.4581594 12.8008302,15.4127028 C12.8040884,15.3672463 12.8070504,15.3192067 12.8079982,15.269445 C12.8090349,15.219713 12.8090053,15.1682293 12.8070504,15.1158845 C12.805362,15.0635397 12.8014522,15.0103636 12.7956467,14.9572171 C12.7894858,14.9041301 12.7813699,14.8510133 12.7691073,14.7991436 C12.7632129,14.7731939 12.7557487,14.7476005 12.7472774,14.7225118 C12.742864,14.7099823 12.738036,14.6976013 12.7330302,14.6853687 C12.7272543,14.6732252 12.7223374,14.6611113 12.7152583,14.649532 C12.7117927,14.6436829 12.7090381,14.6380119 12.7049505,14.6320738 C12.7007445,14.626195 12.6965681,14.6203163 12.6923917,14.6144672 C12.6902591,14.61132 12.6882153,14.6092713 12.6862011,14.6070445 L12.6800698,14.6004235 L12.677019,14.5971278 L12.6754787,14.5954948 L12.6747086,14.5946635 L12.6730795,14.5930305 L12.672576,14.5926445 L12.6648156,14.5861125 C12.6445555,14.5689513 12.6184308,14.5544622 12.5891959,14.5528886 C12.5820575,14.5518494 12.5748895,14.5534527 12.5678992,14.5539278 C12.561057,14.5552045 12.5543333,14.5571047 12.5479946,14.5592424 C12.5356135,14.5642305 12.5243876,14.5704952 12.5149684,14.5780366 C12.4958932,14.592882 12.4816757,14.6099839 12.4694427,14.6267592 C12.4453913,14.6606363 12.4297816,14.6943353 12.4171043,14.7243823 C12.4044566,14.7543997 12.3958076,14.7813589 12.3890246,14.8035675 C12.3821824,14.8257465 12.378006,14.8435016 12.3750736,14.855556 C12.3722301,14.8676402 12.3710749,14.8741424 12.3710749,14.8741424" id="Fill-105" fill="#CF7370"></path>
            <path d="M12.028343,14.3813355 C12.028343,14.3813355 12.0275729,14.3880753 12.026862,14.4007829 C12.0262696,14.4134609 12.0251737,14.4321066 12.0251144,14.4558295 C12.024759,14.5032754 12.0271286,14.5711484 12.0374363,14.6522338 C12.0480698,14.7332005 12.0664638,14.8275577 12.1004082,14.9259231 C12.1048808,14.9381557 12.1093831,14.950507 12.1139149,14.9629178 C12.1190095,14.9752097 12.1241041,14.9875611 12.129258,15.0000312 C12.1346488,15.0123825 12.1405136,15.0247042 12.1462006,15.0371743 C12.1521246,15.0495554 12.1589075,15.0616692 12.1652758,15.0740205 C12.1918153,15.1230399 12.2244268,15.170753 12.2640582,15.2139827 C12.2743956,15.2244338 12.284881,15.2347959 12.2955442,15.2449501 C12.3069478,15.2544809 12.3179072,15.2644273 12.3297552,15.2733939 C12.342077,15.2818854 12.3536584,15.2912677 12.3667208,15.2986013 L12.3861811,15.3097057 L12.3948005,15.3145749 L12.4034791,15.3192661 C12.4149124,15.3254714 12.4272639,15.3317659 12.4364165,15.3376743 L12.4513745,15.3464034 L12.4662141,15.356142 C12.4861483,15.3689981 12.5040979,15.3835762 12.5215144,15.398095 C12.5552811,15.4281123 12.5835682,15.4613957 12.6039763,15.4972918 C12.6143432,15.5151359 12.6230811,15.5334254 12.6298937,15.5519821 C12.6370025,15.5704201 12.6423933,15.5890065 12.646392,15.6073257 C12.6548633,15.6439047 12.6575883,15.6793257 12.6588323,15.7110354 C12.6597506,15.7428045 12.6586842,15.7710404 12.6576475,15.7944367 C12.656522,15.8180112 12.6556334,15.8365085 12.655041,15.8491568 C12.6545078,15.8618347 12.6545967,15.8686339 12.6545967,15.8686339 C12.6545967,15.8686339 12.6568182,15.8622504 12.660965,15.8502553 C12.664934,15.8382603 12.67148,15.8208615 12.6784407,15.7981184 C12.6854903,15.775405 12.6932211,15.7473769 12.6993228,15.7141233 C12.7050098,15.6808696 12.7093343,15.6422123 12.7067277,15.5991904 C12.7043878,15.556317 12.6949686,15.5089305 12.6748567,15.4621676 C12.6550706,15.4152563 12.624177,15.3700372 12.5858193,15.3305189 C12.5664775,15.3109824 12.5455954,15.292396 12.5231139,15.2758879 C12.5016395,15.2590532 12.4747742,15.242367 12.4532702,15.2301345 L12.4447396,15.2251761 L12.4363276,15.2199802 L12.4216361,15.2109245 C12.4166007,15.2081336 12.4120985,15.2043629 12.4073889,15.2009485 L12.3932306,15.1906458 C12.3839892,15.1834606 12.3753106,15.175266 12.3662173,15.1676948 L12.340833,15.1421608 C12.3077476,15.1068882 12.2791644,15.066004 12.2536616,15.0235463 C12.2283958,14.980851 12.206329,14.9363742 12.186928,14.892046 C12.1483629,14.8031519 12.1196315,14.7155939 12.0967354,14.6396449 C12.0741354,14.5635476 12.0573705,14.4988514 12.0459372,14.4533355 C12.0403094,14.430444 12.0358664,14.4124811 12.0328452,14.4002485 C12.0298832,14.3879268 12.028343,14.3813355 12.028343,14.3813355" id="Fill-106" fill="#1C1C1D"></path>
            <path d="M12.3480603,14.5438032 C12.3480603,14.5438032 12.2965512,14.8280921 12.4038938,15.0057912 C12.5112067,15.1834606 12.6200303,15.3354178 12.6528787,15.4418888 C12.6528787,15.4418888 12.5492979,15.3444438 12.3839892,15.2587563 C12.2186805,15.1730689 12.0795262,14.8388698 12.0746093,14.6802025 C12.0696924,14.5215352 12.3480603,14.5438032 12.3480603,14.5438032" id="Fill-107" fill="#1C1C1D"></path>
            <path d="M11.7982555,14.1765881 C11.7982555,14.1765881 11.935455,14.4989999 11.9747013,14.6469786 C12.0139181,14.7949275 12.1190688,15.1588767 12.3897651,15.2894566 C12.6604614,15.4200662 12.5507789,15.2495819 12.5507789,15.2495819 C12.5507789,15.2495819 12.4067373,15.1001187 12.3555541,14.4785727 C12.3044005,13.8570266 12.0228337,14.1942838 12.0228337,14.1942838 L11.7982555,14.1765881" id="Fill-108" fill="#1C1C1D"></path>
            <path d="M6.99020402,16.6442155 L6.99112224,16.6487285 C6.9974609,16.6648209 7.03952116,16.7719748 7.09683569,16.9342347 C7.12692951,17.0194175 7.18214102,17.144564 7.23122121,17.2512131 C7.23901124,17.2681368 7.2155819,17.2815867 7.20491873,17.2663257 C7.15965951,17.2014811 7.10865403,17.13438 7.06398721,17.0902596 C6.95137232,16.9790084 6.70413495,16.8410355 6.60751481,16.6762815 C6.51130935,16.5122105 6.98297676,16.4632208 6.99020402,16.6442155" id="Fill-109" fill="#28292B"></path>
            <path d="M6.9770824,16.4499193 C6.9770824,16.4499193 7.00214084,16.6761628 7.06626794,16.8488441 C7.13042466,17.0215255 6.93386695,16.8224788 6.93386695,16.8224788 L6.86852544,16.68795 L6.86482295,16.5825479 L6.9770824,16.4499193" id="Fill-110" fill="#28292B"></path>
            <path d="M5.15412518,68.2481838 C5.15667249,67.3120347 5.128267,66.005345 5.02631528,64.247356 C4.77173217,59.8578764 5.99373108,57.9695451 6.5028973,56.8977092 C7.01209313,55.8258734 7.01209313,53.0696816 6.7065934,49.905539 C6.40109367,46.7410994 6.52478641,43.9584829 6.91366618,40.3219605 C7.09787238,38.5996005 7.48944756,37.1613808 7.88970138,35.9814706 C14.048243,38.1984785 18.8105317,36.3745761 19.5803531,36.0458996 C20.3401038,39.3139598 20.8931075,40.8118578 20.9944075,43.653262 C21.1090366,46.8684727 19.4230714,52.9167742 19.4612811,55.0221449 C19.4994908,57.1275156 20.4923501,59.3857936 20.1105495,63.3287244 C19.9337186,65.155299 19.7403006,66.8420302 19.5836113,68.1267487 C17.7842019,68.6816687 17.0605876,67.9168351 17.0605876,67.9168351 C17.0277095,67.6537751 16.9886112,67.3319275 16.9409232,66.9269457 C16.7116651,64.9747793 16.0626929,62.8694086 16.0626929,61.1467516 C16.0626929,59.4240946 16.2152354,58.3905598 15.9098542,57.4719282 C15.6044729,56.5532966 15.2987955,55.2516544 15.2223761,54.3330227 C15.1459568,53.4143911 14.3823555,49.2419508 14.0768558,47.2514833 C13.7713561,45.2607189 13.9241059,44.3420873 13.9241059,44.3420873 C13.6949663,44.5335926 13.6313132,44.3420873 13.6313132,44.3420873 C13.6822298,46.0264432 12.3583976,49.2419508 12.0019516,51.1872884 C11.6455353,53.1326259 10.8308694,56.0812138 10.2707865,57.357025 C9.71070368,58.6331332 9.30337071,61.8486408 8.48867515,63.9920156 C8.04603525,65.1567835 7.66355338,66.9391189 7.40651182,68.324489 C6.13469222,68.9191946 5.36762547,68.4227654 5.15412518,68.2481838" id="Fill-111" fill="#4D7066"></path>
            <path d="M5.7900646,2.23503015 C5.7900646,2.23503015 5.0772319,1.92879982 4.05889947,2.15848741 C3.04053742,2.38817501 1.79306539,2.60010754 1.81853851,2.07306714 C1.84401163,1.54602674 2.37785123,0.805955252 1.81815345,0.270037319 C1.81815345,0.270037319 1.51303878,0.90803203 1.30937229,1.23979641 C1.10570581,1.57153109 0.112816881,2.7199097 0.0364271391,3.84278395 C-0.039932983,4.96562852 -0.0144894823,7.00719378 0.291010246,9.43153212 C0.596539594,11.8558705 0.876566202,13.0771695 1.41120554,15.0057021 C1.94584487,16.9342644 3.37151027,20.2262554 4.31348258,21.8850179 C5.25545488,23.5438101 6.53290226,24.519923 6.68200888,25.3364481 C6.83114511,26.1532405 6.91023027,26.7209275 7.35577292,26.9251998 C7.80134519,27.1291753 7.96001904,22.0636671 7.96001904,22.0636671 L8.57780145,20.3793705 C8.57780145,20.3793705 6.99935657,19.0268384 6.51563386,18.4654161 C6.03194076,17.9039938 4.94995515,15.3723531 4.46623244,14.4179738 C3.98250973,13.4635946 3.72792662,12.5704376 3.49881663,11.4986017 C3.26967703,10.4267956 2.2767881,8.58938385 2.12403824,7.41550089 C1.97128837,6.24158825 1.71670527,4.58282575 1.84401163,4.17451864 C1.97128837,3.76621152 2.65867757,3.35790441 3.34606677,3.23029359 C4.03342635,3.10271246 4.97539865,2.49025179 5.3063715,2.4392134 C5.63731473,2.38817501 5.96828758,2.41367936 5.7900646,2.23503015" id="Fill-112" fill="#EFAA9E"></path>
            <path d="M5.94847186,24.1517874 C5.94847186,24.1517874 5.96070488,24.1616151 5.982594,24.1803796 C6.00460159,24.1992035 6.03558401,24.2282114 6.07388255,24.2655624 C6.09269119,24.2847129 6.11407677,24.304962 6.135255,24.3292787 C6.15678867,24.3532094 6.18086966,24.3778824 6.20415091,24.4066825 C6.21602849,24.4207262 6.22829113,24.4352153 6.24090921,24.4501497 C6.25266832,24.465767 6.26478286,24.4818 6.27722322,24.4982487 C6.30281482,24.5304038 6.32707352,24.5661811 6.35222083,24.6032946 C6.37873064,24.6393688 6.40070861,24.6808171 6.42609288,24.7214637 C6.45085512,24.7625557 6.47182601,24.8076857 6.49584776,24.8522218 C6.51664093,24.8985393 6.53761183,24.9461336 6.5581088,24.9948858 C6.57416279,25.0455679 6.59507445,25.095389 6.60982516,25.1482385 C6.6167266,25.174782 6.62365766,25.2015334 6.63064796,25.2284926 C6.63787522,25.2553924 6.64596145,25.2821141 6.64966394,25.3103203 C6.65449198,25.3379327 6.65932003,25.365842 6.66417769,25.3940482 L6.67190849,25.4359121 C6.6741596,25.4501637 6.67469276,25.4647121 6.67620338,25.4789637 C6.68162382,25.5380483 6.6871035,25.5977267 6.69258319,25.657702 L6.7012322,25.7497433 C6.70425343,25.7803247 6.7061491,25.8106093 6.7123989,25.8432691 C6.72409877,25.9071042 6.73339942,25.9727208 6.74776507,26.0347744 C6.76272313,26.0962343 6.77720726,26.157991 6.79441643,26.2179663 C6.81289925,26.2773478 6.83081929,26.3367293 6.85072387,26.3943293 C6.87210945,26.4513356 6.89284338,26.507748 6.91455477,26.5626759 C6.93819146,26.616713 6.96141347,26.6698594 6.98416156,26.7221152 C7.00910152,26.7728863 7.03353794,26.8224699 7.05729311,26.8708658 C7.08214421,26.9186679 7.10764695,26.9643916 7.13199452,27.0086308 C7.15657904,27.05287 7.18237798,27.0944371 7.2063701,27.1345196 C7.25539105,27.2143877 7.30325682,27.2856455 7.34733125,27.3474022 C7.39033935,27.4100497 7.43124444,27.4620085 7.46501114,27.5047632 C7.4982743,27.5478148 7.52703523,27.5798808 7.54590311,27.6018519 C7.56515605,27.6238231 7.57596731,27.6351055 7.57596731,27.6351055 C7.57596731,27.6351055 7.5478284,27.5795838 7.50070313,27.4821982 C7.48864783,27.4581487 7.47588165,27.4311301 7.46225649,27.4014394 C7.44845361,27.3723425 7.43349556,27.3405734 7.41753043,27.306429 C7.38580751,27.2387341 7.35198157,27.1615382 7.31537137,27.0775134 C7.27873154,26.9934886 7.24126236,26.9017442 7.2027861,26.8046554 C7.18433289,26.7559626 7.16537615,26.7057852 7.14600473,26.6547172 C7.12864747,26.6027584 7.10957225,26.5505027 7.09094132,26.4970593 C7.07402836,26.4430222 7.05684881,26.3883912 7.03946192,26.3328695 C7.02414843,26.2770509 7.00865722,26.2206385 6.99301791,26.1636323 C6.9782672,26.106626 6.96760403,26.0484322 6.95344571,25.9905352 C6.94059067,25.9329352 6.93371885,25.8759289 6.92311493,25.8186258 C6.91710209,25.7910134 6.91470287,25.7595412 6.91138544,25.7289598 L6.90181821,25.6372154 C6.89835268,25.6069308 6.89491677,25.5769431 6.89151049,25.5469555 C6.88763028,25.5148895 6.88375007,25.4831204 6.87989948,25.4513513 C6.86156476,25.3251656 6.828894,25.2028101 6.78775195,25.0885007 C6.77916218,25.0593444 6.76464842,25.0325337 6.75354096,25.0049213 C6.74148565,24.9776949 6.72954883,24.9507357 6.71776011,24.9240437 C6.69021359,24.8726193 6.6634372,24.8222638 6.6350317,24.7749071 C6.61965897,24.7519264 6.60449358,24.7292724 6.58956515,24.7069747 C6.57445899,24.684855 6.56068574,24.6623792 6.54377277,24.6425754 C6.51077619,24.6025523 6.48225222,24.5616385 6.44845591,24.5274941 C6.41584439,24.4924887 6.38557284,24.4584037 6.35287246,24.4296928 C6.33696657,24.4150256 6.32150498,24.4006849 6.30645807,24.3867897 C6.29070028,24.3737257 6.27538678,24.3610181 6.26057683,24.3486964 C6.20204789,24.2989051 6.14591817,24.2620292 6.09985921,24.2324869 C6.05382987,24.2027961 6.0151759,24.1835565 5.98925848,24.1702254 C5.96289676,24.1573693 5.94847186,24.1517874 5.94847186,24.1517874" id="Fill-113" fill="#DF897F"></path>
            <path d="M7.21679631,27.3061321 C8.1335917,26.4029397 8.15773192,23.5752526 8.15773192,22.4081688 C8.15773192,21.2407881 8.56023685,20.5509534 8.64317259,20.4212048 C8.65268058,20.4063 8.65801216,20.3987883 8.65801216,20.3987883 C8.83685717,20.4391083 8.97692971,20.4500345 9.08649375,20.4397615 C9.07923687,20.8070063 9.00734935,22.1835583 9.0896927,22.9568537 C9.19152594,23.9133114 9.86345355,24.4280004 11.8492018,24.1517874 C13.8349796,23.8755447 14.598729,23.2120457 14.2423126,22.3954315 C13.9454323,21.7152165 13.5045992,20.0988821 13.6567863,19.615398 C13.6872948,19.518428 13.862615,19.536094 13.8696942,19.615398 C13.8696942,19.615398 15.311532,24.3859286 18.7740993,24.7942654 C18.7740993,24.7942654 18.8194177,24.9038837 18.8842853,25.1067011 C18.9571503,25.9243249 18.9897322,26.8625524 18.9266418,27.7672294 C18.8374859,29.0498695 18.5395096,29.9141671 18.8457794,32.2609235 C17.9198611,32.3654349 12.2993651,32.968157 9.06863294,32.6109774 C9.30150466,31.4503662 9.04532208,30.546283 8.38684191,29.6430906 C7.88593965,28.9557498 7.44309241,27.8963841 7.21679631,27.3061321" id="Fill-114" fill="#DC3965"></path>
            <path d="M17.8514391,27.3655136 C17.8514391,27.3655136 17.8410722,27.409159 17.821523,27.4908085 C17.8055283,27.5736457 17.7655414,27.6900334 17.7145952,27.8328459 C17.6562439,27.9744707 17.580417,28.1440049 17.4607525,28.3153205 C17.3416805,28.4863392 17.184695,28.6609208 16.9865378,28.8144219 C16.787492,28.9667354 16.5452012,29.0926242 16.2750676,29.1784304 C16.0031569,29.2636429 15.705773,29.2995687 15.3923944,29.2939274 C15.0890865,29.285614 14.7568696,29.21495 14.4069697,29.1644758 C14.0616608,29.1119232 13.664369,29.070653 13.2897364,29.131519 C12.88033,29.2060428 12.5439367,29.3642945 12.223864,29.5320472 C11.9060128,29.6968308 11.620151,29.8803196 11.3315643,30.0076929 C11.0435403,30.1407074 10.7642542,30.2173096 10.4728831,30.2475941 C10.1918495,30.2775818 9.91588078,30.260658 9.67039099,30.2089962 C9.17633093,30.103594 8.80125404,29.8651773 8.57510604,29.6620926 C8.46012156,29.561441 8.37443117,29.4738533 8.32099685,29.410612 C8.26637774,29.3470738 8.23729099,29.3135233 8.23729099,29.3135233 C8.23729099,29.3135233 8.25900239,29.3524182 8.29975938,29.4257543 C8.34090143,29.4990905 8.40428803,29.6068679 8.50618052,29.7288968 C8.70030939,29.9762207 9.05924343,30.299256 9.59743716,30.4768067 C9.8647272,30.565582 10.1692495,30.6193222 10.4974381,30.607149 C10.8149931,30.6015078 11.173157,30.5364851 11.4953624,30.3993138 C11.8221292,30.2689715 12.1321904,30.1030002 12.4359129,29.94653 C12.7352517,29.7915443 13.0575163,29.6603112 13.3498944,29.6101338 C13.6786161,29.5513462 13.9976522,29.58074 14.3420132,29.625573 C14.6832938,29.6721875 15.0313277,29.7214741 15.394764,29.7179112 C15.7463523,29.71227 16.092609,29.638637 16.3950283,29.516608 C16.6998171,29.3963605 16.9613609,29.2202944 17.1654421,29.0234447 C17.372189,28.8280796 17.5173266,28.6098527 17.6189228,28.4079556 C17.7237773,28.2066524 17.7705768,28.0139594 17.8061207,27.8595676 C17.8360368,27.7016128 17.8466999,27.5775055 17.8472923,27.4940745 C17.8499581,27.4103466 17.8514391,27.3655136 17.8514391,27.3655136" id="Fill-115" fill="#CA295A"></path>
            <path d="M18.714267,30.6510913 C18.7249302,31.1050628 18.7634361,31.6288075 18.8457794,32.2609235 C17.9198611,32.3654349 12.2993651,32.968157 9.06863294,32.6109774 C9.18003342,32.0557604 9.17831546,31.5596281 9.07538628,31.0937803 C13.472817,31.7793396 17.8064169,30.8627863 18.714267,30.6510913" id="Fill-116" fill="#CA295A"></path>
            <path d="M14.2423126,38.7789326 C11.2940655,38.905712 8.34593681,37.914635 7.41498311,37.5684409 C7.56266797,36.9951127 7.72531089,36.4660236 7.88970138,35.9814706 C14.048243,38.1984785 18.8105317,36.3745761 19.5803531,36.0458996 C19.7174933,36.6349639 19.8475247,37.1661313 19.9695587,37.6584039 C19.4438054,37.8692082 17.3176884,38.6468088 14.2423126,38.7789326" id="Fill-117" fill="#395B52"></path>
            <path d="M15.916963,42.3355868 C15.916963,42.3355868 15.8343234,42.386358 15.6957022,42.4843374 C15.5591545,42.5843953 15.3612935,42.7260201 15.1429948,42.9204945 C15.0336973,43.018177 14.9166987,43.1220946 14.8016549,43.249171 C14.6867593,43.3783258 14.5833266,43.5238104 14.4771096,43.6675136 C14.3705668,43.8112168 14.2560562,43.95492 14.1250178,44.0724954 C14.0937984,44.1051552 14.0564773,44.125048 14.0227106,44.1523635 C13.9871963,44.1749284 13.9499049,44.1933367 13.9130577,44.2111511 L13.855684,44.2286687 L13.82716,44.2378728 L13.797777,44.2399511 L13.7392777,44.2455924 C13.719699,44.2455924 13.6999721,44.2399511 13.6803341,44.2381697 C13.660785,44.2343099 13.6407027,44.2360914 13.6212424,44.2286687 L13.5627727,44.2078851 C13.522845,44.1977903 13.4859386,44.1734439 13.4484398,44.1520665 L13.3947982,44.121782 L13.3370097,44.0793242 C13.3057311,44.0534933 13.2740378,44.0249902 13.242463,43.993518 C13.1199847,43.8670354 13.019514,43.7150188 12.9255892,43.5615176 C12.8780197,43.4852124 12.8326123,43.4077196 12.7829694,43.3337896 C12.7583256,43.2963793 12.7334745,43.2610473 12.7070832,43.2239339 C12.6813139,43.1897895 12.6558407,43.1559421 12.6306934,43.1223915 C12.5269941,42.9872986 12.4203032,42.8682388 12.3122794,42.7663995 C12.0984237,42.5606427 11.8800953,42.4365353 11.7229617,42.3709188 C11.6444097,42.3367744 11.5792756,42.3192569 11.5353789,42.3079744 C11.4912452,42.2972858 11.4676974,42.2913476 11.4676974,42.2913476 C11.4676974,42.2913476 11.4900604,42.3005517 11.5319133,42.3180693 C11.5736182,42.3352899 11.6330653,42.3646837 11.7059303,42.405657 C11.7783213,42.447224 11.8639821,42.5015581 11.9528715,42.5760818 C12.0419978,42.6497149 12.1356559,42.7405686 12.2307062,42.8459707 C12.3251641,42.9516698 12.418526,43.0754802 12.5104366,43.2087916 C12.6063162,43.3456659 12.6840093,43.4905568 12.7755348,43.6508868 C12.8664087,43.8085446 12.9627326,43.9792664 13.1051747,44.1271263 C13.1402743,44.163349 13.1790468,44.1992748 13.2216698,44.2346068 L13.279014,44.2779553 L13.3496871,44.3204131 C13.3952721,44.3474316 13.4394354,44.3762317 13.493314,44.3922647 L13.571007,44.420174 C13.5968356,44.4293781 13.6263962,44.4302688 13.6540909,44.4350193 C13.6823186,44.4376915 13.7103391,44.4436297 13.7386853,44.4430358 L13.8241684,44.4350193 L13.8667322,44.4302688 L13.9070745,44.4177987 L13.9871963,44.3916709 C14.036395,44.3679183 14.0855344,44.3423842 14.1296977,44.3132873 C14.1704547,44.2806275 14.2170764,44.2524213 14.2519095,44.2159016 C14.403593,44.0781366 14.5137494,43.9186973 14.6185743,43.7690559 C14.7235769,43.6188208 14.8139176,43.4715547 14.9128481,43.3462597 C15.0141482,43.2215586 15.1231494,43.1063585 15.2211913,43.0024409 C15.4208295,42.7951995 15.594106,42.6271499 15.7199906,42.5143251 C15.8452828,42.4006095 15.916963,42.3355868 15.916963,42.3355868" id="Fill-118" fill="#395B52"></path>
        </g>
    </g>
</svg>