<?xml version="1.0" encoding="UTF-8"?>
<svg width="141px" height="100px" viewBox="0 0 141 100" version="1.1" xmlns="http://www.w3.org/2000/svg" xmlns:xlink="http://www.w3.org/1999/xlink">
    <title>Group 241</title>
    <g id="Page-1" stroke="none" stroke-width="1" fill="none" fill-rule="evenodd">
        <g id="SE-44mm" transform="translate(-22.000000, -62.000000)">
            <g id="Group-241" transform="translate(22.000000, 62.000000)">
                <path d="M21,90.3490494 C21,90.3490494 23.4301246,92.8931964 25.579837,95.6491595 C27.7295493,98.4051227 28.1034093,100.101221 29.6922971,99.9953126 C31.281254,99.8894046 33.4309663,99.4649878 36.6089493,99.3590798 C39.7865864,99.2531717 49.1334325,99.6775885 56.2364268,98.7236314 C63.3401127,97.7688898 91.3799591,99.3590798 98.3895749,98.5110308 C105.399191,97.6629818 124.466397,97.7688898 128.111618,97.7688898 C131.75684,97.7688898 134,97.6629818 134,97.6629818 C134,97.6629818 130.728984,94.9070186 128.672581,93.1050125 C126.616178,91.3030065 122.877578,88.2285346 122.877578,88.2285346 C122.877578,88.2285346 118.111123,88.2285346 112.970461,88.4403507 C107.829799,88.6529514 95.1185592,88.7588594 89.6036918,88.5462588 C84.0895161,88.3344427 57.6384882,87.9108104 52.778654,88.0167185 C47.918128,88.1226265 30.0661571,89.2883997 27.7295493,89.6069084 C25.3928724,89.9246326 21.0935169,89.8187246 21,90.3490494" id="Fill-20" fill="#F7E5D9"></path>
                <path d="M131,85.9995067 C131,86.5520474 128.313852,87 125,87 C121.686148,87 119,86.5520474 119,85.9995067 C119,85.4479526 121.686148,85 125,85 C128.313852,85 131,85.4479526 131,85.9995067" id="Fill-21" fill="#F4E9D5"></path>
                <path d="M8.95270478,84.1387965 C8.56624726,83.9264881 8.19232239,83.6886752 7.83373802,83.4226004 C5.63942907,81.7951327 4.23234841,79.248811 3.59345736,76.5811702 C2.41888126,71.6773985 3.85390356,67.4994733 4.6312016,62.7321855 C5.34761701,58.3385053 4.56155296,53.9965236 3.94163209,49.648338 C3.05989533,43.463823 0.341954587,37.570198 0.0232966318,31.3139945 C-0.39534856,23.0932493 4.89377083,13.7275554 10.616602,8.09104413 C15.4835835,3.29687317 22.5600774,1.47226202 29.1757398,0.969063629 C39.9486113,0.149470635 50.8931047,1.76521999 61.7136413,2.39042675 C67.2403331,2.70957861 72.8053762,2.77919921 78.3115227,2.12366268 C82.7753364,1.59220246 87.1247813,0.414166774 91.6159888,0.109490489 C97.8165672,-0.312368984 104.095903,0.503777447 110.05747,2.23050617 C114.971227,3.65462655 120.304793,5.41030641 124.181695,8.91753026 C125.883533,10.4581445 127.23473,12.1421358 129.135172,13.5076646 C131.036984,14.8731934 133.079189,16.1608298 134.412581,18.1460509 C138.600402,24.3808857 135.644615,33.115169 136.458895,40.0772289 C136.981431,44.543287 139.837916,48.2628192 140.693286,52.5868788 C141.591117,57.1246254 140.292652,61.6072269 139.673553,66.0836246 C139.233883,69.2634249 139.42427,72.4735549 139.583839,75.6664521 C139.700947,77.9887471 140.377573,80.5667772 139.748886,82.9028585 C138.976382,85.7745359 135.886365,86.1122992 133.324364,85.9744366 C122.138805,85.3719772 110.935441,85.2389398 99.7361852,85.1479505 C89.6847285,85.0659223 79.6661443,84.6192475 69.6249602,84.7343628 C51.3033263,84.9439139 44.224093,85.5725672 32.7728834,85.5725672 C27.4847228,85.5725672 22.2135463,85.7504099 16.9300427,85.7793611 C14.1891597,85.794526 11.3310313,85.4471123 8.95270478,84.1387965" id="Fill-22" fill="#FCFAF7"></path>
                <path d="M67.4439642,20.4537815 C67.4439642,20.4537815 69.05539,20 72.4803324,20 C75.9046123,20 82.7538345,20.2268908 82.7538345,20.2268908 C82.7538345,20.2268908 82.9552627,20.4537815 82.9552627,22.2689076 C82.9552627,24.0840336 83.3581192,25.6722689 81.7460308,25.8991597 C80.134605,26.1260504 70.4653876,25.8991597 69.05539,25.8991597 C67.6453925,25.8991597 67.242536,25.8991597 67.0411078,24.3109244 C66.8396796,22.7226891 67.4439642,20.4537815 67.4439642,20.4537815" id="Fill-23" fill="#F4E9D5"></path>
                <path d="M85.443982,19.4537815 C85.443982,19.4537815 87.055472,19 90.4798884,19 C93.9043048,19 100.7538,19.2268908 100.7538,19.2268908 C100.7538,19.2268908 100.955236,19.4537815 100.955236,21.2689076 C100.955236,23.0840336 101.358109,24.6722689 99.7466188,24.8991597 C98.1351288,25.1260504 88.4655258,24.8991597 87.055472,24.8991597 C85.6454182,24.8991597 85.2425457,24.8991597 85.0411094,23.3109244 C84.8396732,21.7226891 85.443982,19.4537815 85.443982,19.4537815" id="Fill-24" fill="#F4E9D5"></path>
                <path d="M74.443982,25.4537815 C74.443982,25.4537815 76.055472,25 79.4798884,25 C82.9049674,25 89.7538001,25.2268908 89.7538001,25.2268908 C89.7538001,25.2268908 89.9552364,25.4537815 89.9552364,27.2689076 C89.9552364,29.0840336 90.3581089,30.6722689 88.7466188,30.8991597 C87.1351288,31.1260504 77.4655258,30.8991597 76.055472,30.8991597 C74.6454182,30.8991597 74.2425457,30.8991597 74.0411094,29.3109244 C73.8396732,27.7226891 74.443982,25.4537815 74.443982,25.4537815" id="Fill-25" fill="#F4E9D5"></path>
                <path d="M79.4439636,52.4537815 C79.4439636,52.4537815 81.0553869,52 84.480324,52 C87.9045986,52 94.7538103,52.2268908 94.7538103,52.2268908 C94.7538103,52.2268908 94.9552382,52.4537815 94.9552382,54.2689076 C94.9552382,56.0840336 95.3580941,57.6722689 93.7466707,57.8991597 C92.1345848,58.1260504 82.4660449,57.8991597 81.0553869,57.8991597 C79.6453915,57.8991597 79.2425357,57.8991597 79.0411077,56.3109244 C78.8396798,54.7226891 79.4439636,52.4537815 79.4439636,52.4537815" id="Fill-26" fill="#F4E9D5"></path>
                <path d="M97.443982,51.4537815 C97.443982,51.4537815 99.055472,51 102.479888,51 C105.904967,51 112.7538,51.2268908 112.7538,51.2268908 C112.7538,51.2268908 112.955236,51.4537815 112.955236,53.2689076 C112.955236,55.0840336 113.358109,56.6722689 111.746619,56.8991597 C110.135129,57.1260504 100.465526,56.8991597 99.055472,56.8991597 C97.6454182,56.8991597 97.2425457,56.8991597 97.0411094,55.3109244 C96.8396732,53.7226891 97.443982,51.4537815 97.443982,51.4537815" id="Fill-27" fill="#D4E1E8"></path>
                <path d="M85.443982,59.4537251 C85.443982,59.4537251 87.055472,59 90.4798884,59 C93.9043048,59 100.7538,59.2268625 100.7538,59.2268625 C100.7538,59.2268625 100.955236,59.4537251 100.955236,61.2693716 C100.955236,63.0842719 101.358109,64.6723097 99.7466188,64.8991722 C98.1351288,65.1260347 88.4655258,64.8991722 87.055472,64.8991722 C85.6454182,64.8991722 85.2425457,64.8991722 85.0411094,63.3111345 C84.8396732,61.7230967 85.443982,59.4537251 85.443982,59.4537251" id="Fill-28" fill="#F4E9D5"></path>
                <path d="M101.443978,70.4537251 C101.443978,70.4537251 103.055453,70 106.480501,70 C109.904885,70 116.753655,70.2268625 116.753655,70.2268625 C116.753655,70.2268625 116.955089,70.4537251 116.955089,72.2693716 C116.955089,74.0842719 117.358621,75.6723097 115.746483,75.8991722 C114.135008,76.1260347 104.465494,75.8991722 103.055453,75.8991722 C101.645412,75.8991722 101.242543,75.8991722 101.041109,74.3111345 C100.839675,72.7230967 101.443978,70.4537251 101.443978,70.4537251" id="Fill-29" fill="#F4E9D5"></path>
                <path d="M118.443982,70.4537251 C118.443982,70.4537251 120.055472,70 123.479888,70 C126.904305,70 133.7538,70.2268625 133.7538,70.2268625 C133.7538,70.2268625 133.955236,70.4537251 133.955236,72.2693716 C133.955236,74.0842719 134.358109,75.6723097 132.746619,75.8991722 C131.135129,76.1260347 121.465526,75.8991722 120.055472,75.8991722 C118.645418,75.8991722 118.242546,75.8991722 118.041109,74.3111345 C117.839673,72.7230967 118.443982,70.4537251 118.443982,70.4537251" id="Fill-30" fill="#F4E9D5"></path>
                <path d="M109.443982,75.4537815 C109.443982,75.4537815 111.055472,75 114.479888,75 C117.904967,75 124.7538,75.2268908 124.7538,75.2268908 C124.7538,75.2268908 124.955236,75.4537815 124.955236,77.2689076 C124.955236,79.0840336 125.358109,80.6722689 123.746619,80.8991597 C122.135129,81.1260504 112.465526,80.8991597 111.055472,80.8991597 C109.645418,80.8991597 109.242546,80.8991597 109.041109,79.3109244 C108.839673,77.7226891 109.443982,75.4537815 109.443982,75.4537815" id="Fill-31" fill="#F4E9D5"></path>
                <path d="M20.5560055,75.5462749 C20.5560055,75.5462749 18.9444792,76 15.5198616,76 C12.0953102,76 5.24620755,75.7731375 5.24620755,75.7731375 C5.24620755,75.7731375 5.04477505,75.5462749 5.04477505,73.7306284 C5.04477505,71.9157281 4.64184378,70.3276903 6.25343633,70.1008278 C7.86496262,69.8739653 17.5343191,70.1008278 18.9444792,70.1008278 C20.354573,70.1008278 20.757438,70.1008278 20.9588705,71.6888655 C21.1603692,73.2769033 20.5560055,75.5462749 20.5560055,75.5462749" id="Fill-32" fill="#F4E9D5"></path>
                <path d="M17.443995,75.4537815 C17.443995,75.4537815 19.055589,75 22.4801435,75 C25.904698,75 32.7538069,75.2268908 32.7538069,75.2268908 C32.7538069,75.2268908 32.9552396,75.4537815 32.9552396,77.2689076 C32.9552396,79.0840336 33.358105,80.6722689 31.7465772,80.8991597 C30.1350495,81.1260504 20.4656841,80.8991597 19.055589,80.8991597 C17.6454276,80.8991597 17.2425623,80.8991597 17.0411296,79.3109244 C16.8396306,77.7226891 17.443995,75.4537815 17.443995,75.4537815" id="Fill-33" fill="#F4E9D5"></path>
                <path d="M56.560336,72 L27.4394588,72 C23.8830764,72 21,69.0996023 21,65.5222616 L21,14.4777384 C21,10.8997098 23.8830764,8 27.4394588,8 L56.560336,8 C60.11665,8 63,10.8997098 63,14.4777384 L63,65.5222616 C63,69.0996023 60.11665,72 56.560336,72" id="Fill-34" fill="#FFFFFE"></path>
                <path d="M56.4646662,71.8616364 L56.4646662,71.7225879 L27.5348583,71.7225879 C25.8059401,71.7225879 24.2419169,71.0163857 23.1087815,69.8738588 C21.9757819,68.7320169 21.2754366,67.1552202 21.2753686,65.4119762 L21.2753686,14.5887087 C21.2754366,12.8454648 21.9757819,11.2686681 23.1087815,10.1261412 C24.2419169,8.98361428 25.8059401,8.27809707 27.5348583,8.27809707 L56.4646662,8.27809707 C58.1937882,8.27809707 59.7578113,8.98361428 60.8910826,10.1261412 C62.0236745,11.2686681 62.7241558,12.8454648 62.7241558,14.5887087 L62.7241558,65.4119762 C62.7241558,67.1552202 62.0236745,68.7320169 60.8910826,69.8738588 C59.7578113,71.0163857 58.1937882,71.7225879 56.4646662,71.7225879 L56.4646662,72 C60.0737413,72 62.9993206,69.0505271 63,65.4119762 L63,14.5887087 C62.9993206,10.9494729 60.0737413,8 56.4646662,8 L27.5348583,8 C23.9257152,8 21,10.9494729 21,14.5887087 L21,65.4119762 C21,69.0505271 23.9257152,72 27.5348583,72 L56.4646662,72 L56.4646662,71.8616364" id="Fill-35" fill="#BDBEC7"></path>
                <path d="M22,43 L22,36.6943154 C22.8745025,35.9629737 23.8406087,35.3137283 24.9031574,34.7431586 C27.9156613,33.1265445 31.3561418,32.3137905 34.6833106,31.528402 C36.2729669,31.1528112 37.9161875,30.7649059 39.4827916,30.2955884 C41.533289,29.6812339 45.1873545,28.1863961 46.6282809,25.0769964 C47.1827418,23.880442 47.5154184,22.6380504 47.8682571,21.3224563 C48.5819996,18.6618501 49.3905044,15.6468613 52.2649643,13.2455427 C54.7173618,11.1972386 57.9466767,10.0759391 61.3157829,10 C62.3400235,11.1062484 62.9758053,12.589456 63,14.2238577 C62.5497105,14.1745999 62.1000931,14.1506551 61.6545081,14.1506551 C59.1006275,14.1506551 56.666376,14.9504105 54.8571532,16.4616676 C52.9894599,18.0214985 52.4692748,19.9617091 51.8106424,22.4177585 C51.4275603,23.8476034 51.0310367,25.3260221 50.324015,26.8516461 C49.2117328,29.2522805 46.6282809,32.4909818 40.6367424,34.2861556 C38.9558857,34.7896799 37.2535227,35.1919521 35.6067401,35.5805415 C29.8852409,36.9317108 24.866395,38.1186873 22,43" id="Fill-36" fill="#F4F7F8"></path>
                <path d="M21,43 L21,36.6184243 C21.0459608,36.5803902 21.0921269,36.5423561 21.1385665,36.5043221 L21.1385665,42.7643245 C21.0919217,42.841751 21.0455505,42.9205359 21,43 M63,14.2122746 C62.9541759,14.2068412 62.9083519,14.2014078 62.8625278,14.1966535 C62.837906,12.5740924 62.1908977,11.10163 61.1485715,10.0033959 C61.2101262,10.0020375 61.2723649,10.0006792 61.3339196,10 C62.3529918,11.116572 62.9794818,12.591751 63,14.2122746" id="Fill-37" fill="#F3F6F8"></path>
                <path d="M22,64 L22,55.4647516 C22.7849694,54.7271718 23.6407742,54.0409381 24.5704387,53.4039689 C28.0187932,51.0420483 32.0810098,49.6126839 36.0093515,48.2298085 C37.8856838,47.5699417 39.8266012,46.8871774 41.664021,46.1142104 C44.0693339,45.1025534 48.3087063,42.8093256 49.6776983,38.8154316 C50.2045956,37.277824 50.4586354,35.7124618 50.7274605,34.0548154 C51.2704873,30.7034416 51.8874409,26.904524 55.075035,23.5975576 C57.1967374,21.3966139 59.9589157,19.8291701 63,19 L63,24.358035 C61.3144664,24.9977796 59.802325,25.9622537 58.5946281,27.2146822 C56.5233304,29.362892 56.1268133,31.8073827 55.6247824,34.9020261 C55.3324351,36.7033028 55.0306788,38.5663336 54.358616,40.5258118 C53.3021332,43.6093533 50.5661654,47.9064668 43.5377322,50.8623369 C41.5658999,51.6915071 39.5550878,52.3992506 37.6114821,53.0827089 C30.8180021,55.4737719 24.8623828,57.5699417 22,64" id="Fill-38" fill="#F4F7F8"></path>
                <path d="M21,64 L21,55.3470012 C21.0459586,55.3043146 21.0921908,55.2616279 21.1385597,55.2189412 L21.1385597,63.688112 C21.0916436,63.7906977 21.0453431,63.8946603 21,64 M62.8611667,24.3530447 L62.8611667,19.0364902 C62.9076725,19.0240973 62.9534943,19.0123929 63,19 L63,24.3020961 C62.9534943,24.31862 62.9076725,24.3358323 62.8611667,24.3530447" id="Fill-39" fill="#F3F6F8"></path>
                <path d="M20,35.1919414 C20,35.1919414 27.741339,22.7976201 31.1475771,24.0952128 C34.5537388,25.3920945 27.1219952,40.5238032 20,46 L20,35.1919414" id="Fill-40" fill="#80A086"></path>
                <path d="M23.9706706,40.518882 L20.0400062,42.2096682 L20,45.459897 L20,54 C21.6052763,53.3634361 41.0645285,45.5036781 38.8200147,39.5334588 C36.478538,33.3061121 23.9706706,40.518882 23.9706706,40.518882" id="Fill-41" fill="#80A086"></path>
                <path d="M37,71.8606547 C37,71.8606547 42.5988657,61.2868849 55,56 C55,56 54.6454821,60.5215153 45.1497164,72 L37,71.8606547" id="Fill-42" fill="#CFDECE"></path>
                <path d="M45,72.8959311 C45,72.8959311 48.7324201,64.9647887 57,61 C57,61 56.7640668,64.3912363 50.4328393,73 L45,72.8959311" id="Fill-43" fill="#CFDECE"></path>
                <path d="M46,71.8682618 C46,71.8682618 52.0117493,65.4228249 59,69.1718471 C59,69.1718471 54.1908972,69.1056536 51.4853134,72 L46,71.8682618" id="Fill-44" fill="#CFDECE"></path>
                <path d="M34.8742086,54.2261269 C34.8379405,54.2340435 24.5832346,56.3146717 21,57.0422798 L21,66.283119 C21,69.7261233 23.4609226,72.5674654 26.6465869,73 L44.6568775,72.8978038 C50.3322169,64.999909 45.1664238,52.1375821 34.8742086,54.2261269" id="Fill-45" fill="#ADBAAD"></path>
                <path d="M21,53.5664793 C21,53.5664793 40.1816723,45.6576827 41.8639099,48.6941678 C43.5454651,51.7299193 29.2448754,60.6010029 21,61 L21,53.5664793" id="Fill-46" fill="#80A086"></path>
                <polygon id="Fill-47" fill="#545656" points="33.95 72 34.05 72 34.05 8 33.95 8"></polygon>
                <polygon id="Fill-48" fill="#545656" points="49.95 72 50.05 72 50.05 8 49.95 8"></polygon>
                <polygon id="Fill-49" fill="#545656" points="21 28.05 63 28.05 63 27.95 21 27.95"></polygon>
                <polygon id="Fill-50" fill="#545656" points="21 52.05 63 52.05 63 51.95 21 51.95"></polygon>
                <path d="M56.4646662,71.8616364 L56.4646662,71.7225879 L27.5348583,71.7225879 C25.8059401,71.7225879 24.2419169,71.0163857 23.1087815,69.8738588 C21.9757819,68.7320169 21.2755045,67.1552202 21.2754366,65.4119762 L21.2754366,14.5887087 C21.2755045,12.8454648 21.9757819,11.2686681 23.1087815,10.1261412 C24.2419169,8.98429925 25.8059401,8.27809707 27.5348583,8.27809707 L56.4646662,8.27809707 C58.1937882,8.27809707 59.7578113,8.98429925 60.8910826,10.1261412 C62.0236745,11.2686681 62.7241558,12.8454648 62.7241558,14.5887087 L62.7241558,65.4119762 C62.7241558,67.1552202 62.0236745,68.7320169 60.8910826,69.8738588 C59.7578113,71.0163857 58.1937882,71.7225879 56.4646662,71.7225879 L56.4646662,72 C60.0737413,72 62.9993206,69.0505271 63,65.4119762 L63,14.5887087 C62.9993206,10.9494729 60.0737413,8 56.4646662,8 L27.5348583,8 C23.9257152,8 21,10.9494729 21,14.5887087 L21,65.4119762 C21,69.0505271 23.9257152,72 27.5348583,72 L56.4646662,72 L56.4646662,71.8616364" id="Fill-51" fill="#545656"></path>
                <path d="M14.7087815,75.2261695 C14.7087815,75.2261695 7.16730663,75.0149287 3,75 C3.04819009,75.2328874 3.09990628,75.4665212 3.15953662,75.7016479 C3.64034052,77.6013223 4.50392261,79.4427749 5.75122319,80.9826681 C9.11246241,81.0125255 12.54822,81.0147648 13.5177419,80.8990675 C15.4234837,80.6721516 14.9470678,79.0837402 14.9470678,77.2684128 C14.9470678,75.4530854 14.7087815,75.2261695 14.7087815,75.2261695" id="Fill-52" fill="#F4E9D5"></path>
                <path d="M122,85 C122,85.5526316 113.940951,86 104.000347,86 C94.0590491,86 86,85.5526316 86,85 C86,84.4473684 94.0590491,84 104.000347,84 C113.940951,84 122,84.4473684 122,85" id="Fill-53" fill="#F4E9D5"></path>
                <polyline id="Fill-54" fill="#D19A7B" points="114 76 116 76 116 85 115.300343 84.9237605 114 76"></polyline>
                <polyline id="Fill-55" fill="#B08267" points="116 76 114 76 114.124449 76.922827 116 77 116 76"></polyline>
                <polyline id="Fill-56" fill="#D19A7B" points="89 76 87 76 87 85 87.7 84.9237605 89 76"></polyline>
                <polyline id="Fill-57" fill="#B08267" points="88.8352941 77 89 76 87 76 87 76.9260238 88.8352941 77"></polyline>
                <polyline id="Fill-58" fill="#F5D0A7" points="88.4146542 47 116 47 115.06635 76 88 75.8957227 88.4146542 47"></polyline>
                <polyline id="Fill-59" fill="#F5D0A7" points="90 50 114 50 113.687756 55 90.103855 54.6591922 90 50"></polyline>
                <polyline id="Fill-60" fill="#F0C696" points="90.2180677 49.2505782 90.2180677 49.5003401 114.545114 49.5003401 114.255514 54.4939464 90.531974 54.1258332 90.4305795 49.2440484 90.2180677 49.2505782 90.2180677 49.5003401 90.2180677 49.2505782 90.0055559 49.2562917 90.1166731 54.6188274 114.652064 55 115 49 90 49 90.0055559 49.2562917 90.2180677 49.2505782"></polyline>
                <polyline id="Fill-61" fill="#F5D0A7" points="90 56 114 56 113.687756 61 90.103855 60.6592428 90 56"></polyline>
                <polyline id="Fill-62" fill="#F0C696" points="90.2180677 55.2497619 90.2180677 55.4995239 114.545114 55.4995239 114.255514 60.4939464 90.531974 60.125017 90.4305795 55.2440484 90.2180677 55.2497619 90.2180677 55.4995239 90.2180677 55.2497619 90.0055559 55.2562917 90.1166731 60.6188274 114.652064 61 115 55 90 55 90.0055559 55.2562917 90.2180677 55.2497619"></polyline>
                <polyline id="Fill-63" fill="#F5D0A7" points="90 62 114 62 113.687756 67 90.103855 66.6591922 90 62"></polyline>
                <polyline id="Fill-64" fill="#F0C696" points="90.2180677 61.2497959 90.2180677 61.4995918 114.545114 61.4995918 114.255514 66.4938776 90.531974 66.1257143 90.4305795 61.2432653 90.2180677 61.2497959 90.2180677 61.4995918 90.2180677 61.2497959 90.0055559 61.2555102 90.1166731 66.6187755 114.652064 67 115 61 90 61 90.0055559 61.2555102 90.2180677 61.2497959"></polyline>
                <polyline id="Fill-65" fill="#F5D0A7" points="90 68 114 68 113.687756 73 90.103855 72.6592428 90 68"></polyline>
                <polyline id="Fill-66" fill="#F0C696" points="90.2180677 68.2497619 90.2180677 68.4995239 114.545114 68.4995239 114.255514 73.4939464 90.531974 73.1258332 90.4305795 68.2440484 90.2180677 68.2497619 90.2180677 68.4995239 90.2180677 68.2497619 90.0055559 68.2562917 90.1166731 73.6188274 114.652064 74 115 68 90 68 90.0055559 68.2562917 90.2180677 68.2497619"></polyline>
                <path d="M103,51.000363 C103,51.5520871 102.552087,52 101.999637,52 C101.447913,52 101,51.5520871 101,51.000363 C101,50.4479129 101.447913,50 101.999637,50 C102.552087,50 103,50.4479129 103,51.000363" id="Fill-67" fill="#F5D0A7"></path>
                <path d="M102.818236,52.000297 L102.636472,52.000297 C102.636472,52.1767152 102.565192,52.3341253 102.449955,52.4499554 C102.334125,52.5657856 102.176121,52.6364716 101.999703,52.6364716 C101.823879,52.6364716 101.665875,52.5657856 101.550045,52.4499554 C101.434214,52.3341253 101.363528,52.1767152 101.363528,52.000297 C101.363528,51.8238788 101.434214,51.6658747 101.550045,51.5500446 C101.665875,51.4348084 101.823879,51.3635284 101.999703,51.3635284 C102.176121,51.3635284 102.334125,51.4348084 102.449955,51.5500446 C102.565192,51.6658747 102.636472,51.8238788 102.636472,52.000297 L103,52.000297 C103,51.7246807 102.887734,51.4734185 102.707158,51.2928423 C102.526582,51.1122661 102.275319,51 101.999703,51 C101.724087,51 101.473418,51.1122661 101.292842,51.2928423 C101.112266,51.4734185 101,51.7246807 101,52.000297 C101,52.2759133 101.112266,52.5265815 101.292842,52.7071577 C101.473418,52.8877339 101.724087,53 101.999703,53 C102.275319,53 102.526582,52.8877339 102.707158,52.7071577 C102.887734,52.5265815 103,52.2759133 103,52.000297 L102.818236,52.000297" id="Fill-68" fill="#F0C696"></path>
                <path d="M103,58.999637 C103,59.5520871 102.552087,60 101.999637,60 C101.447913,60 101,59.5520871 101,58.999637 C101,58.4479129 101.447913,58 101.999637,58 C102.552087,58 103,58.4479129 103,58.999637" id="Fill-69" fill="#F5D0A7"></path>
                <path d="M102.818236,57.999703 L102.636472,57.999703 C102.636472,58.1761212 102.565192,58.3341253 102.449955,58.4499554 C102.334125,58.5651916 102.176121,58.6364716 101.999703,58.6364716 C101.823879,58.6364716 101.665875,58.5651916 101.550045,58.4499554 C101.434214,58.3341253 101.363528,58.1761212 101.363528,57.999703 C101.363528,57.8238788 101.434214,57.6658747 101.550045,57.5500446 C101.665875,57.4342144 101.823879,57.3635284 101.999703,57.3635284 C102.176121,57.3635284 102.334125,57.4342144 102.449955,57.5500446 C102.565192,57.6658747 102.636472,57.8238788 102.636472,57.999703 L103,57.999703 C103,57.7240867 102.887734,57.4734185 102.707158,57.2928423 C102.526582,57.1122661 102.275319,57 101.999703,57 C101.724087,57 101.473418,57.1122661 101.292842,57.2928423 C101.112266,57.4734185 101,57.7240867 101,57.999703 C101,58.2753193 101.112266,58.5265815 101.292842,58.7071577 C101.473418,58.8877339 101.724087,59 101.999703,59 C102.275319,59 102.526582,58.8877339 102.707158,58.7071577 C102.887734,58.5265815 103,58.2753193 103,57.999703 L102.818236,57.999703" id="Fill-70" fill="#F0C696"></path>
                <path d="M103,64 C103,64.5522496 102.552087,65 101.999637,65 C101.447187,65 101,64.5522496 101,64 C101,63.4477504 101.447187,63 101.999637,63 C102.552087,63 103,63.4477504 103,64" id="Fill-71" fill="#F5D0A7"></path>
                <path d="M102.818236,64 L102.636472,64 C102.635878,64.1763658 102.565192,64.334323 102.449956,64.4501188 C102.334126,64.5653207 102.176122,64.6359857 101.999704,64.6359857 C101.823286,64.6359857 101.665282,64.5653207 101.550046,64.4501188 C101.434216,64.334323 101.36353,64.1763658 101.36353,64 C101.36353,63.8236342 101.434216,63.665677 101.550046,63.5498812 C101.665282,63.4346793 101.823286,63.3640143 101.999704,63.3640143 C102.176122,63.3640143 102.334126,63.4346793 102.449956,63.5498812 C102.565192,63.665677 102.635878,63.8236342 102.636472,64 L103,64 C103,63.7244656 102.887734,63.4732779 102.707158,63.2927553 C102.526582,63.1122328 102.27532,63 101.999704,63 C101.724088,63 101.472826,63.1122328 101.292844,63.2927553 C101.111674,63.4732779 100.999408,63.7244656 101,64 C100.999408,64.2755344 101.111674,64.5267221 101.292844,64.7066508 C101.472826,64.8877672 101.724088,65 101.999704,65 C102.27532,65 102.526582,64.8877672 102.707158,64.7066508 C102.887734,64.5267221 103,64.2755344 103,64 L102.818236,64" id="Fill-72" fill="#F0C696"></path>
                <path d="M103,70.999637 C103,71.5520871 102.552087,72 101.999637,72 C101.447187,72 101,71.5520871 101,70.999637 C101,70.4479129 101.447187,70 101.999637,70 C102.552087,70 103,70.4479129 103,70.999637" id="Fill-73" fill="#F5D0A7"></path>
                <path d="M102.818236,69.999703 L102.636472,69.999703 C102.636472,70.1761212 102.565192,70.3341253 102.449956,70.4499554 C102.334126,70.5651916 102.176122,70.6364716 101.999704,70.6364716 C101.823286,70.6364716 101.665876,70.5651916 101.550046,70.4499554 C101.434216,70.3341253 101.36353,70.1761212 101.36353,69.999703 C101.36353,69.8238788 101.434216,69.6658747 101.550046,69.5500446 C101.665876,69.4348084 101.823286,69.3635284 101.999704,69.3635284 C102.176122,69.3635284 102.334126,69.4348084 102.449956,69.5500446 C102.565192,69.6658747 102.636472,69.8238788 102.636472,69.999703 L103,69.999703 C103,69.7246807 102.887734,69.4734185 102.707158,69.2928423 C102.526582,69.1122661 102.27532,69 101.999704,69 C101.724088,69 101.472826,69.1122661 101.292844,69.2928423 C101.112268,69.4734185 100.999408,69.7246807 101,69.999703 C100.999408,70.2753193 101.112268,70.5265815 101.292844,70.7071577 C101.472826,70.8877339 101.724088,71 101.999704,71 C102.27532,71 102.526582,70.8877339 102.707158,70.7071577 C102.887734,70.5265815 103,70.2753193 103,69.999703 L102.818236,69.999703" id="Fill-74" fill="#F0C696"></path>
                <path d="M120,55.1144384 C120,55.1144384 123.022454,63.0672011 123.445598,78 L123.989639,77.9427808 C123.989639,77.9427808 124.352334,66.0418932 120.785838,55 L120,55.1144384" id="Fill-75" fill="#507E5F"></path>
                <path d="M116.991889,48.991866 C116.991889,48.991866 111.018426,49.0506736 110.302348,46.1690996 C109.585532,43.2882517 110.182878,40.5831006 111.675507,41.0535616 C113.168873,41.5240227 113.885688,41.6416379 115.379054,41.5828303 C116.87242,41.5240227 115.916666,42.6413677 116.752951,43.4058669 C117.588498,44.1703661 118.185845,46.110292 117.946906,47.4628675 C117.707968,48.8154431 117.290563,49.0506736 116.991889,48.991866" id="Fill-76" fill="#6E9A7B"></path>
                <path d="M117.160992,50.8884422 C117.160992,50.8884422 115.517641,49.7146647 116.141246,48.0713762 C116.764852,46.4280877 117.501141,46.0759545 117.44445,45.0789682 C117.387758,44.0812573 118.408204,42.6727243 119.42865,43.2009242 C120.449096,43.729124 121.696307,43.2009242 121.866381,43.0248576 C122.036456,42.8487909 123.566425,43.6117463 122.773444,45.1956214 C121.979764,46.780221 120.789244,46.4867766 120.505787,47.8366207 C120.22233,49.1864648 120.61917,49.7146647 119.371958,50.3602423 C118.124747,51.0058199 117.671215,51.1231977 117.160992,50.8884422" id="Fill-77" fill="#507E5F"></path>
                <path d="M116.104279,51.8187199 C116.104279,51.8187199 115.452803,50.5268066 117.406562,50.3506366 C119.360991,50.1744666 119.68673,49 120.881103,49 C122.075477,49 123.486339,50.1744666 122.835533,51.4076566 C122.184056,52.6401216 121.152552,52.6988449 121.043972,54.0494815 C120.935393,55.4001182 120.175337,56.1047981 119.415281,55.9873515 C118.655225,55.8699048 116.810045,54.9303315 116.647176,53.6384182 C116.484307,52.3465049 116.104279,52.4052283 116.104279,51.8187199" id="Fill-78" fill="#436452"></path>
                <path d="M110,52 C110,52 110.916001,51.1142881 112.405651,50.9876835 C113.895302,50.8610788 116.244366,51.0720866 116.817308,51.029885 C117.389543,50.9876835 116.530837,49.8482412 115.442246,50.0170475 C114.353656,50.1858537 113.150476,50.1436522 111.832709,50.1858537 C110.514941,50.2280553 110,50.8610788 110,52" id="Fill-79" fill="#6E9A7B"></path>
                <path d="M118.039092,53.0880412 C118.039092,53.0880412 115.213589,52.4462205 113.800489,54.6284109 C112.387389,56.8106014 111.652577,59.6980022 112.161293,59.8905484 C112.670009,60.0830946 113.800489,60.0830946 114.196157,59.3770918 C114.591825,58.671089 114.704873,58.5427249 115.326637,58.0934504 C115.948402,57.6449683 116.570166,57.9658786 116.457118,56.7464193 C116.34407,55.5269599 116.570166,54.7567751 117.135406,54.9493213 C117.700646,55.1418675 119,54.7567751 119,53.9865902 C119,53.2164054 118.039092,53.0880412 118.039092,53.0880412" id="Fill-80" fill="#6E9A7B"></path>
                <path d="M117.407299,53 C117.407299,53 115.570658,53.2234637 113.733285,53.2234637 C111.895911,53.2234637 111.24394,53.8938547 110.82905,55.3463687 C110.414159,56.7988827 110,57.2458101 110,57.2458101 C110,57.2458101 110.473429,58.5865922 112.192262,57.6927374 C113.911095,56.7988827 113.970365,55.7374302 115.215037,55.4581006 C116.459709,55.1787709 117.644379,54.8994413 117.644379,54.8994413 L118,53.6703911 L117.407299,53" id="Fill-81" fill="#507E5F"></path>
                <path d="M121,57.5961544 C121,57.5961544 121.687952,54.4048277 124.439053,54.1198878 C127.190862,53.8349479 128.108131,54.0059118 128.910742,55.2026594 C129.713353,56.3994069 130,57.0262746 130,57.0262746 C130,57.0262746 129.942671,57.4821784 128.853413,57.4251905 C127.764155,57.3682025 127.477509,56.2854309 127.076203,56.2854309 C126.674898,56.2854309 126.846886,56.7983227 126.330922,56.8553107 C125.814958,56.9122987 125.642969,56.6273588 124.611041,56.9122987 C123.579821,57.1972386 123.407833,57.9380823 122.77721,57.9950702 C122.146587,58.0520582 121,57.5961544 121,57.5961544" id="Fill-82" fill="#436452"></path>
                <path d="M120.200672,56 C120.200672,56 119.363972,56.6809107 118.168688,57.1348511 C116.974141,57.5887916 115.898384,57.7022767 115.83862,58.6094571 C115.778856,59.517338 115.83862,59.517338 114.762864,59.9145359 C113.687108,60.3117338 113.926164,61.7302977 114.404278,62.5246935 C114.882392,63.3190893 115.83862,64 115.83862,64 C115.83862,64 118.34798,62.0707531 118.34798,61.8437828 C118.34798,61.6168126 118.228452,60.0847636 119.18468,59.9712785 C120.140907,59.8577933 120.798314,59.3471103 120.977607,58.495972 C121.156899,57.6455342 120.200672,56 120.200672,56" id="Fill-83" fill="#6E9A7B"></path>
                <path d="M121.039021,60.7647882 C121.039021,60.7647882 123.261311,58.3468945 125.307434,59.1714078 C127.354279,59.9952425 126.47706,60.1601451 128.114536,60.2151127 C129.752013,60.2700802 130.453788,61.9191067 129.693531,62.0840094 C128.933274,62.248912 127.295798,61.7542041 127.237317,63.2932955 C127.178836,64.8323869 125.950728,66.1509296 124.66414,65.9860269 C123.378273,65.8211242 122.501054,65.8211242 122.091685,64.2827114 C121.682316,62.74362 120.805096,61.4793663 121.039021,60.7647882" id="Fill-84" fill="#436452"></path>
                <path d="M120.789929,59 C120.789929,59 118.944205,59.3827613 116.853145,60.148284 C114.761325,60.9138067 113.838464,62.0620907 114.023036,62.8822935 C114.207608,63.7024964 114.330657,63.7024964 114.08456,64.5767044 C113.838464,65.4515874 114.945898,66.2171101 116.607049,65.9437092 C118.26744,65.6703082 118.328964,64.3579836 118.944205,63.4290954 C119.559446,62.4995322 120.543832,62.2808114 120.851453,61.4059284 C121.159073,60.5310453 120.912977,59.0546802 120.789929,59" id="Fill-85" fill="#507E5F"></path>
                <path d="M121.991345,63.0493726 C121.991345,63.0493726 119.861427,62.6259267 117.792363,64.2592182 C115.724051,65.891763 114.750374,67.827516 115.054648,69.2793307 C115.358922,70.7311454 117.002002,71.6990219 117.731508,70.3681917 C118.461766,69.0373616 118.096637,67.1016086 118.76604,67.2830854 C119.435443,67.4645623 120.043991,67.3435777 120.165701,65.9522553 C120.28741,64.5616796 120.774249,64.9246333 121.443652,64.3197105 C122.113055,63.7147877 121.991345,63.0493726 121.991345,63.0493726" id="Fill-86" fill="#6E9A7B"></path>
                <path d="M121.456803,65.1068224 C121.456803,65.1068224 119.756762,64.353861 119.020078,66.8460773 C118.283393,69.3390094 118.736737,68.9911584 117.433373,70.3825623 C116.130708,71.7732505 117.943385,75.6575865 120.493446,74.9039093 C123.043507,74.1502322 121.740143,71.5420656 122.816835,70.6724381 C123.892828,69.8028107 124.289504,69.7448355 123.779492,68.875208 C123.270179,68.0055806 121.456803,65.3966982 121.456803,65.1068224" id="Fill-87" fill="#436452"></path>
                <path d="M127,61.0844703 C127,61.0844703 124.732984,66.9627744 124.416017,78 L124.007747,77.9577648 C124.007747,77.9577648 123.736061,69.1617725 126.410606,61 L127,61.0844703" id="Fill-88" fill="#507E5F"></path>
                <path d="M128.756943,56.9939248 C128.756943,56.9939248 133.236331,57.0379675 133.773153,54.876987 C134.310709,52.7160065 133.863357,50.6871541 132.74351,51.0402177 C131.623663,51.3932814 131.086107,51.4813668 129.96626,51.4373241 C128.846413,51.3932814 129.56291,52.2308147 128.935883,52.8040919 C128.308857,53.377369 127.860772,54.8329443 128.039713,55.8473705 C128.219387,56.8610747 128.532533,57.0379675 128.756943,56.9939248" id="Fill-89" fill="#436452"></path>
                <path d="M128.004686,57.9161248 C128.004686,57.9161248 129.413495,57.036252 128.878927,55.8032769 C128.34436,54.5710225 127.712742,54.3072769 127.761267,53.5592768 C127.809792,52.8105562 126.935551,51.7541322 126.060515,52.1504713 C125.186274,52.5468105 124.117139,52.1504713 123.971565,52.0185985 C123.825991,51.8867257 122.514232,52.4588952 123.194374,53.647192 C123.874516,54.8354888 124.895126,54.6149801 125.13775,55.6274465 C125.380373,56.6399128 125.0407,57.036252 126.10904,57.5205063 C127.178175,58.0040401 127.567168,58.0926759 128.004686,57.9161248" id="Fill-90" fill="#507E5F"></path>
                <path d="M128.910651,59.0127389 C128.910651,59.0127389 129.469083,58.0904911 127.793786,57.9648236 C126.11925,57.8384695 125.839653,57 124.815733,57 C123.792575,57 122.582764,57.8384695 123.141197,58.7195149 C123.69963,59.6005602 124.58337,59.6424494 124.676315,60.6065863 C124.76926,61.57141 125.420638,62.0747664 126.072016,61.9909881 C126.724155,61.9072098 128.305746,61.2362969 128.445163,60.3133623 C128.585343,59.3904278 128.910651,59.432317 128.910651,59.0127389" id="Fill-91" fill="#507E5F"></path>
                <path d="M134,59 C134,59 133.213792,58.1138322 131.937209,57.9874341 C130.660627,57.861036 128.647677,58.0716995 128.156499,58.0295668 C127.666124,57.9874341 128.40249,56.8484701 129.335006,57.0170009 C130.268327,57.1855316 131.298918,57.143399 132.428388,57.1855316 C133.557859,57.228355 134,57.861036 134,59" id="Fill-92" fill="#6E9A7B"></path>
                <path d="M127.824022,60.0629211 C127.824022,60.0629211 130.246122,59.6043376 131.457173,61.1632212 C132.66743,62.7213543 133.297937,64.7846048 132.861737,64.9219546 C132.425537,65.0593045 131.457173,65.0593045 131.117729,64.5549377 C130.778286,64.0513215 130.681529,63.9590044 130.148572,63.6385213 C129.616408,63.3172877 129.083451,63.5469547 129.180208,62.675571 C129.276965,61.8049379 129.083451,61.2547878 128.598872,61.3921377 C128.114293,61.5294876 127,61.2547878 127,60.7046378 C127,60.1544877 127.824022,60.0629211 127.824022,60.0629211" id="Fill-93" fill="#6E9A7B"></path>
                <path d="M127.444633,60 C127.444633,60 128.822195,60.1785471 130.199757,60.1785471 C131.578047,60.1785471 132.067071,60.7149203 132.377805,61.8769401 C132.689266,63.03896 133,63.396786 133,63.396786 C133,63.396786 132.644876,64.4695322 131.355367,63.7538802 C130.066586,63.03896 130.022195,62.1901293 129.088539,61.9662137 C128.155609,61.7430298 127.266343,61.5191141 127.266343,61.5191141 L127,60.5363731 L127.444633,60" id="Fill-94" fill="#507E5F"></path>
                <path d="M127,62.6968435 C127,62.6968435 126.465638,60.3038722 124.325269,60.0897642 C122.184899,59.8763559 121.471686,60.0044009 120.847534,60.902115 C120.223381,61.7998291 120,62.2693273 120,62.2693273 C120,62.2693273 120.04453,62.6114802 120.892064,62.5687986 C121.738867,62.5261169 121.962248,61.7137661 122.27396,61.7137661 C122.586401,61.7137661 122.452811,62.0986007 122.853582,62.1412823 C123.255084,62.183964 123.388675,61.9705557 124.191678,62.183964 C124.993951,62.3980719 125.127542,62.9536331 125.618104,62.9963148 C126.108666,63.0389964 127,62.6968435 127,62.6968435" id="Fill-95" fill="#507E5F"></path>
                <path d="M126.570806,61 C126.570806,61 127.168281,61.5957966 128.022216,61.9932652 C128.876151,62.3907339 129.644133,62.4898978 129.68676,63.2840223 C129.729387,64.0781468 129.68676,64.0781468 130.454742,64.4260334 C131.223424,64.7731073 131.052916,66.0142824 130.711202,66.7092429 C130.369489,67.4050163 129.68676,68 129.68676,68 C129.68676,68 127.894335,66.3125871 127.894335,66.1142592 C127.894335,65.9151184 127.979589,64.5747794 127.29686,64.4756154 C126.613433,64.3764515 126.144537,63.9294008 126.015958,63.1848583 C125.888077,62.4403158 126.570806,61 126.570806,61" id="Fill-96" fill="#507E5F"></path>
                <path d="M125.96972,64.5130361 C125.96972,64.5130361 124.241449,62.4398121 122.649444,63.1470838 C121.057439,63.8535842 121.739514,63.9947301 120.466208,64.0417787 C119.192902,64.0888273 118.647093,65.5018282 119.238324,65.6437453 C119.829555,65.7848911 121.102861,65.3606823 121.148283,66.679586 C121.19445,67.9992609 122.149057,69.1291989 123.149831,68.988053 C124.150605,68.8469072 124.83268,68.8469072 125.150635,67.5280035 C125.469334,66.2090999 126.151409,65.1254393 125.96972,64.5130361" id="Fill-97" fill="#507E5F"></path>
                <path d="M126.149841,64 C126.149841,64 127.467807,64.3283996 128.96203,64.9844316 C130.456254,65.6404636 131.115237,66.624128 130.983584,67.3277319 C130.851212,68.0305685 130.763443,68.0305685 130.9397,68.7802098 C131.115237,69.529851 130.323881,70.185883 129.137567,69.9518599 C127.951254,69.7178368 127.907369,68.5929913 127.467807,67.7957781 C127.028965,66.9993323 126.325378,66.8121138 126.105957,66.0617052 C125.886535,65.312064 126.062072,64.0468046 126.149841,64" id="Fill-98" fill="#436452"></path>
                <path d="M125.00616,67.0369198 C125.00616,67.0369198 126.527568,66.7197695 128.004856,67.944549 C129.482855,69.1693284 130.178091,70.6206438 129.961052,71.7095017 C129.743302,72.7983596 128.569868,73.5240173 128.048263,72.5265165 C127.52737,71.528273 127.787817,70.0762149 127.309619,70.2128791 C126.831422,70.3488007 126.396633,70.2581863 126.309817,69.2146356 C126.223001,68.1710849 125.875739,68.442928 125.397542,67.9898561 C124.919345,67.5360416 125.00616,67.0369198 125.00616,67.0369198" id="Fill-99" fill="#6E9A7B"></path>
                <path d="M119.035793,74 C118.392863,74.9032502 118,76.0309902 118,77.2630385 L118,80.5668934 C118,83.532124 120.226223,86 122.958849,86 L126.003536,86 C128.736162,86 131,83.532124 131,80.5668934 L131,77.2630385 C131,76.0309902 130.569523,74.9032502 129.926593,74 L119.035793,74" id="Fill-100" fill="#D9CAB6"></path>
                <path d="M119.121612,74.110541 L119.040713,74.0430294 C118.394895,74.9473879 118,76.0780216 118,77.3132612 L118,80.5560433 C118,82.0412983 118.559435,83.4026584 119.460975,84.391592 C120.362515,85.3812674 121.608902,86 122.982808,86 L125.979485,86 C128.727297,85.9985162 130.998629,83.528779 131,80.5560433 L131,77.3132612 C130.999314,76.075796 130.566027,74.9451623 129.92158,74.0430294 L129.891414,74 L119.070879,74 L119.040713,74.0430294 L119.121612,74.110541 L119.121612,74.2218238 L129.840681,74.2218238 L129.840681,74.110541 L129.759783,74.1787944 C130.38092,75.0490263 130.795011,76.1329212 130.795011,77.3132612 L130.795011,80.5560433 C130.795011,81.9804637 130.249974,83.2854405 129.374486,84.235796 C128.498998,85.1854096 127.295802,85.7781762 125.979485,85.7781762 L122.982808,85.7781762 C121.666491,85.7781762 120.472893,85.1861515 119.607003,84.235796 C118.741114,83.2861824 118.204989,81.9804637 118.204989,80.5560433 L118.204989,77.3132612 C118.204989,76.1299536 118.582744,75.0468006 119.20251,74.1787944 L119.121612,74.110541 L119.121612,74.2218238 L119.121612,74.110541" id="Fill-101" fill="#C7B59F"></path>
                <path d="M130,76 C129.840093,75.6432161 129.648204,75.2857143 129.431286,75 L118.561066,75 C118.344148,75.2857143 118.155736,75.6432161 118,76 L130,76" id="Fill-102" fill="#C7B59F"></path>
                <path d="M129.946253,75.9665104 L129.977261,75.9524447 C129.818088,75.6182184 129.627218,75.2826524 129.409475,75.0127261 L129.399139,75 L118.591904,75 L118.582257,75.0127261 C118.364513,75.2826524 118.177089,75.6182184 118.02205,75.9531145 L118,76 L130,76 L129.977261,75.9524447 L129.946253,75.9665104 L129.946253,75.9336906 L118.053058,75.9336906 L118.053058,75.9665104 L118.084065,75.980576 C118.237726,75.6490288 118.423773,75.3174816 118.636003,75.0542532 L118.60913,75.0334896 L118.60913,75.0669792 L129.382601,75.0669792 L129.382601,75.0334896 L129.355728,75.0542532 C129.567959,75.3174816 129.75745,75.6490288 129.915245,75.980576 L129.946253,75.9665104 L129.946253,75.9336906 L129.946253,75.9665104" id="Fill-103" fill="#C7B59F"></path>
                <path d="M129.53917,81.3885639 L130.026809,80.6586148 L130.718964,81.156822 L130.231325,81.8867711 L129.53917,81.3885639 Z M128.945794,82.2777883 L129.432738,81.5478392 L130.125589,82.0460464 L129.637949,82.7767503 L128.945794,82.2777883 Z M128.351723,83.1670126 L128.839362,82.4370636 L129.531518,82.9360257 L129.043878,83.6659747 L128.351723,83.1670126 Z M127.758348,84.0569919 L128.245291,83.326288 L128.938142,83.82525 L128.450503,84.5551991 L127.758348,84.0569919 Z M127.651916,84.2162672 L128.344071,84.7144744 L127.856432,85.4444235 L127.164277,84.9462163 L127.651916,84.2162672 Z M126.214737,84.4978298 L126.906892,84.9967918 L126.419949,85.7267409 L125.727793,85.2285337 L126.214737,84.4978298 Z M125.371629,83.8909228 L126.063784,84.38913 L125.576145,85.1198339 L124.88399,84.6208719 L125.371629,83.8909228 Z M123.93445,84.1724854 L124.626605,84.6714474 L124.139662,85.4013965 L123.447506,84.9031893 L123.93445,84.1724854 Z M122.497967,84.4548028 L123.190122,84.9537649 L122.702483,85.6837139 L122.010327,85.1847518 L122.497967,84.4548028 Z M121.654163,83.847141 L122.347014,84.346103 L121.859375,85.0760521 L121.16722,84.5778449 L121.654163,83.847141 Z M120.811055,83.240234 L121.503211,83.7384412 L121.016267,84.4691451 L120.324112,83.9701831 L120.811055,83.240234 Z M119.967947,82.6325722 L120.660103,83.1315343 L120.172464,83.8614833 L119.480308,83.3632761 L119.967947,82.6325722 Z M119.816995,82.5238724 L119.329356,83.2545763 L118.6372,82.7556143 L119.124839,82.0256652 L119.816995,82.5238724 Z M119.567262,81.0269862 L119.080319,81.7576901 L118.387468,81.2587281 L118.875107,80.528779 L119.567262,81.0269862 Z M119.318226,79.5308549 L118.830586,80.2608039 L118.138431,79.7618419 L118.625375,79.0318928 L119.318226,79.5308549 Z M119.911601,78.6408756 L119.423962,79.3715795 L118.731807,78.8726175 L119.219446,78.1426684 L119.911601,78.6408756 Z M119.661869,77.1447443 L119.174925,77.8746933 L118.482074,77.3757313 L118.969713,76.6457822 L119.661869,77.1447443 Z M120.25594,76.2547651 L119.768301,76.985469 L119.076145,76.4865069 L119.563784,75.7565578 L120.25594,76.2547651 Z M120.362372,76.0954897 L119.670216,75.5972825 L120.15716,74.8665786 L120.849315,75.3655407 L120.362372,76.0954897 Z M121.798855,75.8139272 L121.106699,75.3149651 L121.594339,74.585016 L122.286494,75.0832232 L121.798855,75.8139272 Z M123.236034,75.5316097 L122.543878,75.0326477 L123.031518,74.3026986 L123.723673,74.8016607 L123.236034,75.5316097 Z M124.079142,76.1385167 L123.386986,75.6403095 L123.874625,74.9103604 L124.566781,75.4085677 L124.079142,76.1385167 Z M125.516321,75.8569541 L124.824165,75.3579921 L125.311804,74.628043 L126.00396,75.1262502 L125.516321,75.8569541 Z M126.9535,75.5746367 L126.261344,75.0764295 L126.748288,74.3457256 L127.440443,74.8446877 L126.9535,75.5746367 Z M127.796607,76.1822985 L127.104452,75.6833365 L127.591396,74.9533874 L128.284247,75.4515946 L127.796607,76.1822985 Z M128.639715,76.7892055 L127.94756,76.2909983 L128.435199,75.5602944 L129.127354,76.0592565 L128.639715,76.7892055 Z M129.482823,77.3968673 L128.790668,76.8979053 L129.278307,76.1679562 L129.970462,76.6669183 L129.482823,77.3968673 Z M129.633776,77.5055671 L130.121415,76.775618 L130.81357,77.2738253 L130.326627,78.0037743 L129.633776,77.5055671 Z M129.0404,78.3947915 L129.528039,77.6648424 L130.220195,78.1630496 L129.732556,78.8937535 L129.0404,78.3947915 Z M129.290133,79.8916777 L129.777076,79.1617286 L130.469232,79.6599358 L129.982288,80.3898849 L129.290133,79.8916777 Z M126.808808,83.6086054 L127.500963,84.1075675 L127.013324,84.8375165 L126.321169,84.3385544 L126.808808,83.6086054 Z M124.528521,83.283261 L125.220676,83.7822231 L124.733037,84.5121721 L124.040882,84.01321 L124.528521,83.283261 Z M123.091342,83.5655784 L123.783497,84.0637856 L123.296554,84.7944895 L122.603703,84.2955275 L123.091342,83.5655784 Z M120.41037,81.634648 L119.923427,82.3645971 L119.231271,81.8663899 L119.718215,81.1364408 L120.41037,81.634648 Z M120.161333,80.1377618 L119.673694,80.8684657 L118.981539,80.3695037 L119.469178,79.6395546 L120.161333,80.1377618 Z M120.505672,77.7516513 L120.018033,78.4816003 L119.325878,77.9833931 L119.812821,77.253444 L120.505672,77.7516513 Z M121.205479,76.7031515 L120.513324,76.2041895 L121.000268,75.4742404 L121.693119,75.9732025 L121.205479,76.7031515 Z M122.642658,76.4208341 L121.949807,75.9226269 L122.437446,75.191923 L123.129602,75.6908851 L122.642658,76.4208341 Z M124.922945,76.7461785 L124.230094,76.2479713 L124.717733,75.5172674 L125.409889,76.0162295 L124.922945,76.7461785 Z M126.359429,76.4638611 L125.667273,75.9656539 L126.154912,75.2357048 L126.847068,75.7339121 L126.359429,76.4638611 Z M128.446329,79.2840159 L128.933968,78.5540668 L129.626124,79.0530289 L129.13918,79.7829779 L128.446329,79.2840159 Z M128.696062,80.7809021 L129.183701,80.050953 L129.875856,80.5491602 L129.388217,81.2798641 L128.696062,80.7809021 Z M128.102686,81.6708813 L128.58963,80.9401774 L129.281785,81.4391395 L128.794842,82.1690885 L128.102686,81.6708813 Z M127.508615,82.5601057 L127.996254,81.8294018 L128.68841,82.3283638 L128.200771,83.0583129 L127.508615,82.5601057 Z M126.91524,83.4493301 L127.402183,82.719381 L128.094339,83.2175882 L127.607395,83.9482921 L126.91524,83.4493301 Z M125.9657,83.0009436 L126.657855,83.4999056 L126.170216,84.2298547 L125.478061,83.7316475 L125.9657,83.0009436 Z M124.634953,83.1239857 L125.121896,82.3940366 L125.814052,82.8922438 L125.327108,83.6229477 L124.634953,83.1239857 Z M123.197774,83.4063031 L123.685413,82.676354 L124.377568,83.1745612 L123.889929,83.9045103 L123.197774,83.4063031 Z M122.248234,82.9579166 L122.94039,83.4568787 L122.45275,84.1868277 L121.760595,83.6886205 L122.248234,82.9579166 Z M121.405126,82.3510096 L122.097282,82.8492168 L121.609643,83.5791659 L120.917487,83.0809587 L121.405126,82.3510096 Z M120.561323,81.7433478 L121.254174,82.2423099 L120.766535,82.9722589 L120.074379,82.4732968 L120.561323,81.7433478 Z M120.312286,80.2464616 L121.004441,80.7454237 L120.516802,81.4753727 L119.824647,80.9771655 L120.312286,80.2464616 Z M120.754709,79.2485375 L120.267765,79.9784865 L119.574914,79.4802793 L120.062554,78.7495754 L120.754709,79.2485375 Z M120.656625,77.860351 L121.34878,78.3593131 L120.861141,79.0892621 L120.168985,78.5903001 L120.656625,77.860351 Z M121.099048,76.8624269 L120.611408,77.5923759 L119.919253,77.0941687 L120.406892,76.3634648 L121.099048,76.8624269 Z M122.536226,76.5801095 L122.048587,77.3100585 L121.356432,76.8118513 L121.844071,76.0819022 L122.536226,76.5801095 Z M123.485766,77.0284959 L122.793611,76.5295339 L123.280554,75.7995848 L123.97271,76.297792 L123.485766,77.0284959 Z M124.816513,76.9054539 L124.328874,77.6354029 L123.636719,77.1371957 L124.124358,76.4064918 L124.816513,76.9054539 Z M126.252997,76.6231364 L125.766053,77.3538403 L125.073898,76.8548783 L125.560841,76.1249292 L126.252997,76.6231364 Z M127.202536,77.0715229 L126.510381,76.5725609 L126.99802,75.8426118 L127.690176,76.3415739 L127.202536,77.0715229 Z M128.04634,77.6791848 L127.353489,77.1802227 L127.841128,76.4502736 L128.533283,76.9484808 L128.04634,77.6791848 Z M128.197292,77.7878845 L128.684236,77.0571806 L129.377087,77.5561427 L128.889448,78.2860917 L128.197292,77.7878845 Z M128.295377,79.1753161 L127.603221,78.6771089 L128.09086,77.9471598 L128.783016,78.4453671 L128.295377,79.1753161 Z M128.545109,80.6722023 L127.852954,80.1739951 L128.340593,79.4432912 L129.032748,79.9422533 L128.545109,80.6722023 Z M126.071436,82.8416682 L126.559075,82.1117192 L127.251231,82.6106813 L126.764287,83.3406303 L126.071436,82.8416682 Z M123.791149,82.5170787 L124.278789,81.7863748 L124.970944,82.2853369 L124.484,83.0152859 L123.791149,82.5170787 Z M122.354666,82.7986413 L122.84161,82.0686922 L123.534461,82.5668994 L123.046821,83.2976033 L122.354666,82.7986413 Z M121.155394,80.8541234 L121.847549,81.3523306 L121.35991,82.0830345 L120.667755,81.5840725 L121.155394,80.8541234 Z M120.905661,79.3572372 L121.597817,79.8561993 L121.110873,80.5861483 L120.418718,80.0871863 L120.905661,79.3572372 Z M123.379334,77.1877713 L122.891695,77.9177203 L122.19954,77.4187583 L122.687179,76.6888092 L123.379334,77.1877713 Z M125.659621,77.5131157 L125.171982,78.2430647 L124.479827,77.7441027 L124.967466,77.0141536 L125.659621,77.5131157 Z M127.0968,77.2307983 L126.609161,77.9607473 L125.917006,77.4625401 L126.403949,76.7318362 L127.0968,77.2307983 Z M127.702001,80.0652953 L127.009846,79.5663333 L127.496789,78.8363842 L128.18964,79.3345914 L127.702001,80.0652953 Z M127.258883,81.0632195 L127.746522,80.3332704 L128.438677,80.8314776 L127.951734,81.5614267 L127.258883,81.0632195 Z M126.665507,81.9524439 L127.153146,81.2224948 L127.845302,81.720702 L127.357663,82.4514059 L126.665507,81.9524439 Z M125.715967,81.5048122 L126.408123,82.0030194 L125.920484,82.7329685 L125.228328,82.2347613 L125.715967,81.5048122 Z M124.38522,81.6270995 L124.87286,80.8971504 L125.565015,81.3961125 L125.077376,82.1260615 L124.38522,81.6270995 Z M122.948042,81.9094169 L123.435681,81.1794678 L124.127836,81.677675 L123.640197,82.4083789 L122.948042,81.9094169 Z M121.998502,81.4610304 L122.690657,81.9599925 L122.203714,82.6899415 L121.511558,82.1917343 L121.998502,81.4610304 Z M121.748769,79.964899 L122.44162,80.4631062 L121.953981,81.1930553 L121.261826,80.6948481 L121.748769,79.964899 Z M122.191888,78.96622 L121.704249,79.6969239 L121.012093,79.1979619 L121.499732,78.4680128 L122.191888,78.96622 Z M123.734803,78.5253821 L123.042648,78.0264201 L123.530287,77.296471 L124.222442,77.7946782 L123.734803,78.5253821 Z M125.06555,78.4023401 L124.578607,79.1322891 L123.886451,78.6340819 L124.373395,77.903378 L125.06555,78.4023401 Z M126.502729,78.1200226 L126.01509,78.8499717 L125.322935,78.3517645 L125.810574,77.6218154 L126.502729,78.1200226 Z M126.760113,78.0694471 L127.247753,77.339498 L127.939908,77.8377052 L127.452269,78.5684091 L126.760113,78.0694471 Z M126.858893,79.4576335 L126.166042,78.9594263 L126.653682,78.2287224 L127.345837,78.7276845 L126.858893,79.4576335 Z M127.10793,80.9545197 L126.415775,80.4555577 L126.903414,79.7256086 L127.595569,80.2245707 L127.10793,80.9545197 Z M125.822399,81.3455369 L126.309343,80.614833 L127.002194,81.1137951 L126.514555,81.8437441 L125.822399,81.3455369 Z M123.542113,81.0201925 L124.029056,80.2894886 L124.721907,80.7884507 L124.234268,81.5183997 L123.542113,81.0201925 Z M122.34284,79.0749198 L123.034996,79.5738819 L122.547357,80.3038309 L121.855201,79.8056237 L122.34284,79.0749198 Z M123.629067,78.6846575 L123.141428,79.4146065 L122.449272,78.9156445 L122.936911,78.1856954 L123.629067,78.6846575 Z M125.909354,79.009247 L125.421714,79.7399509 L124.729559,79.2409889 L125.216503,78.5110398 L125.909354,79.009247 Z M126.264822,80.3468579 L125.572667,79.8486507 L126.060306,79.1187016 L126.752461,79.6169089 L126.264822,80.3468579 Z M125.466235,80.007926 L126.15839,80.5061332 L125.671447,81.2368371 L124.978596,80.7378751 L125.466235,80.007926 Z M124.135488,80.1302132 L124.623127,79.4002642 L125.315283,79.8992263 L124.827643,80.6291753 L124.135488,80.1302132 Z M123.984536,80.0215135 L123.29238,79.5233063 L123.780019,78.7933572 L124.472175,79.2915644 L123.984536,80.0215135 Z M122.699005,80.4125307 L123.185948,79.6825816 L123.878104,80.1807888 L123.39116,80.9114927 L122.699005,80.4125307 Z M122.104934,81.301755 L122.592573,80.571806 L123.284728,81.0707681 L122.797089,81.8007171 L122.104934,81.301755 Z M122.093108,77.5780336 L122.785263,78.0769957 L122.29832,78.8069447 L121.606164,78.3087375 L122.093108,77.5780336 Z M121.25,76.9711266 L121.942155,77.4693338 L121.455212,78.2000377 L120.762361,77.7010757 L121.25,76.9711266 Z M130.943654,81.318362 C130.96661,81.1341763 130.980522,80.9469711 130.986087,80.7567466 L130.825396,80.9975467 L130.133241,80.4993395 L130.626445,79.7686356 L131,80.0335912 L131,79.7980751 L130.738442,79.6093603 L131,79.2175882 L131,78.8824306 L130.581924,79.5006605 L129.886291,79.0024533 L130.378799,78.2717494 L131,78.7171164 L131,78.4808454 L130.483144,78.1124741 L130.973566,77.382525 L131,77.3998868 L131,77.2957162 C131,77.2036233 130.991652,77.1130402 130.987479,77.0224571 L130.922785,77.1145499 L130.229238,76.6163427 L130.785745,75.7807133 C130.764876,75.7029628 130.74192,75.6252123 130.716877,75.5489715 L130.076894,76.507643 L129.384739,76.0086809 L130.318279,74.6099264 C130.285584,74.5480279 130.251498,74.4868843 130.216717,74.4272504 L129.233786,75.8999811 L128.541631,75.3896962 L129.460563,74 L129.237265,74 L128.389983,75.2809964 L127.697827,74.7759955 L128.211901,74 L127.988602,74 L127.546875,74.6733346 L126.85472,74.1683336 L126.963238,74 L126.73994,74 L126.703767,74.053595 L126.628639,74 L126.300995,74 L126.597335,74.2249481 L126.110392,74.9616909 L125.417541,74.4536705 L125.714576,74 L125.491278,74 L125.266588,74.3359124 L124.799818,74 L124.47287,74 L125.160156,74.5072655 L124.673213,75.2432534 L123.981057,74.7359879 L124.465914,74 L124.242616,74 L123.830105,74.6303076 L123.137254,74.1253067 L123.217252,74 L122.993953,74 L122.986301,74.010568 L122.970997,74 L122.64405,74 L122.880565,74.1819211 L122.392926,74.917909 L121.700771,74.4106435 L121.968589,74 L121.745291,74 L121.549818,74.2928855 L121.142872,74 L120.815229,74 L121.443386,74.4642385 L120.955747,75.2002265 L120.263592,74.6929609 L120.719927,74 L120.496629,74 L120.112639,74.5752029 L119.314052,74 L119.08658,74 C119.075449,74.0747311 119.064319,74.0437818 119.053885,74.0603888 L120.006207,74.75184 L119.518568,75.4855633 L118.607288,74.8303453 C118.578071,74.8877147 118.550246,74.9473486 118.522421,75.0062276 L119.412832,75.6471032 L118.925193,76.3778071 L118.203821,75.857709 C118.185039,75.9233818 118.167648,75.9898094 118.150952,76.056237 L118.818761,76.5370825 L118.331122,77.2670315 L118.006261,77.0330251 C118.002087,77.1092659 118,77.1862616 118,77.2640121 L118.234429,77.4263069 L118.018086,77.7644839 L118.018086,78.0996414 L118.385381,77.5350066 L119.072667,78.0339687 L118.59268,78.7639177 L118.018086,78.3449707 L118.018086,78.5812417 L118.493204,78.9231931 L118.018086,79.6350255 L118.018086,79.9701831 L118.041042,79.9211172 L118.729024,80.4200793 L118.239298,81.1500283 L118.013913,80.9892433 C118.020173,81.0737875 118.02713,81.1575769 118.036869,81.2413663 L118.130779,81.3093036 L118.058433,81.4172485 C118.07165,81.5070768 118.086954,81.5961502 118.103649,81.6844688 L118.281732,81.4180034 L118.973887,81.9169655 L118.486248,82.6469145 L118.342252,82.5427439 C118.392337,82.6808832 118.447988,82.8167579 118.507812,82.9488583 L118.530768,82.9148896 L119.222924,83.4138517 L118.977365,83.7822231 C119.014929,83.8365729 119.053189,83.8909228 119.092145,83.9445178 L119.373876,83.5225514 L120.066727,84.0207586 L119.672999,84.6103038 C119.718215,84.6540857 119.764127,84.6971127 119.810039,84.7393848 L120.21768,84.1294584 L120.909835,84.6284205 L120.488977,85.2587281 C120.541149,85.2919419 120.594018,85.3244008 120.647581,85.3561049 L121.060788,84.7371202 L121.752943,85.2353274 L121.426691,85.7244763 C121.486515,85.7471221 121.547036,85.7675033 121.608251,85.7871296 L121.903896,85.3440272 L122.596051,85.8429892 L122.504923,85.9796188 C122.575182,85.9871674 122.645441,85.9932063 122.716396,85.9977354 L122.747003,85.951689 L122.817958,85.9909417 C122.879869,85.9939611 122.941781,85.984148 123.004388,85.984148 L123.151167,85.984148 L122.853435,85.7810908 L123.341074,85.0564257 L124.03323,85.5463295 L123.735499,85.984148 L123.958797,85.984148 L124.184182,85.6467258 L124.653039,85.984148 L124.979987,85.984148 L124.290614,85.4987734 L124.777558,84.7741083 L125.470409,85.2640121 L124.984161,85.984148 L125.207459,85.984148 L125.621361,85.3757313 L126.313517,85.8799774 L126.235606,86 C126.404645,85.9924514 126.570901,85.9773542 126.735071,85.9524439 L126.570901,85.8346858 L127.057845,85.1047367 L127.750696,85.6036988 L127.688089,85.6973014 C127.797999,85.6542744 127.905822,85.6074731 128.012254,85.5568975 L128.007384,85.5531232 L128.495024,84.8231742 L128.826145,85.0617098 C128.879709,85.0217022 128.931881,84.9809398 128.983358,84.9386677 L128.601455,84.6638988 L129.089095,83.9339498 L129.622646,84.3181732 C129.665079,84.2706171 129.705426,84.2207964 129.745773,84.1709757 L129.194831,83.7746745 L129.68247,83.0447254 L130.240368,83.4463106 C130.271672,83.390451 130.302975,83.3338366 130.332887,83.2772221 L129.788902,82.8854501 L130.276541,82.1547462 L130.686269,82.4506511 C130.707834,82.3872429 130.728007,82.3230798 130.746789,82.2581619 L130.382277,81.9954708 L130.869917,81.2655218 L130.943654,81.318362 L130.943654,81.318362 Z" id="Fill-104" fill="#C7B59F"></path>
                <path d="M125.180535,69.0748705 C125.180535,69.0748705 126.637248,68.5473916 127.268597,70.2925895 C127.899945,72.037123 127.511117,71.7939778 128.628302,72.7678872 C129.745487,73.7411323 128.19097,76.4602396 126.0059,75.9327607 C123.820034,75.4052818 124.937219,73.5790355 124.014846,72.9705082 C123.091678,72.3619809 122.752149,72.3214567 123.188686,71.7129294 C123.626018,71.1037378 125.180535,69.2781559 125.180535,69.0748705" id="Fill-105" fill="#436452"></path>
                <path d="M92.6102174,38 C92.6102174,38 91.2889978,36.4767717 91.4213153,35.5333437 C91.5536328,34.5906314 89.96843,32.1239751 90.3647307,31.108251 C90.7610314,30.0932427 89.3733272,28.4970025 90.3647307,28.0617944 C91.3554825,27.6265863 91.0250146,29.5850227 91.223165,30.9636588 C91.4213153,32.3415792 91.817616,32.196987 91.9499335,33.7202153 C92.082251,35.2434436 92.3462342,35.6786516 92.4785517,36.4044756 C92.6102174,37.1295838 93,37.9878314 93,37.9878314 L92.6102174,38" id="Fill-106" fill="#799F83"></path>
                <path d="M94.387342,37.9591984 C94.387342,37.9591984 95.5350703,36.150841 95.3050047,35.1615948 C95.0749392,34.1723486 96.3851431,31.3200862 95.8853679,30.2900385 C95.3855927,29.2592208 96.5911623,27.3646412 95.5643159,27.0351491 C94.5368197,26.7064268 95.0703898,28.753435 95.0196974,30.2523162 C94.9683551,31.7519673 94.5608661,31.651118 94.5907616,33.2970389 C94.6200072,34.94219 94.4042395,35.4433567 94.3496477,36.2362934 C94.2957058,37.02923 94,38 94,38 L94.387342,37.9591984" id="Fill-107" fill="#799F83"></path>
                <path d="M92.4123127,38 C92.4123127,38 94.2731735,36.9589839 94.410611,36.0093987 C94.5487758,35.0590936 96.9702945,33.1959196 96.8474006,32.0908299 C96.7245067,30.9864602 98.6777198,29.896489 97.7483801,29.1592826 C96.8197677,28.4220762 96.5928866,30.4126775 95.9740541,31.6754314 C95.3544943,32.9381853 94.9749049,32.671092 94.3829781,34.0943899 C93.7917785,35.5176878 93.3809202,35.8517345 93.0253278,36.5068691 C92.6697354,37.1627236 92,37.8632137 92,37.8632137 L92.4123127,38" id="Fill-108" fill="#799F83"></path>
                <path d="M92.915315,36.3662315 C92.915315,36.3662315 92.5446772,34.8797067 92.7779458,33.0363887 C93.0112143,31.1923885 92.3114087,30.6391202 92.3114087,29.1641929 C92.3114087,27.6892656 91.6107391,25.2005817 92.3114087,24.3710203 C93.0112143,23.541459 93.1278486,24.186825 93.2453468,25.4768747 C93.3619811,26.7676066 93.3619811,27.0445819 93.4786153,28.8878999 C93.5952496,30.7319001 94.1792849,31.3765839 93.9451524,32.8515112 C93.7118839,34.3264385 93.5952496,35.156682 93.5952496,35.7092681 C93.5952496,36.2625364 93.4786153,37 93.4786153,37 L92.915315,36.3662315" id="Fill-109" fill="#799F83"></path>
                <path d="M94.6836063,38.5219549 L94.9595106,36 L92.0404894,36 L92.3163937,38.5219549 C92.3163937,38.5219549 92.2638405,38.548124 92.1726453,38.5989668 C90.3479672,39.61059 89.58981,41.3048532 90.2165842,42.8779908 L91.8580989,47 L95.1411283,47 L96.7834158,42.8779908 C97.41019,41.3048532 96.6520328,39.61059 94.8273547,38.5989668 C94.7361595,38.548124 94.6836063,38.5219549 94.6836063,38.5219549" id="Fill-110" fill="#4C5A74"></path>
                <path d="M93.4596168,39 L93.4084254,38.972028 C93.3197768,38.9230769 93.2623425,38.8310023 93.2523539,38.7272727 L93.2311282,38.7132867 L93.1524682,38.7960373 C93.0475881,38.7086247 92.9901538,38.5722611 93.001391,38.4300699 C93.0113795,38.2948718 93.0812996,38.1771562 93.1911739,38.1095571 C93.2361225,38.0815851 93.2873139,38.0629371 93.3410025,38.0547786 C93.3634768,38.041958 93.3859511,38.0314685 93.409674,38.02331 L93.4146683,38.009324 L93.4858369,38 L93.4958254,38.004662 C93.5694912,38.002331 93.6456541,38.025641 93.7105798,38.0687646 C93.7667655,38.0804196 93.8217027,38.1083916 93.8691484,38.1515152 C93.9827685,38.2540793 94.0289656,38.4184149 93.9815199,38.5512821 C93.9091027,38.7540793 93.7093312,38.8706294 93.5108083,38.9731935 L93.4596168,39" id="Fill-111" fill="#A4ABB4"></path>
                <path d="M92.1991743,41 L92.1680899,40.9486359 C92.1133814,40.8587488 92.1071646,40.7418956 92.1506827,40.6353152 L92.1382489,40.6122014 L92.0288319,40.6558608 C91.9778536,40.5197461 91.9952608,40.3592334 92.0748368,40.2256868 C92.1506827,40.0972767 92.2700467,40.0163783 92.4006011,40.0022532 C92.4540662,39.9958327 92.5087747,40.0035373 92.5597531,40.0202306 C92.585864,40.0189465 92.6107315,40.0189465 92.635599,40.0215147 L92.6480327,40.0099578 L92.7139316,40.0356398 L92.7213919,40.0446285 C92.7872907,40.0780152 92.8432426,40.1370838 92.8793005,40.2089935 C92.924062,40.2475166 92.9588765,40.3001647 92.9787705,40.3656539 C93.0285055,40.5197461 92.9887175,40.7033726 92.8817873,40.809953 C92.7176617,40.974318 92.4839072,40.9922954 92.257613,40.9987159 L92.1991743,41" id="Fill-112" fill="#A4ABB4"></path>
                <path d="M95.1988191,42 L95.1677385,41.9486081 C95.1130366,41.8586724 95.1080637,41.7417559 95.1503333,41.6364026 L95.1391443,41.6119914 L95.0284973,41.6556745 C94.9775251,41.5207709 94.9961735,41.3601713 95.0744966,41.2252677 C95.1503333,41.0980728 95.2696829,41.0158458 95.4002215,41.0017131 C95.4536802,40.9965739 95.5083821,41.0029979 95.5593543,41.020985 C95.585462,41.0184154 95.6103265,41.0197002 95.635191,41.0222698 L95.6476232,41.0107066 L95.7135141,41.0364026 L95.7209735,41.0441113 C95.7868644,41.0775161 95.8440527,41.1379015 95.878863,41.2098501 C95.9236191,41.2471092 95.9584294,41.3010707 95.9795642,41.3665953 C96.02805,41.5207709 95.9882668,41.703212 95.8813495,41.8098501 C95.7172438,41.9743041 95.4835176,41.993576 95.2584939,41.9987152 L95.1988191,42" id="Fill-113" fill="#A4ABB4"></path>
                <path d="M93.199218,44 L93.1681268,43.9486089 C93.1134063,43.8586744 93.107188,43.7417596 93.1507157,43.6364078 L93.1382792,43.611997 L93.0288383,43.6556795 C92.9778487,43.519493 92.9952598,43.3588957 93.0748532,43.2252788 C93.1507157,43.0980858 93.2701059,43.01586 93.4006888,43.0017274 C93.4541657,42.9965883 93.5088862,43.0030122 93.5598757,43.0197143 C93.5859923,43.0184295 93.6108653,43.0184295 93.6357382,43.0209991 L93.646931,43.0107209 L93.714088,43.0351316 L93.7203062,43.0441251 C93.7874632,43.0775293 93.8434273,43.1366291 93.8794931,43.2085767 C93.9242644,43.24712 93.9578429,43.2997959 93.9789849,43.3653196 C94.0287308,43.5207778 93.9876904,43.7032163 93.8819804,43.8098528 C93.7178189,43.9743044 93.4827696,43.9935761 93.2576694,43.9987152 L93.199218,44" id="Fill-114" fill="#A4ABB4"></path>
                <path d="M95.1995724,46 L95.1684727,45.9486449 C95.1137373,45.8587736 95.1075174,45.7419408 95.1498129,45.635379 L95.1386171,45.6122692 L95.0279023,45.655921 C94.9781428,45.5198301 94.9955586,45.3593455 95.0751738,45.2258223 C95.1510569,45.0974346 95.2692356,45.0165504 95.4010981,45.0024277 C95.4545896,44.9960083 95.508081,45.0024277 95.5603284,45.020402 C95.5852081,45.0191181 95.6113318,45.0191181 95.6362115,45.0216859 L95.6474074,45.010131 L95.7145827,45.0358085 L95.7208026,45.0447957 C95.7879779,45.0781764 95.8439572,45.1372348 95.8787888,45.2091319 C95.9235723,45.2476482 95.958404,45.3002871 95.9795517,45.3657649 C96.0280672,45.5198301 95.9882596,45.7021406 95.8812768,45.8087024 C95.7170706,45.9730386 95.4832012,45.9922967 95.2580397,45.9974322 L95.1995724,46" id="Fill-115" fill="#A4ABB4"></path>
                <path d="M93.1991743,47 L93.1680899,46.9486359 C93.1133814,46.8587488 93.1071646,46.7418956 93.1506827,46.6353152 L93.1382489,46.6122014 L93.0288319,46.6558608 C92.9778536,46.5197461 92.9952608,46.3592334 93.0748368,46.2256868 C93.1506827,46.0972767 93.2700467,46.0163783 93.4006011,46.0022532 C93.4540662,45.9958327 93.5087747,46.0035373 93.5597531,46.0202306 C93.585864,46.0189465 93.6107315,46.0189465 93.635599,46.0215147 L93.6480327,46.0099578 L93.7139316,46.0356398 L93.7213919,46.0446285 C93.7872907,46.0780152 93.8432426,46.1370838 93.8793005,46.2089935 C93.924062,46.2475166 93.9588765,46.3001647 93.9787705,46.3656539 C94.0285055,46.5197461 93.9887175,46.7020885 93.8817873,46.809953 C93.7176617,46.974318 93.4839072,46.9922954 93.257613,46.9987159 L93.1991743,47" id="Fill-116" fill="#A4ABB4"></path>
                <path d="M91.199464,43 L91.1683812,42.9486081 C91.1136755,42.8586724 91.107459,42.7417559 91.1509748,42.6364026 L91.1385417,42.6119914 L91.0278871,42.6556745 C90.9781547,42.5207709 90.9955611,42.3588865 91.0751329,42.2252677 C91.1509748,42.0980728 91.2690893,42.0158458 91.4008802,42.0017131 C91.4543426,41.9965739 91.5078049,42.0029979 91.5600239,42.020985 C91.5848901,42.0184154 91.6109997,42.0184154 91.6358659,42.020985 L91.6470557,42.0107066 L91.7141944,42.0351178 L91.720411,42.0441113 C91.7875497,42.0775161 91.8434987,42.1366167 91.8795547,42.2098501 C91.9243138,42.2471092 91.9578832,42.3010707 91.9790195,42.3653105 C92.0287519,42.5207709 91.9877227,42.703212 91.880798,42.8098501 C91.716681,42.9743041 91.4829387,42.993576 91.2578995,42.9987152 L91.199464,43" id="Fill-117" fill="#A4ABB4"></path>
            </g>
        </g>
    </g>
</svg>