<?xml version="1.0" encoding="UTF-8"?>
<svg width="23px" height="75px" viewBox="0 0 23 75" version="1.1" xmlns="http://www.w3.org/2000/svg" xmlns:xlink="http://www.w3.org/1999/xlink">
    <title>Group 5</title>
    <g id="Page-1" stroke="none" stroke-width="1" fill="none" fill-rule="evenodd">
        <g id="Group-5" transform="translate(11.500000, 37.500000) scale(-1, 1) translate(-11.500000, -37.500000) ">
            <path d="M12.2244645,75 C6.27328016,75 1.44892892,74.4514198 1.44892892,73.7752133 C1.44892892,73.0987022 6.27328016,72.550122 12.2244645,72.550122 C18.1756488,72.550122 23,73.0987022 23,73.7752133 C23,74.4514198 18.1756488,75 12.2244645,75" id="Fill-30" fill="#BEBEBE"></path>
            <path d="M20.5108252,53.6952298 C19.8363431,51.0528462 20.2118504,49.2922724 20.7864668,44.3498728 C21.3613943,39.4077777 20.2134059,36.8893653 19.7635438,34.3694299 C19.3136817,31.8491898 18.4173796,30.8004605 17.8175635,29.5768922 C17.2177473,28.3536285 17.2989465,26.5491927 17.2989465,26.5491927 L12.488284,27.05452 L7.8406421,26.5696007 C7.8406421,26.5696007 7.7311321,28.3536285 7.13131594,29.5768922 C6.53181088,30.8004605 5.6305311,31.8491898 5.18066898,34.3694299 C4.73080686,36.8893653 3.58064071,39.4077777 4.15525712,44.3498728 C4.73018465,49.2922724 5.10444753,51.0528462 4.42996546,53.6952298 C3.75517228,56.3376135 3.00540208,58.0010206 3.40517582,61.6220761 C3.80494955,65.2431317 3.6425512,68.1785381 3.6425512,68.1785381 L6.14137038,68.3743944 C6.14137038,68.3743944 6.17870334,65.0713387 6.50350006,63.7746669 C6.82829678,62.4779952 7.72802102,57.8295322 7.95295208,56.5572283 C8.17788314,55.2849244 9.70231217,52.8137246 10.1020859,50.2203811 C10.5018596,47.6270377 10.926522,45.6453261 11.2264301,44.470798 C11.5263382,43.2965745 12.2533975,41.3879663 12.2533975,39.7976626 L12.2306866,39.7991856 L12.2306866,39.822335 C12.2306866,39.8433522 12.3809518,39.8415246 12.4559288,39.8329959 C12.5284169,39.8409154 12.6170827,39.842743 12.6621934,39.8265993 C12.6709044,41.4111157 13.4079192,43.3035802 13.7059606,44.470798 C14.0058687,45.6453261 14.4342643,47.6270377 14.8340381,50.2203811 C15.2338118,52.8137246 16.7601075,55.2849244 16.9850386,56.5572283 C17.2096585,57.8295322 17.960362,62.6248112 18.2851588,63.921483 C18.6099555,65.2181547 18.6855547,68.1785381 18.6855547,68.1785381 L21.2845507,67.8361705 C21.2845507,67.8361705 21.184685,65.5361545 21.5844588,61.915099 C21.9845436,58.2943481 21.1856183,56.3376135 20.5108252,53.6952298" id="Fill-31" fill="#EFAA9E"></path>
            <path d="M2.98922446,72.2583176 C2.74344917,71.163594 3.068557,69.3987559 3.23966638,68.9558711 C3.41077576,68.5129862 3.38962042,67.4143029 5.00240412,67.208395 C5.5328432,67.1407743 6.07323774,67.3253604 6.36101261,67.7843889 C6.72563115,68.3658656 6.50412227,69.088371 6.5949658,69.7268074 C6.70354248,70.4913472 6.91540701,71.2778181 7.33944717,71.9357488 C7.76504286,72.5964208 8.26810445,73.6606846 7.22589276,74.010058 C6.46461156,74.2653107 5.60190917,74.2427705 4.81076161,74.1641844 C4.20285664,74.103874 3.39335371,74.0356442 2.88189222,73.6673858 C2.10754449,73.1102769 2.98922446,72.2583176 2.98922446,72.2583176" id="Fill-32" fill="#DC3965"></path>
            <path d="M2.88189222,73.6673858 C2.16789943,73.1535297 2.8616702,72.3895991 2.97398017,72.273852 C3.12113424,73.1736332 3.74335018,73.4419836 4.31392219,73.4154836 C4.90284957,73.3880698 5.15982475,72.7401909 5.63208664,72.7645587 C6.10403743,72.7886219 6.42043423,73.4754893 7.07593872,73.413656 C7.5945557,73.3649204 7.7040657,72.8818287 7.72708769,72.6810989 C7.92837455,73.2208458 7.92433014,73.7761271 7.22589276,74.010058 C6.46461156,74.2653107 5.60190917,74.2427705 4.81076161,74.1641844 C4.20285664,74.103874 3.39335371,74.0356442 2.88189222,73.6673858" id="Fill-33" fill="#163139"></path>
            <path d="M22.1099201,71.8669097 C22.3556954,70.7721862 22.0305876,69.007348 21.8594782,68.5644632 C21.6883688,68.1215784 21.7098353,67.0228951 20.0970516,66.8169872 C19.5663014,66.7493665 19.0259068,66.9339526 18.738132,67.3929811 C18.3738245,67.9741532 18.5950223,68.6969632 18.5044899,69.3353996 C18.3959132,70.0999394 18.1840487,70.8864103 17.7600085,71.5443409 C17.3344128,72.205013 16.8313512,73.2692768 17.8732518,73.6186502 C18.634533,73.8739029 19.4972354,73.8513627 20.288383,73.7727765 C20.8962879,73.7124662 21.7057909,73.6442364 22.2175635,73.2759779 C22.9916001,72.718869 22.1099201,71.8669097 22.1099201,71.8669097" id="Fill-34" fill="#DC3965"></path>
            <path d="M22.2175635,73.2759779 C22.9315562,72.7621219 22.2374744,71.9981913 22.1254755,71.8824442 C21.9780103,72.7819207 21.3557944,73.0505758 20.7852224,73.0240758 C20.196295,72.996662 19.9393198,72.348783 19.467369,72.3731508 C18.9954183,72.397214 18.6790214,73.0840815 18.0232059,73.0222482 C17.5049,72.9735126 17.39539,72.4904209 17.3720569,72.2896911 C17.17077,72.8294379 17.1748144,73.3844147 17.8732518,73.6186502 C18.634533,73.8739029 19.4972354,73.8513627 20.288383,73.7727765 C20.8962879,73.7124662 21.7057909,73.6442364 22.2175635,73.2759779" id="Fill-35" fill="#163139"></path>
            <path d="M15.5377643,13.7165593 C15.5377643,13.7165593 17.5369441,14.5973336 18.536534,15.1845063 C18.536534,15.1845063 21.0854416,15.6249238 21.2353956,18.8544497 C21.3853497,22.084006 20.9855759,25.7538885 21.4351269,28.0535999 C21.884989,30.3536159 21.9350774,34.3170391 21.884989,35.4915672 C21.8554338,36.1890956 21.8467228,36.8281412 21.8837446,37.3806811 C21.8666337,37.377026 21.8492116,37.3745892 21.8321007,37.3712386 C21.8268119,37.7778763 21.8162342,38.1400428 21.7941455,38.459261 C21.7042353,39.7699442 21.8153009,40.7894322 21.4618822,41.6164145 C21.1081525,42.4430922 19.441236,44.1217292 19.3678145,44.4918152 C19.3678145,44.4918152 18.9767518,43.9295282 19.3370148,43.3477469 C19.6969667,42.7659656 19.4907021,42.8530805 19.7706993,42.3958796 C20.0506965,41.9389833 20.3142049,40.8689321 20.1667397,40.0550475 C20.1667397,40.0550475 19.9670084,40.3873634 19.6969667,41.2122135 C19.426925,42.0367591 18.8526197,42.4196382 18.8526197,42.4196382 C18.8526197,42.4196382 18.3956021,42.5131496 18.6942657,41.1972883 C18.9929294,39.8811223 18.9104858,39.9240706 19.0507955,38.9390021 C19.1783497,38.0459221 19.4474581,37.2856467 19.9614085,37.0782158 C20.0111858,36.7854975 20.0889628,36.0005497 19.7358552,35.002079 C19.2863042,33.729775 18.536534,31.5278394 18.2366259,29.3259038 C17.9367178,27.1239682 17.7369865,24.873297 17.7867638,23.7476873 C17.8368522,22.6222603 17.8368522,21.9861388 17.2871244,20.8117325 C16.7373966,19.6373567 15.6877183,15.7227606 15.5377643,13.7165593" id="Fill-36" fill="#EFAA9E"></path>
            <path d="M20.7864668,44.3498728 C21.3613943,39.4077777 20.2134059,36.8893653 19.7635438,34.3694299 C19.389592,32.2741034 18.7070212,31.1958281 18.1426713,30.1888287 C17.4865446,30.3581849 15.0866578,30.9344834 12.5884608,30.9899202 C9.96768727,31.0484029 7.40166876,30.2208114 6.88616286,30.0444494 C6.30687982,31.0950063 5.57266502,32.1738908 5.18066898,34.3694299 C4.73080686,36.8893653 3.58064071,39.4077777 4.15525712,44.3498728 C4.73018465,49.2922724 5.10444753,51.0528462 4.42996546,53.6952298 C3.75517228,56.3376135 3.00540208,58.0010206 3.40517582,61.6220761 C3.58375179,63.2404029 3.65001779,64.7210515 3.66868426,65.8645107 C4.68974061,66.3180564 5.91830597,65.9662462 6.24216937,65.8587233 C6.29630215,65.0685973 6.37874576,64.2732931 6.50350006,63.7746669 C6.82829678,62.4779952 7.72802102,57.8295322 7.95295208,56.5572283 C8.17788314,55.2849244 9.70231217,52.8137246 10.1020859,50.2203811 C10.5018596,47.6270377 10.926522,45.6453261 11.2264301,44.470798 C11.5263382,43.2965745 12.2533975,41.3879663 12.2533975,39.7976626 L12.2306866,39.7991856 L12.2306866,39.822335 C12.2306866,39.8433522 12.3809518,39.8415246 12.4559288,39.8329959 C12.5284169,39.8409154 12.6170827,39.842743 12.6621934,39.8265993 C12.6709044,41.4111157 13.4079192,43.3035802 13.7059606,44.470798 C14.0058687,45.6453261 14.4342643,47.6270377 14.8340381,50.2203811 C15.2338118,52.8137246 16.7601075,55.2849244 16.9850386,56.5572283 C17.2096585,57.8295322 17.960362,62.6248112 18.2851588,63.921483 C18.3996465,64.3777701 18.4833345,65.0396605 18.5433784,65.7064245 C19.9452309,66.13743 21.0126423,65.7387119 21.3044616,65.6074303 C21.3421056,64.638201 21.4220604,63.3856959 21.5844588,61.915099 C21.9845436,58.2943481 21.1856183,56.3376135 20.5108252,53.6952298 C19.836032,51.0528462 20.2118504,49.2922724 20.7864668,44.3498728" id="Fill-37" fill="#4D7066"></path>
            <path d="M5.95875001,31.7879657 C6.57754375,32.0706323 8.90058694,33.0027007 12.5218837,32.947264 C15.8022061,32.8970054 18.1740932,32.3069999 19.0952839,32.0368219 C18.7882203,31.3000005 18.4481793,30.7337537 18.1426713,30.1888287 C17.4865446,30.3581849 15.0866578,30.9344834 12.5884608,30.9899202 C9.96768727,31.0484029 7.40166876,30.2208114 6.88616286,30.0444494 C6.59527691,30.572317 6.26488025,31.1074948 5.95875001,31.7879657" id="Fill-38" fill="#395B52"></path>
            <path d="M8.6840558,36.3572334 C8.6840558,36.3572334 8.83152097,36.4458713 9.07885181,36.6170551 C9.32338267,36.7912849 9.67649021,37.0389227 10.0666196,37.3779397 C10.2619954,37.5485144 10.4707489,37.7297499 10.6763912,37.9518015 C10.8814114,38.1768991 11.0662095,38.4306288 11.2559854,38.6816172 C11.4463834,38.932301 11.6510925,39.1832893 11.8850457,39.3882835 C11.940734,39.4449386 12.0076222,39.4796628 12.0679772,39.5274846 C12.1314432,39.5670822 12.1980203,39.599065 12.2636641,39.6301339 L12.3663297,39.6608983 L12.4173514,39.6767374 L12.4696175,39.6803925 L12.5741498,39.6901397 C12.609305,39.6901397 12.6444602,39.6806971 12.6796154,39.677042 C12.7144595,39.6703408 12.7502369,39.6736914 12.785081,39.6608983 L12.8896133,39.6243466 C12.960857,39.6069845 13.0268119,39.5646455 13.0937001,39.52718 L13.1895214,39.47418 L13.2928092,39.3998582 C13.3488087,39.3547778 13.4054303,39.305433 13.4617408,39.2503008 C13.6804497,39.0294676 13.859959,38.7641631 14.0279573,38.4967265 C14.1128898,38.3636174 14.194089,38.2283761 14.2827548,38.0995313 C14.326621,38.0340428 14.3711094,37.9722095 14.4180867,37.9076349 C14.4644418,37.8479337 14.5098636,37.7888418 14.5546631,37.7303591 C14.7400835,37.4949052 14.9304816,37.2868651 15.1236796,37.1092847 C15.5057202,36.7501642 15.8955385,36.5335954 16.176469,36.4190667 C16.3167787,36.3593656 16.433133,36.3289058 16.5115322,36.309107 C16.5902426,36.2902219 16.6322421,36.2804748 16.6322421,36.2804748 C16.6322421,36.2804748 16.5924203,36.2966185 16.5177544,36.3267736 C16.4430885,36.3569288 16.3370007,36.4084058 16.2066464,36.479377 C16.0775366,36.5521758 15.9244715,36.6472103 15.7658064,36.7769688 C15.6065192,36.9058136 15.4391431,37.0642043 15.2692781,37.2481812 C15.1006576,37.4324627 14.9335926,37.648727 14.7696387,37.8811349 C14.5982182,38.1196347 14.4594641,38.3727553 14.2958213,38.6526804 C14.1337341,38.9274274 13.9613802,39.2253238 13.7068939,39.4836225 C13.6443612,39.5466742 13.5749841,39.6094213 13.4990738,39.67095 L13.3964082,39.7464902 L13.2700983,39.820812 C13.1888992,39.86772 13.1098777,39.9182832 13.0137454,39.9460016 L12.8749912,39.9947372 C12.8286361,40.0111855 12.7757478,40.0124038 12.7262816,40.020628 C12.6758821,40.0255015 12.6257937,40.0355533 12.5753942,40.0349706 L12.4226402,40.020628 L12.3464188,40.0124038 L12.2745528,39.9907774 L12.1314432,39.9447832 C12.0433996,39.9039671 11.9556672,39.8591913 11.8766458,39.8083235 C11.8038465,39.7513638 11.7207807,39.7023236 11.658248,39.6386627 C11.3872729,39.3980306 11.1906527,39.1199331 11.0033657,38.858893 C10.8157676,38.5966345 10.6546137,38.3395542 10.4775932,38.1208531 C10.2965284,37.9033705 10.1017748,37.7026407 9.92662102,37.520796 C9.57009129,37.1592387 9.26053886,36.8662159 9.03591891,36.6694459 C8.81192117,36.4708483 8.6840558,36.3572334 8.6840558,36.3572334" id="Fill-39" fill="#395B52"></path>
            <path d="M8.7232554,14.0690396 C8.72107765,14.053962 8.71765546,14.0389149 8.71298884,14.0238983 C8.68934463,13.9447334 8.63458963,13.8786966 8.58107906,13.8150053 C7.75757627,12.8356024 6.77976393,11.9902833 5.97368319,11.002443 C5.24444612,10.1090889 4.69814053,9.09389574 4.11387977,8.10870546 C3.60895153,7.25729443 3.60895153,6.46077187 3.60895153,6.46077187 C3.60895153,6.46077187 6.41390096,4.53821313 7.25575912,3.6318527 C8.09730617,2.72549226 10.4965708,1.59939517 11.2466521,1.7092635 C11.9964223,1.81913183 12.7539702,2.5057556 13.9601358,2.69801756 C15.1663014,2.89027953 15.951849,3.65929693 16.4287775,3.38467179 C16.4287775,3.38467179 15.8958496,2.94519847 15.2786114,2.2311 C14.6613732,1.51700153 12.22882,0.583196861 10.9626105,0.226117168 C9.69609001,-0.130932065 6.69452035,1.29729533 4.92711599,1.87405077 C3.16002274,2.45083666 0.326762485,3.74172103 0.102142533,4.75791933 C-0.122166311,5.7741481 -0.150166028,9.64677073 1.89754661,13.0250316 C3.94557036,16.4032619 4.53449774,17.0075225 5.23573509,18.7103751 C5.93728356,20.4132276 6.29723548,21.083129 6.42478974,21.668535 C6.55265512,22.2539105 7.17144886,22.4731294 7.17144886,22.4731294 C7.17144886,22.4731294 7.67637709,19.2596863 7.73268764,19.1772317 C7.85495307,18.9951433 7.84281986,18.5906682 7.87704173,18.3826281 C7.97130745,17.8078526 8.06090654,17.2323155 8.15019453,16.6567785 C8.2388603,16.0859627 8.32628164,15.5149946 8.41339187,14.9439351 C8.45663587,14.6593192 8.77054381,14.3586205 8.7232554,14.0690396" id="Fill-40" fill="#EFAA9E"></path>
            <path d="M19.2125716,18.1786087 C19.2125716,18.1786087 19.2026162,18.1922242 19.184883,18.2182977 C19.1668387,18.2441885 19.1422612,18.2833598 19.112706,18.3335574 C19.0834618,18.3839074 19.049551,18.4457712 19.0153292,18.5182349 C18.9811073,18.5906682 18.9462632,18.6737929 18.9151524,18.7659336 C18.8840416,18.857983 18.856353,18.9591399 18.836131,19.0671197 C18.8155978,19.1750081 18.8037757,19.2899633 18.8019091,19.4085431 C18.8019091,19.4382413 18.8009758,19.4680614 18.8025313,19.4981557 C18.8034646,19.5282194 18.8040869,19.5584964 18.8068868,19.5888648 C18.8081313,19.6040338 18.8093757,19.6192636 18.8106201,19.634524 C18.8115534,19.6498148 18.8140423,19.6650142 18.815909,19.6803355 C18.8177756,19.6956263 18.8193311,19.7109475 18.8211978,19.7262992 C18.8230644,19.7416509 18.8261755,19.7569417 18.8283533,19.7722935 C18.8308421,19.7876452 18.833331,19.8030273 18.8358199,19.8184095 C18.8386198,19.8337917 18.8423531,19.849052 18.8454642,19.8644037 C18.8519975,19.8965388 18.8585307,19.9287652 18.8653751,19.9610525 L18.8753306,20.0099405 C18.8787528,20.0258709 18.8812416,20.0444209 18.8840416,20.0615393 C18.8899527,20.0964462 18.8961748,20.1317185 18.8999081,20.1657726 C18.9167079,20.3032679 18.9241745,20.4411287 18.9223079,20.5761873 C18.9216857,20.6099367 18.9216857,20.6435947 18.9201301,20.6769481 C18.9182635,20.7102711 18.9167079,20.7434722 18.9145302,20.7763688 C18.9117302,20.8092044 18.9092413,20.8418572 18.9067525,20.8742664 C18.9033303,20.9065842 18.899597,20.9386279 18.8961748,20.9703974 C18.8809305,21.0972623 18.8594641,21.2187053 18.8351976,21.3327771 C18.8106201,21.4468184 18.7829315,21.5533971 18.7543096,21.6508074 C18.6970657,21.8455671 18.6357774,22.0032877 18.5881779,22.1116939 C18.5648448,22.1659732 18.5443117,22.2077335 18.5303118,22.2362439 C18.516312,22.2646628 18.5082232,22.2794662 18.5082232,22.2794662 C18.5082232,22.2794662 18.5113343,22.2629571 18.5175564,22.2320404 C18.5240897,22.2012761 18.5321785,22.1557996 18.5430673,22.098383 C18.5536449,22.040875 18.5664004,21.9711526 18.579778,21.8912262 C18.5931556,21.8112998 18.6074666,21.7211999 18.6211554,21.6229672 C18.6351552,21.5247649 18.648844,21.4184299 18.660355,21.3060639 C18.6724882,21.1937283 18.6821325,21.0753008 18.6886658,20.9530658 C18.6899102,20.9225147 18.6908436,20.8916894 18.6923991,20.8607118 C18.6933324,20.8297647 18.6942657,20.7985739 18.694888,20.7671699 C18.6955102,20.7044533 18.6958213,20.641097 18.6945768,20.5773752 C18.6911547,20.4499925 18.683377,20.3211782 18.6668882,20.1940087 C18.6634661,20.1617519 18.6584883,20.1312617 18.6538217,20.1003145 C18.6513328,20.0845973 18.6497773,20.070068 18.6463551,20.0534065 L18.6370219,20.0043968 L18.6279997,19.9572755 C18.6248887,19.9401267 18.6217776,19.9229779 18.6186665,19.9058595 C18.6158665,19.8887106 18.6124443,19.8716836 18.6099555,19.8545348 C18.6074666,19.837325 18.6052889,19.8201457 18.6031111,19.8029969 C18.6009333,19.785848 18.5984445,19.768821 18.5965778,19.7516722 C18.5953334,19.7345234 18.594089,19.717405 18.5925334,19.7003171 C18.5916001,19.6832291 18.5897335,19.6662326 18.5894224,19.6491751 C18.5888001,19.6321481 18.588489,19.6151516 18.5881779,19.598216 C18.5866224,19.5643752 18.5878668,19.5306867 18.588489,19.4972723 C18.588489,19.463858 18.5922223,19.4307787 18.5944001,19.398004 C18.6056,19.2669357 18.6301775,19.141807 18.6647105,19.0270042 C18.6992435,18.9121405 18.7431097,18.8074808 18.790087,18.714944 C18.8373754,18.6224073 18.888086,18.5418108 18.9372411,18.4738551 C18.9863961,18.4058689 19.0336845,18.350158 19.0747508,18.3063873 C19.1155059,18.2624035 19.1506611,18.2308776 19.1746164,18.2096472 C19.1988829,18.1885995 19.2125716,18.1786087 19.2125716,18.1786087" id="Fill-41" fill="#E59386"></path>
            <path d="M8.91769788,16.6455693 C8.91769788,16.6455693 8.44792485,13.962796 8.98116391,13.8951753 C10.0893305,13.754695 10.5192817,12.4790709 10.4228382,11.5482513 C10.286884,10.2371417 14.5195079,11.337744 14.5907517,11.3563853 C14.5400411,11.3430744 14.5400411,12.2690205 14.5481299,12.3265285 C14.5885739,12.6149824 14.6806619,12.8977098 14.8390158,13.145378 C15.1202574,13.5849428 15.6534965,13.7871346 16.1512692,13.8952058 C16.5507318,13.9819247 16.922817,16.358151 16.6879305,17.1246403 C16.4530439,17.89116 12.6737044,19.7308073 12.6737044,19.7308073 C9.38560426,19.9990663 9.09378499,17.1437995 9.09378499,17.0096547 L8.91769788,16.6455693" id="Fill-42" fill="#EFAA9E"></path>
            <path d="M14.559952,11.5166036 C14.5819816,11.4207772 14.6130234,11.356233 14.6560813,11.356233 C14.6570826,11.356233 14.658084,11.3562635 14.6590853,11.3563244 C14.661088,11.3565376 14.6620894,11.356629 14.6620894,11.356629 C14.6620894,11.356629 14.612022,11.4156905 14.559952,11.5166036 M10.4327937,11.3743261 C10.5065263,11.0750895 10.880478,10.9462143 11.3766953,10.9145361 C10.8807892,10.9462752 10.5065263,11.0752418 10.4327937,11.3743261" id="Fill-43" fill="#E3C0B8"></path>
            <path d="M12.5206392,13.5522594 C12.511306,13.5522594 12.5019728,13.5521681 12.4926395,13.5520158 C11.6806477,13.5364204 10.6151029,12.6382231 10.4321715,12.0894298 C10.4433714,11.9221448 10.4430602,11.7427673 10.4228382,11.5482513 C10.416305,11.4847427 10.4200383,11.4268997 10.4327937,11.3743261 C10.5065263,11.0752418 10.8807892,10.9462752 11.3766953,10.9145361 C11.4631833,10.9090229 11.5534046,10.9064643 11.6464259,10.9064643 C12.8588136,10.9064643 14.5406633,11.3432267 14.5907517,11.3563244 C14.5904405,11.3562635 14.5901294,11.356233 14.5898183,11.356233 C14.5764407,11.356233 14.5667963,11.4207772 14.559952,11.5166036 C14.5366189,11.6603128 14.5123524,11.8888523 14.5303967,12.1526033 C14.2329775,12.8437046 13.3534753,13.5523204 12.5206392,13.5522594" id="Fill-44" fill="#E98B7D"></path>
            <path d="M18.104405,18.8040388 C17.6470763,17.6716975 17.4663226,17.4950309 17.3057909,16.294612 C17.1589479,15.1967511 16.8820618,14.2683987 16.8820618,14.2683987 C16.5952203,13.7865559 16.1512692,13.8952058 16.1512692,13.8952058 C16.1512692,13.8952058 16.219713,14.218993 16.2757124,14.78128 C16.4461996,16.4930268 15.7228735,18.0186036 13.8266705,18.4163775 C12.4148625,18.7125986 10.6586581,18.5806774 9.75084502,17.3357873 C9.02067462,16.3347275 8.74223299,15.9927254 8.86294288,14.78128 C8.91894231,14.218993 8.98116391,13.8952058 8.98116391,13.8952058 C8.98116391,13.8952058 8.66321156,13.6159203 8.37668113,14.0977632 C8.37668113,14.0977632 7.96881858,15.1967511 7.82197562,16.294612 C7.66144391,17.4950309 7.48006797,17.6716975 7.02273926,18.8040388 C6.66309845,19.6944383 6.31683528,20.6788671 6.42478974,21.668535 C6.49541125,22.3141294 6.80869697,22.8896665 7.07407207,23.4734886 C7.31798072,24.0099458 7.45829041,24.5836248 7.61104442,25.1492624 C7.64713294,25.2826761 7.92028574,26.6006697 7.84655315,26.5848306 C11.0649651,27.273221 14.0914234,27.2802268 17.3045465,26.5848306 C17.2308139,26.6009743 17.4915223,25.2826761 17.5276109,25.1492624 C17.680676,24.5836248 17.8085414,24.0099458 18.05245,23.4734886 C18.3178251,22.8896665 18.6314219,22.3141294 18.7017323,21.668535 C18.8096868,20.6788671 18.4640458,19.6944383 18.104405,18.8040388" id="Fill-45" fill="#DC3965"></path>
            <path d="M6.59652134,22.0970732 C6.59652134,22.0970732 6.61861001,22.1457175 6.65967626,22.236914 C6.69700921,22.330395 6.77043069,22.4577167 6.86251865,22.6137925 C6.96331763,22.7667309 7.0908719,22.9486366 7.27162563,23.1232014 C7.45113493,23.2976444 7.67731042,23.4679449 7.94797435,23.6047397 C8.2192605,23.7402551 8.53659062,23.8354114 8.87849828,23.8777504 C9.22258369,23.9190539 9.58595779,23.8972751 9.95990957,23.8234102 C10.3207948,23.7488448 10.7028354,23.5952058 11.1103868,23.4609696 C11.5120272,23.3258806 11.9783781,23.1923451 12.4397512,23.1831158 C12.9459238,23.1826893 13.3830305,23.29536 13.8024041,23.4229559 C14.2186665,23.5472012 14.6007071,23.7005965 14.9737256,23.7874068 C15.3473662,23.8812838 15.698296,23.9110125 16.0535813,23.8839947 C16.3964223,23.8588349 16.7227746,23.7799137 17.0052606,23.6669689 C17.5733437,23.4378202 17.9700064,23.078852 18.1961819,22.7929568 C18.311914,22.6509229 18.395291,22.53015 18.4453794,22.4445886 C18.4967122,22.3589053 18.5240897,22.3131852 18.5240897,22.3131852 C18.5240897,22.3131852 18.5066676,22.3635352 18.4740013,22.4579604 C18.4407127,22.5522333 18.3884466,22.6919218 18.2932476,22.8562521 C18.1149827,23.1869232 17.7559641,23.6413828 17.1508591,23.963982 C16.8506399,24.1252055 16.4978435,24.2532278 16.1027364,24.3093956 C15.7216291,24.3707111 15.2789225,24.3716249 14.8632822,24.2803065 C14.4439087,24.1978215 14.0366684,24.0704084 13.6393835,23.9525901 C13.2473875,23.8356855 12.8329916,23.7514034 12.4724175,23.7553022 C12.0661105,23.7570994 11.6909143,23.8599315 11.2886517,23.9860958 C10.8907446,24.1135089 10.4850598,24.2456738 10.0495087,24.3194473 C9.62733515,24.3883778 9.19707284,24.3761939 8.80849898,24.2984606 C8.41774738,24.22356 8.06650648,24.0736067 7.77935383,23.8874366 C7.48940121,23.7034597 7.26789233,23.4795196 7.102694,23.2652962 C6.93282905,23.0524434 6.83514115,22.8374889 6.7589197,22.6644471 C6.6886093,22.4864098 6.64847637,22.3437668 6.62980989,22.2464479 C6.60803234,22.1490376 6.59652134,22.0970732 6.59652134,22.0970732" id="Fill-46" fill="#CA295A"></path>
            <path d="M10.6151029,3.66100268 C10.3627944,3.58604123 10.0554197,3.34428216 9.90359903,3.11994607 C9.67244581,2.77809626 9.83266641,2.11172822 9.96395397,1.75769451 C10.2171959,1.07536556 10.9386552,0.319719991 11.6290038,0.1281586 C12.2362866,-0.0404361371 12.9281907,-0.0498177412 13.5448067,0.142657443 C13.8646257,0.242443596 14.1816447,0.396204433 14.436131,0.612986501 C14.7335502,0.866076595 14.8122605,1.21794767 15.0365694,1.52385498 C15.3333664,1.92811683 15.6049636,2.23834942 15.568564,2.77654281 C15.5595419,2.91160136 15.5299866,3.04934036 15.4518985,3.16112766 C15.1588348,3.5812895 13.6583611,3.28698736 13.2078767,3.26795002 C12.8015697,3.25077072 12.3952627,3.23304314 11.9889557,3.22311326 C11.8116242,3.21878797 11.5194938,3.1617064 11.3493177,3.23085004 C11.1810083,3.29935402 10.7034576,3.6562205 10.7034576,3.6562205" id="Fill-47" fill="#131313"></path>
            <path d="M14.1520894,0.252190717 C14.1520894,0.252190717 14.194089,0.265379791 14.2650216,0.295626326 C14.3001768,0.311038962 14.3427986,0.330106767 14.3903981,0.355053306 C14.4379976,0.379999844 14.4915082,0.408845231 14.5468854,0.445853832 C14.6028849,0.481308985 14.6604398,0.525140571 14.718617,0.575734222 C14.7743054,0.628520975 14.8324825,0.6873083 14.8772821,0.7614778 C14.923015,0.83442891 14.9494591,0.928031734 14.9656368,1.00649606 C14.9855477,1.08511268 15.0116807,1.1652523 15.0493248,1.23576663 C15.0857244,1.3076821 15.1370572,1.36869299 15.1995899,1.41907342 C15.2621226,1.4691188 15.3327442,1.51188429 15.4033657,1.55090324 L15.4298098,1.565463 L15.4363431,1.56917909 L15.4394542,1.57125035 L15.4456763,1.57542334 L15.4584318,1.58373885 C15.4752316,1.59464344 15.4917203,1.6046647 15.5085202,1.62169171 C15.5436754,1.65172502 15.5679418,1.6839819 15.5912749,1.71581235 C15.6366966,1.78066116 15.6634519,1.84864733 15.6855406,1.91099845 C15.7073181,1.97356278 15.7191403,2.03268516 15.7290957,2.08471042 C15.7381178,2.13700982 15.7434067,2.18276037 15.7462066,2.22056092 C15.7499399,2.25823964 15.7499399,2.28802928 15.750251,2.3082241 C15.750251,2.32844937 15.750251,2.33923213 15.750251,2.33923213 C15.750251,2.33923213 15.7437178,2.29646663 15.726918,2.22339368 C15.7188291,2.18678106 15.7066959,2.14291901 15.692385,2.09311731 C15.6765185,2.04374205 15.6584742,1.98821392 15.6326522,1.93067545 C15.6062081,1.87371571 15.5750973,1.81273528 15.5315421,1.75787726 C15.5094535,1.73140774 15.484876,1.70405488 15.459054,1.68471294 C15.4478541,1.67365605 15.430121,1.66360433 15.4126989,1.65315663 L15.3999435,1.64535893 L15.3934102,1.64142963 L15.389988,1.6394802 C15.3868769,1.63768308 15.3934102,1.64136871 15.3924769,1.64082043 L15.3915436,1.64039399 L15.389988,1.63954112 L15.3622994,1.62565147 C15.2885668,1.58772908 15.2107898,1.54804002 15.139235,1.49126304 C15.0676802,1.43536939 15.003903,1.36208322 14.9619035,1.27999419 C14.9192817,1.19766147 14.8934597,1.11243508 14.8729266,1.02693455 C14.8548823,0.940063336 14.8399491,0.87040188 14.8023051,0.803664559 C14.7649721,0.737780112 14.7161282,0.679693361 14.6672842,0.626967528 C14.6153292,0.576465256 14.5646186,0.529526775 14.5135969,0.490325072 C14.4631974,0.450300956 14.4146645,0.416246951 14.3711094,0.386487772 C14.3272432,0.357215948 14.2883547,0.332391249 14.2556884,0.31250103 C14.223022,0.293067707 14.1972001,0.27777691 14.1794669,0.267390134 C14.1617338,0.257460255 14.1520894,0.252190717 14.1520894,0.252190717" id="Fill-48" fill="#131313"></path>
            <path d="M15.6351411,7.61577527 C15.6351411,7.61577527 16.0902921,6.93725379 16.3674893,7.4219294 C16.6449976,7.90657454 15.951849,9.16669455 15.8924274,9.41871855 C15.8330058,9.67074256 15.4963869,9.97841653 15.2985223,9.89242864 C15.1003465,9.80644076 15.6351411,7.61577527 15.6351411,7.61577527" id="Fill-49" fill="#E29088"></path>
            <path d="M9.42511497,7.61577527 C9.42511497,7.61577527 8.96965291,6.93725379 8.69245571,7.4219294 C8.41525851,7.90657454 9.10840706,9.16669455 9.16782869,9.41871855 C9.22725031,9.67074256 9.56386913,9.97841653 9.7617338,9.89242864 C9.95990957,9.80644076 9.42511497,7.61577527 9.42511497,7.61577527" id="Fill-50" fill="#E29088"></path>
            <path d="M15.7539843,7.51641555 C15.7539843,7.51641555 15.3843881,6.21100188 15.3314997,5.93957502 C15.2786114,5.66814815 14.9752811,5.22870529 14.3546207,4.56952576 C13.7604045,3.93818644 12.609305,4.24348455 12.5131727,4.27038051 C12.4170403,4.24348455 11.2659408,3.93818644 10.6714135,4.56952576 C10.0510642,5.22870529 9.74742283,5.66814815 9.69453447,5.93957502 C9.64195723,6.21100188 9.27236096,7.51641555 9.27236096,7.51641555 L9.33831585,7.87830789 C9.33831585,7.87830789 9.29351631,8.52807535 9.52311398,9.32590768 C9.78693354,10.2435687 9.64195723,10.5796311 10.0115535,11.2388107 C10.3811498,11.8979598 11.0279432,12.7122403 12.4008627,12.8027058 L12.5131727,12.7783076 L12.6251715,12.8027058 C13.9984021,12.7122403 14.6451956,11.8979598 15.0147918,11.2388107 C15.3843881,10.5796311 15.2391007,10.2435687 15.5032313,9.32590768 C15.732829,8.52807535 15.6880295,7.87830789 15.6880295,7.87830789 L15.7539843,7.51641555" id="Fill-51" fill="#EFA99D"></path>
            <path d="M12.7969031,2.79880889 C12.7969031,2.79880889 12.3084636,2.35936602 11.3710953,2.60493256 C10.4340381,2.85052955 10.0314644,3.05997082 9.67493467,3.40891776 C9.31840494,3.75789516 9.17342863,4.12618404 8.84334308,5.01801517 C8.51325752,5.90981584 8.79698799,6.65044475 9.02129683,7.25793408 C9.24591679,7.86539295 9.24591679,8.02049402 9.3908931,7.90416822 C9.53618052,7.78784242 9.50973634,7.59396608 9.58906887,7.06405775 C9.66840141,6.53411895 9.62857959,6.48242875 9.95866514,6.09467609 C10.2887507,5.70692342 10.5395037,5.12529442 10.7902567,4.91850315 C11.0413209,4.71171189 11.384473,4.55661082 11.8729125,4.75048715 C12.361352,4.94436348 12.8102808,4.76340209 12.9157464,4.37564942 C13.021212,3.98792722 13.1005445,3.67772508 13.021212,3.40629822 C12.9421905,3.13487135 12.9157464,2.81175429 12.7969031,2.79880889" id="Fill-52" fill="#1C1C1D"></path>
            <path d="M12.9157464,4.47906029 C12.9157464,4.47906029 12.862858,4.76340209 13.2722761,4.84095262 C13.6813831,4.91850315 14.3810649,4.55661082 14.7901719,5.15115475 C15.1995899,5.74569869 15.4238988,6.27563748 15.5162979,6.85723602 C15.6086969,7.43886502 15.6220746,7.78784242 15.8992718,7.73615222 C16.176469,7.68443155 16.1235806,6.99942215 16.2953122,6.62458442 C16.4667327,6.24977715 16.5342431,4.61631194 15.9932264,4.00882261 C15.4518985,3.40136374 15.7275402,3.26411209 14.816616,2.76003362 C13.9056919,2.25598562 12.9817013,2.39814129 12.7969031,2.79880889 C12.7969031,2.79880889 12.7178817,3.00563062 12.8233473,3.18656156 C12.9288129,3.36752295 12.9157464,3.74233022 12.8893022,3.88451635 C12.862858,4.02670248 12.8233473,4.41442469 12.9157464,4.47906029" id="Fill-53" fill="#28292B"></path>
            <path d="M13.2324543,7.32253922 C13.2324543,7.32253922 13.1534328,7.51641555 13.3911193,7.51641555 C13.6284947,7.51641555 14.3017324,7.08988762 14.6847063,7.16743815 C15.0676802,7.24498869 15.2391007,7.38717482 15.2391007,7.38717482 C15.2391007,7.38717482 15.0571025,6.94773195 14.5938627,6.92187162 C14.1303119,6.89601129 13.5360956,7.14160828 13.2324543,7.32253922" id="Fill-54" fill="#181919"></path>
            <path d="M11.9394896,7.32253922 C11.9394896,7.32253922 12.018511,7.51641555 11.7808245,7.51641555 C11.5434491,7.51641555 10.8702115,7.08988762 10.4872376,7.16743815 C10.1045748,7.24498869 9.93284318,7.38717482 9.93284318,7.38717482 C9.93284318,7.38717482 10.1148413,6.94773195 10.5780811,6.92187162 C11.041632,6.89601129 11.6358482,7.14160828 11.9394896,7.32253922" id="Fill-55" fill="#181919"></path>
            <path d="M12.0707771,9.76535055 C12.0707771,9.76535055 12.0707771,9.76035515 12.0729549,9.75112585 C12.0751326,9.74220114 12.0797993,9.72782413 12.0944213,9.71536609 C12.1084212,9.70269484 12.1320654,9.69401381 12.1581985,9.69392243 C12.1846426,9.69337415 12.2132646,9.69900921 12.243442,9.70842127 C12.251842,9.71192414 12.257753,9.71353851 12.2658418,9.71746782 C12.2736195,9.72139713 12.2820194,9.72532643 12.2891749,9.73001724 C12.2929082,9.73233218 12.2966415,9.73464712 12.3003748,9.73699252 C12.303797,9.7395816 12.3072192,9.74220114 12.3109525,9.74485114 C12.318108,9.74999883 12.3246412,9.75593849 12.3317967,9.76169538 C12.3588631,9.78533215 12.3840628,9.81283731 12.4083293,9.84174361 C12.4322846,9.870589 12.4568621,9.90007404 12.482373,9.9277315 C12.5078838,9.95465792 12.5365058,9.98030503 12.5669943,9.98862055 C12.5819275,9.99315905 12.5968607,9.99349411 12.6124161,9.9898694 C12.6279715,9.98679296 12.6432158,9.97783779 12.6578379,9.96876079 C12.687082,9.94844413 12.7138373,9.92252288 12.7371704,9.89513956 C12.7617479,9.86672061 12.7881921,9.83952005 12.8149474,9.81637064 C12.8410805,9.79276433 12.8687691,9.77317871 12.8961466,9.75788791 C12.9235241,9.74241436 12.9509016,9.73187528 12.9764124,9.72691034 C13.0019233,9.72173218 13.0252564,9.7241385 13.0429895,9.72885977 C13.0520117,9.73172298 13.0597894,9.73409884 13.0657004,9.73805861 C13.0719226,9.74143964 13.0769003,9.74421148 13.0806336,9.74753159 C13.0877891,9.75353217 13.0918335,9.75673044 13.0918335,9.75673044 C13.0918335,9.75673044 13.0871669,9.7544155 13.079078,9.75005975 C13.0750336,9.74756205 13.0694337,9.74582585 13.0632115,9.74378505 C13.0569894,9.74122643 13.0492117,9.74028217 13.0408118,9.73894194 C13.0240119,9.73732758 13.0037899,9.73869827 12.9817013,9.74606953 C12.9596126,9.75362355 12.9362795,9.76632526 12.9126353,9.78286491 C12.8889911,9.79958731 12.8653469,9.82036087 12.8420138,9.84418039 C12.8186807,9.86815222 12.7969031,9.89456083 12.77357,9.92371081 C12.7673479,9.93117345 12.7611257,9.93872747 12.7549035,9.94631195 C12.7486814,9.95386597 12.7415259,9.96102401 12.7346815,9.96848665 C12.7281483,9.97607113 12.7197483,9.98274181 12.7122818,9.98993032 C12.7048152,9.9970579 12.6954819,10.0030889 12.687082,10.0096987 C12.6687266,10.0215171 12.6491268,10.0335182 12.6251715,10.0391533 C12.6018384,10.0452148 12.5753942,10.0451843 12.55175,10.0380872 C12.5281058,10.0309291 12.5075727,10.0186843 12.4904618,10.004947 C12.4733508,9.99120962 12.4584177,9.97631481 12.4444178,9.96114585 C12.4170403,9.93086885 12.3946405,9.89903841 12.3719296,9.86985797 C12.3489076,9.8407689 12.3277523,9.81271547 12.3047303,9.78947468 C12.2929082,9.77802181 12.2813972,9.7672086 12.269264,9.75840573 C12.263353,9.75341033 12.2574419,9.75015113 12.2515309,9.74622183 C12.246242,9.7425362 12.237531,9.73878965 12.2322422,9.73595689 C12.205798,9.72471724 12.1802871,9.71621897 12.1575762,9.71359943 C12.1345543,9.71097989 12.1146433,9.71469598 12.1009546,9.72343793 C12.0869547,9.73202758 12.0794881,9.74384596 12.0754437,9.75203964 C12.0717104,9.76035515 12.0707771,9.76535055 12.0707771,9.76535055" id="Fill-56" fill="#DE7F76"></path>
            <path d="M12.0885103,9.28283759 C12.0885103,9.28283759 12.0779326,9.29298069 12.0605106,9.31104332 C12.0427774,9.32916688 12.0181999,9.35533181 11.9911335,9.38789328 C11.9643782,9.42069844 11.9345118,9.45996106 11.9121121,9.50531563 C11.9009122,9.52791677 11.89189,9.55194952 11.8869123,9.57637824 C11.8850457,9.58862306 11.8834901,9.60095926 11.8841123,9.61305178 C11.8841123,9.62538798 11.885979,9.63656671 11.8897123,9.64990808 C11.8925123,9.66035578 11.8971789,9.67287474 11.9027788,9.68411439 C11.9086899,9.69550634 11.9152231,9.70674598 11.9223786,9.71746782 C11.9373118,9.73891148 11.9547339,9.75898446 11.9727781,9.77750399 C12.0088666,9.81475627 12.0480662,9.8457643 12.0816659,9.87235567 C12.1155767,9.89855105 12.1448208,9.92014702 12.1647317,9.93604701 C12.1749983,9.94387517 12.1824649,9.95057631 12.1874426,9.95538895 C12.1924203,9.96023206 12.1939759,9.96355217 12.1939759,9.96355217 C12.1939759,9.96355217 12.191487,9.96096309 12.185576,9.95776482 C12.1796649,9.95435332 12.1706428,9.95027172 12.1591318,9.94472804 C12.1361098,9.93382345 12.1028212,9.91862403 12.064555,9.89690623 C12.0455774,9.88615393 12.0247331,9.87390911 12.0038889,9.85947119 C11.9830447,9.84515511 11.9612671,9.82919419 11.9401118,9.81043099 C11.9192675,9.7917287 11.8984233,9.77065055 11.880379,9.74613045 C11.8713569,9.73391608 11.862957,9.72084885 11.8558015,9.7068069 C11.848646,9.69255174 11.842735,9.67847933 11.8380684,9.66136095 C11.8343351,9.64713625 11.8318462,9.62998741 11.8318462,9.61390466 C11.831224,9.59757823 11.834024,9.58176961 11.8368239,9.5664179 C11.8439794,9.53592769 11.8564237,9.50833115 11.8707347,9.48378059 C11.8850457,9.45913865 11.9021566,9.4377559 11.9189564,9.41844442 C11.9354452,9.39904155 11.9528672,9.38234961 11.9693559,9.36760709 C12.0020223,9.33806113 12.0321997,9.3170439 12.0536662,9.30318471 C12.0754437,9.28935598 12.0885103,9.28283759 12.0885103,9.28283759" id="Fill-57" fill="#DE7F76"></path>
            <path d="M13.0853002,9.28283759 C13.0853002,9.28283759 13.0986778,9.28935598 13.1201443,9.30318471 C13.1416107,9.3170439 13.1717882,9.33806113 13.2047657,9.36760709 C13.2212544,9.38234961 13.2383653,9.39904155 13.2551652,9.41844442 C13.271965,9.4377559 13.2887648,9.45913865 13.3030758,9.48378059 C13.3173867,9.50833115 13.3301422,9.53592769 13.3369866,9.5664179 C13.3400976,9.58176961 13.3428976,9.59757823 13.3422754,9.61390466 C13.3422754,9.62998741 13.3394754,9.64713625 13.3357421,9.66136095 C13.3310755,9.67847933 13.3251644,9.69255174 13.318009,9.7068069 C13.3108535,9.72084885 13.3024536,9.73391608 13.2934314,9.74613045 C13.2753872,9.77065055 13.254854,9.7917287 13.2336987,9.81043099 C13.2128545,9.82919419 13.1910769,9.84515511 13.1699216,9.85947119 C13.1490773,9.87390911 13.1285442,9.88615393 13.1092555,9.89690623 C13.0709892,9.91862403 13.0377007,9.93382345 13.0146787,9.94472804 C13.0034788,9.95027172 12.9941456,9.95435332 12.9885456,9.95776482 C12.9823235,9.96096309 12.9798346,9.96355217 12.9798346,9.96355217 C12.9798346,9.96355217 12.9813901,9.96023206 12.986679,9.95538895 C12.9913456,9.95057631 12.9991233,9.94387517 13.0090788,9.93604701 C13.0289897,9.92014702 13.0582338,9.89855105 13.0921446,9.87235567 C13.1260553,9.8457643 13.1649438,9.81475627 13.2010324,9.77750399 C13.2193877,9.75898446 13.2364987,9.73891148 13.2514319,9.71746782 C13.2588985,9.70674598 13.2654317,9.69550634 13.2710317,9.68411439 C13.2766316,9.67287474 13.2816093,9.66035578 13.2844093,9.64990808 C13.2878315,9.63656671 13.2896981,9.62538798 13.2896981,9.61305178 C13.2903204,9.60095926 13.2887648,9.58862306 13.2868982,9.57637824 C13.2822315,9.55194952 13.2732094,9.52791677 13.2620095,9.50531563 C13.2396098,9.45996106 13.2094323,9.42069844 13.182677,9.38789328 C13.1556106,9.35533181 13.1310331,9.32916688 13.113611,9.31104332 C13.0958779,9.29298069 13.0853002,9.28283759 13.0853002,9.28283759" id="Fill-58" fill="#DE7F76"></path>
            <path d="M11.4460723,10.887427 C11.4460723,10.887427 11.6131373,11.0061591 11.7979354,11.18709 C11.9827336,11.3680514 12.1852649,11.4972921 12.6164605,11.5059123 C13.0476561,11.5145324 13.346942,11.2215705 13.4349856,11.1267797 C13.5230291,11.031989 13.6418724,10.887427 13.6418724,10.887427 C13.6418724,10.887427 13.6375168,10.8807563 13.3820972,10.887427 C13.1269887,10.8941281 11.4460723,10.887427 11.4460723,10.887427" id="Fill-59" fill="#DF5F5E"></path>
            <path d="M13.2215655,10.697023 C13.0016122,10.5505421 12.7969031,10.4546852 12.5461501,10.583926 C12.2910416,10.4546852 12.0885103,10.5505421 11.8685569,10.697023 C11.6482925,10.843504 11.4460723,10.887427 11.4460723,10.887427 C11.4812275,10.8807563 11.7098919,10.9802987 11.9653115,10.9544384 C12.2204201,10.9286085 12.5461501,10.9932137 12.5461501,10.9932137 C12.5461501,10.9932137 12.8697024,10.9286085 13.1248109,10.9544384 C13.3799194,10.9802987 13.6067172,10.8807563 13.6418724,10.887427 C13.6418724,10.887427 13.4415188,10.843504 13.2215655,10.697023" id="Fill-60" fill="#E46E6D"></path>
            <path d="M13.148144,8.30483582 C13.1621439,8.29454042 13.1795659,8.29021514 13.1963657,8.28579847 C13.2134767,8.28186916 13.2308987,8.27970652 13.2486319,8.27781802 C13.283476,8.27437606 13.3183201,8.27474158 13.3534753,8.27586859 C13.3708973,8.27647779 13.3883194,8.27781802 13.4057414,8.27897549 C13.4231635,8.2804071 13.4402744,8.28253928 13.4576964,8.28427548 C13.4751185,8.28598123 13.4922294,8.28899675 13.5096515,8.29131169 L13.5354734,8.29502778 L13.5609843,8.29959674 L13.6123171,8.30888697 L13.6633388,8.31963926 L13.7638267,8.34077833 C13.7806265,8.34431166 13.7968041,8.34650476 13.8132928,8.34961166 C13.8297816,8.35226165 13.8459592,8.35588637 13.862759,8.35768349 L13.9128474,8.36432372 C13.9293361,8.36694326 13.9461359,8.36755245 13.9629358,8.36928866 C13.9962243,8.37288291 14.0295129,8.37346164 14.0628014,8.37507601 C14.09609,8.3744059 14.1293785,8.37541107 14.162356,8.37245647 C14.1953334,8.37108578 14.2283109,8.3661513 14.2609772,8.36219153 L14.3098212,8.35332775 C14.3263099,8.35043407 14.3421764,8.34592603 14.358354,8.34230132 C14.3745316,8.33888982 14.3903981,8.33395534 14.4059535,8.32905132 C14.42182,8.32423868 14.4379976,8.31994386 14.453553,8.31388236 C14.4691084,8.30806455 14.4849749,8.30291685 14.5002192,8.29661168 L14.5465743,8.27733066 C14.5764407,8.26301458 14.6072404,8.24952091 14.6367956,8.2331031 C14.666662,8.21805598 14.6952839,8.20026748 14.7248392,8.18363646 L14.7229725,8.18497669 C14.7273281,8.18186979 14.7298169,8.18040772 14.732928,8.17854968 C14.7360391,8.17669163 14.7391502,8.17529049 14.7422612,8.17370658 C14.7484834,8.17084336 14.7547056,8.16804106 14.7609277,8.1659698 C14.7671499,8.16359394 14.7736831,8.16185773 14.7799053,8.16027383 C14.7864386,8.15841578 14.7929718,8.15762383 14.799194,8.15634452 C14.8057273,8.15506521 14.8122605,8.15479107 14.8184827,8.15396866 C14.825016,8.15311578 14.8312381,8.15338992 14.8377714,8.15308532 C14.8443046,8.15271981 14.8505268,8.15314624 14.856749,8.15345084 C14.8632822,8.1537859 14.8695044,8.15396866 14.8757266,8.15497383 L14.894393,8.15759337 L14.9124373,8.16167498 C14.9186595,8.16292383 14.9245705,8.16441635 14.9304816,8.16639624 L14.9482147,8.17181807 C14.9541258,8.17355428 14.9597257,8.17614336 14.9653256,8.17836692 L14.9821255,8.18525082 L15.0147918,8.20142495 L14.9799477,8.19198243 L14.9622146,8.1884491 C14.9563035,8.18738301 14.9507036,8.18582956 14.9447925,8.18503761 L14.9270594,8.18260083 C14.9211483,8.18162611 14.9152373,8.1811083 14.9093262,8.18086462 L14.8919042,8.17979853 L14.8744821,8.18004221 C14.8685711,8.17985945 14.8629711,8.18052956 14.8573712,8.18098646 C14.8514601,8.18144336 14.8458602,8.18177841 14.8402602,8.18287496 C14.8346603,8.18394106 14.8290604,8.18439795 14.8234604,8.18592094 C14.8181716,8.18738301 14.8125716,8.1882968 14.8072828,8.19012439 C14.801994,8.19198243 14.7967051,8.19332266 14.7917274,8.19557668 C14.7864386,8.19758703 14.7814608,8.19974967 14.7767942,8.20218645 C14.7718165,8.20437955 14.767461,8.20718185 14.7627944,8.20983185 L14.7565722,8.21409621 L14.7519056,8.21790368 L14.7519056,8.21805598 L14.7500389,8.21924391 C14.7223503,8.2396824 14.6943506,8.26054734 14.6647954,8.27909733 C14.6358623,8.29850019 14.6053737,8.31561857 14.574574,8.33258465 L14.5272856,8.35622142 C14.5114191,8.36386682 14.4949304,8.37020245 14.4784417,8.37726911 C14.4622641,8.38454899 14.4454642,8.39021451 14.4286644,8.39609324 C14.4121757,8.40197197 14.3953759,8.40788116 14.3779538,8.41226737 C14.3608429,8.41677541 14.3437319,8.42244093 14.3263099,8.42600472 L14.2740437,8.43672655 C14.2385774,8.44208747 14.2034222,8.44769206 14.1676448,8.44936735 C14.1321785,8.45283976 14.0967122,8.45210873 14.0609348,8.45226103 C14.0257796,8.45025068 13.9900022,8.44964149 13.9551581,8.44485931 C13.9200029,8.44156965 13.8851588,8.43587368 13.8506258,8.42984265 C13.8332038,8.42731449 13.8157817,8.4228369 13.7986708,8.41933403 C13.7815598,8.41555702 13.7638267,8.41211507 13.7470269,8.40766795 L13.6972496,8.39438749 L13.6717387,8.38747313 L13.6471612,8.38052831 C13.6144949,8.37111624 13.5818285,8.36188694 13.5488511,8.35341913 C13.5323624,8.34894154 13.5158736,8.3447381 13.4993849,8.34083925 C13.4828962,8.3369404 13.4664075,8.33246281 13.4499187,8.32905132 C13.4166302,8.3214973 13.3833416,8.31479616 13.349742,8.30882605 C13.3164534,8.30328237 13.2825427,8.29874387 13.248943,8.29633755 C13.240232,8.29581973 13.2318321,8.29566743 13.2234321,8.29533237 C13.2150322,8.29527146 13.2063212,8.29554559 13.1979213,8.29566743 C13.1811215,8.2968249 13.1636994,8.29798237 13.148144,8.30483582" id="Fill-61" fill="#181919"></path>
            <path d="M11.9519339,8.29192088 C11.9363785,8.28506744 11.9189564,8.28390997 11.9021566,8.2827525 C11.8937567,8.28263066 11.8850457,8.28232606 11.8766458,8.28241744 C11.8682458,8.2827525 11.8598459,8.28287434 11.8511349,8.28339215 C11.8175352,8.28582893 11.7836245,8.29033698 11.7503359,8.29588065 C11.7167363,8.30185076 11.6834477,8.30858237 11.6501592,8.31613639 C11.6336704,8.31951742 11.6171817,8.32402546 11.600693,8.32789385 C11.5842043,8.33182316 11.5677155,8.33602661 11.5512268,8.34047373 C11.5182494,8.348972 11.485583,8.35820131 11.4529167,8.36758291 L11.4283392,8.37455819 L11.4028283,8.3814421 L11.353051,8.39475301 C11.3362512,8.39920014 11.3185181,8.40261163 11.3014071,8.4064191 C11.2842962,8.40989151 11.2668741,8.41439955 11.2494521,8.41692771 C11.2149191,8.42292828 11.180075,8.42865472 11.1449198,8.43191391 C11.1100757,8.43672655 11.0742983,8.43733575 11.0391431,8.43934609 C11.0033657,8.43916333 10.9678994,8.43992483 10.9324331,8.43645241 C10.8966557,8.43477713 10.8615005,8.42914207 10.8260341,8.42381162 L10.773768,8.41305932 C10.756346,8.40949553 10.739235,8.40386048 10.7221241,8.39935243 C10.704702,8.39496623 10.6879022,8.38905704 10.6714135,8.38314784 C10.6546137,8.37729957 10.6378138,8.3716036 10.6216362,8.36435418 C10.6051475,8.35728751 10.5886588,8.35092143 10.5727923,8.34330649 L10.5255039,8.31963926 C10.4947042,8.30270364 10.4642156,8.28558525 10.4352825,8.26618239 C10.4057273,8.24760194 10.3777276,8.22673701 10.350039,8.20632897 L10.3481723,8.20511058 L10.3481723,8.20498875 L10.3435057,8.20115082 L10.3372835,8.19691691 C10.3326169,8.19423645 10.3282614,8.19146461 10.3232837,8.18927151 C10.3186171,8.18683473 10.3136393,8.18464163 10.3083505,8.18266175 C10.3033728,8.18037726 10.2980839,8.17906749 10.2927951,8.17720945 C10.2875063,8.17538186 10.2819063,8.17443761 10.2766175,8.17297554 C10.2710175,8.17145256 10.2654176,8.17102612 10.2598177,8.16996003 C10.2542177,8.16886348 10.2486178,8.16852842 10.2427067,8.16804106 C10.2371068,8.16758417 10.2315068,8.16694451 10.2255958,8.16712727 L10.2081737,8.16688359 L10.1907517,8.16794968 C10.1848406,8.16819336 10.1789296,8.16868072 10.1730185,8.16965543 L10.1552854,8.17212267 C10.1493743,8.17288416 10.1437744,8.17446807 10.1378633,8.1755037 L10.1201302,8.17906749 L10.0852861,8.18851002 L10.1179524,8.17230543 L10.1347522,8.16545198 C10.1403522,8.16322842 10.1459521,8.16060888 10.1518632,8.15890314 L10.1695963,8.15345084 C10.1755074,8.15150142 10.1814184,8.14997843 10.1876406,8.14872958 L10.2056849,8.14467843 L10.2243513,8.14202843 C10.2305735,8.14102326 10.2367957,8.14087096 10.2433289,8.14053591 C10.2495511,8.14023131 10.2560844,8.13977441 10.2623065,8.14013993 C10.2688398,8.14047499 10.2750619,8.14020085 10.2815952,8.14105372 C10.2878174,8.14184568 10.2943506,8.14215027 10.3008839,8.14342958 C10.3071061,8.14470889 10.3136393,8.14550085 10.3201726,8.14735889 C10.3263948,8.1489428 10.332928,8.150679 10.3391502,8.15302441 C10.3453723,8.15512613 10.3515945,8.15789797 10.3578167,8.16079164 C10.3609277,8.16234509 10.3640388,8.16374624 10.3671499,8.16563474 C10.370261,8.16749279 10.3727498,8.1689244 10.3771054,8.17203129 L10.3752387,8.17069106 C10.404794,8.18732209 10.4334159,8.20514104 10.4632823,8.22018816 C10.4928375,8.23660597 10.5236372,8.25009964 10.5535036,8.26438526 L10.5998587,8.28366629 C10.6151029,8.29000192 10.6309695,8.29514962 10.6465249,8.30093697 C10.6620803,8.30702892 10.6782579,8.31132375 10.6938133,8.31610593 C10.7096798,8.32100995 10.7255463,8.32594443 10.7417239,8.32938638 C10.7579015,8.33298063 10.773768,8.33751913 10.7902567,8.34041281 L10.8391007,8.3492766 C10.871767,8.35323637 10.9047445,8.35814039 10.9377219,8.35951108 C10.9706994,8.36246567 11.0039879,8.3614605 11.0372765,8.36213061 C11.070565,8.36051625 11.1038536,8.35996797 11.1371421,8.35634326 C11.1539419,8.35463752 11.1707418,8.35402832 11.1872305,8.35140878 L11.2373189,8.34476856 C11.2541187,8.34297143 11.2702963,8.33934672 11.286785,8.33666626 C11.3032738,8.33355937 11.3194514,8.33139672 11.3362512,8.32786339 L11.4367391,8.30672432 L11.4877608,8.29594157 L11.5390936,8.2866818 L11.5646045,8.28211284 L11.5904264,8.27839675 C11.6078485,8.27608181 11.6249594,8.27306629 11.6423815,8.27136055 C11.6598035,8.26959388 11.6769144,8.26749216 11.6943365,8.26606055 C11.7117585,8.26490308 11.7291806,8.26356285 11.7466026,8.26295366 C11.7817578,8.26182665 11.8166019,8.26143067 11.8517571,8.26490308 C11.8691792,8.26676113 11.8866012,8.26892377 11.9037121,8.27288354 C11.920512,8.2773002 11.937934,8.28162549 11.9519339,8.29192088" id="Fill-62" fill="#181919"></path>
            <path d="M15.7539843,7.98171875 C15.7539843,7.98171875 15.7580287,7.97550496 15.7658064,7.96420439 C15.7738953,7.95302566 15.7857174,7.93645556 15.8022061,7.91641304 C15.8183837,7.89634006 15.8386057,7.87212456 15.8644277,7.84638606 C15.8899385,7.82064757 15.9204271,7.79232 15.9596267,7.76725162 C15.9795376,7.75494588 16.0016263,7.7431275 16.0277594,7.73560394 C16.0408259,7.73167463 16.0551369,7.72975567 16.0703811,7.72966429 C16.0778477,7.7300298 16.0856254,7.7307913 16.0934031,7.73225337 C16.1008697,7.73459877 16.1092696,7.73584762 16.1164251,7.73980739 C16.1462915,7.7532706 16.1677579,7.77876541 16.1820689,7.80459528 L16.1876689,7.81446424 L16.18798,7.8151039 C16.1882911,7.81607861 16.1873577,7.81379413 16.1889133,7.8174493 L16.1895355,7.81857631 L16.1904688,7.82089125 L16.1923355,7.82552113 L16.1960688,7.83481136 C16.1973132,7.83791825 16.1985576,7.84084239 16.199491,7.84495446 C16.2013576,7.85266077 16.2035354,7.86039755 16.205402,7.86816479 C16.2072687,7.87590157 16.2078909,7.88281593 16.2091353,7.89027857 C16.2116242,7.90505155 16.2119353,7.91948947 16.2128686,7.93429291 C16.2131797,7.9489136 16.2131797,7.9635952 16.2125575,7.9782768 C16.2113131,8.0074877 16.2085131,8.03682044 16.2038465,8.06590951 C16.1954465,8.12420948 16.1820689,8.18208301 16.1665135,8.23919505 C16.150647,8.29618525 16.1329138,8.35244441 16.1130029,8.40693691 C16.0934031,8.46155125 16.0722478,8.5144903 16.0507813,8.56523625 C16.0290038,8.61601266 16.0062929,8.66416953 15.9838931,8.70958503 C15.9621156,8.75512236 15.9394047,8.7972482 15.9179382,8.83581025 C15.8964718,8.87452459 15.8753165,8.90912687 15.8563389,8.93952571 C15.8370502,8.96992454 15.8196281,8.99581533 15.8043838,9.01668026 C15.7894507,9.03775841 15.7763841,9.05347565 15.7676731,9.06419748 C15.758651,9.07470609 15.7539843,9.08034115 15.7539843,9.08034115 C15.7539843,9.08034115 15.7577176,9.07400552 15.764562,9.06209576 C15.7714064,9.05027737 15.7810507,9.03261071 15.7931839,9.01000958 C15.8050061,8.98749982 15.8186948,8.95956822 15.8342502,8.92776824 C15.8491834,8.8956332 15.8659832,8.85932518 15.8837164,8.81951428 C15.9011384,8.77958154 15.9198049,8.73617639 15.9390936,8.69009078 C15.9577601,8.64394426 15.9770488,8.59496497 15.9963375,8.54418856 C16.015315,8.49338169 16.0342926,8.44059494 16.052648,8.3867421 C16.0706923,8.33285879 16.0878032,8.27784848 16.1030475,8.22241172 C16.1182918,8.16709681 16.1313583,8.11135546 16.1406915,8.05640607 C16.1497137,8.00160897 16.1559358,7.94684233 16.1509581,7.89694926 C16.1503359,7.89091822 16.1500248,7.88418662 16.1490915,7.87873432 C16.147847,7.87331249 16.1469137,7.86792111 16.1459804,7.86256019 C16.1456693,7.86003203 16.1444248,7.85674238 16.1434915,7.85357457 L16.1400693,7.84410158 L16.1375805,7.83657802 L16.1338472,7.82887171 C16.1242028,7.80815907 16.1111363,7.79168035 16.0949587,7.7830907 C16.0787811,7.77386139 16.058559,7.77349587 16.038337,7.77739472 C16.0178039,7.78129357 15.9975819,7.78960908 15.9789154,7.79908207 C15.9415824,7.81888091 15.9089161,7.84248722 15.8812275,7.86450962 C15.85385,7.88680616 15.8305169,7.90748833 15.8118504,7.92500269 C15.7742064,7.96012278 15.7539843,7.98171875 15.7539843,7.98171875" id="Fill-63" fill="#CF7370"></path>
            <path d="M9.27889423,7.98171875 C9.27889423,7.98171875 9.25867221,7.96012278 9.22102815,7.92500269 C9.20236167,7.90748833 9.17902857,7.88680616 9.15133996,7.86450962 C9.12365136,7.84248722 9.09129613,7.81888091 9.05396317,7.79908207 C9.03529669,7.78960908 9.01507467,7.78129357 8.99454155,7.77739472 C8.97431953,7.77349587 8.95378641,7.77386139 8.9379199,7.7830907 C8.92174228,7.79168035 8.90836464,7.80815907 8.8987203,7.82887171 L8.894987,7.83657802 L8.89249814,7.84410158 L8.88938706,7.85357457 C8.88845373,7.85674238 8.8872093,7.86003203 8.88689819,7.86256019 C8.88596487,7.86792111 8.88472044,7.87331249 8.88378711,7.87873432 C8.88254268,7.88418662 8.88254268,7.89091822 8.88160936,7.89694926 C8.87694274,7.94684233 8.8831649,8.00160897 8.89218703,8.05640607 C8.90152027,8.11135546 8.9145868,8.16709681 8.92983109,8.22241172 C8.94507538,8.27784848 8.96218632,8.33285879 8.98023058,8.3867421 C8.99858595,8.44059494 9.01756354,8.49338169 9.03654112,8.54418856 C9.05582982,8.59496497 9.07511851,8.64394426 9.09378499,8.69009078 C9.11307368,8.73617639 9.13142905,8.77958154 9.14916221,8.81951428 C9.16689536,8.85932518 9.18338408,8.8956332 9.19862838,8.92776824 C9.21418377,8.95956822 9.22787252,8.98749982 9.23969463,9.01000958 C9.25151673,9.03261071 9.26116108,9.05027737 9.26831656,9.06209576 C9.27516093,9.07400552 9.27889423,9.08034115 9.27889423,9.08034115 C9.27889423,9.08034115 9.2739165,9.07470609 9.26520548,9.06419748 C9.25649446,9.05347565 9.24342792,9.03775841 9.22849474,9.01668026 C9.21325045,8.99581533 9.1955173,8.96992454 9.17653971,8.93952571 C9.15725102,8.90912687 9.13609567,8.87452459 9.11494033,8.83581025 C9.09347388,8.7972482 9.070763,8.75512236 9.04867434,8.70958503 C9.02658567,8.66416953 9.00356368,8.61601266 8.98209723,8.56523625 C8.96063078,8.5144903 8.93916433,8.46155125 8.91956453,8.40693691 C8.89996473,8.35244441 8.88192046,8.29618525 8.86605396,8.23919505 C8.85080967,8.18208301 8.83743203,8.12420948 8.828721,8.06590951 C8.82436549,8.03682044 8.82156552,8.0074877 8.82032109,7.9782768 C8.81969887,7.9635952 8.81969887,7.9489136 8.81969887,7.93429291 C8.8209433,7.91948947 8.8209433,7.90505155 8.82374328,7.89027857 C8.82498771,7.88281593 8.82560992,7.87590157 8.82747657,7.86816479 C8.82934322,7.86039755 8.83152097,7.85266077 8.83338762,7.84495446 C8.83432095,7.84084239 8.83556538,7.83791825 8.83680981,7.83481136 L8.84240975,7.82089125 L8.84334308,7.81857631 L8.84365418,7.8174493 C8.84520972,7.81379413 8.8442764,7.81607861 8.84489862,7.8151039 L8.84520972,7.81446424 L8.85080967,7.80459528 C8.86480953,7.77876541 8.88627598,7.7532706 8.91645345,7.73980739 C8.92360893,7.73584762 8.93169774,7.73459877 8.93947544,7.73225337 C8.94725314,7.7307913 8.95503084,7.7300298 8.96249743,7.72966429 C8.97774172,7.72975567 8.99205269,7.73167463 9.00511922,7.73560394 C9.03125229,7.7431275 9.05334095,7.75494588 9.07325186,7.76725162 C9.11245147,7.79232 9.14262894,7.82064757 9.1684509,7.84638606 C9.19427286,7.87212456 9.21449488,7.89634006 9.2306725,7.91641304 C9.24716122,7.93645556 9.25898332,7.95302566 9.26707213,7.96420439 C9.27484983,7.97550496 9.27889423,7.98171875 9.27889423,7.98171875" id="Fill-64" fill="#CF7370"></path>
            <path d="M9.43600375,7.33612427 C9.43600375,7.33612427 9.43973705,7.3427645 9.4456481,7.35552713 C9.45155915,7.36832023 9.46027018,7.38705298 9.47022563,7.41142078 C9.49013654,7.46003455 9.51564739,7.53079256 9.53835827,7.61833389 C9.56075805,7.70587522 9.58004674,7.81038264 9.58502447,7.92524637 C9.58533558,7.93965383 9.58595779,7.95415267 9.5862689,7.96877335 C9.58595779,7.98345496 9.58564669,7.9982584 9.58533558,8.01312276 C9.58471336,8.02804804 9.58378004,8.04309515 9.58284671,8.05820319 C9.58160228,8.07334169 9.57973563,8.08854111 9.57786899,8.1038319 C9.5704024,8.16496463 9.55578032,8.22725483 9.53182501,8.2877479 C9.52529174,8.30270364 9.51844737,8.31759845 9.51160299,8.33237144 C9.50351418,8.3467789 9.49604759,8.36143004 9.48702546,8.37547199 C9.47769222,8.38920934 9.46929231,8.40352542 9.45871464,8.41634898 L9.44284813,8.43566046 L9.43569265,8.44415873 L9.42853716,8.4525047 C9.41889282,8.46353114 9.40862625,8.47501446 9.40147077,8.48479204 L9.38933756,8.49983916 L9.37782656,8.51586099 C9.36196006,8.53715236 9.34920463,8.55938798 9.33676031,8.58137992 C9.31373832,8.62594254 9.29756071,8.67160171 9.29102744,8.71680399 C9.28729415,8.73934421 9.28573861,8.76170166 9.28636082,8.78351085 C9.28636082,8.80538095 9.28853858,8.82667232 9.29164966,8.84714127 C9.29787182,8.88817056 9.30969392,8.92569698 9.32151602,8.95880673 C9.33364923,8.9918251 9.34640466,9.02042681 9.35729344,9.04406358 C9.36818222,9.06785265 9.37658213,9.08652448 9.38249318,9.09925666 C9.38840423,9.11208021 9.3908931,9.11911642 9.3908931,9.11911642 C9.3908931,9.11911642 9.38591537,9.1134509 9.37689324,9.10278999 C9.36756,9.09206815 9.35356014,9.07683828 9.33676031,9.05627794 C9.31996048,9.03577853 9.30036068,9.01010096 9.28013866,8.97836189 C9.26053886,8.94647053 9.24000573,8.90848722 9.22476144,8.86319356 C9.20951715,8.81817405 9.19987281,8.76563097 9.20173945,8.70940227 C9.20329499,8.6531431 9.21729485,8.59414256 9.24125017,8.53794431 C9.25338338,8.51007364 9.26769434,8.4824771 9.28480528,8.45637309 C9.30036068,8.43036046 9.32182713,8.40233749 9.33924918,8.38104612 L9.34609355,8.37248693 L9.35293793,8.36374498 L9.36476003,8.34845419 C9.36880443,8.34358062 9.37191551,8.33785419 9.37564881,8.33243235 L9.38622648,8.31610593 C9.39307085,8.30495766 9.3986708,8.29301743 9.40520407,8.28156457 L9.42138168,8.24501286 C9.4416037,8.195333 9.45467023,8.14172384 9.46400347,8.08771869 C9.4730256,8.03359171 9.47800333,7.97894691 9.48018109,7.92549004 C9.48391438,7.81848493 9.47800333,7.71681027 9.47084785,7.62942124 C9.46307015,7.54206266 9.45404802,7.46874604 9.44720364,7.41726905 C9.44378145,7.3915001 9.44098148,7.37121391 9.43911483,7.35741564 C9.43724819,7.34352599 9.43600375,7.33612427 9.43600375,7.33612427" id="Fill-65" fill="#1C1C1D"></path>
            <path d="M9.16658425,7.63274135 C9.16658425,7.63274135 9.33831585,7.90416822 9.29849403,8.13036235 C9.25898332,8.35652602 9.2073394,8.55689028 9.21667264,8.67967355 C9.21667264,8.67967355 9.2854275,8.53748742 9.42418165,8.38238635 C9.5626247,8.22728528 9.57102461,7.8272878 9.51066967,7.66216547 C9.45031472,7.49704315 9.16658425,7.63274135 9.16658425,7.63274135" id="Fill-66" fill="#1C1C1D"></path>
            <path d="M9.59373549,7.0323796 C9.59373549,7.0323796 9.58253561,7.41949262 9.60213541,7.58750862 C9.62204632,7.75552462 9.66155703,8.17233589 9.43071492,8.41631852 C9.1995617,8.66027068 9.24467235,8.44056448 9.24467235,8.44056448 C9.24467235,8.44056448 9.33458256,8.22850368 9.13174016,7.56871495 C8.92889777,6.90895668 9.36476003,7.14160828 9.36476003,7.14160828 L9.59373549,7.0323796" id="Fill-67" fill="#1C1C1D"></path>
            <path d="M15.6740296,7.62092297 L15.6746518,7.62591837 C15.6746518,7.64507755 15.6746518,7.77227748 15.6814962,7.96231589 C15.6849184,8.06210204 15.6783851,8.21315196 15.6709185,8.34272775 C15.6696741,8.36325763 15.6998516,8.36758291 15.7048293,8.34757085 C15.7256735,8.26255768 15.7514955,8.17291462 15.7804285,8.1094365 C15.8529167,7.94940095 16.0563813,7.70736775 16.0899809,7.49880981 C16.1235806,7.29113521 15.6068303,7.43192019 15.6740296,7.62092297" id="Fill-68" fill="#28292B"></path>
            <path d="M15.6074525,7.41583744 C15.6074525,7.41583744 15.6746518,7.65863214 15.6783851,7.86216422 C15.6821184,8.06569629 15.8068727,7.78138495 15.8068727,7.78138495 L15.8199392,7.61659768 L15.7804285,7.50672935 L15.6074525,7.41583744" id="Fill-69" fill="#28292B"></path>
            <path d="M5.73226341,13.2897573 C5.73226341,13.2897573 5.72946344,13.2972504 5.7279079,13.3123889 C5.72666347,13.319882 5.72604125,13.329294 5.72541903,13.3405032 C5.72448571,13.3516515 5.72510793,13.3646883 5.72510793,13.3793394 C5.72573014,13.4380963 5.73537449,13.5239319 5.75466318,13.6319117 C5.76399642,13.6859778 5.77737406,13.7453438 5.79137392,13.8099185 C5.80786264,13.8741581 5.82310693,13.9439719 5.84395117,14.0176845 C5.88315077,14.165658 5.93448359,14.3307803 5.99141634,14.5104928 C6.02159382,14.5999227 6.05083797,14.693556 6.08537095,14.7893823 C6.10185967,14.8374478 6.11897061,14.8863357 6.13608155,14.9359547 C6.15288138,14.986 6.17030343,15.0368374 6.18772547,15.0883448 C6.20483641,15.1398523 6.22319178,15.1913597 6.23999161,15.2447861 C6.25679144,15.2983648 6.27359127,15.3525832 6.2903911,15.4074107 C6.29879102,15.4348854 6.30812426,15.4622992 6.31559085,15.4902308 C6.32305744,15.5181624 6.33083514,15.5462463 6.33861284,15.574452 C6.34607943,15.6026578 6.35385713,15.6310158 6.36163483,15.6594957 C6.36941252,15.6879755 6.37719022,15.7165772 6.38372349,15.7456358 C6.39772335,15.8036312 6.4114121,15.8620835 6.42541196,15.9209622 C6.4387896,15.9800541 6.44998949,16.0400294 6.46243381,16.1001569 C6.47581145,16.1601626 6.48452247,16.2213867 6.49510014,16.2826108 C6.50007787,16.3133143 6.5050556,16.3440786 6.51003333,16.3749039 C6.51376662,16.4058815 6.51749992,16.4369504 6.52123321,16.4680803 C6.55265512,16.7169974 6.56696608,16.9721283 6.56572165,17.2266195 C6.56323279,17.4811717 6.54549963,17.7346578 6.520611,17.9824783 C6.50847779,18.1063886 6.49510014,18.2291719 6.47892253,18.3498839 C6.47518923,18.3800999 6.47145594,18.4102246 6.46772264,18.440258 C6.46585599,18.4548482 6.46430045,18.4694384 6.46243381,18.4839982 C6.46087827,18.4989539 6.45901162,18.5138792 6.45745608,18.528774 C6.45092281,18.5883228 6.44438954,18.6474452 6.43785628,18.7061107 C6.42914525,18.8223147 6.41887869,18.9361428 6.41390096,19.0491789 C6.41234542,19.0773542 6.41078988,19.1053771 6.40923434,19.1332478 C6.4073677,19.1611185 6.40581216,19.1888369 6.40550105,19.2164334 C6.4036344,19.2716265 6.40207886,19.3261494 6.40021221,19.3799414 C6.39647892,19.5952004 6.39523449,19.799098 6.39927889,19.9873698 C6.40021221,20.0344301 6.40083443,20.0805462 6.40207886,20.1255961 C6.4036344,20.1706461 6.40487883,20.2146605 6.40643437,20.2575782 C6.40830102,20.3434748 6.41265653,20.4248328 6.4154565,20.5014086 C6.4232342,20.6544079 6.43007858,20.7879435 6.43754517,20.8977814 C6.44470065,21.0076497 6.4506117,21.094064 6.45558943,21.1529123 C6.46025605,21.2117605 6.46274491,21.2431645 6.46274491,21.2431645 C6.46274491,21.2431645 6.45683386,21.2122174 6.44687841,21.1539174 C6.44221179,21.124737 6.43630074,21.0887336 6.42945636,21.046425 C6.42261199,21.0041164 6.4154565,20.9553807 6.40798991,20.900736 C6.39990111,20.8461216 6.39212341,20.7855067 6.38341238,20.7195309 C6.37470136,20.6535855 6.36723477,20.5820355 6.35852375,20.5056425 C6.34234613,20.3527041 6.32492409,20.1799668 6.31341309,19.9908726 C6.30625761,19.8964169 6.3019021,19.7978187 6.29661326,19.6957481 C6.29350218,19.644728 6.29350218,19.5927332 6.29163553,19.5399769 C6.29070221,19.4871902 6.28821335,19.4336419 6.28852445,19.3792712 C6.28603559,19.1617277 6.2903911,18.9326399 6.30656872,18.6934699 C6.31185755,18.6346826 6.31714639,18.5753774 6.32243522,18.5156763 C6.32399076,18.500751 6.32523519,18.4857953 6.32647963,18.4708091 C6.32803517,18.4554878 6.3295907,18.4401057 6.33114624,18.4247235 C6.33425732,18.3947815 6.3373684,18.3647482 6.34047948,18.3346235 C6.34701275,18.2743741 6.35354602,18.2137592 6.35883485,18.1528702 C6.36474591,18.0920116 6.37159028,18.0308484 6.37687912,17.969472 C6.39959,17.7239055 6.4151454,17.4744401 6.41638983,17.2254316 C6.4191898,16.976484 6.40674548,16.7278411 6.37812355,16.4846504 C6.34856829,16.2416425 6.30905758,16.0031426 6.25585812,15.7749381 C6.24994707,15.746245 6.24279158,15.7179479 6.2356361,15.6897727 C6.22879172,15.6615669 6.22163624,15.633483 6.21479187,15.6055514 C6.20079201,15.5496882 6.18772547,15.4941297 6.17217007,15.4399418 C6.157548,15.3855406 6.14261482,15.3317183 6.12830385,15.2785355 C6.11368178,15.2253223 6.09688195,15.1726879 6.08163766,15.1208149 C6.05021575,15.017069 6.01972717,14.9161863 5.99017191,14.8185628 C5.96030555,14.7208174 5.9351058,14.6250824 5.90928384,14.5338555 C5.89652842,14.4882572 5.88563964,14.4430245 5.87381753,14.399132 C5.86292875,14.3550872 5.85079554,14.3124435 5.8414623,14.2701349 C5.82217361,14.1857919 5.80319603,14.1059873 5.78857395,14.0302034 C5.77239634,13.9548765 5.76026313,13.8835397 5.74906324,13.817838 C5.73973,13.7516794 5.73070787,13.691095 5.72541903,13.6358715 C5.71359693,13.525729 5.7123525,13.4383095 5.7163969,13.3790957 C5.71764133,13.3642923 5.71857466,13.3512251 5.72044131,13.3400463 C5.72199685,13.3288067 5.72355239,13.3194251 5.72573014,13.3119929 C5.72697457,13.3044693 5.72884122,13.2989257 5.73008565,13.2952096 C5.73133008,13.2914935 5.73226341,13.2897573 5.73226341,13.2897573" id="Fill-70" fill="#E59386"></path>
            <path d="M2.74873801,6.81130271 C2.74873801,6.81130271 2.77735994,6.80140329 2.82962608,6.780051 C2.84269261,6.77472055 2.85731469,6.7687809 2.87318119,6.76223205 C2.88935881,6.75556136 2.90646975,6.74767229 2.92513622,6.73947861 C2.9438027,6.73119356 2.96371361,6.72229931 2.98518006,6.71276541 C3.0063354,6.70289645 3.02904628,6.69238783 3.05269049,6.68130048 C3.10060112,6.65973498 3.15224504,6.63311315 3.20886669,6.6048465 C3.26548834,6.57712813 3.32553218,6.54414021 3.39024263,6.51048218 C3.40642025,6.50189253 3.42290897,6.4935161 3.43939769,6.48440863 C3.45557531,6.47514887 3.47237514,6.46576727 3.48917497,6.45626382 C3.52308574,6.43722648 3.55761872,6.41767131 3.59339614,6.39756788 C3.62886244,6.37782996 3.66495097,6.35623399 3.70197282,6.33430297 C3.73868356,6.31240241 3.77632762,6.28998403 3.81490501,6.26710875 C3.8537935,6.24462945 3.89237089,6.22010935 3.9318816,6.19531511 C3.97139232,6.17055133 4.01152524,6.14533066 4.05228039,6.11968354 C4.07281351,6.10682953 4.09334664,6.09385367 4.11419087,6.08075598 C4.13441289,6.06723185 4.15525712,6.05358588 4.17610136,6.03984853 C4.21747872,6.01234337 4.2597894,5.98444224 4.30241119,5.95617559 C4.32387764,5.94204226 4.34534409,5.92781755 4.36712165,5.91350147 C4.3885881,5.89921585 4.41005455,5.88389459 4.431521,5.86896931 C4.47476501,5.83893599 4.51832012,5.8085067 4.56249745,5.77774235 C4.58458612,5.76239063 4.60698589,5.74694754 4.62907456,5.73141306 C4.65147433,5.71593951 4.67418521,5.70055733 4.69596277,5.68404814 C4.7401401,5.65163897 4.78493965,5.61889473 4.8300503,5.58587636 C4.87516096,5.55291891 4.92058272,5.51968731 4.9666267,5.48621204 C5.01204847,5.4524931 5.05684801,5.41703794 5.10258088,5.38219199 C5.14831375,5.34716327 5.19404663,5.31192133 5.24009061,5.2765271 C5.2634237,5.2588909 5.28644569,5.24122424 5.30977879,5.22349667 C5.33248967,5.20552541 5.35520055,5.1869145 5.37822254,5.16860819 C5.46937718,5.09510881 5.56146513,5.02103068 5.65417531,4.94667843 C5.74532994,4.87098594 5.83586236,4.79352678 5.927017,4.71689004 C5.97243876,4.67851075 6.01879385,4.64061882 6.06359339,4.60208723 C6.10870405,4.56294645 6.1538147,4.52383612 6.19892536,4.48481718 C6.28852445,4.40638331 6.3799902,4.32989887 6.46803375,4.25231788 C6.55669952,4.17519378 6.64474308,4.09867888 6.7315422,4.02307777 C6.81803021,3.94708069 6.9035849,3.87199739 6.98789516,3.79816295 C7.15558236,3.64948889 7.31766961,3.50577977 7.47135694,3.36950284 C7.54851172,3.30136437 7.62348874,3.23505348 7.696288,3.1709357 C7.73299874,3.1392271 7.76939838,3.10806677 7.80517579,3.07745472 C7.8406421,3.04684266 7.87673062,3.01769268 7.91188582,2.98893867 C7.94641881,2.95981915 7.98281844,2.933441 8.01704032,2.90669734 C8.05126219,2.87967954 8.08641739,2.85540311 8.12063927,2.8316445 C8.13775021,2.81982612 8.15423893,2.80779452 8.17103876,2.79661579 C8.1881497,2.78574166 8.20494953,2.77501982 8.22174936,2.76441983 C8.25503791,2.7434026 8.28677092,2.72226353 8.31912615,2.70420089 C8.35085917,2.68562044 8.38196996,2.66761873 8.41152522,2.65025667 C8.44170269,2.63332105 8.47094684,2.61803025 8.49925767,2.60304405 C8.52756849,2.58824061 8.55432378,2.57358947 8.58014574,2.56036994 C8.60627881,2.54733316 8.63116744,2.53487512 8.65481165,2.52305674 C8.74876626,2.47499125 8.82436549,2.4409677 8.8753872,2.41653898 C8.92672001,2.39268899 8.95409751,2.37998728 8.95409751,2.37998728 C8.95409751,2.37998728 8.8520541,2.44349586 8.67347813,2.55461304 C8.65107835,2.56856361 8.62774526,2.58324521 8.60316773,2.59862739 C8.57890131,2.61416186 8.55370156,2.63115841 8.52725738,2.64842909 C8.50112431,2.66576069 8.4734357,2.6837624 8.44512488,2.70246469 C8.41743627,2.72180663 8.38850323,2.74184915 8.35863686,2.76256178 C8.24041584,2.84644794 8.11379489,2.94800076 7.98344066,3.06862139 C7.85277531,3.1887242 7.7155767,3.32597585 7.56842263,3.46944129 C7.49500115,3.54144815 7.41846859,3.61449064 7.34100271,3.68960439 C7.26322571,3.7647486 7.18233764,3.83989281 7.10082735,3.91723013 C6.93656235,4.07047315 6.76545297,4.22761502 6.58905475,4.38475689 C6.54518853,4.42435457 6.50070009,4.46367811 6.45621165,4.50278843 C6.41172321,4.54189876 6.36692366,4.58113092 6.32212411,4.62045446 C6.27732457,4.65968663 6.23221391,4.69901017 6.18741436,4.73836417 C6.14168149,4.77811415 6.09563751,4.81628022 6.04959353,4.85520779 C5.95719447,4.9322405 5.86541762,5.01006517 5.77270744,5.08612318 C5.67813062,5.16023176 5.58417602,5.2340662 5.49084363,5.30732191 C5.46751053,5.32553684 5.44448854,5.34399545 5.42084433,5.36187533 C5.39720013,5.37945061 5.37355592,5.39696497 5.34991172,5.4144184 C5.3023122,5.44920344 5.2553349,5.48380572 5.20835759,5.51822525 C5.16106918,5.55240109 5.1150252,5.58718613 5.0680479,5.62029588 C5.02075949,5.65279644 4.97378219,5.68505332 4.92711599,5.71706652 C4.8804498,5.7490188 4.83409471,5.78069694 4.78836184,5.81210095 C4.74262897,5.84384001 4.69534056,5.87235034 4.64960768,5.90198768 C4.6035637,5.93128997 4.55814194,5.96028765 4.51334239,5.98891982 C4.49094262,6.00311407 4.46885396,6.01773475 4.44614307,6.0313198 C4.4237433,6.04475255 4.40103242,6.05812438 4.37863264,6.07137437 C4.33414421,6.09787436 4.28996687,6.12397837 4.24672287,6.14971686 C4.22494531,6.16257088 4.20347886,6.17533351 4.18201241,6.18800477 C4.16054596,6.20055419 4.1387684,6.21203752 4.11730195,6.22394728 C4.07468016,6.24749267 4.03236948,6.27064208 3.99099212,6.29336506 C3.94961476,6.31608804 3.90948183,6.33871963 3.86872669,6.35876215 C3.82797154,6.37929202 3.78846083,6.39939546 3.74988344,6.41907246 C3.71099495,6.438719 3.67335088,6.45824371 3.63570682,6.47517933 C3.59806276,6.49260231 3.56166312,6.50959885 3.52588571,6.52610804 C3.50815255,6.53436263 3.49073051,6.54249539 3.47361957,6.5505063 C3.45619752,6.55836492 3.43877548,6.56555342 3.42197565,6.57292468 C3.28695479,6.6324735 3.16686711,6.67922922 3.06700146,6.71468437 C3.04211282,6.72354816 3.01846861,6.73192459 2.99637995,6.73981367 C2.97398017,6.74736769 2.95282483,6.75370332 2.93322503,6.76000849 C2.91362523,6.76610044 2.89558097,6.77207055 2.87878114,6.77694411 C2.86198131,6.78172629 2.84673702,6.78608204 2.83304827,6.78995042 C2.80598187,6.79808318 2.78451542,6.80265214 2.77051556,6.80633777 C2.7562046,6.80981018 2.74873801,6.81130271 2.74873801,6.81130271" id="Fill-71" fill="#E59386"></path>
            <path d="M15.2786114,2.2311 C14.6613732,1.51700153 12.22882,0.583196861 10.9626105,0.226147628 C10.4698155,0.0872206909 9.71444538,0.218593609 8.87134279,0.464860718 L8.87134279,2.49814066 C9.79906675,2.0057892 10.8064343,1.64481066 11.2466521,1.7092635 C11.9964223,1.81913183 12.7539702,2.5057556 13.9601358,2.69801756 C15.1663014,2.89027953 15.951849,3.65932739 16.4287775,3.38464133 C16.4287775,3.38464133 15.8958496,2.94519847 15.2786114,2.2311" id="Fill-72" fill="#EFAA9E"></path>
        </g>
    </g>
</svg>