<?xml version="1.0" encoding="UTF-8"?>
<svg width="36px" height="75px" viewBox="0 0 36 75" version="1.1" xmlns="http://www.w3.org/2000/svg" xmlns:xlink="http://www.w3.org/1999/xlink">
    <title>Group</title>
    <g id="Page-1" stroke="none" stroke-width="1" fill="none" fill-rule="evenodd">
        <g id="Group">
            <path d="M5.58852314,18.0136204 C5.56601213,18.0004603 5.54447985,17.9859613 5.52425256,17.9699274 C5.28968122,17.7849671 5.10013192,17.576658 4.83554589,17.4231775 C4.13705183,17.0179235 3.36221606,16.8587936 2.57824538,17.0530934 C2.29180082,17.1240211 1.99328515,17.2823346 1.69574821,17.2980092 C1.69574821,17.2980092 1.88236129,18.4946023 1.80765081,18.9994227 C1.73294033,19.5042431 1.88236129,20.4764607 1.88236129,20.4764607 C1.88236129,20.4764607 1.95707177,20.7756171 2.18120321,20.8317192 C2.40533466,20.8877886 3.09665129,20.9596958 3.73152726,20.8474917 C4.36672947,20.7353203 5.02052774,20.4390702 5.73044043,20.3642893 C6.44002688,20.2895083 9.55959727,20.4390702 11.5581842,20.4764607 C13.5567711,20.5138838 15.4995699,19.8781805 16.3027891,19.709907 C17.1060084,19.5416335 19.5342621,18.8451258 19.5342621,18.8451258 L22.7096207,16.6623059 L22.3735866,15.1104869 L18.8243494,15.2787604 C18.8243494,15.2787604 17.6289817,15.9518215 16.8071664,16.30708 C15.9853511,16.6623059 15.8545262,16.7931888 14.9204821,16.8866813 C13.986438,16.9801739 13.4820607,16.6623059 10.9605004,17.4101806 C8.43894006,18.1580554 6.62696621,18.1393765 6.27200986,18.1393765 C6.0547296,18.1393765 5.78459738,18.1285675 5.58852314,18.0136204" id="Fill-34" fill="#ED9F94"></path>
            <path d="M3.80623774,18.6769176 C3.80623774,18.6769176 3.78372672,18.6657495 3.74457712,18.6451439 C3.72500232,18.6350207 3.70151257,18.6220565 3.67476034,18.6073942 C3.64768187,18.5926339 3.61799343,18.5751633 3.58536876,18.5562884 C3.56938268,18.5464918 3.5527441,18.5362707 3.53545303,18.525723 C3.5184882,18.514816 3.50087088,18.5035499 3.48260107,18.4919572 C3.46498375,18.4798421 3.44704019,18.4674003 3.42844413,18.4546647 C3.41017431,18.4414066 3.3919045,18.427822 3.3729822,18.4140414 C3.35471239,18.3998363 3.33676882,18.3846188 3.31817276,18.3696953 C3.30055544,18.3537921 3.28261188,18.337693 3.26466831,18.3214959 C3.24802973,18.3040905 3.23073866,18.2870444 3.21442633,18.2689859 L3.19191531,18.2408043 C3.18408539,18.2314322 3.17625547,18.2221907 3.17038303,18.2118389 L3.15048199,18.1819265 L3.14526204,18.1744811 L3.14232582,18.1698114 L3.13971585,18.1657947 L3.12992845,18.1498262 C3.12307727,18.1391479 3.11426861,18.1277512 3.10643869,18.1168769 C3.09795628,18.106819 3.09012636,18.0963366 3.08099145,18.0868012 C3.04608306,18.047876 3.00562848,18.0161349 2.96517389,17.9889003 C2.92471931,17.961535 2.88263349,17.9404396 2.84217891,17.9226097 C2.80139808,17.9046819 2.76192224,17.8910319 2.72538261,17.8800923 C2.65197712,17.8579846 2.58901152,17.8474043 2.54496822,17.8416896 C2.50092492,17.8361055 2.47547768,17.8355503 2.47547768,17.8355503 C2.47547768,17.8355503 2.50027243,17.8408079 2.54268449,17.8526291 C2.58509656,17.8644177 2.64512594,17.8828027 2.71461647,17.9104946 C2.78378076,17.9386109 2.8630587,17.9760014 2.93711668,18.0295563 C2.9743088,18.0562031 3.00921719,18.0878136 3.04086312,18.1228855 C3.04869303,18.1315718 3.05554421,18.1410746 3.06304789,18.1501854 C3.06989907,18.1598188 3.076424,18.1681459 3.08294893,18.1788243 L3.09273633,18.194956 L3.09730378,18.2022709 L3.10284998,18.210598 L3.12438226,18.2440045 C3.13123344,18.2554013 3.14004209,18.2652959 3.14819826,18.2753864 L3.17331925,18.30556 C3.19093657,18.3247287 3.20953263,18.3425913 3.22747619,18.3608457 C3.24672475,18.3775652 3.26564705,18.3942848 3.28522185,18.4099268 C3.3051229,18.4247523 3.32437145,18.4398392 3.34394625,18.453783 C3.36417354,18.4671064 3.38342209,18.4808217 3.40299689,18.4929696 C3.42257169,18.5047582 3.44214649,18.5163182 3.46106879,18.5275517 C3.48031734,18.5380667 3.4989134,18.5482879 3.51685697,18.5581825 C3.53545303,18.5672933 3.55307034,18.5761103 3.57036142,18.584568 C3.60461731,18.6009937 3.63658948,18.6150029 3.66529919,18.6266609 C3.69400889,18.6385148 3.71912988,18.6478869 3.74000967,18.6552997 C3.76088945,18.6630391 3.77752803,18.6679374 3.78894667,18.6715948 C3.8003653,18.6750563 3.80623774,18.6769176 3.80623774,18.6769176" id="Fill-35" fill="#DE847A"></path>
            <path d="M29.7516545,8.65071934 C29.7516545,8.65071934 29.8919405,10.5297457 30.2002436,11.8478824 C30.5082204,13.1659864 30.9564833,14.8487209 30.9564833,15.4096107 C30.9564833,15.9705331 25.7169622,11.8198314 25.7169622,11.8198314 C25.7169622,11.8198314 26.2213395,10.0529764 25.2686993,9.57620703 C24.3160591,9.09943767 27.6016891,6.4912154 27.6016891,6.4912154 L29.7516545,8.65071934" id="Fill-36" fill="#EFAA9E"></path>
            <path d="M27.7759048,11.8809297 C27.7759048,11.8809297 31.0462011,12.0663146 31.1297203,15.9144964 C31.2132394,19.7626455 29.233901,22.9880555 28.6812392,24.5084926 C28.1289037,26.0289297 28.1041089,28.3428938 28.5768403,29.2592053 C29.0495717,30.1758434 20.8927531,30.7747441 20.8927531,30.7747441 C20.8927531,30.7747441 20.3495525,27.6878258 20.3495525,26.9044219 C20.3495525,26.1213445 19.9776313,23.3844925 20.2555934,21.9191778 C20.2555934,21.9191778 17.5415476,20.195428 19.3365566,18.0438267 C21.1318919,15.892258 24.2276463,13.265912 25.0504403,12.6208365 C25.8732344,11.9757611 26.732568,11.7399888 27.7759048,11.8809297" id="Fill-37" fill="#ED9F94"></path>
            <path d="M28.4411217,25.3663509 C28.5057185,25.0642881 28.5849965,24.7739813 28.6812392,24.5084926 C29.233901,22.9880555 31.2132394,19.7626455 31.1297203,15.9144964 C31.0462011,12.0663146 27.7759048,11.880897 27.7759048,11.880897 C26.732568,11.7399888 25.8732344,11.9757611 25.0504403,12.6208365 C24.2276463,13.265912 21.1318919,15.4866122 19.3365566,17.6382135 C17.5415476,19.7897822 20.0732216,22.2046516 20.0732216,22.2046516 C19.8996584,23.1199835 20.1619607,24.2459429 20.2461323,25.3673305 C21.0774087,25.6194305 24.5581342,26.5236595 28.4411217,25.3663509" id="Fill-38" fill="#DC3965"></path>
            <path d="M0.952558359,20.1700547 C0.952558359,20.1700547 1.11535543,20.3590644 1.48075167,20.5419022 C1.90095735,20.7522358 2.24873627,20.8474917 2.24873627,20.8474917 L1.60048419,19.6584747 C1.60048419,19.6584747 0.802158657,19.7981746 0.952558359,20.1700547" id="Fill-39" fill="#ED9F94"></path>
            <path d="M22.7826999,15.4626105 C22.7826999,17.553538 24.47592,19.248551 26.5648773,19.248551 C28.6538345,19.248551 30.3473808,17.553538 30.3473808,15.4626105 C30.3473808,13.3717156 28.6538345,11.6767026 26.5648773,11.6767026 C24.47592,11.6767026 22.7826999,13.3717156 22.7826999,15.4626105" id="Fill-40" fill="#EFAA9E"></path>
            <path d="M0.192077436,15.8443199 C0.360094456,15.489094 0.873606671,15.2600488 1.13525648,13.9325727 C1.39658004,12.6050966 2.06930061,12.6798776 2.92830802,12.2311592 C3.78764168,11.7824409 4.64697534,11.9507143 7.03771073,11.7450504 C9.42877237,11.5393865 12.305289,11.7076599 13.351562,11.6515579 C14.3975087,11.5954559 15.9853511,11.4646055 17.3115437,11.7076599 C18.6377363,11.9507143 20.3560774,12.1937687 22.3174722,11.6515579 C24.278867,11.1093471 26.0533225,11.7450504 26.0533225,11.7450504 C26.0533225,11.7450504 24.7783506,16.5735157 23.8537677,16.4613116 C22.9291847,16.3491402 20.7436584,16.222927 19.1045953,15.8162688 C17.4655322,15.4096107 15.0979603,14.6523965 14.2435203,14.4701138 C13.3887541,14.2878312 12.9685484,14.5822852 11.1474397,14.6243454 C9.32600468,14.6664383 5.65572995,13.8811731 4.9131926,13.740918 C4.17065524,13.6006955 3.94652379,13.740918 3.61016351,14.1055159 C3.27412946,14.4701138 3.0079122,15.7181393 2.92374057,16.3771912 C2.83956894,17.0362432 2.71363773,18.3964401 2.36324884,19.1396451 C2.01318619,19.8828502 2.0272148,20.7522358 2.0272148,20.7522358 C2.0272148,20.7522358 1.35482047,20.135244 1.52283749,19.3219604 C1.68628706,18.5318622 1.5851506,17.4110297 1.47651047,16.6020566 C1.40669368,16.2705386 1.40179998,15.9095654 1.41354486,15.6367293 C1.22269058,15.9199172 0.942118466,16.3134478 0.710157103,16.5454647 C0.318008639,16.938081 0.182616283,16.9427507 0.182616283,16.9427507 C-0.1348217,16.568846 0.0237341682,16.1995783 0.192077436,15.8443199" id="Fill-41" fill="#EFAA9E"></path>
            <path d="M1.61222907,17.247328 C1.61222907,17.247328 1.83831799,17.3555154 1.76947995,17.6308334 C1.70064191,17.906184 1.43540339,17.8864928 1.43540339,17.8864928 C1.43540339,17.8864928 1.18973967,17.8471757 1.11144047,18.0438267 C1.11144047,18.0438267 0.846201953,18.0045096 0.88535155,17.6603539 C0.88535155,17.6603539 0.973438144,17.1391732 1.61222907,17.247328" id="Fill-42" fill="#ED9F94"></path>
            <path d="M1.61842776,17.8098832 C1.61842776,17.8098832 1.87551011,17.9328962 1.79721092,18.2460292 C1.71891172,18.5591621 1.41745982,18.5367931 1.41745982,18.5367931 C1.41745982,18.5367931 1.13786645,18.4920879 1.04847487,18.7157449 C1.04847487,18.7157449 0.747022974,18.671007 0.791718764,18.2795989 C0.791718764,18.2795989 0.891876483,17.6868701 1.61842776,17.8098832" id="Fill-43" fill="#ED9F94"></path>
            <path d="M1.56851202,18.4311528 C1.56851202,18.4311528 1.85267284,18.56713 1.76621748,18.9133103 C1.67976212,19.2594579 1.34633806,19.2347378 1.34633806,19.2347378 C1.34633806,19.2347378 1.03738249,19.1852974 0.938529753,19.4325317 C0.938529753,19.4325317 0.605105685,19.3830914 0.654695174,18.9503742 C0.654695174,18.9503742 0.765292786,18.2951756 1.56851202,18.4311528" id="Fill-44" fill="#ED9F94"></path>
            <path d="M1.59787422,19.1686758 C1.59787422,19.1686758 1.88203504,19.304653 1.79557968,19.6508007 C1.70912432,19.9969809 1.37570025,19.9722281 1.37570025,19.9722281 C1.37570025,19.9722281 1.06707093,19.9227878 0.968218197,20.1700547 C0.968218197,20.1700547 0.634467882,20.1206144 0.684057372,19.6878972 C0.684057372,19.6878972 0.79498123,19.0326986 1.59787422,19.1686758" id="Fill-45" fill="#ED9F94"></path>
            <path d="M1.38287768,17.3378815 C1.424311,17.3199863 1.49902148,17.2965071 1.56981701,17.3185495 C1.63082513,17.3375549 1.66149231,17.4058701 1.63996003,17.4660541 C1.6194065,17.5242461 1.59265427,17.6049703 1.58058314,17.6650563 C1.57307947,17.7026754 1.54795848,17.7340899 1.51272384,17.7488828 C1.47651047,17.7640023 1.42822596,17.7800361 1.37831023,17.7846405 C1.30979843,17.790943 1.25140028,17.7335674 1.25466275,17.6646971 C1.25825146,17.587369 1.27456379,17.4783325 1.32969948,17.3850033 C1.34209685,17.3641365 1.36069291,17.3474495 1.38287768,17.3378815" id="Fill-46" fill="#EFAA9E"></path>
            <path d="M1.29707481,17.9589226 C1.32969948,17.9310348 1.38907637,17.8899869 1.45758816,17.8855131 C1.52675245,17.8810394 1.58384561,17.9390027 1.58123564,18.0082323 C1.57895191,18.0699184 1.57732068,18.1536796 1.58351936,18.2139942 C1.58776057,18.253246 1.57112199,18.2916488 1.54078105,18.3168261 C1.51141886,18.3411871 1.47161677,18.3693034 1.42757347,18.3880803 C1.36265039,18.4154782 1.28793991,18.3768142 1.27064883,18.3086296 C1.25140028,18.2336201 1.23508795,18.1256939 1.25955645,18.0209679 C1.26542889,17.9969008 1.27847875,17.9749564 1.29707481,17.9589226" id="Fill-47" fill="#EFAA9E"></path>
            <path d="M1.24063414,18.6044552 C1.27521629,18.574902 1.33981312,18.5299682 1.41419736,18.5301635 C1.4781417,18.5303274 1.52773119,18.5863968 1.52544746,18.6503034 C1.52283749,18.7122508 1.52120626,18.7977427 1.52773119,18.859037 C1.53164615,18.8973745 1.5166388,18.9349609 1.48727661,18.9597137 C1.45726191,18.9850216 1.41550234,19.0148361 1.36917532,19.0341028 C1.30523098,19.0604557 1.23247798,19.0230326 1.21518691,18.9562196 C1.19561211,18.8809814 1.17864728,18.7714224 1.20376827,18.6652923 C1.20931447,18.6416824 1.22203809,18.6202278 1.24063414,18.6044552" id="Fill-48" fill="#EFAA9E"></path>
            <path d="M1.23835042,19.3355451 C1.27489004,19.3038693 1.34829554,19.2520778 1.43148843,19.2601763 C1.48695036,19.2655971 1.52805744,19.3149395 1.52577371,19.3707477 C1.52283749,19.4342951 1.52088001,19.5273305 1.52805744,19.591727 C1.53164615,19.6268642 1.51892253,19.6617729 1.4921703,19.6847623 C1.4585669,19.7136624 1.40865116,19.7498119 1.35318924,19.7693725 C1.29576983,19.789521 1.23378296,19.7539592 1.21779688,19.6951794 C1.19691709,19.6192229 1.17701605,19.503394 1.20442077,19.3917124 C1.20964071,19.3699313 1.22138559,19.35024 1.23835042,19.3355451" id="Fill-49" fill="#EFAA9E"></path>
            <path d="M1.80373585,19.440369 C1.80373585,19.440369 1.80275711,19.4348503 1.80014714,19.4246618 C1.79753716,19.4145059 1.7936222,19.3995497 1.78677102,19.3812627 C1.77241617,19.3449499 1.74794767,19.2928318 1.70064191,19.2429669 C1.67715215,19.21841 1.64876869,19.1940164 1.61418655,19.1747824 C1.57993065,19.1554177 1.5411073,19.1394492 1.49902148,19.1306322 C1.45726191,19.121554 1.41256612,19.1175701 1.36819658,19.1192681 C1.3228483,19.1208356 1.27782626,19.12753 1.23378296,19.1385675 C1.18973967,19.149801 1.14700136,19.1656715 1.10654677,19.1842851 C1.06576594,19.2028007 1.02792133,19.2250064 0.992686696,19.248453 C0.922217421,19.2956075 0.863819272,19.3498808 0.820428468,19.4015091 C0.776385172,19.4529087 0.748327961,19.5022184 0.731689382,19.5377802 C0.723533216,19.5556427 0.718639516,19.5702397 0.71537705,19.5802323 C0.71244083,19.5902575 0.710809597,19.595613 0.710809597,19.595613 C0.710809597,19.595613 0.713093323,19.5904534 0.717008283,19.5807548 C0.720923243,19.5710887 0.727448175,19.5573408 0.736583081,19.5402294 C0.746044234,19.5233138 0.758441606,19.5031328 0.774427692,19.4814496 C0.790413777,19.459799 0.809988576,19.4364177 0.832499594,19.4122201 C0.877847878,19.3640533 0.936572273,19.3133721 1.00606281,19.2691566 C1.0409712,19.2469182 1.07848956,19.2268351 1.11763916,19.20894 C1.157115,19.1912081 1.19822208,19.1762519 1.24063414,19.1657042 C1.28271996,19.1548299 1.32643701,19.1481029 1.36884907,19.1463068 C1.41191363,19.1445435 1.45399945,19.1468293 1.49412778,19.1547319 C1.53392988,19.1624386 1.57112199,19.1758927 1.6040729,19.1930368 C1.63735006,19.2102135 1.66573352,19.2318967 1.68954952,19.2542657 C1.73685529,19.29982 1.76556499,19.3483134 1.78155108,19.3833526 C1.79818966,19.4185552 1.80373585,19.440369 1.80373585,19.440369" id="Fill-50" fill="#DC8177"></path>
            <path d="M1.77567864,18.7111732 C1.77567864,18.7111732 1.7746999,18.7056217 1.77241617,18.6953353 C1.7698062,18.6850815 1.76589124,18.6700273 1.75904006,18.6515117 C1.74468521,18.6149049 1.71956421,18.5625256 1.6719322,18.5126608 C1.6481162,18.48781 1.618754,18.4641021 1.5844981,18.4443456 C1.55024221,18.4244258 1.51109261,18.4089798 1.46933304,18.3988239 C1.42724722,18.3887007 1.38287768,18.3837371 1.33785564,18.3833779 C1.29250736,18.3834432 1.24650658,18.3887334 1.20181079,18.3992811 C1.157115,18.4096982 1.11405045,18.4253728 1.07294337,18.4441497 C1.03216254,18.4628286 0.993665435,18.4853282 0.958757045,18.5097871 C0.888614017,18.5585417 0.831194608,18.6150682 0.789108791,18.6683292 C0.767576512,18.6948781 0.75028544,18.7207739 0.735930588,18.7445144 C0.721901983,18.7682875 0.71146209,18.7899054 0.703305924,18.8079312 C0.695476005,18.8260876 0.690582305,18.8408152 0.687319838,18.8509058 C0.684383619,18.861029 0.682752385,18.8664498 0.682752385,18.8664498 C0.682752385,18.8664498 0.685036112,18.8612249 0.688951072,18.8514283 C0.692866031,18.8416969 0.699390964,18.8277531 0.708199624,18.8103477 C0.717660776,18.7931383 0.729405655,18.7726307 0.745065494,18.7502944 C0.760725333,18.7280887 0.779647638,18.7039237 0.801506163,18.6789096 C0.845875707,18.6290774 0.903621362,18.5763389 0.97278565,18.5304906 C1.00736779,18.5075339 1.04488616,18.4868303 1.084362,18.4688698 C1.12383785,18.4509747 1.16559742,18.4367042 1.20833573,18.4264178 C1.25107404,18.415968 1.29479109,18.4106452 1.33785564,18.4102533 C1.38124645,18.4097308 1.42365851,18.4135842 1.46378685,18.4224012 C1.50391518,18.4312834 1.54175979,18.4441823 1.57471071,18.4621102 C1.60766162,18.47994 1.63702381,18.5008069 1.66083982,18.5236657 C1.68465582,18.5465245 1.70455687,18.5699384 1.71956421,18.5924054 C1.73457156,18.6148396 1.74599019,18.6358044 1.75414636,18.6535363 C1.77045869,18.6890981 1.77567864,18.7111732 1.77567864,18.7111732" id="Fill-51" fill="#DC8177"></path>
            <path d="M1.81189201,18.0671753 C1.81189201,18.0671753 1.80928204,18.0466024 1.79688467,18.0126081 C1.7838348,17.9792016 1.76099754,17.9311981 1.71695424,17.8857744 C1.69542196,17.8631115 1.66834349,17.8417222 1.63735006,17.8234678 C1.60603038,17.8052461 1.57014325,17.7909103 1.5319724,17.7816362 C1.49347529,17.7723947 1.45302071,17.7678556 1.41191363,17.7675291 C1.37048031,17.7675617 1.32839449,17.7724274 1.28761366,17.7820607 C1.206052,17.8014907 1.12938404,17.8382281 1.0654397,17.883064 C1.00084286,17.9274427 0.949295892,17.979822 0.910146295,18.0280868 C0.890571497,18.0522518 0.874585411,18.0758943 0.861861792,18.0976102 C0.848811926,18.1193587 0.839350774,18.1391153 0.831847101,18.1556063 C0.824669675,18.1721952 0.820102222,18.1856819 0.817166002,18.1948907 C0.814556029,18.2041322 0.813251042,18.2090959 0.813251042,18.2090959 C0.813251042,18.2090959 0.815208522,18.2043282 0.818797235,18.1953806 C0.822385948,18.1864656 0.828258388,18.17373 0.836414554,18.1578268 C0.844896967,18.1420869 0.855989352,18.12331 0.870017958,18.102933 C0.88437281,18.082654 0.901337636,18.0605136 0.921564928,18.0375569 C0.961693265,17.991578 1.01519771,17.9440643 1.07816332,17.9019715 C1.10980924,17.8810067 1.14406514,17.8620992 1.18027851,17.8456735 C1.21616565,17.8293131 1.2543365,17.8162836 1.2934861,17.8068462 C1.33230945,17.7973108 1.37243779,17.7924452 1.41158738,17.7920859 C1.45138947,17.7915961 1.49021282,17.7951229 1.5270787,17.8031888 C1.56361832,17.81132 1.59820046,17.8229127 1.6285414,17.8392404 C1.65888234,17.8554048 1.68563456,17.8747369 1.70716684,17.895669 C1.72902537,17.9166991 1.74696893,17.9380231 1.76067129,17.958596 C1.7746999,17.9791036 1.78481354,17.9982724 1.79231722,18.0144695 C1.80732456,18.0469943 1.81189201,18.0671753 1.81189201,18.0671753" id="Fill-52" fill="#DC8177"></path>
            <path d="M1.95707177,14.5822852 C1.95707177,14.5822852 1.95315681,14.5910696 1.94532689,14.6075606 C1.93749697,14.6239536 1.92607834,14.647988 1.91139724,14.6785861 C1.89671614,14.7090863 1.87877258,14.7460849 1.85821904,14.788537 C1.83733925,14.8307278 1.81352325,14.8783394 1.78774976,14.9302616 C1.77502614,14.9562226 1.76099754,14.9830001 1.74664269,15.0107246 C1.73228783,15.0385143 1.71728049,15.0671205 1.7019469,15.0964451 C1.6866133,15.1259003 1.67030097,15.1557473 1.65366239,15.1862802 C1.63702381,15.2168783 1.61973274,15.2479663 1.60211542,15.2794461 C1.56688079,15.3426017 1.52838368,15.4065084 1.48890784,15.4711009 C1.44943199,15.5356933 1.40669368,15.5996327 1.36265039,15.6622005 C1.31828084,15.7252581 1.27293256,15.7881525 1.22823677,15.8495121 C1.18321473,15.9109696 1.13917144,15.9714148 1.09643313,16.0299333 C1.05304232,16.0880927 1.01128275,16.1442927 0.97180691,16.197619 C0.931678573,16.2504228 0.893507716,16.300353 0.858273079,16.3464625 C0.822712195,16.3920821 0.790087531,16.434077 0.760399086,16.4705531 C0.730710642,16.5070946 0.70461091,16.538705 0.682099892,16.5641763 C0.65991512,16.5896149 0.642297802,16.6095347 0.629574183,16.6224989 C0.61717681,16.6355611 0.610325631,16.6425167 0.610325631,16.6425167 C0.610325631,16.6425167 0.617829304,16.6363121 0.631857909,16.6247194 C0.638709089,16.6190047 0.647191501,16.6115593 0.656978901,16.6027097 C0.6667663,16.593958 0.678184932,16.5838022 0.690256058,16.571883 C0.714724556,16.548371 0.744086754,16.5193077 0.776385172,16.4846929 C0.809009836,16.4504047 0.844896967,16.4108263 0.883067824,16.3669374 C0.921564928,16.3231792 0.962345758,16.275143 1.00475782,16.2235148 C1.04684364,16.1719192 1.09121318,16.1173846 1.13558272,16.0598131 C1.18027851,16.0023722 1.22627929,15.9430699 1.27162757,15.8816124 C1.3173021,15.8201548 1.36297663,15.7579462 1.40832492,15.6946927 C1.45269446,15.6304921 1.49543277,15.5650506 1.53490861,15.4992825 C1.55448341,15.4663332 1.57438446,15.4337757 1.59200178,15.4006958 C1.61027159,15.3678117 1.6285414,15.3354829 1.64517998,15.303056 C1.67976212,15.2387901 1.71042931,15.1754712 1.73913901,15.1151566 C1.76817496,15.0550053 1.7936222,14.9973358 1.81678571,14.9438789 C1.86311274,14.8370956 1.89834737,14.7465747 1.92183713,14.6828966 C1.94532689,14.6192185 1.95707177,14.5822852 1.95707177,14.5822852" id="Fill-53" fill="#DE847A"></path>
            <path d="M25.7450194,17.1203963 C25.7450194,17.1203963 25.7270759,17.1027624 25.6918412,17.0711519 C25.6566066,17.0398027 25.6047334,16.9935299 25.5358953,16.9382769 C25.4670573,16.8827954 25.3822332,16.8167661 25.2807705,16.7467528 C25.229876,16.7118115 25.1750666,16.6754007 25.1160159,16.638696 C25.0569653,16.6021872 24.9933472,16.5661356 24.9254879,16.5306391 C24.7897693,16.4603973 24.6357809,16.3921474 24.4586289,16.3557366 C24.4367704,16.3504791 24.4139331,16.3480953 24.3910959,16.3441113 C24.3685849,16.3405845 24.3450951,16.339213 24.3216053,16.3366985 C24.2772358,16.3339228 24.23254,16.3311471 24.1868655,16.3283061 C24.0961689,16.3227546 24.0035149,16.318738 23.9095558,16.313807 C23.8152706,16.3088108 23.7196803,16.3037165 23.6231113,16.298557 C23.526216,16.2929402 23.428342,16.2872582 23.3298155,16.2815108 C23.2312891,16.2754043 23.1317838,16.269265 23.0319524,16.2630932 C22.9321209,16.2567907 22.8319632,16.2504228 22.7321317,16.2427815 C22.631974,16.2358912 22.5318163,16.2291315 22.432311,16.2208697 C22.3324796,16.2127058 22.2333006,16.2062074 22.1347741,16.1972271 C22.0362476,16.1889 21.9386999,16.1806708 21.8421309,16.172507 C21.7458881,16.1637227 21.6506241,16.1550363 21.5569913,16.1465133 C21.4630323,16.137533 21.371357,16.1268547 21.2809866,16.1187235 C21.2359646,16.1143476 21.1912688,16.1100045 21.1472255,16.1057266 C21.1031822,16.1009263 21.0597914,16.0961912 21.0170531,16.0915215 C20.9312502,16.0822147 20.8477311,16.0731691 20.7671482,16.0644175 C20.686239,16.0551107 20.6082661,16.0461304 20.5335556,16.0375094 C20.3838084,16.0206919 20.2467848,16.0030579 20.1250948,15.988363 C20.0640867,15.9809502 20.0073197,15.9740599 19.954794,15.9676594 C19.9019421,15.9607365 19.8536576,15.9544013 19.8102668,15.9486866 C19.7228327,15.9369633 19.6539946,15.9290281 19.6073414,15.9230521 C19.5603618,15.917468 19.5352409,15.9144964 19.5352409,15.9144964 C19.5352409,15.9144964 19.5600356,15.9202111 19.6057101,15.9309874 C19.6517109,15.9413718 19.719244,15.957373 19.8053731,15.9761498 C19.8484376,15.9856852 19.8960696,15.9962329 19.9479429,16.0077277 C19.9998161,16.0187978 20.0562567,16.0293129 20.1166124,16.0413301 C20.1766418,16.053184 20.2409123,16.065789 20.3084454,16.0790798 C20.3759785,16.0928604 20.4474265,16.1038979 20.5218107,16.117156 C20.5965212,16.1300549 20.6738416,16.1434763 20.7540983,16.1573875 C20.8346812,16.1703517 20.9182004,16.182271 21.003677,16.1953658 C21.1749565,16.2221432 21.3560234,16.2456878 21.5436152,16.269265 C21.731207,16.2908503 21.9249975,16.3148194 22.122703,16.3327145 C22.2215557,16.3428051 22.3210609,16.3512302 22.4212187,16.3594593 C22.5210501,16.368113 22.6215341,16.3754605 22.7223443,16.382612 C22.9233122,16.3967192 23.1246064,16.4082792 23.3226381,16.4171615 C23.5206698,16.4267622 23.7160916,16.4316279 23.9046621,16.4368854 C23.9989474,16.4392039 24.0916015,16.4421103 24.182298,16.4432858 C24.2273201,16.4442655 24.2720159,16.4452452 24.3163854,16.4461922 C24.3372652,16.4476943 24.3578187,16.4479229 24.3783723,16.4503068 C24.399252,16.4531478 24.4198056,16.4542907 24.4400329,16.4583727 C24.5215945,16.4713695 24.6005462,16.4935099 24.6755829,16.518328 C24.7509459,16.5432768 24.8227202,16.5721115 24.8905795,16.6028076 C25.0259718,16.6643631 25.1470093,16.7300006 25.2520608,16.791752 C25.3567859,16.8541239 25.4465038,16.9114668 25.519583,16.9605806 C25.592336,17.0098576 25.6487767,17.049534 25.6869475,17.0773891 C25.7251184,17.1051462 25.7450194,17.1203963 25.7450194,17.1203963" id="Fill-54" fill="#DE847A"></path>
            <path d="M27.9024885,11.9133239 C27.8626864,11.8957879 27.8219056,11.8801459 27.7811247,11.8646346 C27.7403439,11.84896 27.6989106,11.8348529 27.6574773,11.8207457 C27.6160439,11.8068672 27.5746106,11.7930866 27.532851,11.7804163 C27.4907652,11.7677459 27.4490057,11.7555981 27.4065936,11.7440381 C27.3645078,11.7322821 27.3220957,11.7212773 27.2796836,11.7105989 C27.2369453,11.6999859 27.194207,11.6907118 27.1514687,11.6812417 C27.1084042,11.6723594 27.0656658,11.6633465 27.022275,11.6554766 C26.9792105,11.6471168 26.9358197,11.6400958 26.8924289,11.6330423 C26.8490381,11.6265765 26.805321,11.6204699 26.761604,11.615343 C26.7178869,11.6098569 26.6738436,11.605579 26.6301266,11.6018563 L26.5638985,11.5968927 L26.4976704,11.5933659 C26.4754857,11.5920597 26.4536271,11.591276 26.4314424,11.5909821 C26.4092576,11.5906882 26.3870728,11.5897738 26.3648881,11.5900024 C26.3205185,11.590231 26.276149,11.5904269 26.2317794,11.5926475 C26.1874099,11.5936272 26.1430403,11.598101 26.0983446,11.6013992 C26.0543013,11.6063628 26.0096055,11.6105753 25.9655622,11.6178575 C25.9211926,11.6235395 25.8771493,11.6332055 25.833106,11.641598 L25.8706244,11.6439165 C25.8373472,11.6322912 25.8066801,11.622266 25.7747079,11.6126326 C25.743062,11.6026074 25.711416,11.5936272 25.6794439,11.5848102 L25.6318119,11.5715521 L25.5838536,11.5596002 C25.5518814,11.5518609 25.5202355,11.5432398 25.4879371,11.5361863 C25.4239927,11.522373 25.3600484,11.5065678 25.2951253,11.4954649 L25.1985563,11.4773412 C25.1662579,11.4710387 25.1336332,11.4668588 25.1013348,11.4615033 C25.0364117,11.4511842 24.9714887,11.4411263 24.9062393,11.4341054 L24.8086916,11.4224474 L24.7597546,11.4167 L24.7108176,11.4127487 L24.5147434,11.39727 L24.3183429,11.3892368 L24.2694059,11.3872775 L24.2201426,11.3871142 L24.1219424,11.3873101 C24.0566931,11.3876693 23.9911175,11.3864937 23.9258682,11.3907716 C23.8606188,11.3939065 23.7950433,11.3965843 23.7297939,11.400307 C23.6971693,11.4014173 23.6648709,11.4058911 23.6322462,11.4085688 L23.5346984,11.4178756 C23.4697754,11.4244394 23.404526,11.4288152 23.3399292,11.4399833 L23.1464649,11.4689487 C23.0818681,11.4775697 23.01825,11.4931137 22.9543057,11.5056861 C22.8906876,11.5191075 22.8270695,11.5327248 22.7637776,11.5469952 C22.8287007,11.5419336 22.8932975,11.5361536 22.9578944,11.5302103 C23.0228175,11.5244956 23.0867618,11.5162991 23.1516849,11.5141765 L23.3458016,11.5026818 C23.4100722,11.4978161 23.4749953,11.4979467 23.5395921,11.4958568 L23.6364874,11.4934076 C23.6687858,11.4930484 23.700758,11.4908279 23.7330564,11.4920361 C23.7976532,11.4933097 23.8622501,11.4935383 23.9265207,11.494224 C23.9911175,11.4938322 24.0553881,11.4978161 24.1199849,11.5003959 L24.2165539,11.5046084 L24.2645122,11.5066331 L24.3127967,11.5103231 L24.5052822,11.5248222 L24.6971152,11.5449379 L24.7450735,11.5500322 L24.7930317,11.5564653 L24.888622,11.5693642 C24.9202679,11.5739686 24.9522401,11.5772015 24.983886,11.5829815 L25.0788238,11.5986234 C25.1104697,11.6040116 25.1424419,11.6082568 25.1740878,11.614592 L25.2683731,11.632781 C25.3316649,11.6442431 25.3939781,11.658938 25.4569437,11.6721635 C25.4882633,11.6788905 25.5192568,11.6871197 25.5502502,11.6944998 L25.5969035,11.7058965 L25.6432305,11.7183056 C25.6742239,11.7263715 25.7048911,11.7346007 25.735232,11.7437115 C25.765573,11.7523326 25.7968927,11.7619986 25.8249499,11.7713707 L25.8435459,11.7775752 L25.8627945,11.7736892 C25.9039016,11.7652968 25.9450086,11.7555655 25.9867682,11.7489691 C26.0282015,11.7410338 26.0702873,11.7360049 26.1123732,11.7301922 C26.154459,11.725947 26.1965448,11.7208201 26.2389569,11.7182076 C26.2813689,11.7145502 26.3241072,11.7128522 26.3668455,11.7111214 C26.3880516,11.7101418 26.4092576,11.7102724 26.4307899,11.7098152 C26.4519959,11.7093907 26.4735282,11.7089662 26.4950605,11.7093254 L26.5590048,11.7098152 L26.6232754,11.7117419 C26.6448077,11.7121011 26.66634,11.7138318 26.687546,11.7146482 C26.7090783,11.7156279 26.7306105,11.7166075 26.7521428,11.718273 C26.7948811,11.7208854 26.8379457,11.7245101 26.880684,11.7284615 C26.9234223,11.7325434 26.9664869,11.7363641 27.0092252,11.7416542 C27.0522897,11.7463893 27.095028,11.7522999 27.1377664,11.7580799 C27.1805047,11.7643171 27.223243,11.7709462 27.2659813,11.7778691 C27.3087196,11.7846615 27.3514579,11.791813 27.39387,11.799683 C27.4366083,11.8073896 27.4790203,11.8156841 27.5214324,11.8245337 C27.5641707,11.8330568 27.6065828,11.8419391 27.6489948,11.8513439 C27.6914069,11.860716 27.733819,11.8708392 27.7759048,11.8809297 C27.8183169,11.8910855 27.8604027,11.9018945 27.9024885,11.9133239" id="Fill-55" fill="#EEA49A"></path>
            <path d="M28.1938267,5.40888366 L28.8567599,7.75187848 C28.4593915,8.4537091 27.5012051,9.77543784 25.760353,10.1843819 C25.6768339,9.92774279 25.5261079,9.70493475 25.2686993,9.57620703 C24.3160591,9.09943767 28.1938267,5.40888366 28.1938267,5.40888366" id="Fill-56" fill="#ED9F94"></path>
            <path d="M31.5319824,3.23314998 C31.5600396,3.22145933 31.6468212,2.78403977 31.6657435,2.73747312 C31.8109233,2.38045125 32.0383172,2.08397255 32.3619538,1.87745958 C33.0888314,1.41339319 34.1435868,1.47360981 34.8492582,1.94179079 C35.9477307,2.670954 36.4618954,4.70564886 35.4733681,5.71352621 C34.5018056,6.70376963 32.659817,6.23150673 31.8380017,5.27924158 C30.4537372,3.67497801 31.5238262,3.23644817 31.5319824,3.23314998" id="Fill-57" fill="#131518"></path>
            <path d="M31.8194057,5.14293779 C31.8194057,5.14293779 31.8213632,5.15691432 31.8262569,5.18290805 C31.831803,5.2087385 31.8393067,5.24723925 31.8543141,5.29449167 C31.8689952,5.34190736 31.8882437,5.39951155 31.9169534,5.46283044 C31.9446844,5.52654119 31.9795928,5.59740349 32.0255936,5.67012714 C32.0474521,5.70732168 32.0735518,5.74369984 32.0996515,5.78229856 C32.128035,5.81913389 32.1570709,5.8579612 32.1903481,5.89466591 C32.2546187,5.97019794 32.3303079,6.04390125 32.415132,6.11156331 C32.4993037,6.18079284 32.5942414,6.24166257 32.6940729,6.29734009 C32.7958619,6.34864177 32.9015658,6.3977882 33.0118372,6.43308873 C33.0392419,6.44184039 33.0666466,6.45153905 33.0943776,6.45914777 L33.1782229,6.48040646 C33.2336849,6.49604841 33.2901255,6.5047021 33.3455875,6.51551105 C33.4010494,6.52778949 33.4571638,6.53154487 33.5122995,6.5380433 C33.5671089,6.54552139 33.6219184,6.54620716 33.6754228,6.54934208 C33.7289273,6.55286887 33.781453,6.55368525 33.8329999,6.55169327 C33.8845469,6.55019112 33.9347889,6.55081157 33.9833997,6.54591326 C34.0323366,6.54209257 34.0796424,6.53840251 34.1253169,6.53481041 C34.1709915,6.52971616 34.2147085,6.522434 34.2567943,6.5167193 C34.3412922,6.50666143 34.4173077,6.48981122 34.4848407,6.4755408 C34.5184441,6.46829129 34.5500901,6.46247862 34.5787998,6.45535974 C34.6075095,6.44752243 34.6339355,6.44037089 34.6577515,6.43387246 C34.7530155,6.40761749 34.8068462,6.39135508 34.8068462,6.39135508 C34.8068462,6.39135508 34.7504055,6.39582888 34.6528578,6.40582144 C34.6283893,6.40840122 34.6013108,6.41124224 34.5719486,6.41437717 C34.5425864,6.41649977 34.5109405,6.41878565 34.4770108,6.42123481 C34.4088253,6.42619843 34.3328098,6.43269686 34.2492907,6.43475416 C34.2075311,6.43602772 34.1644665,6.43870546 34.1194445,6.43903202 C34.0747487,6.43899936 34.0284217,6.43893405 33.9807897,6.4389014 C33.9334839,6.44017496 33.8848732,6.43579913 33.8352837,6.43357856 C33.8104889,6.43243562 33.7853679,6.43129268 33.7599207,6.43014974 C33.7347997,6.42877821 33.7093525,6.42557798 33.683579,6.42335741 C33.5811375,6.41558542 33.4760861,6.39847397 33.3707085,6.37930523 C33.3181827,6.36823504 33.2646783,6.35935276 33.2128051,6.34374346 L33.1341796,6.32258274 C33.1080799,6.3151373 33.0826327,6.30537332 33.0568592,6.29707884 C32.9527865,6.26563166 32.8539338,6.22105699 32.7580173,6.17478424 C32.665037,6.12335193 32.5723829,6.07355239 32.4918,6.01157237 C32.4102383,5.95106185 32.3338966,5.888592 32.2683211,5.82184429 C32.2017667,5.75594562 32.1427161,5.68909995 32.0928004,5.6236258 C31.9919901,5.4932653 31.9241308,5.37149319 31.88074,5.2841399 C31.8376755,5.19655802 31.8194057,5.14293779 31.8194057,5.14293779" id="Fill-58" fill="#131518"></path>
            <path d="M23.8785624,1.84637161 C23.8785624,1.84637161 22.8998225,2.25619732 22.5980443,3.16623899 C22.4456871,3.62573362 22.4920142,4.12366369 22.5389937,4.59648174 C22.5634622,4.84139751 22.601633,5.10397986 22.530185,5.34471573 C22.4502546,5.61415572 22.1990447,5.82625278 22.0385313,6.0525876 C21.80135,6.38743643 21.5788498,6.74520938 21.5997296,6.88255814 C21.6369217,7.1292373 21.9778495,7.48482233 22.4779856,7.55895017 C22.4779856,7.55895017 22.7344154,7.71997412 22.5761858,8.02621679 C22.5761858,8.02621679 22.5389937,8.27661867 22.7931398,8.38807167 C22.7931398,8.38807167 22.560526,8.69790644 22.9402771,8.85272586 C23.1405925,8.93442976 22.9500645,9.44630371 22.9598519,9.58028896 C23.0130301,10.2940061 23.8364766,10.3647705 24.3777198,10.2714739 C25.8053751,10.0253825 27.7207691,9.10845057 27.5948379,7.10177408 C27.5987529,7.16457048 28.171642,6.76388829 28.2039404,6.72287306 C28.4832075,6.36588384 28.6212098,5.7260659 28.3745674,5.31770968 C28.1445635,4.9374698 27.5768943,4.79101017 27.1860509,4.94138845 C26.4751594,5.2147471 26.1528277,4.9038347 25.6024497,4.47209719 C25.1525555,4.11899397 24.694179,3.75021614 24.3910959,3.2561394 C24.1330348,2.83491694 24.0025361,2.3215735 23.8785624,1.84637161" id="Fill-59" fill="#EFAA9E"></path>
            <path d="M24.3127967,1.10368904 C24.3127967,1.10368904 23.7705748,1.67786956 23.7660073,2.07574338 C23.7611136,2.47364986 23.7686173,2.62239537 23.9271732,2.81323373 C24.085729,3.00403944 24.0426645,3.13048129 24.3176904,3.66338533 C24.5930425,4.19625673 24.6325184,4.49250684 25.0886112,4.66829104 C25.5443778,4.84410791 25.8402835,4.80430093 26.0807272,5.14009677 C26.321171,5.47592527 26.5541111,5.6629756 26.9338622,5.32068133 C27.3139395,4.97838706 28.0251572,4.78376066 28.3745674,5.31770968 C28.7236513,5.85162605 28.0998677,6.77786482 28.0838816,6.9526367 C28.0678955,7.12744125 28.2316713,7.41742151 28.2241677,7.76572439 C28.2169902,8.11405991 28.4463416,8.7238022 28.9259242,8.87359268 C29.4051805,9.02335051 30.1666402,8.86059582 30.401864,8.6000381 C30.5796684,8.40332176 30.7098408,8.17897892 30.8961277,7.98735683 C31.251084,7.62259561 31.4553144,7.24091889 31.5998417,6.75017301 C31.7479577,6.24561388 31.814512,5.59606461 31.9358757,5.04314278 C32.0569132,4.49025361 31.5916855,2.64972797 30.8680705,2.08978522 C29.8906355,1.3332241 28.8835121,0.584239035 27.6091928,0.489799516 C27.0108564,0.445453435 24.9897585,0.249292236 24.3127967,1.10368904" id="Fill-60" fill="#131518"></path>
            <path d="M23.6951859,1.65680681 C23.6951859,1.65680681 23.6811832,0.887052886 24.3062717,0.482647976 C24.9316866,0.0782757214 25.7453457,0.45965855 26.0846422,0.293409729 C26.4239387,0.127160908 26.956047,-0.148287688 27.4901127,0.098130226 C27.4901127,0.098130226 26.7916187,0.0339949512 26.4784219,0.223820996 C26.1652251,0.413614386 25.6722664,0.488232055 25.1470093,0.415345124 C24.6220785,0.342458192 23.8766049,0.827456717 23.6951859,1.65680681" id="Fill-61" fill="#131518"></path>
            <path d="M22.4518858,4.32929497 C22.4518858,4.32929497 22.2672302,4.61199307 22.4903829,4.60072695 C22.7132094,4.58946082 22.6734073,4.29324337 23.2727224,4.36237493 C23.8723637,4.43150648 24.23515,4.736247 24.23515,4.736247 C24.23515,4.736247 23.5389396,3.72758592 22.4518858,4.32929497" id="Fill-62" fill="#131518"></path>
            <path d="M22.8472968,5.52712899 C22.8472968,5.52712899 22.8583892,5.54838768 22.8841626,5.58163091 C22.8975387,5.59750145 22.9131986,5.61823765 22.9347309,5.63802685 C22.945497,5.64805207 22.9562631,5.65944881 22.9689868,5.67025776 C22.9820366,5.68047891 22.995739,5.69125521 23.0100938,5.70245602 C23.0237962,5.71440791 23.040761,5.72296364 23.0573996,5.73403383 C23.0740382,5.7446795 23.0913293,5.75542314 23.1109041,5.76365231 C23.1298264,5.77256724 23.1494012,5.78171076 23.1696284,5.79108287 C23.1905082,5.79780989 23.2123668,5.80470019 23.2342253,5.81168845 C23.2560838,5.81962372 23.2789211,5.823673 23.3024108,5.82765696 C23.3259006,5.83154296 23.3493903,5.83706173 23.3735326,5.83892309 C23.3976749,5.83973947 23.4218171,5.84055586 23.4462856,5.8414049 L23.4831515,5.84248253 L23.5196911,5.83911902 C23.5683018,5.83382884 23.6172388,5.82977956 23.6632396,5.81635818 C23.7098929,5.80571251 23.7558937,5.79425045 23.797327,5.77619199 C23.8394128,5.75924382 23.8811724,5.74572447 23.9173858,5.725772 C23.9539254,5.70653795 23.987855,5.68756514 24.0191747,5.66999652 C24.0511469,5.65386473 24.0772466,5.63368368 24.1010626,5.61676816 C24.1245524,5.59962406 24.1447797,5.58470052 24.1617445,5.57238942 C24.1946954,5.54711412 24.2132915,5.53268041 24.2132915,5.53268041 C24.2132915,5.53268041 24.1917592,5.54254236 24.1539146,5.55978443 C24.1353185,5.56873201 24.1128075,5.57957362 24.0867078,5.592048 C24.0612605,5.60455503 24.0328771,5.61983777 23.9995999,5.63192028 C23.9669752,5.64488449 23.9320669,5.65895898 23.8955272,5.6746989 C23.8589876,5.69076538 23.8175543,5.69935376 23.7767734,5.71395073 C23.7363189,5.72959269 23.6922756,5.73599315 23.6485585,5.74601837 C23.6048415,5.75806823 23.5591669,5.76055004 23.5141449,5.76489321 L23.4802153,5.76877921 L23.4466118,5.76828938 C23.4241008,5.76796282 23.4015898,5.76763627 23.379405,5.76730972 C23.3572203,5.76574226 23.3353617,5.76166033 23.3138295,5.75947241 C23.2922972,5.75705591 23.2707649,5.75463941 23.2505376,5.74833691 C23.2296578,5.74327532 23.2094305,5.73827903 23.1898557,5.73338072 C23.1702809,5.72645777 23.1516849,5.71966544 23.1334151,5.71306904 C23.1144928,5.70728903 23.0975279,5.69830878 23.0808894,5.69043882 C23.064577,5.68214434 23.047286,5.6761684 23.0329311,5.66666566 C23.0032427,5.64939094 22.9758379,5.6332265 22.9530007,5.61637629 C22.9295109,5.60057106 22.9109149,5.58424335 22.8946025,5.57147507 C22.8636091,5.54482824 22.8472968,5.52712899 22.8472968,5.52712899" id="Fill-63" fill="#131518"></path>
            <path d="M22.7187556,8.39182705 C22.7187556,8.39182705 22.4809218,8.10560216 22.6802585,8.12039507 C22.8795952,8.13515533 23.0616408,8.29993465 23.4815202,8.25389049 C23.4528105,8.25702541 23.3200281,8.47751491 23.2926234,8.5057292 C23.1820258,8.62005588 22.9839941,8.78003486 22.8104309,8.75893945 C22.6443714,8.73869308 22.6659036,8.51226029 22.7187556,8.39182705" id="Fill-64" fill="#DF516B"></path>
            <path d="M23.2707649,7.51891461 C23.2707649,7.51891461 23.3043683,7.60848847 23.3898449,7.72353356 C23.432257,7.78107244 23.4873927,7.84465257 23.5545995,7.90490185 C23.5882029,7.93468361 23.6244163,7.96462864 23.6632396,7.99176531 C23.6828144,8.00443562 23.7023892,8.01717124 23.721964,8.03000482 C23.7408863,8.04303434 23.7620923,8.05576996 23.7790572,8.06915869 C23.8126606,8.094434 23.8472427,8.12255033 23.8749737,8.15504249 C23.9043359,8.18648967 23.9288044,8.22081053 23.9503367,8.2557845 C23.969259,8.29190141 23.9875288,8.32746318 23.9986212,8.3639393 C24.0110185,8.39992559 24.018196,8.43555267 24.0243947,8.46886122 C24.0289621,8.50230038 24.0315721,8.53351898 24.0325508,8.56150469 C24.0322246,8.58935977 24.0328771,8.61407994 24.0309196,8.63432631 C24.0286359,8.67504764 24.0253734,8.69862486 24.0253734,8.69862486 C24.0253734,8.69862486 24.0276571,8.69313875 24.0315721,8.68285229 C24.035487,8.67250051 24.0426645,8.65751167 24.0478844,8.63739592 C24.0544093,8.61750876 24.0599555,8.59278859 24.0655017,8.56388853 C24.0674592,8.54929156 24.0694167,8.53374757 24.0713742,8.51738719 C24.0723529,8.5008962 24.0733316,8.48342554 24.0733316,8.4651385 C24.0726792,8.42866238 24.0703954,8.38846354 24.060608,8.34712176 C24.0524519,8.30525749 24.036792,8.26260949 24.016891,8.22019008 C23.9950325,8.17910954 23.9708902,8.13629827 23.9372868,8.10008339 C23.9056409,8.06220308 23.8684488,8.0295803 23.8276679,7.99816577 C23.8074406,7.98330755 23.7878658,7.97233533 23.768291,7.95930581 C23.7487162,7.94709267 23.7291414,7.93494485 23.7095666,7.922895 C23.6912968,7.91038796 23.673027,7.89794624 23.6547572,7.8856678 C23.6374661,7.87260563 23.6198488,7.85967407 23.602884,7.84693845 C23.5696068,7.82012834 23.5373084,7.79426524 23.5082725,7.76784699 C23.4792365,7.74129812 23.4515055,7.71592485 23.427037,7.69140062 C23.3291631,7.59346697 23.2707649,7.51891461 23.2707649,7.51891461" id="Fill-65" fill="#D77065"></path>
            <path d="M22.6955921,6.95146111 C22.6955921,6.95146111 22.7011383,6.95224484 22.7109257,6.95371433 C22.7207131,6.95537976 22.7357204,6.95665332 22.7533377,6.96155164 C22.7709551,6.9649478 22.7918348,6.97245855 22.8156508,6.98045914 C22.8270695,6.98555338 22.8391406,6.99097419 22.8518642,6.99672154 C22.8639353,7.00338325 22.876659,7.01043682 22.8900351,7.01775164 C22.9154823,7.03460185 22.9419083,7.05347669 22.9657243,7.07770702 C22.9908453,7.10092504 23.0110726,7.13015165 23.0286899,7.161109 C23.0469597,7.19209901 23.0544634,7.22815061 23.0587046,7.26381035 C23.0639245,7.29907822 23.0541371,7.33908113 23.0443497,7.37039769 C23.0286899,7.41444987 23.0127038,7.43616573 22.9869303,7.46366161 C22.9605043,7.4873368 22.9288584,7.50526463 22.8949288,7.51773901 C22.8257645,7.54085906 22.7526852,7.54673704 22.6900459,7.54977399 C22.626754,7.5518966 22.5739021,7.55365999 22.53671,7.5549009 C22.4995178,7.55666429 22.4779856,7.55895017 22.4779856,7.55895017 C22.4779856,7.55895017 22.4991916,7.56283617 22.5357312,7.56966115 C22.5722708,7.57606162 22.6247966,7.58625011 22.6890671,7.59251996 C22.7210393,7.59562222 22.756274,7.59816935 22.7941186,7.59679782 C22.8319632,7.59581816 22.872744,7.59186685 22.9145036,7.58030683 C22.9556107,7.56760386 22.9990015,7.54925151 23.0352148,7.51675935 C23.0694707,7.48622652 23.1007904,7.435382 23.1128615,7.39913447 C23.1193865,7.38440687 23.1197127,7.37516538 23.1229752,7.36291959 C23.1255852,7.35132691 23.1291739,7.33999548 23.1295001,7.32794562 L23.1324363,7.2923512 L23.1301526,7.25685474 C23.1246064,7.21015747 23.1092728,7.16519093 23.0851306,7.12845357 C23.0622933,7.09122637 23.0335836,7.05997512 23.0025902,7.03623462 C22.9725755,7.01092666 22.9399508,6.99414176 22.9096099,6.9799693 C22.89395,6.9739607 22.8792689,6.96805007 22.8649141,6.96338034 C22.850233,6.95978824 22.8365306,6.95639208 22.8234808,6.95319185 C22.7967285,6.94884867 22.7738913,6.94639952 22.7543165,6.94685669 C22.7353942,6.94561579 22.7210393,6.9489793 22.7109257,6.94969772 C22.7011383,6.95084066 22.6955921,6.95146111 22.6955921,6.95146111" id="Fill-66" fill="#D77065"></path>
            <path d="M27.0630559,5.66212656 C27.0630559,5.66212656 27.0878506,5.63590424 27.1348301,5.59498698 C27.1583199,5.57444672 27.1876821,5.5506409 27.2225905,5.52546356 C27.2578251,5.5004495 27.2992584,5.47527216 27.3446067,5.44986623 C27.3915862,5.42707274 27.442807,5.40362613 27.4995739,5.38984554 C27.5136025,5.38638406 27.5279573,5.38285728 27.5426384,5.37929783 C27.5573195,5.37779568 27.5720006,5.37626088 27.5873342,5.37472607 C27.6170227,5.36946855 27.6476899,5.37400765 27.6786833,5.37410562 C27.6943431,5.37387703 27.7093505,5.37959173 27.7246841,5.38197558 C27.7400177,5.3856983 27.7560037,5.38690655 27.7710111,5.39255594 C27.7856922,5.39840126 27.8006995,5.40427924 27.8157069,5.41018988 C27.8310405,5.41554537 27.8460478,5.42109679 27.8600764,5.43043625 C27.9178221,5.4608058 27.974589,5.50084136 28.0153698,5.5496939 C28.0587606,5.59808925 28.0874703,5.65745683 28.1021514,5.71956747 C28.11618,5.78206997 28.1168325,5.84738084 28.1076976,5.90998131 C28.0881228,6.03567208 28.0362496,6.14849661 27.9814402,6.23741736 C27.925652,6.32601156 27.8675801,6.39373893 27.8189693,6.43197844 C27.7951533,6.45170233 27.774926,6.46522168 27.7605712,6.4737774 C27.7455639,6.48141877 27.7377339,6.4855007 27.7377339,6.4855007 C27.7377339,6.4855007 27.7462163,6.48288827 27.7625287,6.47802261 C27.7781885,6.47185073 27.8020045,6.46300111 27.8287567,6.44562842 C27.8829137,6.41235253 27.9550142,6.35344212 28.022221,6.26556635 C28.0558244,6.22184072 28.0884491,6.17132276 28.1165063,6.11388185 C28.1442372,6.05660422 28.169032,5.99282815 28.1824081,5.92291287 C28.1948055,5.85329148 28.2000254,5.77726962 28.1833868,5.70170495 C28.1667483,5.62666276 28.1321661,5.55250226 28.0802929,5.49352655 C28.027441,5.43291806 27.9648016,5.39098848 27.8972685,5.35643903 C27.8816087,5.34638116 27.8639914,5.33968679 27.8457216,5.33384147 C27.8281043,5.32776756 27.8104869,5.3217263 27.7928696,5.31575036 C27.7752523,5.31006831 27.75633,5.30892537 27.7383864,5.30543124 C27.7201166,5.30330864 27.702173,5.2979858 27.6842295,5.29873688 C27.6480161,5.29987982 27.6124552,5.29622241 27.5785256,5.30464751 C27.5615607,5.30765181 27.5449222,5.31062345 27.5282836,5.31356244 C27.5126237,5.31859138 27.4969639,5.32358766 27.4813041,5.32851863 C27.4193172,5.34775268 27.3667915,5.3785141 27.319812,5.40754479 C27.297301,5.42361126 27.2754424,5.43843683 27.2558676,5.45407878 C27.2369453,5.47063509 27.2183493,5.485428 27.2023632,5.50084136 C27.170391,5.53134154 27.143965,5.55939256 27.1230853,5.58323103 C27.0816519,5.63126717 27.0630559,5.66212656 27.0630559,5.66212656" id="Fill-67" fill="#D77065"></path>
            <path d="M24.5881488,75 C21.3612433,75 18.7453977,74.6509134 18.7453977,74.2201882 C18.7453977,73.9550261 19.7368613,73.7208866 21.2519507,73.5801417 C21.9223875,73.6157361 22.6535063,73.6353294 23.4195334,73.6353294 C24.6599231,73.6353294 25.8099425,73.5837338 26.7557315,73.4958907 C28.9092856,73.6108378 30.4312262,73.8920011 30.4312262,74.2201882 C30.4312262,74.6509134 27.8150544,75 24.5881488,75" id="Fill-68" fill="#BEBEBE"></path>
            <path d="M21.2519507,73.5801417 C19.0983966,73.4651945 17.5767823,73.1840312 17.5767823,72.8555176 C17.5767823,72.4251189 20.1926278,72.0760323 23.4195334,72.0760323 C26.6464389,72.0760323 29.2626107,72.4251189 29.2626107,72.8555176 C29.2626107,73.1206797 28.2711472,73.3551457 26.7557315,73.4958907 C26.0856209,73.4602962 25.354176,73.4403764 24.5881488,73.4403764 C23.3480854,73.4403764 22.1977397,73.491972 21.2519507,73.5801417" id="Fill-69" fill="#BEBEBE"></path>
            <path d="M23.4195334,73.6353294 C22.6535063,73.6353294 21.9223875,73.6157361 21.2519507,73.5801417 C22.1977397,73.491972 23.3480854,73.4403764 24.5881488,73.4403764 C25.354176,73.4403764 26.0856209,73.4602962 26.7557315,73.4958907 C25.8099425,73.5837338 24.6599231,73.6353294 23.4195334,73.6353294" id="Fill-70" fill="#96979B"></path>
            <path d="M28.823809,65.7141004 C27.6604135,65.7477355 26.4643933,65.7431638 25.354176,65.4365292 C25.3499348,66.6300854 25.3531972,67.5091697 25.3939781,67.7289408 C25.5257817,68.4405027 26.1091107,69.2660321 26.1091107,69.2660321 C27.6969531,70.3217823 28.5889114,69.132798 28.5889114,69.132798 C28.5275771,68.4636881 28.609465,67.1927385 28.823809,65.7141004" id="Fill-71" fill="#EFAA9E"></path>
            <path d="M28.7657371,46.3771845 C29.1024236,45.172852 29.2945829,40.9798941 29.2945829,40.9798941 C29.5523178,40.6830562 29.7901516,40.3656454 30.0054743,40.0328865 C29.9294589,40.0057825 29.8534434,39.9776988 29.7771017,39.9509214 C28.1921955,39.3944727 26.5704234,38.9323983 24.9199417,38.6175999 C24.8680685,38.6078033 24.4403591,38.5333489 24.425678,38.5287772 C24.2658172,38.503959 24.1053038,38.4807737 23.9447905,38.4595476 C23.5112087,38.4024006 23.0759957,38.3576627 22.6394777,38.3279462 C22.0320064,38.2868004 21.515558,38.1731595 20.908413,38.1999369 C20.7671482,41.2956722 21.6104957,44.683347 22.3967502,46.4529451 C23.4430231,48.8087082 24.7724782,53.7011455 25.1483143,56.5441277 C25.4337801,58.7026519 25.3512397,63.6199074 25.352871,66.1742155 C26.8467544,67.3449129 28.5008248,66.5951441 28.7213676,66.4860749 C28.900477,64.9914357 29.2342273,63.17612 29.7095686,61.5263674 C30.5483488,58.616115 29.7418671,56.7224263 28.9115694,53.8670351 C28.0812716,51.0113173 28.4290506,47.5818435 28.7657371,46.3771845" id="Fill-72" fill="#395B52"></path>
            <path d="M24.4093657,67.3978147 C24.4093657,67.3978147 25.007702,66.4704003 25.4021342,66.8185073 C25.7968927,67.1669407 25.7508919,68.817673 26.4503647,69.1070002 C27.1498375,69.3960008 28.1197688,69.3473442 28.5853227,68.348741 C28.5853227,68.348741 29.2994766,69.6245888 29.262937,70.9386435 C29.262937,70.9386435 30.5150716,71.9512886 29.2133475,72.7242427 C27.9119496,73.4971969 25.8556171,72.3274792 24.3999045,72.5903554 C22.944192,72.8535582 19.3975648,73.1931748 18.2818013,70.9030491 C18.2818013,70.9030491 18.1013869,70.1222576 18.8148883,69.9060787 C19.5283897,69.6898997 23.3431917,69.391429 24.4093657,67.3978147" id="Fill-73" fill="#D2235C"></path>
            <path d="M27.2829461,71.5747714 C25.3385161,71.5460346 24.6517669,71.7037604 23.5079462,71.9503089 C22.3644517,72.1965309 20.0761578,72.7147726 18.2619002,70.7169131 C18.2645102,70.8272885 18.2818013,70.9030491 18.2818013,70.9030491 C19.3975648,73.1931748 22.944192,72.8535582 24.3999045,72.5903554 C25.8556171,72.3274792 27.9119496,73.4971969 29.2133475,72.7242427 C30.5150716,71.9512886 29.262937,70.9386435 29.262937,70.9386435 C29.262937,70.9386435 29.2277023,71.6035082 27.2829461,71.5747714" id="Fill-74" fill="#1B404E"></path>
            <path d="M29.4104005,67.3432801 C28.3151905,67.4523493 27.2059519,67.4223063 26.0797485,67.2002493 C25.9965556,67.183595 25.9192351,67.1571441 25.8448509,67.1261215 C25.8428934,68.1616253 25.8494184,68.9074754 25.887263,69.1105923 C26.0242866,69.8515441 26.6314316,70.710382 26.6314316,70.710382 C28.2835446,71.8089109 29.2120425,70.5715964 29.2120425,70.5715964 C29.1526656,69.9256719 29.2221562,68.7399531 29.4104005,67.3432801" id="Fill-75" fill="#EFAA9E"></path>
            <path d="M29.9460975,41.2757524 C31.9557768,38.9630944 32.5802128,36.0619856 30.9783418,33.1491208 C29.6952138,30.8152368 28.6734093,30.0004837 28.2209052,28.6580187 C24.5189846,29.7748346 21.9462035,29.7340153 20.7162537,29.6027405 C20.8950369,30.5922002 21.0800187,31.3958504 21.1889851,31.8742526 C21.5641687,33.5161678 21.3570021,35.3001343 21.3570021,35.3001343 C19.9880712,39.1567412 21.6793338,44.5197433 22.7683451,46.9708603 C23.8570301,49.4223038 25.2406421,54.5136127 25.6318119,57.4718686 C25.9286963,59.7179094 25.8428934,64.8350161 25.8445247,67.4931685 C27.3987637,68.7115428 29.1203672,67.9310779 29.3500448,67.8177636 C29.5360054,66.2623852 29.8834581,64.3729417 30.378048,62.656572 C31.2507578,59.628107 30.4116514,57.6573515 29.5477503,54.6860334 C28.6835229,51.7143888 29.0456567,48.1454763 29.3960456,46.8921607 C29.7461083,45.6388451 29.9460975,41.2757524 29.9460975,41.2757524" id="Fill-76" fill="#4D7066"></path>
            <path d="M28.314538,28.5293563 C24.6122911,29.6461722 21.9462035,29.7340153 20.7162537,29.6027405 C20.8673059,30.4383931 21.022273,31.1404849 21.1328707,31.6267244 C21.9204301,31.732528 25.4987032,32.2599133 29.2521708,30.4906418 C28.7882481,29.8839038 28.556613,29.2477759 28.314538,28.5293563" id="Fill-77" fill="#395B52"></path>
            <path d="M24.8625223,68.766404 C24.8625223,68.766404 25.4853271,67.8014359 25.8960716,68.1635846 C26.3064899,68.5257334 26.2588579,70.2437359 26.9867142,70.544819 C27.7145704,70.8459021 28.7236513,70.7949596 29.2081275,69.7558637 C29.2081275,69.7558637 29.9513174,71.0833071 29.9134728,72.4509167 C29.9134728,72.4509167 31.2161756,73.5047076 29.8619258,74.309011 C28.5073498,75.1136409 26.3678243,73.8962463 24.8527349,74.1698988 C23.3379717,74.4435514 19.6471435,74.7968832 18.4863579,72.4136895 C18.4863579,72.4136895 18.2987661,71.6015489 19.0409772,71.3765529 C19.7835145,71.151557 23.7532837,70.8410038 24.8625223,68.766404" id="Fill-78" fill="#DC3965"></path>
            <path d="M27.8532252,73.1128424 C25.8295173,73.0827994 25.1150372,73.2470562 23.9248894,73.503728 C22.7347417,73.7600731 20.3534674,74.2988878 18.4658044,72.2203694 C18.4684143,72.3353165 18.4863579,72.4136895 18.4863579,72.4136895 C19.6471435,74.7968832 23.3379717,74.4435514 24.8527349,74.1698988 C26.3678243,73.8962463 28.5073498,75.1136409 29.8619258,74.309011 C31.2161756,73.5047076 29.9134728,72.4509167 29.9134728,72.4509167 C29.9134728,72.4509167 29.8766069,73.1428854 27.8532252,73.1128424" id="Fill-79" fill="#1B404E"></path>
            <path d="M20.0330932,23.354123 C20.0771365,23.9941695 20.1945853,24.6815664 20.2461323,25.3673305 C21.0774087,25.6194305 24.5581342,26.5236595 28.4411217,25.3663509 C28.5057185,25.0642881 28.5849965,24.7739813 28.6812392,24.5084926 C28.8048867,24.168223 29.0003084,23.741743 29.2280286,23.2424414 C23.8413703,24.631277 20.5355131,23.540912 20.0330932,23.354123" id="Fill-120" fill="#CA295A"></path>
        </g>
    </g>
</svg>