<?xml version="1.0" encoding="UTF-8"?>
<svg width="29px" height="75px" viewBox="0 0 29 75" version="1.1" xmlns="http://www.w3.org/2000/svg" xmlns:xlink="http://www.w3.org/1999/xlink">
    <title>Group 6</title>
    <g id="Page-1" stroke="none" stroke-width="1" fill="none" fill-rule="evenodd">
        <g id="Group-6" transform="translate(14.500000, 37.500000) scale(-1, 1) translate(-14.500000, -37.500000) ">
            <path d="M18.2390644,75 C12.2958192,75 7.4779735,74.4349042 7.4779735,73.7383396 C7.4779735,73.0414613 12.2958192,72.4763654 18.2390644,72.4763654 C24.1818747,72.4763654 29,73.0414613 29,73.7383396 C29,74.4349042 24.1818747,75 18.2390644,75" id="Fill-73" fill="#BEBEBE"></path>
            <path d="M26.5141978,53.0538235 C25.8403189,50.3318877 26.2156281,48.5183097 26.789466,43.427113 C27.3636145,38.3362301 26.2171815,35.7419978 25.767929,33.1461966 C25.3186764,30.5500816 24.4235887,29.469779 23.8245853,28.2093737 C23.2255818,26.9492821 23.306671,25.0905216 23.306671,25.0905216 L18.5025265,25.6110624 L13.8611196,25.111544 C13.8611196,25.111544 13.7518202,26.9492821 13.1529099,28.2093737 C12.5539686,29.469779 11.6540032,30.5500816 11.2048127,33.1461966 C10.7555912,35.7419978 9.6068902,38.3362301 10.1808523,43.427113 C10.7548145,48.5183097 11.1287256,50.3318877 10.4549399,53.0538235 C9.78115423,55.7757594 9.0323067,57.4892454 9.43156985,61.2193173 C9.83086406,64.9493892 9.6686236,67.9731697 9.6686236,67.9731697 L12.1641814,68.1749224 C12.1641814,68.1749224 12.2014637,64.7724241 12.5258825,63.4367145 C12.8503013,62.1010049 13.7486822,57.3125942 13.9733396,56.001986 C14.1979659,54.6913778 15.7200188,52.1457795 16.1192508,49.4743602 C16.5187936,46.802941 16.9428806,44.7615676 17.2423823,43.5516788 C17.541884,42.3421039 18.2679583,40.3760347 18.2679583,38.7378529 L18.2452782,38.7394218 L18.2452782,38.7632681 C18.2452782,38.7849181 18.3953397,38.7830355 18.4702151,38.77425 C18.5426051,38.782408 18.6311507,38.7842906 18.6762002,38.7676609 C18.6848995,40.3998811 19.420605,42.3493206 19.7182426,43.5516788 C20.0177443,44.7615676 20.4455595,46.802941 20.8451023,49.4743602 C21.2443344,52.1457795 22.7682514,54.6913778 22.9928777,56.001986 C23.217504,57.3125942 23.9671903,62.252241 24.291547,63.5879506 C24.6159036,64.9236602 24.6914004,67.9731697 24.6914004,67.9731697 L27.286875,67.6204946 C27.286875,67.6204946 27.1871446,65.2512338 27.5863767,61.5211619 C27.9856088,57.7914039 27.1880767,55.7757594 26.5141978,53.0538235" id="Fill-74" fill="#EFAA9E"></path>
            <path d="M9.01630635,72.1757758 C8.7709262,71.0480943 9.09559353,69.2301235 9.26647107,68.7739051 C9.43728648,68.3176867 9.41606659,67.1859262 11.026603,66.9738191 C11.5564787,66.9041627 12.0961721,67.094306 12.3835571,67.5671541 C12.7475573,68.1661369 12.526566,68.9103941 12.617069,69.5680515 C12.7254675,70.3556087 12.9371071,71.1657572 13.3605416,71.8434957 C13.7855296,72.5240581 14.2877543,73.6203629 13.2473275,73.9802546 C12.4870778,74.243192 11.6255443,74.2199732 10.8354687,74.1390211 C10.2282631,74.0768951 9.4199191,74.0066111 8.90899525,73.6272658 C8.13578991,73.0533844 9.01630635,72.1757758 9.01630635,72.1757758" id="Fill-75" fill="#DC3965"></path>
            <path d="M8.90899525,73.6272658 C8.19590773,73.0979395 8.88889384,72.3110098 9.00105164,72.191778 C9.14800633,73.1186481 9.76944135,73.3950776 10.3393335,73.3677798 C10.9274629,73.3395407 11.1840278,72.6721565 11.6554323,72.697258 C12.1268058,72.7220456 12.442805,73.4295921 13.0975456,73.3658972 C13.6153045,73.3156943 13.724604,72.8180586 13.7478434,72.6112856 C13.9487643,73.1672822 13.9446943,73.7392809 13.2473275,73.9802546 C12.4870778,74.243192 11.6255443,74.2199732 10.8354687,74.1390211 C10.2282631,74.0768951 9.4199191,74.0066111 8.90899525,73.6272658" id="Fill-76" fill="#163139"></path>
            <path d="M28.1111261,71.7725842 C28.3565684,70.6449026 28.031901,68.8269319 27.8610235,68.3707135 C27.690146,67.9144951 27.7112726,66.7827345 26.1009848,66.5706275 C25.5709537,66.500971 25.0312914,66.6911143 24.7439064,67.1639624 C24.3797819,67.7626314 24.6009907,68.5072025 24.5102702,69.1648598 C24.4021514,69.9524171 24.1902632,70.7625656 23.7667976,71.4403041 C23.3420892,72.1208665 22.8397092,73.2171712 23.8801981,73.5770629 C24.6404479,73.8400004 25.5019814,73.8167815 26.292057,73.7358294 C26.8991383,73.6737034 27.7075444,73.6034194 28.2186236,73.2240741 C28.9916115,72.6501928 28.1111261,71.7725842 28.1111261,71.7725842" id="Fill-77" fill="#DC3965"></path>
            <path d="M28.2186236,73.2240741 C28.931649,72.6947478 28.2385075,71.9078181 28.1263497,71.7885864 C27.979395,72.7151427 27.3580222,72.9918859 26.7882232,72.9645881 C26.2000938,72.936349 25.9434668,72.2689649 25.4721555,72.2940663 C25.0005334,72.318854 24.6845653,73.0264004 24.029949,72.9627055 C23.5120347,72.9125027 23.4029838,72.4148669 23.3796823,72.2080939 C23.1786682,72.7640905 23.1827071,73.3357755 23.8801981,73.5770629 C24.6404479,73.8400004 25.5019814,73.8167815 26.292057,73.7358294 C26.8991383,73.6737034 27.7075444,73.6034194 28.2186236,73.2240741" id="Fill-78" fill="#163139"></path>
            <path d="M21.547875,11.871546 C21.547875,11.871546 23.5443461,12.7788371 24.5425816,13.3836873 C24.5425816,13.3836873 27.0880356,13.8373642 27.2377865,17.1641189 C27.3872267,20.4909049 26.9879946,24.2712738 27.4372472,26.6402208 C27.8864998,29.0094816 27.9365203,33.0922285 27.8864998,34.3021172 C27.8569846,35.0206456 27.8482854,35.6789304 27.885257,36.2481053 C27.8681693,36.2443401 27.8507709,36.2418299 27.8333724,36.2383785 C27.8284014,36.6572585 27.8178381,37.0303285 27.7957794,37.3591571 C27.705991,38.7093001 27.816906,39.759481 27.4639662,40.6113606 C27.1107158,41.4629265 25.4460578,43.1921009 25.3727358,43.5733288 C25.3727358,43.5733288 24.9822029,42.9941134 25.3416672,42.3948169 C25.7014421,41.7955203 25.4951463,41.8852579 25.7747641,41.4142924 C26.0543819,40.9436407 26.3175333,39.8413744 26.1705786,39.0029867 C26.1705786,39.0029867 25.9711179,39.3453074 25.7014421,40.1949907 C25.4314555,41.0443602 24.8579284,41.4387663 24.8579284,41.4387663 C24.8579284,41.4387663 24.4018407,41.5350931 24.7000997,40.1796161 C24.998048,38.8238253 24.9160267,38.8680666 25.0561463,37.8533414 C25.1835278,36.9333742 25.4522715,36.1502097 25.9652148,35.9365338 C26.0152354,35.635003 26.092907,34.8264233 25.7402779,33.7978924 C25.2910253,32.4872842 24.5425816,30.2190566 24.2430799,27.950829 C23.9435782,25.6826014 23.7438068,23.364171 23.7938273,22.2046734 C23.8438478,21.0453641 23.8438478,20.3900913 23.2945542,19.1803281 C22.7455713,17.9705963 21.6976259,13.9381464 21.547875,11.871546" id="Fill-79" fill="#EFAA9E"></path>
            <path d="M26.789466,43.427113 C27.3636145,38.3362301 26.2171815,35.7419978 25.767929,33.1461966 C25.3944839,30.9877878 24.7128378,29.8770497 24.1492526,28.8397333 C23.4940149,29.0141882 21.0973797,29.6078369 18.6025676,29.6649426 C15.9850343,29.725186 13.4226168,28.8726789 12.9080579,28.6910073 C12.3295598,29.7731925 11.5961534,30.8845581 11.2048127,33.1461966 C10.7555912,35.7419978 9.6068902,38.3362301 10.1808523,43.427113 C10.7548145,48.5183097 11.1287256,50.3318877 10.4549399,53.0538235 C9.78115423,55.7757594 9.0323067,57.4892454 9.43156985,61.2193173 C9.61005921,62.8863657 9.67620435,64.4115911 9.69493874,65.5894755 C10.7145806,66.0566758 11.9412328,65.694274 12.2649059,65.5835139 C12.3189343,64.7696002 12.4011109,63.9503524 12.5258825,63.4367145 C12.8503013,62.1010049 13.7486822,57.3125942 13.9733396,56.001986 C14.1979659,54.6913778 15.7200188,52.1457795 16.1192508,49.4743602 C16.5187936,46.802941 16.9428806,44.7615676 17.2423823,43.5516788 C17.541884,42.3421039 18.2679583,40.3760347 18.2679583,38.7378529 L18.2452782,38.7394218 L18.2452782,38.7632681 C18.2452782,38.7849181 18.3953397,38.7830355 18.4702151,38.77425 C18.5426051,38.782408 18.6311507,38.7842906 18.6762002,38.7676609 C18.6848995,40.3998811 19.420605,42.3493206 19.7182426,43.5516788 C20.0177443,44.7615676 20.4455595,46.802941 20.8451023,49.4743602 C21.2443344,52.1457795 22.7682514,54.6913778 22.9928777,56.001986 C23.217504,57.3125942 23.9671903,62.252241 24.291547,63.5879506 C24.4055689,64.0579748 24.4891436,64.7397923 24.549106,65.42663 C25.9493698,65.8706115 27.015335,65.4598894 27.3067589,65.3246555 C27.344352,64.3262463 27.4241984,63.036033 27.5863767,61.5211619 C27.9856088,57.7914039 27.1880767,55.7757594 26.5141978,53.0538235 C25.8403189,50.3318877 26.2156281,48.5183097 26.789466,43.427113" id="Fill-80" fill="#4D7066"></path>
            <path d="M11.9816531,30.4870143 C12.5997016,30.7781909 14.9196905,31.7383204 18.5360807,31.6812146 C21.8119585,31.629443 24.1806319,31.0216747 25.1002638,30.7433626 C24.7936163,29.9843583 24.4543467,29.4010639 24.1492526,28.8397333 C23.4940149,29.0141882 21.0973797,29.6078369 18.6025676,29.6649426 C15.9850343,29.725186 13.4226168,28.8726789 12.9080579,28.6910073 C12.6173486,29.2347669 12.2875239,29.786057 11.9816531,30.4870143" id="Fill-81" fill="#395B52"></path>
            <path d="M14.7034527,35.1938454 C14.7034527,35.1938454 14.8504074,35.2851518 15.0977138,35.4614893 C15.3416027,35.6409645 15.6945425,35.8960578 16.0841433,36.2452814 C16.2792544,36.4209913 16.487725,36.6076832 16.692778,36.8364199 C16.8978311,37.0682944 17.0823788,37.329663 17.2718975,37.5882076 C17.4620376,37.8464386 17.6661586,38.1049832 17.9001055,38.316149 C17.9557184,38.3745098 18.022516,38.4102793 18.0824785,38.4595409 C18.1458585,38.5003307 18.2123454,38.5332763 18.2782109,38.5652806 L18.3804268,38.5969712 L18.4313793,38.6132871 L18.4838853,38.6170523 L18.588276,38.6270929 C18.6230729,38.6270929 18.6584911,38.6173661 18.693288,38.6136009 C18.7283956,38.606698 18.7641245,38.6101494 18.7989214,38.5969712 L18.903312,38.559319 C18.9744592,38.5414343 19.0403248,38.4978206 19.1071223,38.4592271 L19.2028138,38.4046315 L19.3059617,38.3280722 C19.3618852,38.2816345 19.4184302,38.2308041 19.4746644,38.1740122 C19.693077,37.9465305 19.872343,37.6732387 20.039803,37.3977506 C20.1249311,37.260634 20.2060203,37.1213211 20.2942552,36.9885973 C20.3383727,36.9211373 20.3828009,36.8574424 20.4297145,36.7909236 C20.4756961,36.7294251 20.521367,36.6685542 20.5661059,36.6083107 C20.7509643,36.3657682 20.9414151,36.1514648 21.1340407,35.9685381 C21.5158743,35.5986059 21.9051644,35.375517 22.1857143,35.2575403 C22.3258339,35.1960418 22.4420306,35.164665 22.5203236,35.1442701 C22.5989273,35.1248165 22.6408699,35.1147759 22.6408699,35.1147759 C22.6408699,35.1147759 22.6011021,35.1314056 22.5265373,35.1624686 C22.4519726,35.1935316 22.3460285,35.2465584 22.2158509,35.3196663 C22.086916,35.3946568 21.9340583,35.4925524 21.7752975,35.6262175 C21.616226,35.7589412 21.4493874,35.9221005 21.2797526,36.1116163 C21.1110499,36.3014458 20.944522,36.524221 20.7804795,36.7636258 C20.609602,37.009306 20.4710358,37.2700471 20.3076147,37.5583997 C20.1454364,37.8414183 19.9736268,38.1482832 19.7194853,38.4143583 C19.6570373,38.4793083 19.5877543,38.5439444 19.5116361,38.6073255 L19.4094202,38.6851399 L19.2832816,38.7616993 C19.2018817,38.8100195 19.123278,38.862105 19.0269652,38.8906579 L18.8883991,38.9408607 C18.8424175,38.9578042 18.7896008,38.9590592 18.7402017,38.967531 C18.6898704,38.9725513 18.6398499,38.9829056 18.589208,38.9823054 L18.4369717,38.967531 L18.3608535,38.9590592 L18.2887743,38.9367817 L18.1458585,38.8894028 C18.0582449,38.8473579 17.9706313,38.801234 17.891717,38.7488348 C17.8190164,38.6901602 17.7357524,38.6396436 17.6736151,38.5740661 C17.4030072,38.3261896 17.2066534,38.0397195 17.0196201,37.7708205 C16.8322762,37.5006664 16.67103,37.2358464 16.4945601,37.0105611 C16.3134299,36.7865309 16.1192508,36.5797579 15.9440237,36.3924385 C15.587977,36.0199961 15.2791547,35.7181514 15.0545284,35.5154574 C14.8311449,35.3108808 14.7034527,35.1938454 14.7034527,35.1938454" id="Fill-82" fill="#395B52"></path>
            <path d="M19.8294683,8.72605499 C19.8294683,8.72605499 20.247963,10.3533804 20.6959728,11.0324054 C21.1442933,11.7114303 22.3199308,12.0505506 22.3199308,12.0505506 C22.3199308,12.0505506 22.8614573,12.3049849 22.7166774,14.2571541 C22.5715868,16.2093234 20.3302949,17.4258012 18.8455244,17.4541031 C17.3607539,17.4823736 15.2449792,16.492091 15.2170174,16.3506444 C15.1890556,16.2091665 14.5496629,14.483318 14.5496629,14.483318 L14.5496629,12.8454186 L15.0296735,12.012867 C15.0296735,12.012867 16.1049593,11.7106459 15.7967583,10.9467781 C15.4885574,10.182879 19.8294683,8.72605499 19.8294683,8.72605499" id="Fill-83" fill="#EFAA9E"></path>
            <path d="M19.8294683,8.72605499 C19.8294683,8.72605499 20.247963,10.3533804 20.6959728,11.0324054 C21.1442933,11.7114303 22.3199308,12.0505506 22.3199308,12.0505506 C22.3199308,12.0505506 22.8614573,12.3049849 22.7166774,14.2571541 C22.5715868,16.2093234 20.3302949,17.4258012 18.8455244,17.4541031 C17.3607539,17.4823736 15.2449792,16.492091 15.2170174,16.3506444 C15.1890556,16.2091665 14.5496629,14.483318 14.5496629,14.483318 L14.5496629,12.8454186 L15.0296735,12.012867 C15.0296735,12.012867 16.1049593,11.7106459 15.7967583,10.9467781 C15.4885574,10.182879 19.8294683,8.72605499 19.8294683,8.72605499" id="Fill-84" fill="#EFAA9E"></path>
            <path d="M25.2375872,16.4251957 C25.2375872,16.4251957 25.2273345,16.4392211 25.2096254,16.4660796 C25.1916056,16.4927499 25.1670614,16.5331318 25.1375462,16.5848093 C25.1083416,16.6367065 25.0747875,16.7004328 25.0403013,16.7750781 C25.0061258,16.8496608 24.9716396,16.9353194 24.940571,17.0302028 C24.9091916,17.1250548 24.8815405,17.2292571 24.8613459,17.3404878 C24.8408406,17.4516243 24.8293452,17.5700403 24.8271704,17.6921901 C24.8271704,17.7227511 24.826549,17.7535003 24.8281025,17.7845006 C24.8290345,17.8154695 24.8293452,17.8466266 24.8324521,17.8779093 C24.8336948,17.8935663 24.8346269,17.9092547 24.8358696,17.9249745 C24.8371124,17.9406942 24.8395979,17.9563826 24.8411513,17.9721338 C24.8430154,17.9878849 24.8448795,18.0036674 24.846433,18.0195127 C24.8486078,18.0353266 24.851404,18.0510464 24.8538894,18.0668916 C24.8563749,18.0826742 24.8588604,18.0985194 24.8613459,18.1143961 C24.8638314,18.13021 24.8675596,18.1459611 24.8706665,18.161775 C24.8771909,18.1948775 24.884026,18.2280742 24.8905504,18.2613336 L24.9004924,18.3116933 C24.90391,18.328072 24.9063955,18.3471804 24.9095023,18.3648456 C24.9150947,18.400772 24.9213084,18.4371063 24.9250366,18.4722169 C24.9418137,18.6138203 24.9495809,18.7558316 24.9477167,18.8949877 C24.9467847,18.9297218 24.9467847,18.9643931 24.9452313,18.9987507 C24.9433671,19.0331083 24.9421244,19.067309 24.9396389,19.1011959 C24.9371534,19.1350201 24.9343572,19.168656 24.9318717,19.2020409 C24.9287649,19.2353316 24.9250366,19.26834 24.9213084,19.3010346 C24.9060848,19.4317503 24.8849581,19.5568495 24.8607245,19.6743556 C24.8361803,19.7917989 24.8085292,19.9016176 24.7799461,20.0019292 C24.7224691,20.2025837 24.6612638,20.3650527 24.6140395,20.4766913 C24.590738,20.5326361 24.569922,20.5756536 24.5562518,20.6050223 C24.5422709,20.6342968 24.5338824,20.6495146 24.5338824,20.6495146 C24.5338824,20.6495146 24.5373,20.6325397 24.5435137,20.6006923 C24.5497274,20.5689704 24.5578053,20.5221562 24.56899,20.463011 C24.5795533,20.4037716 24.5922915,20.3319502 24.6053403,20.2495861 C24.6186998,20.1672534 24.6329914,20.0744723 24.6469723,19.9732822 C24.6609532,19.8721234 24.6743127,19.7625871 24.6861188,19.6468381 C24.6979248,19.5310892 24.7078668,19.4091276 24.7140805,19.2832126 C24.7153233,19.2517417 24.7162553,19.2199884 24.7181195,19.1880782 C24.7187408,19.156168 24.7196729,19.1240382 24.720605,19.0917201 C24.7212263,19.0270839 24.7212263,18.9618202 24.7199836,18.8962114 C24.7168767,18.7649937 24.7091096,18.6322699 24.6923325,18.5013032 C24.6892256,18.4680438 24.683944,18.4366356 24.6792837,18.4047882 C24.6767982,18.3885978 24.6752447,18.3735997 24.6718272,18.3564366 L24.6625066,18.3059827 L24.6534967,18.2574428 C24.6503898,18.2397463 24.647283,18.2220812 24.6444868,18.2044475 C24.6413799,18.1867823 24.6379624,18.1692741 24.6354769,18.1515776 C24.6333021,18.1338811 24.6311273,18.1161846 24.6286418,18.0985194 C24.6267777,18.0808543 24.6239815,18.0632833 24.622428,18.0456496 C24.6211853,18.0279531 24.6196319,18.0103193 24.6183891,17.9927483 C24.6171464,17.9751146 24.6155929,17.9576063 24.6149716,17.9400667 C24.6146609,17.9224957 24.6140395,17.9049874 24.6137288,17.887542 C24.6121754,17.8526824 24.6134181,17.8179796 24.6140395,17.7835593 C24.6140395,17.7491703 24.6177677,17.7150638 24.6202532,17.6813024 C24.6311273,17.5463195 24.6556715,17.4173923 24.6904684,17.2991645 C24.7249546,17.1808113 24.7684507,17.0730321 24.815675,16.977678 C24.8628993,16.8823867 24.9132306,16.7993324 24.962319,16.7293308 C25.0117182,16.6593292 25.0589425,16.6019097 25.0999531,16.5568526 C25.140653,16.5115446 25.1757606,16.4790696 25.1996835,16.4572 C25.2236063,16.4354872 25.2375872,16.4251957 25.2375872,16.4251957" id="Fill-85" fill="#E59386"></path>
            <path d="M15.7998652,11.4514423 C15.7983117,11.4504382 15.7967583,11.4494342 15.7952049,11.4484615 C15.8582742,11.3101213 15.8713231,11.1438243 15.7917873,10.9467781 C15.4842077,10.1840085 19.8167302,8.73032223 19.8294683,8.72608637 C19.8170409,8.73019673 15.7802919,10.0861757 15.7809133,10.8661084 C15.781224,10.8937514 15.786195,10.9206726 15.7967583,10.9467781 C15.8352834,11.0422577 15.8520605,11.1305206 15.8523712,11.2119119 C15.8523712,11.2996728 15.8327979,11.3793698 15.7998652,11.4514423" id="Fill-86" fill="#E3C0B8"></path>
            <path d="M20.2200012,9.99113547 C19.9938214,9.36159171 19.8338179,8.74271606 19.8294683,8.72640014 C19.8335072,8.74268469 19.9938214,9.36152896 20.2200012,9.99107272" id="Fill-87" fill="#E3C0B8"></path>
            <path d="M17.3020341,11.8336429 C16.461938,11.8336115 15.959558,11.5563035 15.7998652,11.4514423 C15.8327979,11.3793698 15.8523712,11.2996728 15.8523712,11.2119119 C15.8520605,11.1305206 15.8352834,11.0422577 15.7967583,10.9467781 C15.786195,10.9206726 15.781224,10.8937514 15.7809133,10.8661084 C15.7802919,10.0861757 19.8170409,8.73019673 19.8294683,8.72608637 L19.8294683,8.72605499 L19.8294683,8.72608637 C19.8294683,8.72608637 19.8294683,8.72611775 19.8294683,8.72614912 C19.8294683,8.7261805 19.8294683,8.72624325 19.8294683,8.72630601 C19.8294683,8.72633738 19.8294683,8.72636876 19.8294683,8.72640014 C19.8338179,8.74271606 19.9938214,9.36159171 20.2200012,9.99113547 C20.0444633,10.5835291 19.6085703,11.3591318 18.5267601,11.6570857 C18.060109,11.785605 17.651867,11.8336429 17.3020341,11.8336429" id="Fill-88" fill="#E98B7D"></path>
            <path d="M11.4491365,5.16328414 C11.2152828,5.28508881 10.8230723,5.32264682 10.5549809,5.2634702 C10.1464904,5.17329333 9.78764758,4.56834897 9.63006741,4.214513 C9.32640249,3.53250727 9.30633214,2.4670145 9.66449147,1.84048292 C9.97971393,1.2891301 10.4687655,0.795887086 11.0472636,0.504773302 C11.3471692,0.353819603 11.6836116,0.244565648 12.0200229,0.225865086 C12.4127927,0.204026845 12.7192848,0.408666218 13.0974524,0.476942096 C13.5972536,0.567181721 14.0124861,0.605492772 14.3688434,1.02873419 C14.4583211,1.13494459 14.5350607,1.25753368 14.5583622,1.39493261 C14.6472185,1.91133169 13.3633378,2.74821322 13.0270508,3.05077953 C12.723883,3.3235379 12.4202491,3.5959825 12.1220212,3.87429455 C11.9919989,3.99562857 11.7420206,4.15891334 11.6694132,4.32941478 C11.5974272,4.4984415 11.5091301,5.0975184 11.5091301,5.0975184" id="Fill-89" fill="#131313"></path>
            <path d="M11.5600516,0.158969786 C11.5600516,0.158969786 11.5995088,0.139202414 11.6717123,0.111810483 C11.7079073,0.0984439737 11.7520869,0.0824418148 11.8039094,0.0674750898 C11.8556697,0.0525083647 11.9145448,0.0361610612 11.9803482,0.0247399126 C12.0458098,0.0114361569 12.1182619,0.00330957038 12.195716,1.50082639e-05 C12.2732323,-0.000236005993 12.3565584,0.00243102049 12.441438,0.025681216 C12.5261311,0.0473625724 12.6115388,0.097973322 12.6789577,0.144536467 C12.7489865,0.188777729 12.8246075,0.229661676 12.9018753,0.255108247 C12.9788634,0.282876699 13.0589894,0.291850459 13.1395815,0.285135827 C13.2200492,0.278076051 13.3011073,0.259971648 13.3794003,0.239200218 L13.408667,0.231418776 L13.415906,0.229598923 L13.4196653,0.22894001 L13.4271528,0.227559432 L13.4420658,0.224892406 C13.4617944,0.221158568 13.4807462,0.216985456 13.5048866,0.217769876 C13.5514585,0.215165603 13.5916924,0.222037118 13.6311806,0.229034141 C13.7098153,0.244973546 13.7773275,0.276413082 13.8373521,0.307068198 C13.8975321,0.337880198 13.9479876,0.373273208 13.9922915,0.40464999 C14.0357876,0.436968076 14.0721379,0.46705841 14.1010317,0.493007009 C14.1302362,0.518359448 14.1513629,0.540417326 14.1659652,0.554976153 C14.1805674,0.569974255 14.1880239,0.577943958 14.1880239,0.577943958 C14.1880239,0.577943958 14.153227,0.550865795 14.0892256,0.508758153 C14.0572249,0.487327811 14.0174571,0.46345008 13.9717862,0.436685685 C13.9253385,0.411395998 13.8728015,0.383156894 13.8134293,0.358777135 C13.754026,0.335244548 13.6884712,0.312025729 13.6183182,0.302047913 C13.5835213,0.298157192 13.5466118,0.295082267 13.5142072,0.299067118 C13.4985486,0.298596467 13.4785093,0.303805012 13.4587186,0.308229139 L13.4439299,0.311555078 L13.4365045,0.31318667 L13.4327762,0.314033843 C13.4292344,0.314912393 13.4365356,0.313061163 13.4354482,0.313343554 L13.4345161,0.313625945 L13.432683,0.314222104 L13.4029814,0.323384125 C13.3233525,0.347073595 13.2393118,0.372488788 13.1478457,0.380740882 C13.0567524,0.389808772 12.9591037,0.380332984 12.8705891,0.34926997 C12.7816396,0.318363839 12.7024146,0.273683302 12.6270731,0.224766898 C12.552353,0.173340353 12.492142,0.132362275 12.4176704,0.109582731 C12.3441931,0.087022825 12.2679817,0.0783942099 12.1953743,0.0739387069 C12.122363,0.0729660266 12.0525517,0.074064214 11.9881464,0.0809984828 C11.9237101,0.086740434 11.8646175,0.0957769472 11.812329,0.104342809 C11.7601337,0.113504829 11.7146181,0.122509966 11.6772114,0.130636552 C11.6398669,0.139359298 11.6105381,0.146199436 11.590561,0.150874577 C11.570646,0.156145876 11.5600516,0.158969786 11.5600516,0.158969786" id="Fill-90" fill="#131313"></path>
            <path d="M17.8556774,4.55764949 C17.8556774,4.55764949 17.6997128,3.73623671 18.2427927,3.89955286 C18.7855619,4.06283764 19.184794,5.4809113 19.321496,5.708895 C19.4578873,5.93684732 19.4355179,6.40072167 19.2326397,6.47633972 C19.0297614,6.55195776 17.8556774,4.55764949 17.8556774,4.55764949" id="Fill-91" fill="#E29088"></path>
            <path d="M13.4075796,8.92153234 C13.4075796,8.92153234 12.5991113,8.7402373 12.7450097,9.29312758 C12.890877,9.84604923 14.2827833,10.2900934 14.5046134,10.4345522 C14.7261328,10.5790422 15.1859488,10.5698175 15.2667272,10.3671234 C15.3475057,10.1644608 13.4075796,8.92153234 13.4075796,8.92153234" id="Fill-92" fill="#E29088"></path>
            <path d="M17.8702796,4.40057732 C17.8702796,4.40057732 16.6778651,3.69582342 16.447025,3.53238176 C16.216185,3.3689401 15.6864646,3.25761528 14.7736679,3.20659663 C13.8991787,3.1577116 13.2915693,4.19226686 13.2418284,4.27971396 C13.153842,4.32737529 12.1122657,4.91079517 12.1353186,5.79489876 C12.1593657,6.71794094 12.2541872,7.25602137 12.4092508,7.49366912 C12.5643455,7.73131687 13.2273504,8.95563891 13.2273504,8.95563891 L13.5318542,9.17662558 C13.5318542,9.17662558 13.9615335,9.68816126 14.6932001,10.1163288 C15.5342283,10.6088502 15.6690662,10.9592033 16.4025969,11.1864654 C17.1358169,11.4137588 18.1778592,11.5608217 19.2254939,10.6628496 L19.2885632,10.5659581 L19.3861188,10.5051499 C20.3054399,9.47348132 20.1901753,8.41727608 19.986365,7.67047729 C19.7825547,6.9236785 19.4398675,6.77743132 18.976634,5.91384814 C18.5739844,5.16303312 18.0803037,4.71437652 18.0803037,4.71437652 L17.8702796,4.40057732" id="Fill-93" fill="#EFA99D"></path>
            <path d="M12.3992467,2.99295212 C12.3992467,2.99295212 11.7370497,3.0114958 11.2401999,3.85160914 C10.7433501,4.69175386 10.603883,5.12936584 10.5965819,5.63766971 C10.5893118,6.14600495 10.7470473,6.5201417 11.1444774,7.41102268 C11.5419075,8.30187228 12.2714925,8.64974666 12.8639715,8.94089182 C13.4564506,9.23203698 13.5666821,9.34662499 13.5880263,9.15861531 C13.6093704,8.97063701 13.4526912,8.84594568 13.1327774,8.3987324 C12.8128947,7.95151913 12.7478059,7.94116479 12.7086283,7.42272622 C12.6694507,6.90431902 12.4357524,6.29830785 12.4684366,5.96922816 C12.5011208,5.64017985 12.6367354,5.28436714 13.12442,5.08437153 C13.6120734,4.88437592 13.8049786,4.43524866 13.6050519,4.07454118 C13.4051252,3.71383369 13.2413934,3.42896389 12.9917568,3.28406591 C12.7421203,3.1391993 12.4935401,2.91899705 12.3992467,2.99295212" id="Fill-94" fill="#1C1C1D"></path>
            <path d="M13.6785292,4.15094364 C13.6785292,4.15094364 13.8428202,4.39812993 14.1911308,4.16785573 C14.5394103,3.93755015 14.7832991,3.17848303 15.4991207,3.33018978 C16.2146316,3.48189652 16.7521191,3.7157163 17.2315083,4.08053414 C17.7112082,4.44535199 17.9687672,4.69391886 18.1303242,4.4608835 C18.2921918,4.22787951 17.7677531,3.758828 17.624216,3.36128417 C17.4806788,2.96374034 16.3681107,1.70935934 15.5488305,1.6408952 C14.7292397,1.57239969 14.8292807,1.2772383 13.8184935,1.54491363 C12.8077683,1.81258896 12.2468861,2.5670123 12.3992467,2.99295212 C12.3992467,2.99295212 12.4895011,3.20141946 12.6937464,3.26087846 C12.8979917,3.32036884 13.1549294,3.60658785 13.2370749,3.73021237 C13.3192204,3.85380552 13.5664025,4.16813812 13.6785292,4.15094364" id="Fill-95" fill="#28292B"></path>
            <path d="M15.9263146,6.02925195 C15.9263146,6.02925195 16.0074037,6.22818075 16.1776599,6.06119351 C16.3479161,5.89420628 16.5268714,5.10592738 16.8561991,4.89419686 C17.1855267,4.68246633 17.4095316,4.66690345 17.4095316,4.66690345 C17.4095316,4.66690345 16.9671141,4.47004552 16.6166598,4.77665943 C16.2662055,5.08327334 16.0151709,5.68219336 15.9263146,6.02925195" id="Fill-96" fill="#181919"></path>
            <path d="M15.0001583,6.93804906 C15.0001583,6.93804906 15.194648,7.02562166 15.0243918,7.1926089 C14.8541356,7.35959613 14.0687203,7.51757823 13.8496864,7.84392814 C13.6305592,8.17024667 13.6086869,8.39590849 13.6086869,8.39590849 C13.6086869,8.39590849 13.4266557,7.94336116 13.7402937,7.5985617 C14.0538074,7.25373087 14.6540536,7.01771471 15.0001583,6.93804906" id="Fill-97" fill="#181919"></path>
            <path d="M16.8304121,8.65056245 C16.8304121,8.65056245 16.8266839,8.64701688 16.8217129,8.63863928 C16.8170526,8.63035581 16.8102175,8.61645589 16.8117709,8.59706504 C16.812703,8.5777997 16.823577,8.5549574 16.8422182,8.53641372 C16.8605487,8.5175249 16.8854036,8.50139723 16.9133654,8.48730906 C16.9220646,8.48379486 16.9273463,8.48093957 16.9360455,8.47814704 C16.944434,8.47560552 16.9531332,8.47253059 16.9615218,8.47105588 C16.9658714,8.47017733 16.970221,8.46926741 16.9745706,8.46838886 C16.9789202,8.46782408 16.9832698,8.46729067 16.9876194,8.46672589 C16.9966293,8.46540806 17.0056393,8.4652198 17.0146492,8.46456089 C17.0509995,8.46289792 17.0882818,8.4656277 17.1261856,8.4699577 C17.1640893,8.47425632 17.2026145,8.4788687 17.2405182,8.48141022 C17.2778006,8.48338696 17.3166364,8.48219464 17.3442875,8.4669769 C17.3582684,8.459823 17.3694531,8.44943728 17.3778416,8.43591389 C17.3868515,8.42270426 17.3915118,8.40538428 17.3955507,8.38828393 C17.4017645,8.35289092 17.4026965,8.31489364 17.3999003,8.27812005 C17.3971042,8.24006001 17.3971042,8.2011528 17.3995897,8.1654774 C17.4017645,8.12951961 17.4076675,8.09556993 17.4163667,8.06504032 C17.4247553,8.03444796 17.4371827,8.0073698 17.451785,7.98578257 C17.4663872,7.96397571 17.4847177,7.94935413 17.5008734,7.94038037 C17.509262,7.93630139 17.5164078,7.93259893 17.5235535,7.93134386 C17.5303887,7.92949263 17.535981,7.92789241 17.540952,7.92786103 C17.5505833,7.92713937 17.5555543,7.92679422 17.5555543,7.92679422 C17.5555543,7.92679422 17.5505833,7.92820618 17.5415734,7.93084183 C17.5369131,7.93175175 17.5319421,7.9343874 17.5257284,7.93733682 C17.5195146,7.93978421 17.5133009,7.94449073 17.5064658,7.94932275 C17.493417,7.9599281 17.4797468,7.97536548 17.4688727,7.99635655 C17.4586201,8.01741037 17.4508529,8.04317071 17.4458819,8.07197459 C17.440911,8.10084123 17.4387362,8.13284555 17.4387362,8.16679523 C17.4390468,8.20099592 17.4421537,8.2358869 17.4461926,8.27379006 C17.4471247,8.28364236 17.4480567,8.29355743 17.4489888,8.30356662 C17.4499209,8.31360719 17.4499209,8.32393015 17.4502315,8.33422174 C17.4508529,8.34448195 17.4496102,8.35518143 17.4496102,8.3657554 C17.4489888,8.376298 17.446814,8.3872485 17.4455713,8.39804211 C17.4406003,8.41972347 17.4353186,8.44231475 17.4219591,8.46330582 C17.4095316,8.48429689 17.3905798,8.50287194 17.368521,8.51423034 C17.346773,8.52552598 17.3231608,8.53082865 17.3014127,8.53267988 C17.279354,8.53459387 17.2579166,8.53421735 17.2371007,8.53264851 C17.19609,8.52966771 17.1572542,8.52191765 17.1202825,8.51633258 C17.0833109,8.51084164 17.0478926,8.50513107 17.0149598,8.50415839 C16.9984935,8.50381324 16.9826485,8.50400151 16.9674248,8.50600962 C16.9596577,8.50654302 16.9531332,8.50823737 16.9462981,8.50936694 C16.9397737,8.51055925 16.9307638,8.51391657 16.9251715,8.5153599 C16.8981417,8.52583975 16.8739082,8.53732365 16.8555777,8.55147458 C16.8375579,8.56556275 16.8257518,8.58238071 16.8220236,8.59853975 C16.8182953,8.61466742 16.8214022,8.62866146 16.8241984,8.63741558 C16.8273052,8.64629521 16.8304121,8.65056245 16.8304121,8.65056245" id="Fill-98" fill="#DE7F76"></path>
            <path d="M16.5001524,8.28166563 C16.5001524,8.28166563 16.4998417,8.29653822 16.5001524,8.32223581 C16.5004631,8.34793339 16.5013952,8.38451872 16.5051234,8.42769317 C16.5091623,8.47067936 16.5156867,8.52081946 16.5318424,8.57008101 C16.5399203,8.59461765 16.5504836,8.61868364 16.5644645,8.64017674 C16.5716103,8.65053108 16.5793775,8.66075991 16.5883874,8.66929439 C16.5970866,8.67829953 16.6064072,8.68529655 16.6185239,8.69260734 C16.6278445,8.69834929 16.640272,8.70427951 16.6523888,8.7086095 C16.6645055,8.71297087 16.6772437,8.71673609 16.6899818,8.71943449 C16.7160795,8.7248313 16.7424878,8.7275297 16.7688962,8.72850238 C16.8210915,8.73057325 16.871112,8.72605499 16.9142974,8.72203876 C16.9571722,8.71748913 16.9935225,8.71297087 17.0189988,8.71068037 C17.0317369,8.70939392 17.0419896,8.7090174 17.0488247,8.70911153 C17.0559705,8.70914291 17.059388,8.71042935 17.059388,8.71042935 C17.059388,8.71042935 17.0556598,8.7103666 17.0491354,8.71215508 C17.0426109,8.71372392 17.0332903,8.71714399 17.0211736,8.72106608 C16.99694,8.72912992 16.9624538,8.74124135 16.9195791,8.7521291 C16.8981417,8.75768279 16.8745296,8.76311097 16.849364,8.7671272 C16.8241984,8.77130031 16.7971687,8.77484589 16.7688962,8.77572444 C16.7406237,8.77666574 16.7107978,8.77559893 16.6803505,8.77013937 C16.6651269,8.76744097 16.6499033,8.76373851 16.6346796,8.75837308 C16.619456,8.75288214 16.6051644,8.74666954 16.5899408,8.7372565 C16.576892,8.72938093 16.5629111,8.7186187 16.5514157,8.70669552 C16.5392989,8.69508611 16.530289,8.68143721 16.5212791,8.66800795 C16.5048127,8.64055326 16.4939387,8.61137285 16.4871036,8.58313375 C16.4796471,8.55483189 16.4765402,8.52712619 16.4749868,8.50111484 C16.4731227,8.47510349 16.4737441,8.45056685 16.4749868,8.42813245 C16.4774723,8.38320089 16.4839967,8.34649006 16.4895891,8.32113762 C16.4951814,8.2957538 16.5001524,8.28166563 16.5001524,8.28166563" id="Fill-99" fill="#DE7F76"></path>
            <path d="M17.2141099,7.58105346 C17.2141099,7.58105346 17.2284014,7.57662933 17.253567,7.57170318 C17.2787326,7.5668084 17.3153936,7.5611292 17.3598218,7.55990551 C17.3821912,7.55921522 17.4064248,7.55940348 17.4322117,7.56203913 C17.457688,7.56454927 17.4850284,7.56843999 17.5129902,7.57656658 C17.5406413,7.58456766 17.5692245,7.59617707 17.5959435,7.61374807 C17.6089923,7.62306697 17.6223518,7.63279377 17.6332259,7.64528173 C17.6447213,7.65711078 17.6549739,7.67173236 17.6624304,7.68484786 C17.6714403,7.70072451 17.6770327,7.71534609 17.6820036,7.73087759 C17.6869746,7.74628359 17.6900815,7.76184648 17.692567,7.7772211 C17.6969166,7.80800173 17.6972273,7.83809206 17.6953632,7.86667631 C17.6938097,7.89529193 17.6894601,7.92240147 17.6844891,7.94772254 C17.6798288,7.97310635 17.6739258,7.99660756 17.6677121,8.01806928 C17.6555953,8.06099272 17.6425465,8.09556993 17.6338472,8.11979281 C17.6298083,8.13190425 17.6260801,8.14134866 17.624216,8.14793778 C17.6223518,8.15449553 17.6223518,8.15822937 17.6223518,8.15822937 C17.6223518,8.15822937 17.6211091,8.15458966 17.6214198,8.14749851 C17.6214198,8.14047011 17.6220412,8.13017852 17.6239053,8.11734542 C17.6267014,8.0915537 17.6322938,8.05512526 17.6381968,8.01185668 C17.6431678,7.96855672 17.6490709,7.91819698 17.6487602,7.86526435 C17.6484495,7.8388451 17.6465854,7.81186107 17.6419251,7.78556733 C17.6397503,7.77242045 17.6363327,7.75955597 17.6322938,7.74709939 C17.6285656,7.73486245 17.6229732,7.72224898 17.6173809,7.71255355 C17.6105458,7.7001911 17.6040213,7.69062118 17.5953221,7.68142779 C17.5872443,7.67207751 17.5773023,7.66404505 17.5670497,7.65635774 C17.5462337,7.64170478 17.5229322,7.63028363 17.4986986,7.621404 C17.4505422,7.60367612 17.4011431,7.59580055 17.358579,7.59030961 C17.316015,7.58535208 17.2796647,7.58324983 17.2544991,7.5822144 C17.2290228,7.58121034 17.2141099,7.58105346 17.2141099,7.58105346" id="Fill-100" fill="#DE7F76"></path>
            <path d="M17.180245,9.91874923 C17.180245,9.91874923 17.384366,9.88897267 17.6453426,9.89276926 C17.9063192,9.89659723 18.143373,9.84984582 18.4584091,9.55317835 C18.7734451,9.25647949 18.7793481,8.82975526 18.7749985,8.69784727 C18.7706489,8.56597065 18.7532505,8.37566975 18.7532505,8.37566975 C18.7532505,8.37566975 18.7451726,8.37381924 18.5671493,8.55812645 C18.389126,8.74243367 17.180245,9.91874923 17.180245,9.91874923" id="Fill-101" fill="#DF5F5E"></path>
            <path d="M18.316736,8.53029525 C18.0551381,8.57670151 17.8404537,8.64965253 17.7525295,8.92140684 C17.4778826,9.00527698 17.4011431,9.2183567 17.347705,9.48120001 C17.2939563,9.74404331 17.180245,9.91874923 17.180245,9.91874923 C17.2007503,9.8890668 17.4353186,9.80183934 17.5999824,9.6033812 C17.7643355,9.40492305 18.043332,9.22384764 18.043332,9.22384764 C18.043332,9.22384764 18.2291225,8.94879877 18.4304473,8.78852617 C18.6314614,8.62828494 18.7231139,8.39546922 18.7532505,8.37567047 C18.7532505,8.37567047 18.5786447,8.48392036 18.316736,8.53029525" id="Fill-102" fill="#E46E6D"></path>
            <path d="M16.5638431,6.8144873 C16.5666393,6.79701043 16.5762706,6.78144755 16.5852805,6.76635531 C16.5946011,6.75141996 16.6054751,6.7375828 16.6166598,6.7239339 C16.6393399,6.69682436 16.6645055,6.67247598 16.6906032,6.64875513 C16.7033413,6.63689471 16.7167009,6.6256932 16.7300604,6.61427205 C16.7437306,6.60310192 16.7574008,6.59252794 16.771071,6.5816402 C16.7847412,6.57065832 16.7993435,6.56090014 16.8133243,6.55045168 L16.834451,6.5350143 L16.8561991,6.52039272 L16.8993845,6.49118093 L16.943502,6.46334973 L17.0304942,6.40828348 C17.0450964,6.39909008 17.0584559,6.38926915 17.0724368,6.37995024 C17.086107,6.37031757 17.1003986,6.3616262 17.1134474,6.35114636 L17.1541474,6.32096189 C17.1678176,6.31123509 17.180245,6.29993945 17.1932939,6.28952236 C17.2197022,6.26875093 17.2439358,6.24575174 17.2691014,6.22353698 C17.2924028,6.19972201 17.3169471,6.17703659 17.3383844,6.15165278 C17.3613752,6.12730439 17.3812592,6.1006655 17.4020752,6.07465415 L17.4306583,6.03383296 C17.4402896,6.02021543 17.4483674,6.00568798 17.4573773,5.99166256 C17.4666979,5.97773127 17.4744651,5.96298418 17.4822323,5.9482371 C17.4903101,5.93355276 17.4986986,5.91908807 17.5055337,5.90374482 C17.5123688,5.88852708 17.520136,5.87359173 17.5266604,5.8580916 L17.5462337,5.81140295 C17.5574184,5.77964965 17.5698458,5.7480846 17.5791664,5.71535862 C17.5900404,5.68307191 17.5981183,5.64981252 17.6074389,5.61680415 L17.6071282,5.6190319 C17.6077496,5.61379198 17.6086816,5.61093669 17.6096137,5.60726561 C17.6105458,5.60372003 17.6117885,5.6005196 17.6127206,5.59719366 C17.615206,5.59069866 17.6176915,5.58432918 17.6207984,5.57833621 C17.6235946,5.57218636 17.6267014,5.56641304 17.630119,5.56076521 C17.6335365,5.55492913 17.6375755,5.54978334 17.6413037,5.54435516 C17.6450319,5.53892697 17.6493816,5.5341577 17.6534205,5.52907466 C17.6574594,5.52392887 17.6621197,5.51959888 17.6664693,5.51489236 C17.6708189,5.51012309 17.6757899,5.50598135 17.6804502,5.50177686 C17.6851105,5.49757238 17.6897708,5.49324238 17.6950525,5.48960267 L17.7102761,5.47846392 L17.7261211,5.46864298 C17.7314028,5.46531704 17.7366844,5.46221074 17.7422768,5.45954372 L17.7587432,5.45116611 C17.7643355,5.44831083 17.7702386,5.44627134 17.7758309,5.44391808 L17.7929187,5.43714069 L17.8277156,5.42625295 L17.7960256,5.44379257 L17.7808019,5.45358213 C17.7758309,5.45693944 17.7705493,5.45979473 17.765889,5.46337168 L17.7512867,5.47394566 C17.7466264,5.47730297 17.7419661,5.48106819 17.7376165,5.48502166 L17.724257,5.49656832 L17.7118295,5.5090249 C17.7077906,5.512947 17.7040624,5.51746526 17.7003341,5.52182663 C17.6966059,5.526188 17.692567,5.53045524 17.6894601,5.53519314 C17.6860426,5.53989965 17.6823143,5.54422965 17.6795181,5.54915581 C17.676722,5.55405058 17.6733044,5.55866297 17.6708189,5.56371463 C17.6686441,5.56873492 17.6655373,5.57353557 17.6636731,5.57871273 C17.6614983,5.5837644 17.6593235,5.58887881 17.6577701,5.5940246 C17.6555953,5.59910764 17.6543525,5.60434757 17.6531098,5.60939923 L17.6587022,5.61692965 L17.6652266,5.62311088 L17.6652266,5.62329914 L17.6577701,5.62533863 C17.6521777,5.66007273 17.6437892,5.69502647 17.6357114,5.72950955 C17.6288763,5.76421227 17.6170702,5.79838159 17.6071282,5.83251952 L17.5894191,5.8832244 C17.5832053,5.90004236 17.5754382,5.91635829 17.5689138,5.9329566 C17.5623894,5.94968043 17.5543115,5.96571396 17.5465443,5.98184163 C17.5387772,5.9979693 17.5306993,6.01412834 17.5213787,6.02950296 C17.5123688,6.04494034 17.504291,6.06103663 17.4940383,6.0759406 L17.4642124,6.12071527 C17.4427751,6.14942502 17.4213377,6.17838579 17.3971042,6.20464816 C17.3741134,6.23219697 17.3480157,6.25667086 17.3228501,6.28174091 C17.2961311,6.30514799 17.2700334,6.32968464 17.2417609,6.35073846 C17.2141099,6.37307873 17.185216,6.393254 17.1560115,6.41317825 C17.1417199,6.42350122 17.1261856,6.43231809 17.1112726,6.44188801 C17.0963597,6.45114416 17.0811361,6.46105922 17.0662231,6.46940545 L17.0211736,6.494601 L16.9978721,6.50740273 L16.9755027,6.51951417 C16.9453661,6.53557908 16.9152295,6.55180088 16.8857143,6.56868159 C16.8704907,6.57693368 16.8558884,6.58540541 16.8412861,6.59412816 C16.8266839,6.60288228 16.8117709,6.61113437 16.7971687,6.62029639 C16.7682748,6.63802427 16.7396917,6.65647382 16.7114192,6.67558228 C16.6834574,6.69500451 16.656117,6.71533667 16.6300193,6.73736317 C16.6238056,6.74291686 16.6175919,6.74875294 16.6110675,6.75449489 C16.6051644,6.76039372 16.5992614,6.76654357 16.5930477,6.77263067 C16.5818629,6.78527551 16.5703675,6.79832825 16.5638431,6.8144873" id="Fill-103" fill="#181919"></path>
            <path d="M15.69796,7.64537586 C15.6818043,7.65140021 15.6687555,7.66272722 15.6557067,7.67367772 C15.6494929,7.67960793 15.6432792,7.68531851 15.6373762,7.69131147 C15.6314731,7.69755545 15.6255701,7.70361117 15.6199777,7.7099179 C15.5972976,7.73552136 15.5764816,7.76253677 15.556287,7.79017971 C15.5367138,7.81810505 15.5174512,7.84643828 15.4991207,7.8753363 C15.4898001,7.8895186 15.4811009,7.90442258 15.472091,7.91891865 C15.4627704,7.93341472 15.4540712,7.94809906 15.4453719,7.96297165 C15.4279735,7.9923717 15.4108857,8.02221102 15.3941087,8.05217584 L15.3816812,8.07457887 L15.3683217,8.09757805 L15.3419134,8.14241547 C15.3332141,8.15735082 15.3229615,8.17231754 15.3133302,8.18719014 C15.3036989,8.20190585 15.2943783,8.21734322 15.283815,8.2314314 C15.2633097,8.26023529 15.2424937,8.28885091 15.2195029,8.3160232 C15.1977549,8.34416818 15.1728999,8.36961475 15.1489771,8.39597124 C15.1231901,8.42082166 15.0983352,8.44636236 15.0703734,8.46876538 C15.0436544,8.49254898 15.0144499,8.51322628 14.9852453,8.53406046 L14.9401958,8.56295848 C14.9249722,8.57259115 14.9088165,8.58034122 14.8932821,8.58909534 C14.8780585,8.59800634 14.8615921,8.60544264 14.8454364,8.61284756 C14.8292807,8.62031524 14.813125,8.62793979 14.796348,8.63393276 C14.7798816,8.64011399 14.7634152,8.64704826 14.7466381,8.65257057 L14.6959962,8.66832171 C14.6618207,8.6773896 14.6279559,8.68630061 14.593159,8.69229357 C14.5589835,8.69938473 14.5241866,8.70211451 14.4897005,8.70666414 L14.4875256,8.70556595 L14.4813119,8.70744856 L14.4738554,8.70939392 C14.4688845,8.71049211 14.4636028,8.71196682 14.4583211,8.71378667 C14.4533501,8.71535551 14.4480685,8.717395 14.4430975,8.71952862 C14.4378158,8.72134848 14.4331555,8.72423514 14.4281845,8.72655702 C14.4229029,8.72891028 14.4182426,8.73217346 14.4132716,8.73490324 C14.4083006,8.73760165 14.403951,8.74127273 14.3992907,8.74441041 C14.3946304,8.74751671 14.3902808,8.7513133 14.3856205,8.75498439 C14.3812709,8.75865547 14.3766106,8.76223242 14.3728823,8.76643691 L14.3601442,8.77851697 L14.3483381,8.79163247 C14.3442992,8.79593109 14.3402603,8.80044934 14.3368427,8.80524999 L14.3259687,8.8194323 C14.3222405,8.82417019 14.3194443,8.82937874 14.315716,8.83427351 L14.3057741,8.84930299 L14.2874436,8.88080528 L14.2992497,8.84600843 L14.3063955,8.82903359 C14.3088809,8.82338577 14.3110557,8.81754969 14.3141626,8.81212151 L14.3228618,8.79571145 C14.325658,8.79015776 14.3287649,8.78482371 14.3324931,8.77961516 L14.3424351,8.76380126 L14.3539305,8.74877178 C14.3576587,8.74365737 14.362319,8.73907636 14.3663579,8.73440122 C14.3707075,8.7296947 14.3750572,8.72492543 14.3797175,8.72068956 C14.3846884,8.7164537 14.389038,8.7117158 14.3943197,8.70785646 C14.3992907,8.70396574 14.4042617,8.69963574 14.409854,8.69605879 C14.4151357,8.69254459 14.4204174,8.68855974 14.4263204,8.68548481 C14.4319128,8.68215887 14.4378158,8.67892707 14.4440295,8.67629142 C14.4499326,8.67337338 14.456457,8.67111425 14.4629814,8.6688865 C14.4660883,8.66788244 14.4695058,8.66675287 14.4729234,8.66596845 C14.4766516,8.66505853 14.4794478,8.66433686 14.4847295,8.66367795 L14.4825547,8.66392896 C14.5154874,8.65548861 14.5484202,8.64852296 14.5807316,8.63851377 C14.6133537,8.63004204 14.6450437,8.61840125 14.6767337,8.6077959 L14.7236473,8.58959737 C14.7391817,8.58344752 14.7540946,8.57610535 14.7693182,8.56945347 C14.7848526,8.56308399 14.7994548,8.55498878 14.8140571,8.5473956 C14.82897,8.53986517 14.843883,8.53242887 14.8578639,8.52354924 C14.8718448,8.51485787 14.886447,8.50701368 14.9004279,8.49772615 L14.9414385,8.4699577 C14.9678469,8.44978243 14.9948766,8.43042295 15.0197315,8.40811406 C15.0452078,8.38709162 15.0685093,8.36293149 15.0927428,8.3400892 C15.1154229,8.3154898 15.1390351,8.29167482 15.1601618,8.26556934 C15.1710358,8.25261073 15.1825312,8.24040516 15.1924732,8.22678764 L15.2235418,8.18678224 C15.2344159,8.17366674 15.2434258,8.15960995 15.2533677,8.14605518 C15.262999,8.13215526 15.272941,8.11910252 15.2825722,8.1046692 L15.3394279,8.01838305 L15.3683217,7.97464381 L15.3984583,7.93175175 L15.4136819,7.91035279 L15.4295269,7.88942447 C15.440401,7.87555594 15.4503429,7.86134225 15.4615276,7.84785024 C15.4727124,7.83435822 15.4835864,7.82064657 15.4950818,7.80737419 C15.5068879,7.79422732 15.5183833,7.78104907 15.5305,7.7683101 C15.5547336,7.74292628 15.5795885,7.71801311 15.6069289,7.69601799 C15.6209098,7.68513025 15.6348907,7.67449352 15.6498036,7.66536287 C15.6650273,7.65679701 15.6805616,7.64766637 15.69796,7.64537586" id="Fill-104" fill="#181919"></path>
            <path d="M18.20085,4.7444041 C18.20085,4.7444041 18.1992966,4.73703055 18.1971218,4.72309926 C18.1949469,4.70916797 18.1915294,4.68867893 18.1890439,4.66238519 C18.1865584,4.63609145 18.1837622,4.603993 18.1837622,4.56687427 C18.1840729,4.52978691 18.1856264,4.48752238 18.195879,4.44133576 C18.2014714,4.41833658 18.2086172,4.39414508 18.2222874,4.37014184 C18.2288118,4.35809316 18.237511,4.34657788 18.248385,4.3358784 C18.2539774,4.33082673 18.2601911,4.32590058 18.2667155,4.32153921 C18.2738613,4.31796225 18.2806964,4.31309885 18.2884636,4.31105936 C18.3198429,4.29985785 18.3515329,4.3333055 18.3804268,4.34240477 L18.3897473,4.37557002 L18.3903687,4.37557002 C18.3913008,4.37557002 18.3906794,4.34529143 18.3944076,4.34692302 L18.3962718,4.33261521 L18.3990679,4.3262771 L18.4037282,4.32464551 L18.4130488,4.3270929 C18.4161557,4.32850485 18.4192626,4.32885 18.4229908,4.33120325 C18.4298259,4.33550187 18.436661,4.33936122 18.4434961,4.34369121 C18.4503312,4.34814672 18.4559236,4.3526336 18.4618266,4.35727736 C18.4742541,4.36631387 18.4848174,4.37676234 18.4960021,4.38692842 C18.5065654,4.39756515 18.5171288,4.40839014 18.5270708,4.41959165 C18.5469547,4.44221431 18.5655959,4.4657469 18.5829943,4.49044042 C18.6184126,4.53948233 18.6501026,4.59163055 18.6796178,4.64468868 C18.7088223,4.69790371 18.735852,4.75199728 18.7603963,4.80621636 C18.7852512,4.86030993 18.8076206,4.91434075 18.8281259,4.96702237 C18.8489419,5.01970398 18.866651,5.07141292 18.8831174,5.12054896 C18.8995838,5.16962225 18.913254,5.21675018 18.9253708,5.26033253 C18.9377982,5.30382075 18.9471188,5.34426542 18.9551967,5.38016046 C18.9629638,5.41608687 18.9685562,5.44762054 18.9725951,5.4737574 C18.9769447,5.49980013 18.9788088,5.5205088 18.9800516,5.53453422 C18.9812943,5.5486224 18.9819157,5.55612145 18.9819157,5.55612145 C18.9819157,5.55612145 18.9800516,5.54884204 18.9763233,5.53519314 C18.9729058,5.52157561 18.9673134,5.50174549 18.959857,5.47670682 C18.9524005,5.45163677 18.9421478,5.42154643 18.9306524,5.38706335 C18.9188464,5.35270577 18.9048655,5.31411233 18.8893311,5.27219295 C18.8734861,5.23039908 18.8560877,5.18527926 18.8368251,5.13783757 C18.8175626,5.09042725 18.7964359,5.04082056 18.7743772,4.98977053 C18.7520077,4.93875189 18.7277742,4.88650954 18.7026086,4.83389068 C18.677443,4.78136595 18.650724,4.72855882 18.6218301,4.67703815 C18.5935577,4.62542334 18.5634211,4.57500085 18.5311097,4.52777879 C18.4984876,4.48099601 18.4640014,4.43615859 18.4251656,4.40271094 C18.4205053,4.39875747 18.4155343,4.39395682 18.410874,4.39069363 C18.4062137,4.38743045 18.4015534,4.38416726 18.3968931,4.38090408 C18.395029,4.37920973 18.3919222,4.37764089 18.3888153,4.37607205 L18.3798054,4.37130278 L18.3726596,4.36750619 L18.3645817,4.36443127 C18.3428337,4.35589678 18.321707,4.3530415 18.3039979,4.35806178 C18.2859781,4.36248591 18.2713758,4.37647995 18.259259,4.3937058 C18.247453,4.41096303 18.2387537,4.43129519 18.2322293,4.45147046 C18.2194912,4.49229165 18.2129668,4.53254807 18.2089278,4.56828622 C18.2048889,4.60414988 18.2030248,4.63580906 18.2020927,4.66194591 C18.2002286,4.71425101 18.20085,4.7444041 18.20085,4.7444041" id="Fill-105" fill="#CF7370"></path>
            <path d="M13.5627675,9.29479054 C13.5627675,9.29479054 13.5329416,9.29303344 13.4811501,9.29344134 C13.4552699,9.29369236 13.4238595,9.29479054 13.3882549,9.29764583 C13.3527434,9.30087764 13.312727,9.30624307 13.2719339,9.31785248 C13.2517703,9.32397095 13.2314204,9.33203478 13.2139909,9.34355006 C13.1965924,9.35503397 13.1823008,9.36956142 13.1774231,9.38757169 C13.1719239,9.40529957 13.1741609,9.42679267 13.1819591,9.44888192 L13.1847863,9.45716539 L13.1883282,9.46447618 L13.192771,9.47373233 C13.1942312,9.47683863 13.1956914,9.4801332 13.1973381,9.48217269 C13.2004139,9.48684783 13.2035207,9.49158572 13.2066276,9.49632362 C13.2097034,9.50112426 13.2143326,9.50623868 13.2180919,9.51122759 C13.2500616,9.55151538 13.2934334,9.58759868 13.3388247,9.62176799 C13.3846198,9.65571767 13.4336462,9.68772199 13.4839152,9.71781232 C13.5340911,9.74821642 13.5855718,9.77667516 13.6368351,9.80381608 C13.6881605,9.83076874 13.7391752,9.85652907 13.7890093,9.88062644 C13.8389056,9.9045983 13.8874037,9.92734647 13.9337581,9.94814928 C13.9801747,9.9687952 14.0242922,9.98777815 14.0653028,10.0050354 C14.1063134,10.0219788 14.1439064,10.0370397 14.1777713,10.0501238 C14.2116361,10.0626432 14.2411513,10.0738447 14.2656955,10.082034 C14.2902398,10.0903802 14.3095023,10.0966556 14.3231725,10.1005149 C14.336532,10.104437 14.3436778,10.1065393 14.3436778,10.1065393 C14.3436778,10.1065393 14.3362213,10.1057235 14.3222405,10.1042488 C14.3082596,10.1024603 14.288065,10.0999501 14.262278,10.0948671 C14.236491,10.0901292 14.2054224,10.0833832 14.1703148,10.0744408 C14.1348965,10.0653729 14.0951287,10.0546735 14.0525646,10.0409932 C14.0096899,10.0275639 13.9633976,10.0124717 13.9153344,9.99424177 C13.867147,9.97629425 13.816474,9.95680927 13.7649622,9.93443762 C13.7134193,9.91216011 13.6605715,9.88793723 13.6077549,9.86132972 C13.5548139,9.8350046 13.5020593,9.80598108 13.4502058,9.77501219 C13.3985697,9.74366679 13.3478346,9.71031327 13.3002995,9.67319454 C13.2764078,9.65490187 13.2536034,9.6351345 13.2317932,9.61455133 C13.2210124,9.60407149 13.2105422,9.5932465 13.2003207,9.582296 C13.1905651,9.57059246 13.1804057,9.55979885 13.1718307,9.5470285 C13.167419,9.54062763 13.162914,9.5351367 13.1586887,9.5281083 C13.1546187,9.52098577 13.1505487,9.51386324 13.1464787,9.50680346 C13.1442417,9.503101 13.1430611,9.50002608 13.1417563,9.49685702 L13.1377795,9.48738123 L13.1358532,9.48267472 L13.1348901,9.48029008 L13.134393,9.47912914 C13.1329017,9.47533255 13.1338648,9.47768581 13.133492,9.47665037 L13.1332745,9.47596008 L13.1301987,9.46482133 C13.1220587,9.43570367 13.1193247,9.40175399 13.1313483,9.3706596 C13.1335852,9.36272128 13.1385873,9.35603802 13.1423466,9.34897825 C13.1468515,9.34248325 13.1519157,9.33639616 13.1570731,9.33081109 C13.1679471,9.32026849 13.1796289,9.31154575 13.1917457,9.30533314 C13.215886,9.29246866 13.2400574,9.28572265 13.2629861,9.28089063 C13.3089677,9.27179136 13.3508482,9.27138347 13.3875714,9.27232477 C13.4242945,9.27326607 13.4559845,9.27693716 13.4819579,9.28029447 C13.5079002,9.28362041 13.5280948,9.28760526 13.5418272,9.29020953 C13.5555285,9.29293931 13.5627675,9.29479054 13.5627675,9.29479054" id="Fill-106" fill="#CF7370"></path>
            <path d="M13.2166006,8.7072603 C13.2166006,8.7072603 13.2238707,8.70964494 13.2372302,8.71485348 C13.2505276,8.72018753 13.270194,8.72781209 13.2945518,8.7388881 C13.3434228,8.76075771 13.4119913,8.79511529 13.4904397,8.84390619 C13.5685773,8.8929481 13.6568744,8.95639195 13.7420335,9.03784608 C13.7525037,9.04823179 13.7630981,9.05871164 13.7737235,9.06925423 C13.7839762,9.08029886 13.794291,9.09140624 13.8046679,9.10260775 C13.8148584,9.1140289 13.8247693,9.12588933 13.8349288,9.13765562 C13.8448707,9.14961017 13.8541603,9.16234915 13.8638537,9.17477435 C13.9017885,9.22535373 13.9355912,9.28164367 13.9615335,9.34314217 C13.9674365,9.35879918 13.9730289,9.37455032 13.9786213,9.3903956 C13.9829709,9.40671153 13.9882525,9.42277644 13.9919808,9.439312 C13.994777,9.45609858 13.9991266,9.47250864 14.0003693,9.48954623 L14.0028548,9.5149928 L14.0047189,9.53745858 C14.005651,9.55223704 14.0062723,9.56801956 14.0081365,9.58031926 L14.0100006,9.59996113 L14.0131075,9.61994814 C14.0171464,9.64671253 14.0236708,9.67219048 14.0305059,9.69710364 C14.0457295,9.74627106 14.0665455,9.79129674 14.0938859,9.82935678 C14.1072454,9.84852799 14.1221584,9.86619312 14.1380034,9.88197564 C14.1535377,9.89804056 14.1703148,9.91234837 14.1870919,9.92511872 C14.220646,9.9510987 14.2557536,9.9705523 14.2877543,9.98674272 C14.3200657,10.0026194 14.3495809,10.0147622 14.3738144,10.0246459 C14.3986693,10.0345609 14.4179319,10.042311 14.4312914,10.0476137 C14.4446509,10.0530419 14.451486,10.056305 14.451486,10.056305 C14.451486,10.056305 14.4440295,10.0556148 14.429738,10.0543283 C14.4154464,10.0527908 14.3946304,10.0514416 14.3679114,10.0479902 C14.341503,10.0446329 14.3091916,10.0395498 14.2722199,10.0302623 C14.2352483,10.0205355 14.1936163,10.0068866 14.1507415,9.98398156 C14.1075561,9.96142166 14.0634387,9.92938596 14.0249135,9.88655665 C13.985767,9.84394698 13.9537663,9.79060646 13.9311794,9.73218289 C13.9201501,9.7029711 13.9107984,9.67250425 13.9043051,9.64140986 C13.897035,9.61119402 13.8924368,9.57542448 13.8898892,9.54734226 L13.8887707,9.53614075 L13.8873726,9.52497062 L13.8848872,9.50545426 C13.8843901,9.49892789 13.8826191,9.49246427 13.8813143,9.48596928 L13.8773375,9.46642154 C13.8742617,9.45343155 13.8699121,9.44056707 13.8663392,9.42757709 L13.8519855,9.38920328 C13.8312005,9.33824739 13.8025552,9.28936236 13.7708342,9.24292472 C13.7387713,9.19664397 13.7034152,9.15281061 13.6669406,9.11183253 C13.5936808,9.03003326 13.5171587,8.95905898 13.4498951,8.89959997 C13.3823208,8.84042336 13.3237253,8.79260515 13.2822797,8.75937713 C13.2614327,8.74274744 13.2450906,8.72972608 13.2339059,8.72081507 C13.2226279,8.71196682 13.2166006,8.7072603 13.2166006,8.7072603" id="Fill-107" fill="#1C1C1D"></path>
            <path d="M13.2343719,9.115786 C13.2343719,9.115786 13.5502157,9.19573404 13.6825992,9.39067799 C13.8149827,9.58565331 13.9202743,9.77005466 14.0143502,9.85417582 C14.0143502,9.85417582 13.9624656,9.70077473 13.9515605,9.48879319 C13.9406243,9.27678027 13.6624046,8.9752494 13.5018108,8.8956465 C13.341248,8.8160436 13.2343719,9.115786 13.2343719,9.115786" id="Fill-108" fill="#1C1C1D"></path>
            <path d="M13.1136391,8.37206214 C13.1136391,8.37206214 13.3806741,8.66599983 13.5142693,8.77622647 C13.6478955,8.8864531 13.9724075,9.16658501 13.9804854,9.5091881 C13.9882525,9.85182256 13.864444,9.65778854 13.864444,9.65778854 C13.864444,9.65778854 13.7781042,9.43793142 13.1639393,9.09294371 C12.5497432,8.74798736 13.027144,8.61372611 13.027144,8.61372611 L13.1136391,8.37206214" id="Fill-109" fill="#1C1C1D"></path>
            <path d="M17.8870567,4.5341169 L17.8914063,4.53719183 C17.9050765,4.55134276 17.9954863,4.6453476 18.1352952,4.78108356 C18.2086172,4.85234023 18.3114544,4.96849708 18.3978252,5.06956169 C18.4118061,5.08559523 18.4363503,5.06755358 18.425787,5.04932367 C18.3801161,4.97185439 18.3350665,4.88735672 18.3105223,4.8202104 C18.2490064,4.65093266 18.222598,4.32925789 18.0983235,4.15147705 C17.9749809,3.97448062 17.7046837,4.44164953 17.8870567,4.5341169" id="Fill-110" fill="#28292B"></path>
            <path d="M17.6938097,4.4292557 C17.6938097,4.4292557 17.9143971,4.56150884 18.0616625,4.7092621 C18.2092385,4.85698399 18.0964593,4.55924971 18.0964593,4.55924971 L17.9886512,4.42822027 L17.8823964,4.37487974 L17.6938097,4.4292557" id="Fill-111" fill="#28292B"></path>
            <path d="M14.5592942,12.1633187 C14.5592942,12.1633187 14.4191746,12.3896708 13.718732,12.1067464 C13.0183827,11.8238219 11.4775954,11.4277214 9.46055689,11.5125956 C7.44351838,11.5975012 5.4264488,10.6318494 4.27787209,10.6337006 C4.27787209,10.6337006 5.17432675,9.59939635 5.90270004,8.45681083 C6.63107333,7.31425668 8.59209508,4.46781776 9.54459757,4.43954728 C10.497069,4.41124543 11.1414016,3.73222048 11.8977988,2.99662321 C12.654196,2.26102593 13.5786746,1.92152914 14.0550501,1.78005123 C14.5310217,1.6386047 15.1483557,0.970185111 15.1483557,0.970185111 C15.1483557,0.970185111 14.0379624,0.965133449 13.3282613,0.970185111 C12.6536057,0.974985758 10.9733513,1.35568026 10.0208488,2.06297568 C9.03724661,2.79336441 7.85940325,3.19131614 6.85958321,3.897482 C5.43191688,4.90586902 4.04072513,6.03110318 2.71424937,7.16458943 C1.64231901,8.08057183 0.306305176,9.25685602 0.0225863182,10.7222145 C-0.0269992378,10.9783118 0.00577818174,11.2431632 0.113834926,11.4801834 C0.357506302,12.0145928 0.990001759,13.0461672 2.44566094,13.7711278 C4.49072337,14.7896495 7.70337652,15.5805013 9.35622838,16.1463502 C11.0090803,16.7121991 12.1313107,17.7080668 12.4488012,19.5190719 C12.7662606,21.3300456 14.6152178,16.5846838 14.6152178,16.4251957 C14.6152178,16.2657075 14.5592942,12.1633187 14.5592942,12.1633187" id="Fill-112" fill="#EFAA9E"></path>
            <path d="M10.4395299,13.6187621 C10.4395299,13.6187621 10.4825599,13.6925289 10.5579014,13.8216444 C10.596178,13.8856217 10.6426256,13.9633106 10.6959083,14.0524206 C10.7496571,14.1411228 10.8115147,14.2403362 10.8793376,14.3480527 C10.9130781,14.4020207 10.9495217,14.457338 10.9864933,14.5150399 C11.0237447,14.5725222 11.0634504,14.6311026 11.10356,14.6917226 C11.144757,14.7514953 11.1870414,14.8128683 11.2303201,14.8756219 C11.2753696,14.9369321 11.3200774,15.0004701 11.3671153,15.0637257 C11.3911624,15.0949456 11.4153649,15.1263851 11.4397849,15.1580757 C11.4639563,15.1898917 11.4880655,15.2221471 11.5142253,15.2528649 C11.5658614,15.3148655 11.616379,15.379282 11.6718987,15.4393372 C11.6992702,15.4697726 11.7262999,15.5008357 11.7541685,15.5310829 C11.7829691,15.5601378 11.811894,15.5892868 11.84085,15.61853 L11.8841286,15.6625516 L11.9304209,15.7078283 C11.9606507,15.7366949 11.9915951,15.769515 12.0221977,15.8005153 C12.1416255,15.9267127 12.2536901,16.0585266 12.3576458,16.1931957 C12.3838056,16.2267061 12.4089401,16.2607499 12.4344475,16.2942603 C12.4589917,16.3284924 12.4837845,16.3622538 12.5077074,16.396329 C12.5554599,16.4645108 12.6020939,16.5322219 12.6455279,16.600435 C12.73339,16.7361396 12.8127393,16.8709028 12.8833583,17.0012106 C12.9538531,17.1315811 13.0152758,17.2577472 13.0671294,17.3764456 C13.1190761,17.4950812 13.1607703,17.6065315 13.1932059,17.7068744 C13.2261387,17.8069978 13.2482285,17.8966098 13.2617123,17.9712238 C13.2681746,18.008625 13.2738291,18.0419157 13.2759107,18.0713785 C13.2792661,18.1005903 13.279701,18.1256917 13.2803845,18.145867 C13.2809749,18.155939 13.280602,18.1648813 13.280136,18.1726 C13.2797632,18.1802873 13.2794525,18.186751 13.2792039,18.1919595 C13.2787068,18.2023138 13.2784583,18.2076793 13.2784583,18.2076793 C13.2784583,18.2076793 13.2777437,18.2023452 13.2764078,18.1920223 C13.274699,18.181762 13.2737669,18.1664816 13.269728,18.1469024 C13.2632657,18.1074932 13.2483838,18.0509209 13.2258591,17.9805427 C13.2030236,17.9101646 13.1690035,17.8268906 13.1268744,17.7330427 C13.0841861,17.6393516 13.0313694,17.5358396 12.9705059,17.4248599 C12.8486857,17.2028692 12.6917891,16.9520746 12.5093229,16.6945026 C12.4635899,16.6301802 12.4163034,16.5654185 12.3676189,16.5005627 C12.3185615,16.4359579 12.2681992,16.3712276 12.216501,16.3068424 C12.112421,16.1786997 12.0034633,16.0511844 11.8883229,15.9309486 C11.8593358,15.9012661 11.832244,15.8718347 11.8012685,15.8418385 L11.7568093,15.7977855 L11.7111695,15.7508772 C11.6809397,15.7195004 11.650741,15.6882178 11.6206665,15.6569979 C11.5919902,15.6246798 11.5644012,15.5917656 11.5364083,15.5593534 C11.4791799,15.4954388 11.429004,15.4273199 11.3777719,15.3612717 C11.3517363,15.3285457 11.328031,15.2945961 11.3042013,15.2610543 C11.280527,15.2274497 11.2570391,15.1940649 11.2337065,15.1609937 C11.1886259,15.0938474 11.145192,15.02736 11.1032804,14.961908 C11.0631708,14.8953579 11.0227194,14.8311296 10.9857166,14.7671524 C10.9495217,14.7027358 10.9129539,14.6409549 10.8801454,14.5797388 C10.8477719,14.5182717 10.8151498,14.4597226 10.7863491,14.4021776 C10.7577349,14.3444757 10.7289654,14.2900056 10.7041415,14.2368534 C10.6792555,14.1837325 10.6549288,14.133812 10.6334293,14.0861821 C10.5893739,13.9914869 10.5540178,13.9074913 10.5250308,13.8383682 C10.4959195,13.7693079 10.4752588,13.714022 10.4607187,13.6766209 C10.4465203,13.6390002 10.4395299,13.6187621 10.4395299,13.6187621" id="Fill-113" fill="#E59386"></path>
            <path d="M24.1306114,17.0694551 C23.6739023,15.9030546 23.4937042,15.7210379 23.3330793,14.4845103 C23.1864353,13.3535969 22.9099244,12.397264 22.9099244,12.397264 C22.6237822,11.9009461 22.1804326,12.0128357 22.1804326,12.0128357 C22.1804326,12.0128357 22.2484729,12.3464022 22.3043965,12.9256176 C22.4749634,14.6888673 21.7523067,16.2604048 19.8589835,16.6701542 C18.4490885,16.975262 16.6952635,16.8393692 15.7883698,15.5570001 C15.0591887,14.5258021 14.781435,14.1735036 14.9019814,12.9256176 C14.9579049,12.3464022 15.0197315,12.0128357 15.0197315,12.0128357 C15.0197315,12.0128357 14.7025207,11.7251733 14.4160678,12.2214913 C14.4160678,12.2214913 14.0090685,13.3535969 13.8623624,14.4845103 C13.701986,15.7210379 13.5207626,15.9030546 13.0640536,17.0694551 C12.7049311,17.9866612 12.3592925,19.0007588 12.4671007,20.0201905 C12.5374401,20.6852527 12.8502392,21.278117 13.11541,21.8795158 C13.3590504,22.4321237 13.4989525,23.0231054 13.6515927,23.6057722 C13.6876323,23.7432025 13.9602908,25.1008759 13.8867202,25.08456 C17.1007093,25.7936752 20.123067,25.8005781 23.3318366,25.08456 C23.2582039,25.1008759 23.5188698,23.7432025 23.5549094,23.6057722 C23.7074565,23.0231054 23.8351486,22.4321237 24.0787268,21.8795158 C24.344053,21.278117 24.6569142,20.6852527 24.7274401,20.0201905 C24.8352483,19.0007588 24.4897649,17.9866612 24.1306114,17.0694551" id="Fill-114" fill="#DC3965"></path>
            <path d="M12.6385685,20.4616304 C12.6385685,20.4616304 12.660534,20.5117391 12.7016689,20.6056812 C12.738827,20.7020079 12.812149,20.8331315 12.9039569,20.9939375 C13.0047435,21.1514803 13.1320628,21.3388311 13.3125717,21.5186514 C13.4920242,21.6983463 13.7178,21.8738052 13.9879418,22.014687 C14.2588604,22.1542823 14.5757606,22.2523347 14.9175157,22.2959485 C15.2608242,22.3384954 15.6240166,22.316061 15.9971511,22.2399409 C16.357858,22.1631305 16.7390703,22.0048974 17.1460695,21.8665886 C17.5474764,21.7274639 18.0128847,21.5898767 18.4739434,21.580401 C18.9794302,21.5799303 19.415634,21.6960244 19.83475,21.8274304 C20.2504484,21.9554476 20.6319714,22.1134297 21.0044844,22.2028536 C21.3776189,22.2995882 21.7280732,22.3302119 22.0825664,22.3023807 C22.4249428,22.2764635 22.7511636,22.1951662 23.0329562,22.0788211 C23.6002697,21.8427422 23.9963949,21.4729668 24.2222639,21.1784957 C24.3378393,21.0321858 24.4211032,20.9077769 24.4711237,20.8196395 C24.5226977,20.7313452 24.5500381,20.6842801 24.5500381,20.6842801 C24.5500381,20.6842801 24.5326397,20.7361459 24.5000176,20.8333825 C24.4667741,20.9304937 24.4145788,21.074419 24.3191981,21.2436653 C24.1411747,21.5842917 23.7829533,22.0524333 23.1786682,22.3847448 C22.878545,22.5508221 22.5265373,22.6827301 22.1316548,22.7405888 C21.751064,22.8038131 21.3089571,22.8045661 20.8941907,22.7105926 C20.4753854,22.6256243 20.0686969,22.4944066 19.6716396,22.3730412 C19.2801747,22.2526171 18.866651,22.1657976 18.5062548,22.1698138 C18.100809,22.171665 17.7261211,22.2775617 17.3244035,22.4075243 C16.9267249,22.5387734 16.5219005,22.6749172 16.0866288,22.7509432 C15.6653379,22.8218547 15.2353479,22.8094609 14.8476112,22.7292932 C14.4573891,22.6521377 14.1066241,22.4976698 13.8197362,22.3059263 C13.5302697,22.1164105 13.3090609,21.885697 13.1439311,21.6650241 C12.9744516,21.4457946 12.8766475,21.2243686 12.8005915,21.0461171 C12.7302831,20.8626884 12.6904531,20.7157823 12.6716877,20.6155335 C12.650095,20.5151592 12.6385685,20.4616304 12.6385685,20.4616304" id="Fill-115" fill="#CA295A"></path>
            <path d="M6.54526174,7.49382601 C6.54526174,7.49382601 6.53454306,7.51378164 6.51444164,7.55118276 C6.49384313,7.58823874 6.46457647,7.64327362 6.42524357,7.71192602 C6.38622135,7.78079806 6.33915235,7.86463682 6.28298025,7.9593947 C6.2273363,8.0545291 6.16429802,8.16168081 6.0937722,8.27746114 C6.02333959,8.39327284 5.94597866,8.51812106 5.86287004,8.64933876 C5.77951287,8.78043096 5.69068761,8.9180809 5.59651855,9.05908816 C5.54951169,9.12965454 5.50157278,9.20125636 5.45173867,9.27301506 C5.42697696,9.30897285 5.40205991,9.34518166 5.37701858,9.38154735 C5.35141802,9.41756789 5.32569318,9.4537767 5.29984407,9.49011101 C5.24842546,9.56290515 5.19480098,9.63557377 5.14077261,9.7081169 C5.08547043,9.77949907 5.02991969,9.85113227 4.97436895,9.92279684 C4.91791723,9.99364561 4.86438595,10.0638982 4.80908377,10.1349353 C4.78149481,10.1705165 4.75418547,10.2060664 4.72622369,10.2412084 C4.69810657,10.2763818 4.67005159,10.3114297 4.64212087,10.346352 C4.58517205,10.4157261 4.52872032,10.4846295 4.46897532,10.5500501 C4.45427985,10.5665543 4.43961545,10.5829957 4.42501319,10.5994058 C4.41037986,10.6157844 4.3947834,10.6313473 4.37977724,10.647224 C4.34936104,10.6787263 4.31975262,10.7104482 4.28874612,10.7404444 C4.25739785,10.7700955 4.22629814,10.7994955 4.19550912,10.8286132 C4.18774195,10.8358298 4.18025441,10.8432661 4.17233191,10.8502318 L4.14834691,10.8707836 C4.13231549,10.8843383 4.11634621,10.8978303 4.1005012,10.9112282 C4.03823964,10.9662317 3.97187702,11.0134538 3.90893194,11.0610524 C3.89339762,11.0732266 3.87680696,11.0837378 3.86058913,11.0944686 C3.84434023,11.1051681 3.8282156,11.1158048 3.81224632,11.1263474 C3.79624597,11.13689 3.78040096,11.1473385 3.76464916,11.1577242 C3.74880415,11.1678903 3.73367372,11.1788722 3.71730055,11.1875949 C3.6851445,11.205919 3.65354769,11.2239292 3.62251011,11.2415944 C3.60703793,11.2504112 3.59169002,11.259134 3.57649745,11.267794 C3.56888563,11.2720612 3.56142916,11.2765481 3.55378627,11.2805643 C3.54598804,11.2843295 3.53825195,11.2880948 3.53054693,11.29186 C3.49982004,11.3067953 3.46971452,11.3214169 3.44029251,11.3357247 C3.41074623,11.3497188 3.3825359,11.3646541 3.35389062,11.3766714 C3.29638255,11.4000157 3.24185708,11.4221364 3.19059382,11.4429706 C3.17779354,11.4480536 3.16530395,11.453419 3.15281435,11.4580628 C3.14020048,11.4623928 3.12777302,11.4666286 3.11556305,11.4708331 C3.0912363,11.4792421 3.06768627,11.4871177 3.04500616,11.4944912 C2.999677,11.5092383 2.95838678,11.5235148 2.92066944,11.5349987 C2.84452019,11.5560525 2.7843713,11.5708937 2.74367138,11.5816873 C2.70281611,11.5919789 2.68103699,11.5975012 2.68103699,11.5975012 C2.68103699,11.5975012 2.70166657,11.5884333 2.74034703,11.5714271 C2.77915177,11.5549543 2.83560349,11.5297587 2.90790023,11.499888 C2.94356703,11.4836976 2.98243391,11.464244 3.02496688,11.4439746 C3.0461557,11.433683 3.06827657,11.4231091 3.09129843,11.4124409 C3.10276276,11.4070755 3.11447564,11.401616 3.12637493,11.3960309 C3.13811888,11.3901634 3.14976962,11.3835743 3.16176212,11.3772048 C3.20951463,11.3515072 3.26031186,11.3241781 3.3138742,11.2953742 C3.366287,11.2646877 3.42056393,11.2311773 3.47745061,11.1970707 C3.48453426,11.1927721 3.49168005,11.1884735 3.49885691,11.1841435 C3.50590949,11.1796252 3.51277566,11.1747304 3.51979717,11.1700239 C3.53380913,11.1605168 3.54794537,11.1509155 3.56220587,11.14122 C3.59069582,11.1218606 3.61971393,11.1021559 3.64922915,11.0821062 C3.67846474,11.0617113 3.70667507,11.0388062 3.73615921,11.0168425 C3.75079254,11.0057351 3.76551908,10.9945022 3.78036989,10.9832379 C3.79518964,10.9719423 3.81035113,10.9608977 3.8244563,10.9481901 C3.8815294,10.8984265 3.94270356,10.8507652 3.99909315,10.7946635 C4.013509,10.781046 4.02798699,10.7673657 4.04258925,10.7535913 L4.06461692,10.7330709 C4.07185591,10.7261052 4.07872208,10.7186375 4.0858368,10.7114209 C4.1140782,10.6823346 4.14253708,10.6529973 4.17127557,10.6233776 C4.19976552,10.5935383 4.2266399,10.5614399 4.25503664,10.5305651 C4.26895539,10.514814 4.28340231,10.4995648 4.29704144,10.4833117 C4.31068058,10.4670271 4.32431971,10.4507112 4.33802099,10.4343011 C4.36533032,10.4014183 4.39335424,10.3690374 4.41991793,10.3345543 C4.44691658,10.3005419 4.47441233,10.2668746 4.50141099,10.2322347 C4.52825429,10.1973437 4.55519081,10.1623272 4.58222053,10.1272166 C4.60918811,10.0917922 4.63627997,10.0562737 4.6634029,10.0206924 C4.7179905,9.94971812 4.77319948,9.87613956 4.82881236,9.80585557 C4.88414561,9.73538332 4.9394478,9.66491107 4.99456357,9.5947212 C5.0478463,9.52327627 5.10268246,9.45365119 5.15472243,9.38220626 C5.26023155,9.24075973 5.36254059,9.09968971 5.46192919,8.96351448 C5.66055103,8.69034821 5.84590656,8.43538048 6.00479161,8.2168412 C6.08451375,8.10758724 6.15864353,8.00812284 6.22404303,7.91973445 C6.28903863,7.83103228 6.34719913,7.75469257 6.39454775,7.69143698 C6.44170995,7.62805588 6.48001759,7.57907672 6.50552494,7.54528393 C6.53143619,7.51174215 6.54526174,7.49382601 6.54526174,7.49382601" id="Fill-116" fill="#E59386"></path>
        </g>
    </g>
</svg>